<?xml version="1.0" encoding="UTF-8" standalone="no"?>
<svg
   xmlns:dc="http://purl.org/dc/elements/1.1/"
   xmlns:cc="http://creativecommons.org/ns#"
   xmlns:rdf="http://www.w3.org/1999/02/22-rdf-syntax-ns#"
   xmlns:svg="http://www.w3.org/2000/svg"
   xmlns="http://www.w3.org/2000/svg"
   xmlns:sodipodi="http://sodipodi.sourceforge.net/DTD/sodipodi-0.dtd"
   xmlns:inkscape="http://www.inkscape.org/namespaces/inkscape"
   version="1.1"
   viewBox="0 0 396.39856 365.14197"
   stroke-miterlimit="10"
   id="svg1172"
   sodipodi:docname="cheops-architecture.svg"
   width="396.39856"
   height="365.14197"
   style="fill:none;stroke:none;stroke-linecap:square;stroke-miterlimit:10"
   inkscape:version="0.92.5 (2060ec1f9f, 2020-04-08)">
  <metadata
     id="metadata1178">
    <rdf:RDF>
      <cc:Work
         rdf:about="">
        <dc:format>image/svg+xml</dc:format>
        <dc:type
           rdf:resource="http://purl.org/dc/dcmitype/StillImage" />
        <dc:title></dc:title>
      </cc:Work>
    </rdf:RDF>
  </metadata>
  <defs
     id="defs1176" />
  <sodipodi:namedview
     pagecolor="#ffffff"
     bordercolor="#666666"
     borderopacity="1"
     objecttolerance="10"
     gridtolerance="10"
     guidetolerance="10"
     inkscape:pageopacity="0"
     inkscape:pageshadow="2"
     inkscape:window-width="1920"
     inkscape:window-height="1027"
     id="namedview1174"
     showgrid="false"
     fit-margin-top="0"
     fit-margin-left="0"
     fit-margin-right="0"
     fit-margin-bottom="0"
     inkscape:zoom="1.32"
     inkscape:cx="97.753994"
     inkscape:cy="239.58635"
     inkscape:window-x="1920"
     inkscape:window-y="25"
     inkscape:window-maximized="1"
     inkscape:current-layer="g1170" />
  <clipPath
     id="p.0">
    <path
       d="M 0,0 H 960 V 540 H 0 Z"
       id="path1091"
       inkscape:connector-curvature="0"
       style="clip-rule:nonzero" />
  </clipPath>
  <g
     clip-path="url(#p.0)"
     id="g1170"
     transform="translate(-298.03125,-130.23228)">
    <path
       d="m 298.53125,336.65515 v 0 c 0,-17.47684 14.16775,-31.64459 31.64459,-31.64459 h 332.10938 c 8.3927,0 16.44159,3.33398 22.3761,9.26849 5.93451,5.93451 9.26849,13.98343 9.26849,22.3761 v 126.57452 c 0,17.47681 -14.16778,31.64457 -31.64459,31.64457 H 330.17584 c -17.47683,0 -31.64459,-14.16776 -31.64459,-31.64457 z"
       id="path1096"
       inkscape:connector-curvature="0"
       style="fill:#eeeeee;fill-rule:evenodd" />
    <path
       d="m 298.53125,336.65515 v 0 c 0,-17.47684 14.16775,-31.64459 31.64459,-31.64459 h 332.10938 c 8.3927,0 16.44159,3.33398 22.3761,9.26849 5.93451,5.93451 9.26849,13.98343 9.26849,22.3761 v 126.57452 c 0,17.47681 -14.16778,31.64457 -31.64459,31.64457 H 330.17584 c -17.47683,0 -31.64459,-14.16776 -31.64459,-31.64457 z"
       id="path1098"
       inkscape:connector-curvature="0"
       style="fill-rule:evenodd;stroke:#595959;stroke-width:1;stroke-linecap:butt;stroke-linejoin:round" />
    <path
       d="m 531.833,408.57953 v 0 c 0,3.98779 28.48267,7.22052 63.6178,7.22052 35.13513,0 63.6178,-3.23273 63.6178,-7.22052 v 43.32306 c 0,3.98779 -28.48267,7.22052 -63.6178,7.22052 -35.13513,0 -63.6178,-3.23273 -63.6178,-7.22052 z"
       id="path1100"
       inkscape:connector-curvature="0"
       style="fill:#9900ff;fill-rule:evenodd" />
    <path
       d="m 531.833,408.57953 v 0 c 0,-3.98776 28.48267,-7.22049 63.6178,-7.22049 35.13513,0 63.6178,3.23273 63.6178,7.22049 v 0 c 0,3.98779 -28.48267,7.22052 -63.6178,7.22052 -35.13513,0 -63.6178,-3.23273 -63.6178,-7.22052 z"
       id="path1102"
       inkscape:connector-curvature="0"
       style="fill:#c166ff;fill-rule:evenodd" />
    <path
       d="m 659.0686,408.57953 v 0 c 0,3.98779 -28.48267,7.22052 -63.6178,7.22052 -35.13513,0 -63.6178,-3.23273 -63.6178,-7.22052 v 0 c 0,-3.98776 28.48267,-7.22049 63.6178,-7.22049 35.13513,0 63.6178,3.23273 63.6178,7.22049 v 43.32306 c 0,3.98779 -28.48267,7.22052 -63.6178,7.22052 -35.13513,0 -63.6178,-3.23273 -63.6178,-7.22052 v -43.32306"
       id="path1104"
       inkscape:connector-curvature="0"
       style="fill:#000000;fill-opacity:0;fill-rule:evenodd" />
    <path
       d="m 659.0686,408.57953 v 0 c 0,3.98779 -28.48267,7.22052 -63.6178,7.22052 -35.13513,0 -63.6178,-3.23273 -63.6178,-7.22052 v 0 c 0,-3.98776 28.48267,-7.22049 63.6178,-7.22049 35.13513,0 63.6178,3.23273 63.6178,7.22049 v 43.32306 c 0,3.98779 -28.48267,7.22052 -63.6178,7.22052 -35.13513,0 -63.6178,-3.23273 -63.6178,-7.22052 v -43.32306"
       id="path1106"
       inkscape:connector-curvature="0"
       style="fill-rule:evenodd;stroke:#595959;stroke-width:1;stroke-linecap:butt;stroke-linejoin:round" />
    <path
       d="m 583.93005,440.77133 v -13.35938 h 4.60938 q 1.54687,0 2.375,0.20313 1.14062,0.25 1.95312,0.95312 1.0625,0.89063 1.57813,2.28125 0.53125,1.39063 0.53125,3.17188 0,1.51562 -0.35938,2.70312 -0.35937,1.17188 -0.92187,1.9375 -0.54688,0.76563 -1.20313,1.21875 -0.65625,0.4375 -1.59375,0.67188 -0.9375,0.21875 -2.14062,0.21875 z m 1.76563,-1.57813 h 2.85937 q 1.3125,0 2.0625,-0.23437 0.75,-0.25 1.20313,-0.70313 0.625,-0.625 0.96875,-1.6875 0.35937,-1.0625 0.35937,-2.57812 0,-2.09375 -0.6875,-3.21875 -0.6875,-1.125 -1.67187,-1.5 -0.70313,-0.28125 -2.28125,-0.28125 h -2.8125 z m 11.62921,1.57813 v -13.35938 h 5.01562 q 1.53125,0 2.45313,0.40625 0.92187,0.40625 1.4375,1.25 0.53125,0.84375 0.53125,1.76563 0,0.85937 -0.46875,1.625 -0.45313,0.75 -1.39063,1.20312 1.20313,0.35938 1.85938,1.21875 0.65625,0.85938 0.65625,2.01563 0,0.9375 -0.40625,1.75 -0.39063,0.79687 -0.98438,1.23437 -0.57812,0.4375 -1.45312,0.67188 -0.875,0.21875 -2.15625,0.21875 z m 1.78125,-7.75 h 2.875 q 1.1875,0 1.6875,-0.14063 0.67187,-0.20312 1.01562,-0.67187 0.34375,-0.46875 0.34375,-1.17188 0,-0.65625 -0.32812,-1.15625 -0.3125,-0.51562 -0.90625,-0.70312 -0.59375,-0.1875 -2.03125,-0.1875 h -2.65625 z m 0,6.17187 h 3.3125 q 0.85937,0 1.20312,-0.0625 0.60938,-0.10937 1.01563,-0.35937 0.42187,-0.26563 0.6875,-0.75 0.26562,-0.48438 0.26562,-1.125 0,-0.75 -0.39062,-1.29688 -0.375,-0.54687 -1.0625,-0.76562 -0.67188,-0.23438 -1.95313,-0.23438 h -3.07812 z"
       id="path1108"
       inkscape:connector-curvature="0"
       style="fill:#000000;fill-rule:nonzero" />
    <path
       d="m 322.91095,333.1656 h 167.62262 v 51.98541 H 322.91095 Z"
       id="path1110"
       inkscape:connector-curvature="0"
       style="fill:#0097a7;fill-rule:evenodd" />
    <path
       d="m 322.91095,333.1656 h 167.62262 v 51.98541 H 322.91095 Z"
       id="path1112"
       inkscape:connector-curvature="0"
       style="fill-rule:evenodd;stroke:#595959;stroke-width:1;stroke-linecap:butt;stroke-linejoin:round" />
    <path
       d="m 380.3606,361.39078 1.76562,0.45312 q -0.5625,2.17188 -2,3.32813 -1.4375,1.14062 -3.53125,1.14062 -2.15625,0 -3.51562,-0.875 -1.34375,-0.89062 -2.0625,-2.54687 -0.70313,-1.67188 -0.70313,-3.59375 0,-2.07813 0.79688,-3.625 0.79687,-1.5625 2.26562,-2.35938 1.48438,-0.8125 3.25,-0.8125 2,0 3.35938,1.01563 1.375,1.01562 1.90625,2.875 l -1.73438,0.40625 q -0.46875,-1.45313 -1.35937,-2.10938 -0.875,-0.67187 -2.20313,-0.67187 -1.54687,0 -2.57812,0.73437 -1.03125,0.73438 -1.45313,1.98438 -0.42187,1.23437 -0.42187,2.5625 0,1.70312 0.5,2.96875 0.5,1.26562 1.54687,1.90625 1.04688,0.625 2.26563,0.625 1.48437,0 2.51562,-0.85938 1.03125,-0.85937 1.39063,-2.54687 z m 3.12918,-0.15625 q 0,-2.6875 1.48438,-3.96875 1.25,-1.07813 3.04687,-1.07813 2,0 3.26563,1.3125 1.26562,1.29688 1.26562,3.60938 0,1.85937 -0.5625,2.9375 -0.5625,1.0625 -1.64062,1.65625 -1.0625,0.59375 -2.32813,0.59375 -2.03125,0 -3.28125,-1.29688 -1.25,-1.3125 -1.25,-3.76562 z m 1.6875,0 q 0,1.85937 0.79688,2.79687 0.8125,0.92188 2.04687,0.92188 1.21875,0 2.03125,-0.92188 0.8125,-0.9375 0.8125,-2.84375 0,-1.79687 -0.8125,-2.71875 -0.8125,-0.92187 -2.03125,-0.92187 -1.23437,0 -2.04687,0.92187 -0.79688,0.90625 -0.79688,2.76563 z m 9.28198,4.84375 v -9.67188 h 1.46875 v 1.46875 q 0.5625,-1.03125 1.03125,-1.35937 0.48438,-0.32813 1.0625,-0.32813 0.82813,0 1.6875,0.53125 l -0.5625,1.51563 q -0.60937,-0.35938 -1.20312,-0.35938 -0.54688,0 -0.96875,0.32813 -0.42188,0.32812 -0.60938,0.89062 -0.28125,0.875 -0.28125,1.92188 v 5.0625 z m 12.8533,-3.10938 1.6875,0.20313 q -0.40625,1.48437 -1.48437,2.3125 -1.07813,0.8125 -2.76563,0.8125 -2.125,0 -3.375,-1.29688 -1.23437,-1.3125 -1.23437,-3.67187 0,-2.45313 1.25,-3.79688 1.26562,-1.34375 3.26562,-1.34375 1.9375,0 3.15625,1.32813 1.23438,1.3125 1.23438,3.70312 0,0.15625 0,0.4375 h -7.21875 q 0.0937,1.59375 0.90625,2.45313 0.8125,0.84375 2.01562,0.84375 0.90625,0 1.54688,-0.46875 0.64062,-0.48438 1.01562,-1.51563 z m -5.39062,-2.65625 h 5.40625 q -0.10938,-1.21875 -0.625,-1.82812 -0.78125,-0.95313 -2.03125,-0.95313 -1.125,0 -1.90625,0.76563 -0.76563,0.75 -0.84375,2.01562 z m 12.02905,5.76563 5.125,-13.35938 h 1.90625 l 5.46875,13.35938 h -2.01562 l -1.54688,-4.04688 h -5.59375 l -1.46875,4.04688 z m 3.85938,-5.48438 h 4.53125 l -1.40625,-3.70312 q -0.625,-1.6875 -0.9375,-2.76563 -0.26563,1.28125 -0.71875,2.54688 z m 10.05295,5.48438 V 352.7189 h 5.04687 q 1.32813,0 2.03125,0.125 0.96875,0.17188 1.64063,0.64063 0.67187,0.45312 1.07812,1.28125 0.40625,0.82812 0.40625,1.82812 0,1.70313 -1.09375,2.89063 -1.07812,1.17187 -3.92187,1.17187 h -3.42188 v 5.42188 z m 1.76562,-7 h 3.45313 q 1.71875,0 2.4375,-0.64063 0.71875,-0.64062 0.71875,-1.79687 0,-0.84375 -0.42188,-1.4375 -0.42187,-0.59375 -1.125,-0.78125 -0.4375,-0.125 -1.64062,-0.125 h -3.42188 z m 10.97482,7 V 352.7189 h 1.76563 v 13.35938 z"
       id="path1114"
       inkscape:connector-curvature="0"
       style="fill:#000000;fill-rule:nonzero" />
    <path
       d="m 501.94135,333.1656 h 167.62262 v 51.98541 H 501.94135 Z"
       id="path1116"
       inkscape:connector-curvature="0"
       style="fill:#0097a7;fill-rule:evenodd" />
    <path
       d="m 501.94135,333.1656 h 167.62262 v 51.98541 H 501.94135 Z"
       id="path1118"
       inkscape:connector-curvature="0"
       style="fill-rule:evenodd;stroke:#595959;stroke-width:1;stroke-linecap:butt;stroke-linejoin:round" />
    <path
       d="M 559.63776,366.07828 V 352.7189 h 5.01562 q 1.53125,0 2.45313,0.40625 0.92187,0.40625 1.4375,1.25 0.53125,0.84375 0.53125,1.76563 0,0.85937 -0.46875,1.625 -0.45313,0.75 -1.39063,1.20312 1.20313,0.35938 1.85938,1.21875 0.65625,0.85938 0.65625,2.01563 0,0.9375 -0.40625,1.75 -0.39063,0.79687 -0.98438,1.23437 -0.57812,0.4375 -1.45312,0.67188 -0.875,0.21875 -2.15625,0.21875 z m 1.78125,-7.75 h 2.875 q 1.1875,0 1.6875,-0.14063 0.67187,-0.20312 1.01562,-0.67187 0.34375,-0.46875 0.34375,-1.17188 0,-0.65625 -0.32812,-1.15625 -0.3125,-0.51562 -0.90625,-0.70312 -0.59375,-0.1875 -2.03125,-0.1875 h -2.65625 z m 0,6.17187 h 3.3125 q 0.85937,0 1.20312,-0.0625 0.60938,-0.10937 1.01563,-0.35937 0.42187,-0.26563 0.6875,-0.75 0.26562,-0.48438 0.26562,-1.125 0,-0.75 -0.39062,-1.29688 -0.375,-0.54687 -1.0625,-0.76562 -0.67188,-0.23438 -1.95313,-0.23438 h -3.07812 z m 10.52173,1.57813 v -9.67188 h 1.46875 v 1.46875 q 0.5625,-1.03125 1.03125,-1.35937 0.48437,-0.32813 1.0625,-0.32813 0.82812,0 1.6875,0.53125 l -0.5625,1.51563 q -0.60938,-0.35938 -1.20313,-0.35938 -0.54687,0 -0.96875,0.32813 -0.42187,0.32812 -0.60937,0.89062 -0.28125,0.875 -0.28125,1.92188 v 5.0625 z m 5.61889,-4.84375 q 0,-2.6875 1.48438,-3.96875 1.25,-1.07813 3.04687,-1.07813 2,0 3.26563,1.3125 1.26562,1.29688 1.26562,3.60938 0,1.85937 -0.5625,2.9375 -0.5625,1.0625 -1.64062,1.65625 -1.0625,0.59375 -2.32813,0.59375 -2.03125,0 -3.28125,-1.29688 -1.25,-1.3125 -1.25,-3.76562 z m 1.6875,0 q 0,1.85937 0.79688,2.79687 0.8125,0.92188 2.04687,0.92188 1.21875,0 2.03125,-0.92188 0.8125,-0.9375 0.8125,-2.84375 0,-1.79687 -0.8125,-2.71875 -0.8125,-0.92187 -2.03125,-0.92187 -1.23437,0 -2.04687,0.92187 -0.79688,0.90625 -0.79688,2.76563 z m 9.29761,4.84375 V 352.7189 h 1.64063 v 7.625 l 3.89062,-3.9375 h 2.10938 l -3.6875,3.59375 4.0625,6.07813 h -2.01563 l -3.20312,-4.95313 -1.15625,1.125 v 3.82813 z m 15.95313,-3.10938 1.6875,0.20313 q -0.40625,1.48437 -1.48438,2.3125 -1.07812,0.8125 -2.76562,0.8125 -2.125,0 -3.375,-1.29688 -1.23438,-1.3125 -1.23438,-3.67187 0,-2.45313 1.25,-3.79688 1.26563,-1.34375 3.26563,-1.34375 1.9375,0 3.15625,1.32813 1.23437,1.3125 1.23437,3.70312 0,0.15625 0,0.4375 h -7.21875 q 0.0937,1.59375 0.90625,2.45313 0.8125,0.84375 2.01563,0.84375 0.90625,0 1.54687,-0.46875 0.64063,-0.48438 1.01563,-1.51563 z m -5.39063,-2.65625 h 5.40625 q -0.10937,-1.21875 -0.625,-1.82812 -0.78125,-0.95313 -2.03125,-0.95313 -1.125,0 -1.90625,0.76563 -0.76562,0.75 -0.84375,2.01562 z m 9.12573,5.76563 v -9.67188 h 1.46875 v 1.46875 q 0.5625,-1.03125 1.03125,-1.35937 0.48438,-0.32813 1.0625,-0.32813 0.82813,0 1.6875,0.53125 l -0.5625,1.51563 q -0.60937,-0.35938 -1.20312,-0.35938 -0.54688,0 -0.96875,0.32813 -0.42188,0.32812 -0.60938,0.89062 -0.28125,0.875 -0.28125,1.92188 v 5.0625 z"
       id="path1120"
       inkscape:connector-curvature="0"
       style="fill:#000000;fill-rule:nonzero" />
    <path
       d="m 411.27823,441.2546 h 138.04721 v 42.01575 H 411.27823 Z"
       id="path1144"
       inkscape:connector-curvature="0"
       style="fill:#000000;fill-opacity:0;fill-rule:evenodd" />
    <path
       d="m 431.24698,463.4871 1.76562,0.45312 q -0.5625,2.17188 -2,3.32813 -1.4375,1.14062 -3.53125,1.14062 -2.15625,0 -3.51562,-0.875 -1.34375,-0.89062 -2.0625,-2.54687 -0.70313,-1.67188 -0.70313,-3.59375 0,-2.07813 0.79688,-3.625 0.79687,-1.5625 2.26562,-2.35938 1.48438,-0.8125 3.25,-0.8125 2,0 3.35938,1.01563 1.375,1.01562 1.90625,2.875 l -1.73438,0.40625 q -0.46875,-1.45313 -1.35937,-2.10938 -0.875,-0.67187 -2.20313,-0.67187 -1.54687,0 -2.57812,0.73437 -1.03125,0.73438 -1.45313,1.98438 -0.42187,1.23437 -0.42187,2.5625 0,1.70312 0.5,2.96875 0.5,1.26562 1.54687,1.90625 1.04688,0.625 2.26563,0.625 1.48437,0 2.51562,-0.85938 1.03125,-0.85937 1.39063,-2.54687 z m 3.73856,4.6875 v -13.35938 h 1.64062 v 4.79688 q 1.14063,-1.32813 2.89063,-1.32813 1.07812,0 1.85937,0.42188 0.79688,0.42187 1.14063,1.17187 0.34375,0.75 0.34375,2.17188 v 6.125 h -1.64063 v -6.125 q 0,-1.23438 -0.53125,-1.79688 -0.53125,-0.5625 -1.51562,-0.5625 -0.71875,0 -1.35938,0.39063 -0.64062,0.375 -0.92187,1.01562 -0.26563,0.64063 -0.26563,1.78125 v 5.29688 z m 17.00073,-3.10938 1.6875,0.20313 q -0.40625,1.48437 -1.48438,2.3125 -1.07812,0.8125 -2.76562,0.8125 -2.125,0 -3.375,-1.29688 -1.23438,-1.3125 -1.23438,-3.67187 0,-2.45313 1.25,-3.79688 1.26563,-1.34375 3.26563,-1.34375 1.9375,0 3.15625,1.32813 1.23437,1.3125 1.23437,3.70312 0,0.15625 0,0.4375 h -7.21875 q 0.0937,1.59375 0.90625,2.45313 0.8125,0.84375 2.01563,0.84375 0.90625,0 1.54687,-0.46875 0.64063,-0.48438 1.01563,-1.51563 z m -5.39063,-2.65625 h 5.40625 q -0.10937,-1.21875 -0.625,-1.82812 -0.78125,-0.95313 -2.03125,-0.95313 -1.125,0 -1.90625,0.76563 -0.76562,0.75 -0.84375,2.01562 z m 8.53195,0.92188 q 0,-2.6875 1.48438,-3.96875 1.25,-1.07813 3.04687,-1.07813 2,0 3.26563,1.3125 1.26562,1.29688 1.26562,3.60938 0,1.85937 -0.5625,2.9375 -0.5625,1.0625 -1.64062,1.65625 -1.0625,0.59375 -2.32813,0.59375 -2.03125,0 -3.28125,-1.29688 -1.25,-1.3125 -1.25,-3.76562 z m 1.6875,0 q 0,1.85937 0.79688,2.79687 0.8125,0.92188 2.04687,0.92188 1.21875,0 2.03125,-0.92188 0.8125,-0.9375 0.8125,-2.84375 0,-1.79687 -0.8125,-2.71875 -0.8125,-0.92187 -2.03125,-0.92187 -1.23437,0 -2.04687,0.92187 -0.79688,0.90625 -0.79688,2.76563 z m 9.29761,8.54687 v -13.375 h 1.48438 v 1.25 q 0.53125,-0.73437 1.1875,-1.09375 0.67187,-0.375 1.625,-0.375 1.23437,0 2.17187,0.64063 0.95313,0.625 1.4375,1.79687 0.48438,1.15625 0.48438,2.54688 0,1.48437 -0.53125,2.67187 -0.53125,1.1875 -1.54688,1.82813 -1.01562,0.625 -2.14062,0.625 -0.8125,0 -1.46875,-0.34375 -0.65625,-0.34375 -1.0625,-0.875 v 4.70312 z m 1.48438,-8.48437 q 0,1.85937 0.75,2.76562 0.76562,0.89063 1.82812,0.89063 1.09375,0 1.875,-0.92188 0.78125,-0.9375 0.78125,-2.875 0,-1.84375 -0.76562,-2.76562 -0.75,-0.92188 -1.8125,-0.92188 -1.04688,0 -1.85938,0.98438 -0.79687,0.96875 -0.79687,2.84375 z m 8.23507,1.89062 1.625,-0.25 q 0.125,0.96875 0.75,1.5 0.625,0.51563 1.75,0.51563 1.125,0 1.67188,-0.45313 0.54687,-0.46875 0.54687,-1.09375 0,-0.54687 -0.48437,-0.875 -0.32813,-0.21875 -1.67188,-0.54687 -1.8125,-0.46875 -2.51562,-0.79688 -0.6875,-0.32812 -1.04688,-0.90625 -0.35937,-0.59375 -0.35937,-1.3125 0,-0.64062 0.29687,-1.1875 0.29688,-0.5625 0.8125,-0.92187 0.375,-0.28125 1.03125,-0.46875 0.67188,-0.20313 1.42188,-0.20313 1.14062,0 2,0.32813 0.85937,0.32812 1.26562,0.89062 0.42188,0.5625 0.57813,1.5 l -1.60938,0.21875 q -0.10937,-0.75 -0.64062,-1.17187 -0.51563,-0.42188 -1.46875,-0.42188 -1.14063,0 -1.625,0.375 -0.46875,0.375 -0.46875,0.875 0,0.3125 0.1875,0.57813 0.20312,0.26562 0.64062,0.4375 0.23438,0.0937 1.4375,0.42187 1.75,0.45313 2.4375,0.75 0.6875,0.29688 1.07813,0.85938 0.39062,0.5625 0.39062,1.40625 0,0.82812 -0.48437,1.54687 -0.46875,0.71875 -1.375,1.125 -0.90625,0.39063 -2.04688,0.39063 -1.875,0 -2.875,-0.78125 -0.98437,-0.78125 -1.25,-2.32813 z m 24.90207,-1.79687 1.76563,0.45312 q -0.5625,2.17188 -2,3.32813 -1.4375,1.14062 -3.53125,1.14062 -2.15625,0 -3.51563,-0.875 -1.34375,-0.89062 -2.0625,-2.54687 -0.70312,-1.67188 -0.70312,-3.59375 0,-2.07813 0.79687,-3.625 0.79688,-1.5625 2.26563,-2.35938 1.48437,-0.8125 3.25,-0.8125 2,0 3.35937,1.01563 1.375,1.01562 1.90625,2.875 l -1.73437,0.40625 q -0.46875,-1.45313 -1.35938,-2.10938 -0.875,-0.67187 -2.20312,-0.67187 -1.54688,0 -2.57813,0.73437 -1.03125,0.73438 -1.45312,1.98438 -0.42188,1.23437 -0.42188,2.5625 0,1.70312 0.5,2.96875 0.5,1.26562 1.54688,1.90625 1.04687,0.625 2.26562,0.625 1.48438,0 2.51563,-0.85938 1.03125,-0.85937 1.39062,-2.54687 z m 3.12918,-0.15625 q 0,-2.6875 1.48438,-3.96875 1.25,-1.07813 3.04687,-1.07813 2,0 3.26563,1.3125 1.26563,1.29688 1.26563,3.60938 0,1.85937 -0.5625,2.9375 -0.5625,1.0625 -1.64063,1.65625 -1.0625,0.59375 -2.32812,0.59375 -2.03125,0 -3.28125,-1.29688 -1.25,-1.3125 -1.25001,-3.76562 z m 1.6875,0 q 0,1.85937 0.79688,2.79687 0.8125,0.92188 2.04687,0.92188 1.21875,0 2.03125,-0.92188 0.8125,-0.9375 0.8125,-2.84375 0,-1.79687 -0.8125,-2.71875 -0.8125,-0.92187 -2.03125,-0.92187 -1.23437,0 -2.04687,0.92187 -0.79688,0.90625 -0.79688,2.76563 z m 9.28199,4.84375 v -9.67188 h 1.46875 v 1.46875 q 0.5625,-1.03125 1.03125,-1.35937 0.48437,-0.32813 1.0625,-0.32813 0.82812,0 1.6875,0.53125 l -0.5625,1.51563 q -0.60938,-0.35938 -1.20313,-0.35938 -0.54687,0 -0.96875,0.32813 -0.42187,0.32812 -0.60937,0.89062 -0.28125,0.875 -0.28125,1.92188 v 5.0625 z m 12.85327,-3.10938 1.6875,0.20313 q -0.40625,1.48437 -1.48438,2.3125 -1.07812,0.8125 -2.76562,0.8125 -2.125,0 -3.375,-1.29688 -1.23438,-1.3125 -1.23438,-3.67187 0,-2.45313 1.25,-3.79688 1.26563,-1.34375 3.26563,-1.34375 1.9375,0 3.15625,1.32813 1.23437,1.3125 1.23437,3.70312 0,0.15625 0,0.4375 h -7.21875 q 0.0937,1.59375 0.90625,2.45313 0.8125,0.84375 2.01563,0.84375 0.90625,0 1.54687,-0.46875 0.64063,-0.48438 1.01563,-1.51563 z m -5.39063,-2.65625 h 5.40625 q -0.10937,-1.21875 -0.625,-1.82812 -0.78125,-0.95313 -2.03125,-0.95313 -1.125,0 -1.90625,0.76563 -0.76562,0.75 -0.84375,2.01562 z"
       id="path1146"
       inkscape:connector-curvature="0"
       style="fill:#000000;fill-rule:nonzero" />
    <path
       d="m 346.0498,155.7984 v 0 c 0,-13.84363 11.22253,-25.06612 25.06616,-25.06612 h 255.21753 c 6.64795,0 13.02362,2.64089 17.72443,7.34169 4.7008,4.70082 7.34173,11.07648 7.34173,17.72443 v 100.26147 c 0,13.84363 -11.22253,25.06611 -25.06616,25.06611 H 371.11596 v 0 c -13.84363,0 -25.06616,-11.22248 -25.06616,-25.06611 z"
       id="path1148"
       inkscape:connector-curvature="0"
       style="fill:#eeeeee;fill-rule:evenodd" />
    <path
       d="m 346.0498,155.7984 v 0 c 0,-13.84363 11.22253,-25.06612 25.06616,-25.06612 h 255.21753 c 6.64795,0 13.02362,2.64089 17.72443,7.34169 4.7008,4.70082 7.34173,11.07648 7.34173,17.72443 v 100.26147 c 0,13.84363 -11.22253,25.06611 -25.06616,25.06611 H 371.11596 v 0 c -13.84363,0 -25.06616,-11.22248 -25.06616,-25.06611 z"
       id="path1150"
       inkscape:connector-curvature="0"
       style="fill-rule:evenodd;stroke:#595959;stroke-width:1;stroke-linecap:butt;stroke-linejoin:round" />
    <path
       d="m 373.32544,167.08661 h 116.01135 v 61.35434 H 373.32544 Z"
       id="path1152"
       inkscape:connector-curvature="0"
       style="fill:#0097a7;fill-rule:evenodd" />
    <path
       d="m 373.32544,167.08661 h 116.01135 v 61.35434 H 373.32544 Z"
       id="path1154"
       inkscape:connector-curvature="0"
       style="fill-rule:evenodd;stroke:#595959;stroke-width:1;stroke-linecap:butt;stroke-linejoin:round" />
    <path
       d="m 388.4745,204.68378 v -13.35937 h 1.76563 v 13.35937 z m 4.68335,0 v -9.67187 h 1.46875 v 1.375 q 1.0625,-1.59375 3.07812,-1.59375 0.875,0 1.60938,0.3125 0.73437,0.3125 1.09375,0.82812 0.375,0.5 0.51562,1.20313 0.0937,0.45312 0.0937,1.59375 v 5.95312 h -1.64062 v -5.89062 q 0,-1 -0.20313,-1.48438 -0.1875,-0.5 -0.67187,-0.79687 -0.48438,-0.29688 -1.14063,-0.29688 -1.04687,0 -1.8125,0.67188 -0.75,0.65625 -0.75,2.51562 v 5.28125 z m 13.9538,-1.46875 0.23437,1.45313 q -0.6875,0.14062 -1.23437,0.14062 -0.89063,0 -1.39063,-0.28125 -0.48437,-0.28125 -0.6875,-0.73437 -0.20312,-0.46875 -0.20312,-1.9375 v -5.57813 h -1.20313 v -1.26562 h 1.20313 v -2.39063 l 1.625,-0.98437 v 3.375 h 1.65625 v 1.26562 h -1.65625 v 5.67188 q 0,0.6875 0.0781,0.89062 0.0937,0.20313 0.28125,0.32813 0.20313,0.10937 0.57813,0.10937 0.26562,0 0.71875,-0.0625 z m 8.23022,-1.64062 1.6875,0.20312 q -0.40625,1.48438 -1.48437,2.3125 -1.07813,0.8125 -2.76563,0.8125 -2.125,0 -3.375,-1.29687 -1.23437,-1.3125 -1.23437,-3.67188 0,-2.45312 1.25,-3.79687 1.26562,-1.34375 3.26562,-1.34375 1.9375,0 3.15625,1.32812 1.23438,1.3125 1.23438,3.70313 0,0.15625 0,0.4375 h -7.21875 q 0.0937,1.59375 0.90625,2.45312 0.8125,0.84375 2.01562,0.84375 0.90625,0 1.54688,-0.46875 0.64062,-0.48437 1.01562,-1.51562 z m -5.39062,-2.65625 h 5.40625 q -0.10938,-1.21875 -0.625,-1.82813 -0.78125,-0.95312 -2.03125,-0.95312 -1.125,0 -1.90625,0.76562 -0.76563,0.75 -0.84375,2.01563 z m 9.12567,5.76562 v -9.67187 h 1.46875 v 1.46875 q 0.5625,-1.03125 1.03125,-1.35938 0.48437,-0.32812 1.0625,-0.32812 0.82812,0 1.6875,0.53125 l -0.5625,1.51562 q -0.60938,-0.35937 -1.20313,-0.35937 -0.54687,0 -0.96875,0.32812 -0.42187,0.32813 -0.60937,0.89063 -0.28125,0.875 -0.28125,1.92187 v 5.0625 z m 12.54083,-3.54687 1.60937,0.21875 q -0.26562,1.65625 -1.35937,2.60937 -1.07813,0.9375 -2.67188,0.9375 -1.98437,0 -3.1875,-1.29687 -1.20312,-1.29688 -1.20312,-3.71875 0,-1.57813 0.51562,-2.75 0.51563,-1.17188 1.57813,-1.75 1.0625,-0.59375 2.3125,-0.59375 1.57812,0 2.57812,0.79687 1,0.79688 1.28125,2.26563 l -1.59375,0.23437 q -0.23437,-0.96875 -0.8125,-1.45312 -0.57812,-0.5 -1.39062,-0.5 -1.23438,0 -2.01563,0.89062 -0.78125,0.89063 -0.78125,2.8125 0,1.95313 0.75,2.84375 0.75,0.875 1.95313,0.875 0.96875,0 1.60937,-0.59375 0.65625,-0.59375 0.82813,-1.82812 z m 9.64062,0.4375 1.6875,0.20312 q -0.40625,1.48438 -1.48437,2.3125 -1.07813,0.8125 -2.76563,0.8125 -2.125,0 -3.375,-1.29687 -1.23437,-1.3125 -1.23437,-3.67188 0,-2.45312 1.25,-3.79687 1.26562,-1.34375 3.26562,-1.34375 1.9375,0 3.15625,1.32812 1.23438,1.3125 1.23438,3.70313 0,0.15625 0,0.4375 H 435.774 q 0.0937,1.59375 0.90625,2.45312 0.8125,0.84375 2.01562,0.84375 0.90625,0 1.54688,-0.46875 0.64062,-0.48437 1.01562,-1.51562 z m -5.39062,-2.65625 h 5.40625 q -0.10938,-1.21875 -0.625,-1.82813 -0.78125,-0.95312 -2.03125,-0.95312 -1.125,0 -1.90625,0.76562 -0.76563,0.75 -0.84375,2.01563 z m 9.14136,9.46875 v -13.375 h 1.48437 v 1.25 q 0.53125,-0.73438 1.1875,-1.09375 0.67188,-0.375 1.625,-0.375 1.23438,0 2.17188,0.64062 0.95312,0.625 1.4375,1.79688 0.48437,1.15625 0.48437,2.54687 0,1.48438 -0.53125,2.67188 -0.53125,1.1875 -1.54687,1.82812 -1.01563,0.625 -2.14063,0.625 -0.8125,0 -1.46875,-0.34375 -0.65625,-0.34375 -1.0625,-0.875 v 4.70313 z m 1.48437,-8.48438 q 0,1.85938 0.75,2.76563 0.76563,0.89062 1.82813,0.89062 1.09375,0 1.875,-0.92187 0.78125,-0.9375 0.78125,-2.875 0,-1.84375 -0.76563,-2.76563 -0.75,-0.92187 -1.8125,-0.92187 -1.04687,0 -1.85937,0.98437 -0.79688,0.96875 -0.79688,2.84375 z m 12.46948,3.3125 0.23438,1.45313 q -0.6875,0.14062 -1.23438,0.14062 -0.89062,0 -1.39062,-0.28125 -0.48438,-0.28125 -0.6875,-0.73437 -0.20313,-0.46875 -0.20313,-1.9375 v -5.57813 h -1.20312 v -1.26562 h 1.20312 v -2.39063 l 1.625,-0.98437 v 3.375 h 1.65625 v 1.26562 h -1.65625 v 5.67188 q 0,0.6875 0.0781,0.89062 0.0937,0.20313 0.28125,0.32813 0.20312,0.10937 0.57812,0.10937 0.26563,0 0.71875,-0.0625 z m 0.99579,-3.375 q 0,-2.6875 1.48438,-3.96875 1.25,-1.07812 3.04687,-1.07812 2,0 3.26563,1.3125 1.26562,1.29687 1.26562,3.60937 0,1.85938 -0.5625,2.9375 -0.5625,1.0625 -1.64062,1.65625 -1.0625,0.59375 -2.32813,0.59375 -2.03125,0 -3.28125,-1.29687 -1.25,-1.3125 -1.25,-3.76563 z m 1.6875,0 q 0,1.85938 0.79688,2.79688 0.8125,0.92187 2.04687,0.92187 1.21875,0 2.03125,-0.92187 0.8125,-0.9375 0.8125,-2.84375 0,-1.79688 -0.8125,-2.71875 -0.8125,-0.92188 -2.03125,-0.92188 -1.23437,0 -2.04687,0.92188 -0.79688,0.90625 -0.79688,2.76562 z m 9.28198,4.84375 v -9.67187 h 1.46875 v 1.46875 q 0.5625,-1.03125 1.03125,-1.35938 0.48438,-0.32812 1.0625,-0.32812 0.82813,0 1.6875,0.53125 l -0.5625,1.51562 q -0.60937,-0.35937 -1.20312,-0.35937 -0.54688,0 -0.96875,0.32812 -0.42188,0.32813 -0.60938,0.89063 -0.28125,0.875 -0.28125,1.92187 v 5.0625 z"
       id="path1156"
       inkscape:connector-curvature="0"
       style="fill:#000000;fill-rule:nonzero" />
    <path
       d="m 514.7926,167.08661 h 116.01135 v 61.35434 H 514.7926 Z"
       id="path1158"
       inkscape:connector-curvature="0"
       style="fill:#0097a7;fill-rule:evenodd" />
    <path
       d="m 514.7926,167.08661 h 116.01135 v 61.35434 H 514.7926 Z"
       id="path1160"
       inkscape:connector-curvature="0"
       style="fill-rule:evenodd;stroke:#595959;stroke-width:1;stroke-linecap:butt;stroke-linejoin:round" />
    <path
       d="m 531.2915,193.68378 5.125,-13.35937 h 1.90625 l 5.46875,13.35937 h -2.01562 l -1.54688,-4.04687 h -5.59375 l -1.46875,4.04687 z m 3.85938,-5.48437 h 4.53125 l -1.40625,-3.70313 q -0.625,-1.6875 -0.9375,-2.76562 -0.26563,1.28125 -0.71875,2.54687 z m 9.84979,5.48437 v -9.67187 h 1.46875 v 1.375 q 1.0625,-1.59375 3.07812,-1.59375 0.875,0 1.60938,0.3125 0.73437,0.3125 1.09375,0.82812 0.375,0.5 0.51562,1.20313 0.0937,0.45312 0.0937,1.59375 v 5.95312 h -1.64062 v -5.89062 q 0,-1 -0.20313,-1.48438 -0.1875,-0.5 -0.67187,-0.79687 -0.48438,-0.29688 -1.14063,-0.29688 -1.04687,0 -1.8125,0.67188 -0.75,0.65625 -0.75,2.51562 v 5.28125 z m 16.68823,-1.1875 q -0.92188,0.76563 -1.76563,1.09375 -0.82812,0.3125 -1.79687,0.3125 -1.59375,0 -2.45313,-0.78125 -0.85937,-0.78125 -0.85937,-1.98437 0,-0.71875 0.32812,-1.29688 0.32813,-0.59375 0.84375,-0.9375 0.53125,-0.35937 1.1875,-0.54687 0.46875,-0.125 1.45313,-0.25 1.98437,-0.23438 2.92187,-0.5625 0.0156,-0.34375 0.0156,-0.42188 0,-1 -0.46875,-1.42187 -0.625,-0.54688 -1.875,-0.54688 -1.15625,0 -1.70313,0.40625 -0.54687,0.40625 -0.8125,1.42188 l -1.60937,-0.21875 q 0.21875,-1.01563 0.71875,-1.64063 0.5,-0.64062 1.45312,-0.98437 0.95313,-0.34375 2.1875,-0.34375 1.25,0 2.01563,0.29687 0.78125,0.28125 1.14062,0.73438 0.375,0.4375 0.51563,1.10937 0.0781,0.42188 0.0781,1.51563 v 2.1875 q 0,2.28125 0.10938,2.89062 0.10937,0.59375 0.40625,1.15625 h -1.70313 q -0.26562,-0.51562 -0.32812,-1.1875 z m -0.14063,-3.67187 q -0.89062,0.375 -2.67187,0.625 -1.01563,0.14062 -1.4375,0.32812 -0.42188,0.1875 -0.65625,0.53125 -0.21875,0.34375 -0.21875,0.78125 0,0.65625 0.5,1.09375 0.5,0.4375 1.45312,0.4375 0.9375,0 1.67188,-0.40625 0.75,-0.42187 1.09375,-1.14062 0.26562,-0.5625 0.26562,-1.64063 z m 4.15699,4.85937 v -13.35937 h 1.64062 v 13.35937 z m 4.11358,3.71875 -0.1875,-1.53125 q 0.54688,0.14063 0.9375,0.14063 0.54688,0 0.875,-0.1875 0.32813,-0.17188 0.54688,-0.5 0.15625,-0.25 0.5,-1.21875 0.0469,-0.14063 0.14062,-0.40625 l -3.67187,-9.6875 h 1.76562 l 2.01563,5.59375 q 0.39062,1.07812 0.70312,2.25 0.28125,-1.125 0.67188,-2.20313 l 2.07812,-5.64062 h 1.64063 l -3.6875,9.82812 q -0.59375,1.60938 -0.92188,2.20313 -0.4375,0.8125 -1,1.1875 -0.5625,0.375 -1.34375,0.375 -0.48437,0 -1.0625,-0.20313 z m 8.53125,-3.71875 v -1.32812 l 6.15625,-7.07813 q -1.04687,0.0625 -1.84375,0.0625 h -3.9375 v -1.32812 h 7.90625 v 1.07812 l -5.25,6.14063 -1,1.125 q 1.09375,-0.0781 2.0625,-0.0781 h 4.46875 v 1.40625 z m 16.82813,-3.10937 1.6875,0.20312 q -0.40625,1.48438 -1.48438,2.3125 -1.07812,0.8125 -2.76562,0.8125 -2.125,0 -3.375,-1.29687 -1.23438,-1.3125 -1.23438,-3.67188 0,-2.45312 1.25,-3.79687 1.26563,-1.34375 3.26563,-1.34375 1.9375,0 3.15625,1.32812 1.23437,1.3125 1.23437,3.70313 0,0.15625 0,0.4375 h -7.21875 q 0.0937,1.59375 0.90625,2.45312 0.8125,0.84375 2.01563,0.84375 0.90625,0 1.54687,-0.46875 0.64063,-0.48437 1.01563,-1.51562 z m -5.39063,-2.65625 h 5.40625 q -0.10937,-1.21875 -0.625,-1.82813 -0.78125,-0.95312 -2.03125,-0.95312 -1.125,0 -1.90625,0.76562 -0.76562,0.75 -0.84375,2.01563 z m 9.12567,5.76562 v -9.67187 h 1.46875 v 1.46875 q 0.5625,-1.03125 1.03125,-1.35938 0.48438,-0.32812 1.0625,-0.32812 0.82813,0 1.6875,0.53125 l -0.5625,1.51562 q -0.60937,-0.35937 -1.20312,-0.35937 -0.54688,0 -0.96875,0.32812 -0.42188,0.32813 -0.60938,0.89063 -0.28125,0.875 -0.28125,1.92187 v 5.0625 z m 10.17725,0.23438 3.875,-13.8125 h 1.3125 l -3.85937,13.8125 z"
       id="path1162"
       inkscape:connector-curvature="0"
       style="fill:#000000;fill-rule:nonzero" />
    <path
       d="m 535.99817,215.68378 v -11.78125 h -4.40625 v -1.57812 h 10.57812 v 1.57812 h -4.40625 v 11.78125 z m 7.07825,0 v -9.67187 h 1.46875 v 1.46875 q 0.5625,-1.03125 1.03125,-1.35938 0.48437,-0.32812 1.0625,-0.32812 0.82812,0 1.6875,0.53125 l -0.5625,1.51562 q -0.60938,-0.35937 -1.20313,-0.35937 -0.54687,0 -0.96875,0.32812 -0.42187,0.32813 -0.60937,0.89063 -0.28125,0.875 -0.28125,1.92187 v 5.0625 z m 12.54083,-1.1875 q -0.92188,0.76563 -1.76563,1.09375 -0.82812,0.3125 -1.79687,0.3125 -1.59375,0 -2.45313,-0.78125 -0.85937,-0.78125 -0.85937,-1.98437 0,-0.71875 0.32812,-1.29688 0.32813,-0.59375 0.84375,-0.9375 0.53125,-0.35937 1.1875,-0.54687 0.46875,-0.125 1.45313,-0.25 1.98437,-0.23438 2.92187,-0.5625 0.0156,-0.34375 0.0156,-0.42188 0,-1 -0.46875,-1.42187 -0.625,-0.54688 -1.875,-0.54688 -1.15625,0 -1.70313,0.40625 -0.54687,0.40625 -0.8125,1.42188 l -1.60937,-0.21875 q 0.21875,-1.01563 0.71875,-1.64063 0.5,-0.64062 1.45312,-0.98437 0.95313,-0.34375 2.1875,-0.34375 1.25,0 2.01563,0.29687 0.78125,0.28125 1.14062,0.73438 0.375,0.4375 0.51563,1.10937 0.0781,0.42188 0.0781,1.51563 v 2.1875 q 0,2.28125 0.10938,2.89062 0.10937,0.59375 0.40625,1.15625 h -1.70313 q -0.26562,-0.51562 -0.32812,-1.1875 z m -0.14063,-3.67187 q -0.89062,0.375 -2.67187,0.625 -1.01563,0.14062 -1.4375,0.32812 -0.42188,0.1875 -0.65625,0.53125 -0.21875,0.34375 -0.21875,0.78125 0,0.65625 0.5,1.09375 0.5,0.4375 1.45312,0.4375 0.9375,0 1.67188,-0.40625 0.75,-0.42187 1.09375,-1.14062 0.26562,-0.5625 0.26562,-1.64063 z m 4.20386,4.85937 v -9.67187 h 1.46875 v 1.375 q 1.0625,-1.59375 3.07813,-1.59375 0.875,0 1.60937,0.3125 0.73438,0.3125 1.09375,0.82812 0.375,0.5 0.51563,1.20313 0.0937,0.45312 0.0937,1.59375 v 5.95312 h -1.64063 v -5.89062 q 0,-1 -0.20312,-1.48438 -0.1875,-0.5 -0.67188,-0.79687 -0.48437,-0.29688 -1.14062,-0.29688 -1.04688,0 -1.8125,0.67188 -0.75,0.65625 -0.75,2.51562 v 5.28125 z m 9.71942,-2.89062 1.625,-0.25 q 0.125,0.96875 0.75,1.5 0.625,0.51562 1.75,0.51562 1.125,0 1.67188,-0.45312 0.54687,-0.46875 0.54687,-1.09375 0,-0.54688 -0.48437,-0.875 -0.32813,-0.21875 -1.67188,-0.54688 -1.8125,-0.46875 -2.51562,-0.79687 -0.6875,-0.32813 -1.04688,-0.90625 -0.35937,-0.59375 -0.35937,-1.3125 0,-0.64063 0.29687,-1.1875 0.29688,-0.5625 0.8125,-0.92188 0.375,-0.28125 1.03125,-0.46875 0.67188,-0.20312 1.42188,-0.20312 1.14062,0 2,0.32812 0.85937,0.32813 1.26562,0.89063 0.42188,0.5625 0.57813,1.5 l -1.60938,0.21875 q -0.10937,-0.75 -0.64062,-1.17188 -0.51563,-0.42187 -1.46875,-0.42187 -1.14063,0 -1.625,0.375 -0.46875,0.375 -0.46875,0.875 0,0.3125 0.1875,0.57812 0.20312,0.26563 0.64062,0.4375 0.23438,0.0937 1.4375,0.42188 1.75,0.45312 2.4375,0.75 0.6875,0.29687 1.07813,0.85937 0.39062,0.5625 0.39062,1.40625 0,0.82813 -0.48437,1.54688 -0.46875,0.71875 -1.375,1.125 -0.90625,0.39062 -2.04688,0.39062 -1.875,0 -2.875,-0.78125 -0.98437,-0.78125 -1.25,-2.32812 z m 9.9375,2.89062 v -13.35937 h 1.64063 v 13.35937 z m 10.50421,-1.1875 q -0.92187,0.76563 -1.76562,1.09375 -0.82813,0.3125 -1.79688,0.3125 -1.59375,0 -2.45312,-0.78125 -0.85938,-0.78125 -0.85938,-1.98437 0,-0.71875 0.32813,-1.29688 0.32812,-0.59375 0.84375,-0.9375 0.53125,-0.35937 1.1875,-0.54687 0.46875,-0.125 1.45312,-0.25 1.98438,-0.23438 2.92188,-0.5625 0.0156,-0.34375 0.0156,-0.42188 0,-1 -0.46875,-1.42187 -0.625,-0.54688 -1.875,-0.54688 -1.15625,0 -1.70312,0.40625 -0.54688,0.40625 -0.8125,1.42188 l -1.60938,-0.21875 q 0.21875,-1.01563 0.71875,-1.64063 0.5,-0.64062 1.45313,-0.98437 0.95312,-0.34375 2.1875,-0.34375 1.25,0 2.01562,0.29687 0.78125,0.28125 1.14063,0.73438 0.375,0.4375 0.51562,1.10937 0.0781,0.42188 0.0781,1.51563 v 2.1875 q 0,2.28125 0.10937,2.89062 0.10938,0.59375 0.40625,1.15625 h -1.70312 q -0.26563,-0.51562 -0.32813,-1.1875 z m -0.14062,-3.67187 q -0.89063,0.375 -2.67188,0.625 -1.01562,0.14062 -1.4375,0.32812 -0.42187,0.1875 -0.65625,0.53125 -0.21875,0.34375 -0.21875,0.78125 0,0.65625 0.5,1.09375 0.5,0.4375 1.45313,0.4375 0.9375,0 1.67187,-0.40625 0.75,-0.42187 1.09375,-1.14062 0.26563,-0.5625 0.26563,-1.64063 z m 7.78198,3.39062 0.23438,1.45313 q -0.6875,0.14062 -1.23438,0.14062 -0.89062,0 -1.39062,-0.28125 -0.48438,-0.28125 -0.6875,-0.73437 -0.20313,-0.46875 -0.20313,-1.9375 v -5.57813 h -1.20312 v -1.26562 h 1.20312 v -2.39063 l 1.625,-0.98437 v 3.375 h 1.65625 v 1.26562 h -1.65625 v 5.67188 q 0,0.6875 0.0781,0.89062 0.0937,0.20313 0.28125,0.32813 0.20312,0.10937 0.57812,0.10937 0.26563,0 0.71875,-0.0625 z m 0.99579,-3.375 q 0,-2.6875 1.48437,-3.96875 1.25,-1.07812 3.04688,-1.07812 2,0 3.26562,1.3125 1.26563,1.29687 1.26563,3.60937 0,1.85938 -0.5625,2.9375 -0.5625,1.0625 -1.64063,1.65625 -1.0625,0.59375 -2.32812,0.59375 -2.03125,0 -3.28125,-1.29687 -1.25,-1.3125 -1.25,-3.76563 z m 1.6875,0 q 0,1.85938 0.79687,2.79688 0.8125,0.92187 2.04688,0.92187 1.21875,0 2.03125,-0.92187 0.8125,-0.9375 0.8125,-2.84375 0,-1.79688 -0.8125,-2.71875 -0.8125,-0.92188 -2.03125,-0.92188 -1.23438,0 -2.04688,0.92188 -0.79687,0.90625 -0.79687,2.76562 z m 9.28198,4.84375 v -9.67187 h 1.46875 v 1.46875 q 0.5625,-1.03125 1.03125,-1.35938 0.48438,-0.32812 1.0625,-0.32812 0.82813,0 1.6875,0.53125 l -0.5625,1.51562 q -0.60937,-0.35937 -1.20312,-0.35937 -0.54688,0 -0.96875,0.32812 -0.42188,0.32813 -0.60938,0.89063 -0.28125,0.875 -0.28125,1.92187 v 5.0625 z"
       id="path1164"
       inkscape:connector-curvature="0"
       style="fill:#000000;fill-rule:nonzero" />
    <path
       d="M 417.22864,227.98425 H 580.22077 V 270 H 417.22864 Z"
       id="path1166"
       inkscape:connector-curvature="0"
       style="fill:#000000;fill-opacity:0;fill-rule:evenodd" />
    <path
       d="m 516.58683,254.42745 v -1.57812 h 5.65625 v 4.95312 c -0.86459,0.69792 -1.76042,1.22396 -2.6875,1.57813 -0.91667,0.34375 -1.86458,0.51562 -2.84375,0.51562 -1.3125,0 -2.50521,-0.28125 -3.57813,-0.84375 -1.07291,-0.5625 -1.8802,-1.375 -2.42187,-2.4375 -0.54167,-1.0625 -0.8125,-2.25 -0.8125,-3.5625 0,-1.30208 0.27083,-2.51562 0.8125,-3.64062 0.54167,-1.125 1.32292,-1.95833 2.34375,-2.5 1.02083,-0.55209 2.19271,-0.82813 3.51562,-0.82813 0.96875,0 1.84375,0.15625 2.625,0.46875 0.78125,0.3125 1.39063,0.75 1.82813,1.3125 0.44791,0.55209 0.78645,1.27605 1.01562,2.17188 l -1.59375,0.4375 c -0.19791,-0.67709 -0.44791,-1.20834 -0.75,-1.59375 -0.29167,-0.39583 -0.71354,-0.70833 -1.26562,-0.9375 -0.55209,-0.22917 -1.16667,-0.34375 -1.84375,-0.34375 -0.80209,0 -1.5,0.125 -2.09375,0.375 -0.59375,0.23958 -1.07292,0.5625 -1.4375,0.96875 -0.35417,0.39583 -0.63021,0.83333 -0.82813,1.3125 -0.34375,0.82291 -0.51562,1.71875 -0.51562,2.6875 0,1.1875 0.20312,2.18229 0.60937,2.98437 0.41667,0.80209 1.01563,1.40105 1.79688,1.79688 0.78125,0.38541 1.61458,0.57812 2.5,0.57812 0.76041,0 1.5052,-0.14583 2.23437,-0.4375 0.72917,-0.30208 1.28125,-0.61979 1.65625,-0.95312 v -2.48438 z m 8.01141,5.23438 v -13.35938 h 1.64063 v 13.35938 z m 10.51984,0 v -1.42188 c -0.75,1.09375 -1.77083,1.64063 -3.0625,1.64063 -0.57292,0 -1.10938,-0.10938 -1.60938,-0.32813 -0.48958,-0.21875 -0.85416,-0.49479 -1.09375,-0.82812 -0.23958,-0.33333 -0.40625,-0.73958 -0.5,-1.21875 -0.0729,-0.3125 -0.10937,-0.82292 -0.10937,-1.53125 v -5.98438 h 1.64062 v 5.35938 c 0,0.85417 0.0365,1.43229 0.10938,1.73437 0.10417,0.42709 0.32292,0.76563 0.65625,1.01563 0.33333,0.25 0.74479,0.375 1.23437,0.375 0.48959,0 0.94792,-0.125 1.375,-0.375 0.4375,-0.26042 0.74479,-0.60417 0.92188,-1.03125 0.17708,-0.4375 0.26562,-1.06771 0.26562,-1.89063 v -5.1875 h 1.64063 v 9.67188 z m 10.67254,-3.10938 1.6875,0.20313 c -0.27083,0.98958 -0.76562,1.76041 -1.48437,2.3125 -0.71875,0.54167 -1.64063,0.8125 -2.76563,0.8125 -1.41667,0 -2.54167,-0.43229 -3.375,-1.29688 -0.82291,-0.875 -1.23437,-2.09896 -1.23437,-3.67187 0,-1.63542 0.41667,-2.90105 1.25,-3.79688 0.84375,-0.89583 1.93229,-1.34375 3.26562,-1.34375 1.29167,0 2.34375,0.44271 3.15625,1.32813 0.82292,0.875 1.23438,2.10937 1.23438,3.70312 v 0.4375 h -7.21875 c 0.0625,1.0625 0.36455,1.88021 0.90625,2.45313 0.54167,0.5625 1.21354,0.84375 2.01562,0.84375 0.60417,0 1.11979,-0.15625 1.54688,-0.46875 0.42708,-0.32292 0.76562,-0.82813 1.01562,-1.51563 z M 540.4,253.8962 h 5.40625 c -0.0729,-0.8125 -0.28125,-1.42187 -0.625,-1.82812 -0.52083,-0.63542 -1.19792,-0.95313 -2.03125,-0.95313 -0.75,0 -1.38542,0.25521 -1.90625,0.76563 -0.51042,0.5 -0.79167,1.17187 -0.84375,2.01562 z"
       id="path1168"
       inkscape:connector-curvature="0"
       style="fill:#000000;fill-rule:nonzero"
       sodipodi:nodetypes="cccccscssscsccccccscccsccscccccccccccscccsccscssccscccccccscscscscccscccccscc" />
    <path
       d="m 449.79502,254.71516 1.76562,0.45312 c -0.375,1.44792 -1.04167,2.5573 -2,3.32813 -0.95833,0.76041 -2.13542,1.14062 -3.53125,1.14062 -1.4375,0 -2.60937,-0.29167 -3.51562,-0.875 -0.89583,-0.59375 -1.58333,-1.4427 -2.0625,-2.54687 -0.46875,-1.11459 -0.70313,-2.3125 -0.70313,-3.59375 0,-1.38542 0.26563,-2.59375 0.79688,-3.625 0.53125,-1.04167 1.28645,-1.82813 2.26562,-2.35938 0.98959,-0.54167 2.07292,-0.8125 3.25,-0.8125 1.33333,0 2.45313,0.33854 3.35938,1.01563 0.91667,0.67708 1.55208,1.63541 1.90625,2.875 l -1.73438,0.40625 c -0.3125,-0.96875 -0.76562,-1.67188 -1.35937,-2.10938 -0.58333,-0.44791 -1.31771,-0.67187 -2.20313,-0.67187 -1.03125,0 -1.89062,0.24479 -2.57812,0.73437 -0.6875,0.48959 -1.17188,1.15105 -1.45313,1.98438 -0.28125,0.82291 -0.42187,1.67708 -0.42187,2.5625 0,1.13541 0.16667,2.125 0.5,2.96875 0.33333,0.84375 0.84896,1.47916 1.54687,1.90625 0.69792,0.41667 1.45313,0.625 2.26563,0.625 0.98958,0 1.82812,-0.28646 2.51562,-0.85938 0.6875,-0.57291 1.15104,-1.42187 1.39063,-2.54687 z m 3.73856,4.6875 v -13.35938 h 1.64062 v 4.79688 c 0.76042,-0.88542 1.72396,-1.32813 2.89063,-1.32813 0.71875,0 1.33854,0.14063 1.85937,0.42188 0.53125,0.28125 0.91146,0.67187 1.14063,1.17187 0.22917,0.5 0.34375,1.22396 0.34375,2.17188 v 6.125 h -1.64063 v -6.125 c 0,-0.82292 -0.17708,-1.42188 -0.53125,-1.79688 -0.35417,-0.375 -0.85937,-0.5625 -1.51562,-0.5625 -0.47917,0 -0.93229,0.13021 -1.35938,0.39063 -0.42708,0.25 -0.73437,0.58854 -0.92187,1.01562 -0.17709,0.42709 -0.26563,1.02084 -0.26563,1.78125 v 5.29688 z m 17.00073,-3.10938 1.6875,0.20313 c -0.27083,0.98958 -0.76563,1.76041 -1.48438,2.3125 -0.71875,0.54167 -1.64062,0.8125 -2.76562,0.8125 -1.41667,0 -2.54167,-0.43229 -3.375,-1.29688 -0.82292,-0.875 -1.23438,-2.09896 -1.23438,-3.67187 0,-1.63542 0.41667,-2.90105 1.25,-3.79688 0.84375,-0.89583 1.9323,-1.34375 3.26563,-1.34375 1.29167,0 2.34375,0.44271 3.15625,1.32813 0.82291,0.875 1.23437,2.10937 1.23437,3.70312 v 0.4375 h -7.21875 c 0.0625,1.0625 0.36455,1.88021 0.90625,2.45313 0.54167,0.5625 1.21354,0.84375 2.01563,0.84375 0.60417,0 1.11979,-0.15625 1.54687,-0.46875 0.42709,-0.32292 0.76563,-0.82813 1.01563,-1.51563 z m -5.39063,-2.65625 h 5.40625 c -0.0729,-0.8125 -0.28125,-1.42187 -0.625,-1.82812 -0.52083,-0.63542 -1.19792,-0.95313 -2.03125,-0.95313 -0.75,0 -1.38542,0.25521 -1.90625,0.76563 -0.51041,0.5 -0.79166,1.17187 -0.84375,2.01562 z m 8.53195,0.92188 c 0,-1.79167 0.49479,-3.11458 1.48438,-3.96875 0.83333,-0.71875 1.84896,-1.07813 3.04687,-1.07813 1.33333,0 2.42188,0.4375 3.26563,1.3125 0.84375,0.86459 1.26562,2.06771 1.26562,3.60938 0,1.23958 -0.1875,2.21875 -0.5625,2.9375 -0.375,0.70833 -0.92187,1.26042 -1.64062,1.65625 -0.70833,0.39583 -1.48438,0.59375 -2.32813,0.59375 -1.35417,0 -2.44792,-0.43229 -3.28125,-1.29688 -0.83333,-0.875 -1.25,-2.13021 -1.25,-3.76562 z m 1.6875,0 c 0,1.23958 0.26563,2.17187 0.79688,2.79687 0.54167,0.61459 1.22396,0.92188 2.04687,0.92188 0.8125,0 1.48958,-0.30729 2.03125,-0.92188 0.54167,-0.625 0.8125,-1.57292 0.8125,-2.84375 0,-1.19791 -0.27083,-2.10416 -0.8125,-2.71875 -0.54167,-0.61458 -1.21875,-0.92187 -2.03125,-0.92187 -0.82291,0 -1.5052,0.30729 -2.04687,0.92187 -0.53125,0.60417 -0.79688,1.52604 -0.79688,2.76563 z m 9.29761,8.54687 v -13.375 h 1.48438 v 1.25 c 0.35417,-0.48958 0.75,-0.85416 1.1875,-1.09375 0.44791,-0.25 0.98958,-0.375 1.625,-0.375 0.82291,0 1.54687,0.21354 2.17187,0.64063 0.63542,0.41667 1.11459,1.01562 1.4375,1.79687 0.32292,0.77083 0.48438,1.61979 0.48438,2.54688 0,0.98958 -0.17708,1.8802 -0.53125,2.67187 -0.35417,0.79167 -0.86979,1.40104 -1.54688,1.82813 -0.67708,0.41667 -1.39062,0.625 -2.14062,0.625 -0.54167,0 -1.03125,-0.11458 -1.46875,-0.34375 -0.4375,-0.22917 -0.79167,-0.52083 -1.0625,-0.875 v 4.70312 z m 1.48438,-8.48437 c 0,1.23958 0.25,2.16145 0.75,2.76562 0.51041,0.59375 1.11979,0.89063 1.82812,0.89063 0.72917,0 1.35417,-0.30729 1.875,-0.92188 0.52083,-0.625 0.78125,-1.58333 0.78125,-2.875 0,-1.22917 -0.25521,-2.15104 -0.76562,-2.76562 -0.5,-0.61459 -1.10417,-0.92188 -1.8125,-0.92188 -0.69792,0 -1.31771,0.32813 -1.85938,0.98438 -0.53125,0.64583 -0.79687,1.59375 -0.79687,2.84375 z m 8.23507,1.89062 1.625,-0.25 c 0.0833,0.64583 0.33333,1.14583 0.75,1.5 0.41667,0.34375 1,0.51563 1.75,0.51563 0.75,0 1.30729,-0.15104 1.67188,-0.45313 0.36458,-0.3125 0.54687,-0.67708 0.54687,-1.09375 0,-0.36458 -0.16146,-0.65625 -0.48437,-0.875 -0.21875,-0.14583 -0.77605,-0.32812 -1.67188,-0.54687 -1.20833,-0.3125 -2.04687,-0.57813 -2.51562,-0.79688 -0.45833,-0.21875 -0.80729,-0.52083 -1.04688,-0.90625 -0.23958,-0.39583 -0.35937,-0.83333 -0.35937,-1.3125 0,-0.42708 0.099,-0.82291 0.29687,-1.1875 0.19792,-0.375 0.46875,-0.68229 0.8125,-0.92187 0.25,-0.1875 0.59375,-0.34375 1.03125,-0.46875 0.44792,-0.13542 0.92188,-0.20313 1.42188,-0.20313 0.76041,0 1.42708,0.10938 2,0.32813 0.57291,0.21875 0.99479,0.51562 1.26562,0.89062 0.28125,0.375 0.47396,0.875 0.57813,1.5 l -1.60938,0.21875 c -0.0729,-0.5 -0.28645,-0.89062 -0.64062,-1.17187 -0.34375,-0.28125 -0.83334,-0.42188 -1.46875,-0.42188 -0.76042,0 -1.30209,0.125 -1.625,0.375 -0.3125,0.25 -0.46875,0.54167 -0.46875,0.875 0,0.20833 0.0625,0.40104 0.1875,0.57813 0.13541,0.17708 0.34895,0.32291 0.64062,0.4375 0.15625,0.0625 0.63542,0.20309 1.4375,0.42187 1.16667,0.30209 1.97917,0.55209 2.4375,0.75 0.45833,0.19792 0.81771,0.48438 1.07813,0.85938 0.26041,0.375 0.39062,0.84375 0.39062,1.40625 0,0.55208 -0.16146,1.0677 -0.48437,1.54687 -0.3125,0.47917 -0.77083,0.85417 -1.375,1.125 -0.60417,0.26042 -1.28646,0.39063 -2.04688,0.39063 -1.25,0 -2.20833,-0.26042 -2.875,-0.78125 -0.65625,-0.52083 -1.07291,-1.29688 -1.25,-2.32813 z"
       id="path1146-3"
       inkscape:connector-curvature="0"
       style="fill:#000000;fill-rule:nonzero;stroke:none;stroke-linecap:square;stroke-miterlimit:10"
       sodipodi:nodetypes="cccsccsccsccccsccsccsccccccscssccsssccscccccscscscscccscccccsccscscsccscsscscscscscccccsccsscsscccscscscscscccscsccccscccscccccscscccccsccscc" />
  </g>
</svg>
