<?xml version="1.0" encoding="UTF-8" standalone="no"?>
<svg
   version="1.1"
   viewBox="0 0 911.53674 118.94357"
   fill="none"
   stroke="none"
   stroke-linecap="square"
   stroke-miterlimit="10"
   id="svg79"
   sodipodi:docname="dangling-pointers.svg"
   width="911.53674"
   height="118.94357"
   inkscape:version="1.1.2 (0a00cf5339, 2022-02-04)"
   xmlns:inkscape="http://www.inkscape.org/namespaces/inkscape"
   xmlns:sodipodi="http://sodipodi.sourceforge.net/DTD/sodipodi-0.dtd"
   xmlns="http://www.w3.org/2000/svg"
   xmlns:svg="http://www.w3.org/2000/svg">
  <defs
     id="defs83" />
  <sodipodi:namedview
     id="namedview81"
     pagecolor="#ffffff"
     bordercolor="#666666"
     borderopacity="1.0"
     inkscape:pageshadow="2"
     inkscape:pageopacity="0.0"
     inkscape:pagecheckerboard="0"
     showgrid="false"
     fit-margin-top="0"
     fit-margin-left="0"
     fit-margin-right="0"
     fit-margin-bottom="0"
     inkscape:zoom="1.1"
     inkscape:cx="456.36364"
     inkscape:cy="86.818182"
     inkscape:window-width="1920"
     inkscape:window-height="1031"
     inkscape:window-x="1920"
     inkscape:window-y="25"
     inkscape:window-maximized="1"
     inkscape:current-layer="g77" />
  <clipPath
     id="g167ffe85806_0_0.0">
    <path
       d="M 0,0 H 960 V 540 H 0 Z"
       clip-rule="nonzero"
       id="path2" />
  </clipPath>
  <g
     clip-path="url(#g167ffe85806_0_0.0)"
     id="g77"
     transform="translate(-16.090551,-183.1811)">
    <path
       fill="#000000"
       fill-opacity="0"
       d="M 32.72441,46.721786 H 927.27556 V 106.84777 H 32.72441 Z"
       fill-rule="evenodd"
       id="path7" />
    <path
       fill="#8cf7ff"
       fill-opacity="0.6897"
       d="m 154.07086,192.54347 v 0 c 0,-4.61841 3.74397,-8.36237 8.36238,-8.36237 h 127.49571 c 2.21787,0 4.34485,0.88103 5.91312,2.44928 1.56823,1.56826 2.44928,3.69526 2.44928,5.91309 v 33.44849 c 0,4.6184 -3.74399,8.36236 -8.3624,8.36236 H 162.43324 c -4.61841,0 -8.36238,-3.74396 -8.36238,-8.36236 z"
       fill-rule="evenodd"
       id="path11" />
    <path
       stroke="#0097a7"
       stroke-width="2"
       stroke-linejoin="round"
       stroke-linecap="butt"
       d="m 154.07086,192.54347 v 0 c 0,-4.61841 3.74397,-8.36237 8.36238,-8.36237 h 127.49571 c 2.21787,0 4.34485,0.88103 5.91312,2.44928 1.56823,1.56826 2.44928,3.69526 2.44928,5.91309 v 33.44849 c 0,4.6184 -3.74399,8.36236 -8.3624,8.36236 H 162.43324 c -4.61841,0 -8.36238,-3.74396 -8.36238,-8.36236 z"
       fill-rule="evenodd"
       id="path13" />
    <path
       fill="#0097a7"
       d="m 212.54236,210.15646 q 0,1.46875 -0.375,2.625 -0.35938,1.15625 -1.07813,1.96875 -0.71875,0.79687 -1.78125,1.21875 -1.0625,0.42187 -2.45312,0.42187 -1.375,0 -2.40625,-0.35937 -1.01563,-0.35938 -1.70313,-1.09375 -0.6875,-0.73438 -1.03125,-1.875 -0.32812,-1.14063 -0.32812,-2.70313 0,-1.42187 0.35937,-2.5625 0.35938,-1.14062 1.07813,-1.9375 0.71875,-0.8125 1.78125,-1.23437 1.0625,-0.4375 2.46875,-0.4375 1.34375,0 2.35937,0.35937 1.03125,0.35938 1.71875,1.09375 0.6875,0.73438 1.03125,1.85938 0.35938,1.125 0.35938,2.65625 z m -2.51563,0.125 q 0,-0.92188 -0.15625,-1.6875 -0.14062,-0.76563 -0.5,-1.29688 -0.34375,-0.54687 -0.92187,-0.84375 -0.57813,-0.29687 -1.45313,-0.29687 -0.89062,0 -1.48437,0.34375 -0.59375,0.32812 -0.95313,0.89062 -0.35937,0.54688 -0.51562,1.29688 -0.14063,0.73437 -0.14063,1.5625 0,0.96875 0.14063,1.73437 0.14062,0.76563 0.48437,1.3125 0.35938,0.54688 0.9375,0.84375 0.57813,0.28125 1.46875,0.28125 0.875,0 1.46875,-0.32812 0.59375,-0.32813 0.95313,-0.89063 0.375,-0.5625 0.51562,-1.3125 0.15625,-0.76562 0.15625,-1.60937 z m 12.56978,1.42187 q 0,1.09375 -0.23437,1.95313 -0.23438,0.85937 -0.6875,1.46875 -0.4375,0.60937 -1.09375,0.9375 -0.65625,0.32812 -1.48438,0.32812 -0.40625,0 -0.76562,-0.0781 -0.35938,-0.0781 -0.6875,-0.25 -0.3125,-0.17188 -0.625,-0.42188 -0.3125,-0.26562 -0.64063,-0.64062 v 0.875 q 0,0.10937 -0.0625,0.17187 -0.0469,0.0625 -0.15625,0.10938 -0.10937,0.0469 -0.3125,0.0625 -0.1875,0.0156 -0.45312,0.0156 -0.28125,0 -0.46875,-0.0156 -0.1875,-0.0156 -0.3125,-0.0625 -0.10938,-0.0469 -0.15625,-0.10938 -0.0469,-0.0625 -0.0469,-0.17187 v -11.96875 q 0,-0.0937 0.0469,-0.17188 0.0625,-0.0781 0.1875,-0.125 0.14062,-0.0469 0.35937,-0.0781 0.21875,-0.0312 0.5625,-0.0312 0.32813,0 0.54688,0.0312 0.21875,0.0312 0.34375,0.0781 0.14062,0.0469 0.1875,0.125 0.0625,0.0781 0.0625,0.17188 v 4.48437 q 0.3125,-0.3125 0.625,-0.53125 0.3125,-0.21875 0.60937,-0.35937 0.3125,-0.14063 0.64063,-0.20313 0.32812,-0.0625 0.70312,-0.0625 0.90625,0 1.53125,0.35938 0.625,0.35937 1.01563,0.96875 0.40625,0.60937 0.57812,1.42187 0.1875,0.8125 0.1875,1.71875 z m -2.375,0.17188 q 0,-0.53125 -0.0781,-1 -0.0781,-0.48438 -0.28125,-0.85938 -0.1875,-0.375 -0.5,-0.59375 -0.29688,-0.23437 -0.75,-0.23437 -0.23438,0 -0.45313,0.0625 -0.21875,0.0625 -0.45312,0.21875 -0.23438,0.15625 -0.48438,0.40625 -0.23437,0.25 -0.51562,0.60937 v 2.70313 q 0.48437,0.60937 0.92187,0.9375 0.45313,0.32812 0.9375,0.32812 0.4375,0 0.75,-0.23437 0.3125,-0.23438 0.51563,-0.59375 0.20312,-0.35938 0.29687,-0.82813 0.0937,-0.46875 0.0937,-0.92187 z m 6.66759,4.28125 q 0,0.95312 -0.17187,1.54687 -0.15625,0.59375 -0.48438,1 -0.32812,0.40625 -0.82812,0.60938 -0.5,0.20312 -1.17188,0.20312 -0.375,0 -0.64062,-0.0625 -0.26563,-0.0469 -0.375,-0.10937 -0.125,-0.0469 -0.17188,-0.125 -0.0469,-0.0781 -0.0625,-0.1875 -0.0156,-0.10938 -0.0312,-0.23438 -0.0156,-0.125 -0.0156,-0.34375 0,-0.25 0.0156,-0.42187 0.0156,-0.17188 0.0625,-0.28125 0.0312,-0.0937 0.0781,-0.14063 0.0469,-0.0312 0.10937,-0.0312 0.0469,0 0.1875,0.0156 0.14063,0.0312 0.3125,0.0312 0.23438,0 0.40625,-0.0781 0.17188,-0.0781 0.28125,-0.23437 0.10938,-0.15625 0.15625,-0.40625 0.0625,-0.25 0.0625,-0.79688 v -8.34375 q 0,-0.0937 0.0469,-0.15625 0.0625,-0.0625 0.1875,-0.10937 0.125,-0.0625 0.34375,-0.0781 0.21875,-0.0312 0.5625,-0.0312 0.34375,0 0.5625,0.0312 0.21875,0.0156 0.34375,0.0781 0.125,0.0469 0.17187,0.10937 0.0625,0.0625 0.0625,0.15625 z m 0.1875,-11.15625 q 0,0.6875 -0.28125,0.95312 -0.28125,0.26563 -1.0625,0.26563 -0.76562,0 -1.04687,-0.25 -0.26563,-0.25 -0.26563,-0.92188 0,-0.6875 0.28125,-0.95312 0.29688,-0.28125 1.0625,-0.28125 0.76563,0 1.03125,0.26562 0.28125,0.26563 0.28125,0.92188 z m 9.62364,6.57812 q 0,0.42188 -0.1875,0.625 -0.1875,0.1875 -0.51562,0.1875 h -4.95313 q 0,0.53125 0.125,0.95313 0.125,0.42187 0.39063,0.71875 0.28125,0.29687 0.70312,0.45312 0.42188,0.15625 1.01563,0.15625 0.59375,0 1.04687,-0.0781 0.45313,-0.0937 0.78125,-0.20313 0.34375,-0.10937 0.5625,-0.1875 0.21875,-0.0937 0.35938,-0.0937 0.0781,0 0.125,0.0312 0.0625,0.0312 0.0937,0.125 0.0469,0.0781 0.0469,0.23438 0.0156,0.14062 0.0156,0.35937 0,0.20313 -0.0156,0.34375 0,0.14063 -0.0156,0.25 -0.0156,0.0937 -0.0625,0.17188 -0.0312,0.0625 -0.0937,0.125 -0.0469,0.0625 -0.3125,0.17187 -0.26563,0.10938 -0.6875,0.21875 -0.40625,0.0937 -0.9375,0.17188 -0.51563,0.0781 -1.125,0.0781 -1.07813,0 -1.89063,-0.26562 -0.8125,-0.28125 -1.35937,-0.82813 -0.54688,-0.5625 -0.82813,-1.40625 -0.26562,-0.84375 -0.26562,-1.98437 0,-1.07813 0.28125,-1.95313 0.28125,-0.875 0.8125,-1.46875 0.54687,-0.60937 1.3125,-0.92187 0.78125,-0.32813 1.73437,-0.32813 1.03125,0 1.75,0.29688 0.71875,0.29687 1.1875,0.84375 0.46875,0.53125 0.6875,1.26562 0.21875,0.71875 0.21875,1.57813 z m -2.21875,-0.65625 q 0.0156,-0.96875 -0.40625,-1.51562 -0.40625,-0.54688 -1.26562,-0.54688 -0.4375,0 -0.76563,0.17188 -0.3125,0.15625 -0.53125,0.4375 -0.21875,0.26562 -0.32812,0.65625 -0.10938,0.375 -0.14063,0.79687 z m 10.25127,3.65625 q 0,0.25 -0.0156,0.40625 -0.0156,0.15625 -0.0469,0.26563 -0.0156,0.10937 -0.0469,0.1875 -0.0312,0.0625 -0.14062,0.17187 -0.10938,0.0937 -0.375,0.25 -0.26563,0.14063 -0.60938,0.26563 -0.32812,0.10937 -0.71875,0.1875 -0.39062,0.0781 -0.8125,0.0781 -0.9375,0 -1.67187,-0.28125 -0.71875,-0.29687 -1.21875,-0.85937 -0.48438,-0.57813 -0.73438,-1.39063 -0.25,-0.82812 -0.25,-1.89062 0,-1.21875 0.29688,-2.10938 0.3125,-0.89062 0.85937,-1.46875 0.54688,-0.57812 1.29688,-0.85937 0.75,-0.29688 1.64062,-0.29688 0.35938,0 0.70313,0.0781 0.35937,0.0625 0.65625,0.17187 0.3125,0.10938 0.54687,0.25 0.25,0.125 0.34375,0.23438 0.10938,0.0937 0.14063,0.17187 0.0469,0.0625 0.0625,0.17188 0.0312,0.10937 0.0469,0.26562 0.0156,0.15625 0.0156,0.39063 0,0.51562 -0.0937,0.73437 -0.0937,0.21875 -0.23438,0.21875 -0.15625,0 -0.32812,-0.125 -0.17188,-0.125 -0.42188,-0.28125 -0.23437,-0.15625 -0.5625,-0.28125 -0.32812,-0.14062 -0.78125,-0.14062 -0.89062,0 -1.375,0.6875 -0.46875,0.6875 -0.46875,2.03125 0,0.65625 0.125,1.15625 0.125,0.5 0.34375,0.84375 0.23438,0.32812 0.57813,0.5 0.35937,0.15625 0.82812,0.15625 0.46875,0 0.8125,-0.14063 0.34375,-0.14062 0.59375,-0.3125 0.26563,-0.17187 0.4375,-0.3125 0.17188,-0.14062 0.28125,-0.14062 0.0937,0 0.14063,0.0469 0.0625,0.0469 0.0937,0.17188 0.0312,0.125 0.0469,0.3125 0.0156,0.1875 0.0156,0.48437 z m 6.46309,0.5 q 0,0.40625 -0.0469,0.625 -0.0469,0.20313 -0.14062,0.29688 -0.0781,0.0781 -0.23438,0.15625 -0.15625,0.0625 -0.375,0.10937 -0.20312,0.0469 -0.45312,0.0781 -0.25,0.0312 -0.51563,0.0312 -0.6875,0 -1.1875,-0.17188 -0.5,-0.17187 -0.82812,-0.53125 -0.32813,-0.375 -0.48438,-0.92187 -0.14062,-0.54688 -0.14062,-1.28125 V 209.297 h -0.98438 q -0.17187,0 -0.26562,-0.20312 -0.0937,-0.21875 -0.0937,-0.71875 0,-0.26563 0.0156,-0.4375 0.0312,-0.1875 0.0781,-0.29688 0.0469,-0.10937 0.10937,-0.15625 0.0781,-0.0469 0.17188,-0.0469 h 0.96875 v -1.8125 q 0,-0.0937 0.0469,-0.15625 0.0469,-0.0781 0.17188,-0.125 0.14062,-0.0469 0.35937,-0.0625 0.21875,-0.0312 0.54688,-0.0312 0.34375,0 0.5625,0.0312 0.23437,0.0156 0.35937,0.0625 0.125,0.0469 0.17188,0.125 0.0625,0.0625 0.0625,0.15625 v 1.8125 h 1.76562 q 0.0937,0 0.15625,0.0469 0.0781,0.0469 0.10938,0.15625 0.0469,0.10938 0.0625,0.29688 0.0312,0.17187 0.0312,0.4375 0,0.5 -0.0937,0.71875 -0.0781,0.20312 -0.25,0.20312 h -1.78125 v 3.82813 q 0,0.65625 0.20312,1 0.21875,0.32812 0.75,0.32812 0.1875,0 0.32813,-0.0312 0.14062,-0.0312 0.25,-0.0781 0.125,-0.0469 0.20312,-0.0781 0.0781,-0.0312 0.14063,-0.0312 0.0469,0 0.0937,0.0312 0.0625,0.0312 0.0781,0.14063 0.0312,0.0937 0.0469,0.26562 0.0312,0.15625 0.0312,0.40625 z"
       fill-rule="nonzero"
       id="path15" />
    <path
       fill="#000000"
       fill-opacity="0"
       d="M 154.07086,209.26772 H 85.88189"
       fill-rule="evenodd"
       id="path17" />
    <path
       stroke="#882255"
       stroke-width="2"
       stroke-linejoin="round"
       stroke-linecap="butt"
       d="M 142.07086,209.26772 H 85.881888"
       fill-rule="evenodd"
       id="path19" />
    <path
       fill="#882255"
       stroke="#882255"
       stroke-width="2"
       stroke-linecap="butt"
       d="m 142.07086,212.57118 9.0762,-3.30347 -9.0762,-3.30346 z"
       fill-rule="evenodd"
       id="path21" />
    <path
       fill="#8cf7ff"
       fill-opacity="0.6897"
       d="m 491.87665,192.54347 v 0 c 0,-4.61841 3.74396,-8.36237 8.36237,-8.36237 h 127.49573 c 2.21783,0 4.34484,0.88103 5.91308,2.44928 1.56824,1.56826 2.44928,3.69526 2.44928,5.91309 v 33.44849 c 0,4.6184 -3.74396,8.36236 -8.36236,8.36236 H 500.23902 c -4.61841,0 -8.36237,-3.74396 -8.36237,-8.36236 z"
       fill-rule="evenodd"
       id="path23" />
    <path
       stroke="#0097a7"
       stroke-width="2"
       stroke-linejoin="round"
       stroke-linecap="butt"
       d="m 491.87665,192.54347 v 0 c 0,-4.61841 3.74396,-8.36237 8.36237,-8.36237 h 127.49573 c 2.21783,0 4.34484,0.88103 5.91308,2.44928 1.56824,1.56826 2.44928,3.69526 2.44928,5.91309 v 33.44849 c 0,4.6184 -3.74396,8.36236 -8.36236,8.36236 H 500.23902 c -4.61841,0 -8.36237,-3.74396 -8.36237,-8.36236 z"
       fill-rule="evenodd"
       id="path25" />
    <path
       fill="#0097a7"
       d="m 550.34814,210.15646 q 0,1.46875 -0.375,2.625 -0.35938,1.15625 -1.07813,1.96875 -0.71875,0.79687 -1.78125,1.21875 -1.0625,0.42187 -2.45312,0.42187 -1.375,0 -2.40625,-0.35937 -1.01563,-0.35938 -1.70313,-1.09375 -0.6875,-0.73438 -1.03125,-1.875 -0.32812,-1.14063 -0.32812,-2.70313 0,-1.42187 0.35937,-2.5625 0.35938,-1.14062 1.07813,-1.9375 0.71875,-0.8125 1.78125,-1.23437 1.0625,-0.4375 2.46875,-0.4375 1.34375,0 2.35937,0.35937 1.03125,0.35938 1.71875,1.09375 0.6875,0.73438 1.03125,1.85938 0.35938,1.125 0.35938,2.65625 z m -2.51563,0.125 q 0,-0.92188 -0.15625,-1.6875 -0.14062,-0.76563 -0.5,-1.29688 -0.34375,-0.54687 -0.92187,-0.84375 -0.57813,-0.29687 -1.45313,-0.29687 -0.89062,0 -1.48437,0.34375 -0.59375,0.32812 -0.95313,0.89062 -0.35937,0.54688 -0.51562,1.29688 -0.14063,0.73437 -0.14063,1.5625 0,0.96875 0.14063,1.73437 0.14062,0.76563 0.48437,1.3125 0.35938,0.54688 0.9375,0.84375 0.57813,0.28125 1.46875,0.28125 0.875,0 1.46875,-0.32812 0.59375,-0.32813 0.95313,-0.89063 0.375,-0.5625 0.51562,-1.3125 0.15625,-0.76562 0.15625,-1.60937 z m 12.56977,1.42187 q 0,1.09375 -0.23438,1.95313 -0.23437,0.85937 -0.6875,1.46875 -0.4375,0.60937 -1.09375,0.9375 -0.65625,0.32812 -1.48437,0.32812 -0.40625,0 -0.76563,-0.0781 -0.35937,-0.0781 -0.6875,-0.25 -0.3125,-0.17188 -0.625,-0.42188 -0.3125,-0.26562 -0.64062,-0.64062 v 0.875 q 0,0.10937 -0.0625,0.17187 -0.0469,0.0625 -0.15625,0.10938 -0.10938,0.0469 -0.3125,0.0625 -0.1875,0.0156 -0.45313,0.0156 -0.28125,0 -0.46875,-0.0156 -0.1875,-0.0156 -0.3125,-0.0625 -0.10937,-0.0469 -0.15625,-0.10938 -0.0469,-0.0625 -0.0469,-0.17187 v -11.96875 q 0,-0.0937 0.0469,-0.17188 0.0625,-0.0781 0.1875,-0.125 0.14063,-0.0469 0.35938,-0.0781 0.21875,-0.0312 0.5625,-0.0312 0.32812,0 0.54687,0.0312 0.21875,0.0312 0.34375,0.0781 0.14063,0.0469 0.1875,0.125 0.0625,0.0781 0.0625,0.17188 v 4.48437 q 0.3125,-0.3125 0.625,-0.53125 0.3125,-0.21875 0.60938,-0.35937 0.3125,-0.14063 0.64062,-0.20313 0.32813,-0.0625 0.70313,-0.0625 0.90625,0 1.53125,0.35938 0.625,0.35937 1.01562,0.96875 0.40625,0.60937 0.57813,1.42187 0.1875,0.8125 0.1875,1.71875 z m -2.375,0.17188 q 0,-0.53125 -0.0781,-1 -0.0781,-0.48438 -0.28125,-0.85938 -0.1875,-0.375 -0.5,-0.59375 -0.29687,-0.23437 -0.75,-0.23437 -0.23437,0 -0.45312,0.0625 -0.21875,0.0625 -0.45313,0.21875 -0.23437,0.15625 -0.48437,0.40625 -0.23438,0.25 -0.51563,0.60937 v 2.70313 q 0.48438,0.60937 0.92188,0.9375 0.45312,0.32812 0.9375,0.32812 0.4375,0 0.75,-0.23437 0.3125,-0.23438 0.51562,-0.59375 0.20313,-0.35938 0.29688,-0.82813 0.0937,-0.46875 0.0937,-0.92187 z m 6.6676,4.28125 q 0,0.95312 -0.17187,1.54687 -0.15625,0.59375 -0.48438,1 -0.32812,0.40625 -0.82812,0.60938 -0.5,0.20312 -1.17188,0.20312 -0.375,0 -0.64062,-0.0625 -0.26563,-0.0469 -0.375,-0.10937 -0.125,-0.0469 -0.17188,-0.125 -0.0469,-0.0781 -0.0625,-0.1875 -0.0156,-0.10938 -0.0312,-0.23438 -0.0156,-0.125 -0.0156,-0.34375 0,-0.25 0.0156,-0.42187 0.0156,-0.17188 0.0625,-0.28125 0.0312,-0.0937 0.0781,-0.14063 0.0469,-0.0312 0.10937,-0.0312 0.0469,0 0.1875,0.0156 0.14063,0.0312 0.3125,0.0312 0.23438,0 0.40625,-0.0781 0.17188,-0.0781 0.28125,-0.23437 0.10938,-0.15625 0.15625,-0.40625 0.0625,-0.25 0.0625,-0.79688 v -8.34375 q 0,-0.0937 0.0469,-0.15625 0.0625,-0.0625 0.1875,-0.10937 0.125,-0.0625 0.34375,-0.0781 0.21875,-0.0312 0.5625,-0.0312 0.34375,0 0.5625,0.0312 0.21875,0.0156 0.34375,0.0781 0.125,0.0469 0.17187,0.10937 0.0625,0.0625 0.0625,0.15625 z m 0.1875,-11.15625 q 0,0.6875 -0.28125,0.95312 -0.28125,0.26563 -1.0625,0.26563 -0.76562,0 -1.04687,-0.25 -0.26563,-0.25 -0.26563,-0.92188 0,-0.6875 0.28125,-0.95312 0.29688,-0.28125 1.0625,-0.28125 0.76563,0 1.03125,0.26562 0.28125,0.26563 0.28125,0.92188 z m 9.62366,6.57812 q 0,0.42188 -0.1875,0.625 -0.1875,0.1875 -0.51563,0.1875 h -4.95312 q 0,0.53125 0.125,0.95313 0.125,0.42187 0.39062,0.71875 0.28125,0.29687 0.70313,0.45312 0.42187,0.15625 1.01562,0.15625 0.59375,0 1.04688,-0.0781 0.45312,-0.0937 0.78125,-0.20313 0.34375,-0.10937 0.5625,-0.1875 0.21875,-0.0937 0.35937,-0.0937 0.0781,0 0.125,0.0312 0.0625,0.0312 0.0937,0.125 0.0469,0.0781 0.0469,0.23438 0.0156,0.14062 0.0156,0.35937 0,0.20313 -0.0156,0.34375 0,0.14063 -0.0156,0.25 -0.0156,0.0937 -0.0625,0.17188 -0.0312,0.0625 -0.0937,0.125 -0.0469,0.0625 -0.3125,0.17187 -0.26562,0.10938 -0.6875,0.21875 -0.40625,0.0937 -0.9375,0.17188 -0.51562,0.0781 -1.125,0.0781 -1.07812,0 -1.89062,-0.26562 -0.8125,-0.28125 -1.35938,-0.82813 -0.54687,-0.5625 -0.82812,-1.40625 -0.26563,-0.84375 -0.26563,-1.98437 0,-1.07813 0.28125,-1.95313 0.28125,-0.875 0.8125,-1.46875 0.54688,-0.60937 1.3125,-0.92187 0.78125,-0.32813 1.73438,-0.32813 1.03125,0 1.75,0.29688 0.71875,0.29687 1.1875,0.84375 0.46875,0.53125 0.6875,1.26562 0.21875,0.71875 0.21875,1.57813 z m -2.21875,-0.65625 q 0.0156,-0.96875 -0.40625,-1.51562 -0.40625,-0.54688 -1.26563,-0.54688 -0.4375,0 -0.76562,0.17188 -0.3125,0.15625 -0.53125,0.4375 -0.21875,0.26562 -0.32813,0.65625 -0.10937,0.375 -0.14062,0.79687 z m 10.25122,3.65625 q 0,0.25 -0.0156,0.40625 -0.0156,0.15625 -0.0469,0.26563 -0.0156,0.10937 -0.0469,0.1875 -0.0312,0.0625 -0.14062,0.17187 -0.10938,0.0937 -0.375,0.25 -0.26563,0.14063 -0.60938,0.26563 -0.32812,0.10937 -0.71875,0.1875 -0.39062,0.0781 -0.8125,0.0781 -0.9375,0 -1.67187,-0.28125 -0.71875,-0.29687 -1.21875,-0.85937 -0.48438,-0.57813 -0.73438,-1.39063 -0.25,-0.82812 -0.25,-1.89062 0,-1.21875 0.29688,-2.10938 0.3125,-0.89062 0.85937,-1.46875 0.54688,-0.57812 1.29688,-0.85937 0.75,-0.29688 1.64062,-0.29688 0.35938,0 0.70313,0.0781 0.35937,0.0625 0.65625,0.17187 0.3125,0.10938 0.54687,0.25 0.25,0.125 0.34375,0.23438 0.10938,0.0937 0.14063,0.17187 0.0469,0.0625 0.0625,0.17188 0.0312,0.10937 0.0469,0.26562 0.0156,0.15625 0.0156,0.39063 0,0.51562 -0.0937,0.73437 -0.0937,0.21875 -0.23438,0.21875 -0.15625,0 -0.32812,-0.125 -0.17188,-0.125 -0.42188,-0.28125 -0.23437,-0.15625 -0.5625,-0.28125 -0.32812,-0.14062 -0.78125,-0.14062 -0.89062,0 -1.375,0.6875 -0.46875,0.6875 -0.46875,2.03125 0,0.65625 0.125,1.15625 0.125,0.5 0.34375,0.84375 0.23438,0.32812 0.57813,0.5 0.35937,0.15625 0.82812,0.15625 0.46875,0 0.8125,-0.14063 0.34375,-0.14062 0.59375,-0.3125 0.26563,-0.17187 0.4375,-0.3125 0.17188,-0.14062 0.28125,-0.14062 0.0937,0 0.14063,0.0469 0.0625,0.0469 0.0937,0.17188 0.0312,0.125 0.0469,0.3125 0.0156,0.1875 0.0156,0.48437 z m 6.46313,0.5 q 0,0.40625 -0.0469,0.625 -0.0469,0.20313 -0.14063,0.29688 -0.0781,0.0781 -0.23437,0.15625 -0.15625,0.0625 -0.375,0.10937 -0.20313,0.0469 -0.45313,0.0781 -0.25,0.0312 -0.51562,0.0312 -0.6875,0 -1.1875,-0.17188 -0.5,-0.17187 -0.82813,-0.53125 -0.32812,-0.375 -0.48437,-0.92187 -0.14063,-0.54688 -0.14063,-1.28125 V 209.297 h -0.98437 q -0.17188,0 -0.26563,-0.20312 -0.0937,-0.21875 -0.0937,-0.71875 0,-0.26563 0.0156,-0.4375 0.0312,-0.1875 0.0781,-0.29688 0.0469,-0.10937 0.10938,-0.15625 0.0781,-0.0469 0.17187,-0.0469 h 0.96875 v -1.8125 q 0,-0.0937 0.0469,-0.15625 0.0469,-0.0781 0.17187,-0.125 0.14063,-0.0469 0.35938,-0.0625 0.21875,-0.0312 0.54687,-0.0312 0.34375,0 0.5625,0.0312 0.23438,0.0156 0.35938,0.0625 0.125,0.0469 0.17187,0.125 0.0625,0.0625 0.0625,0.15625 v 1.8125 h 1.76563 q 0.0937,0 0.15625,0.0469 0.0781,0.0469 0.10937,0.15625 0.0469,0.10938 0.0625,0.29688 0.0312,0.17187 0.0312,0.4375 0,0.5 -0.0937,0.71875 -0.0781,0.20312 -0.25,0.20312 h -1.78125 v 3.82813 q 0,0.65625 0.20313,1 0.21875,0.32812 0.75,0.32812 0.1875,0 0.32812,-0.0312 0.14063,-0.0312 0.25,-0.0781 0.125,-0.0469 0.20313,-0.0781 0.0781,-0.0312 0.14062,-0.0312 0.0469,0 0.0937,0.0312 0.0625,0.0312 0.0781,0.14063 0.0312,0.0937 0.0469,0.26562 0.0312,0.15625 0.0312,0.40625 z"
       fill-rule="nonzero"
       id="path27" />
    <path
       fill="#000000"
       fill-opacity="0"
       d="m 491.87665,209.26772 h -68.189"
       fill-rule="evenodd"
       id="path29" />
    <path
       stroke="#882255"
       stroke-width="2"
       stroke-linejoin="round"
       stroke-linecap="butt"
       d="m 479.87665,209.26772 h -56.189"
       fill-rule="evenodd"
       id="path31" />
    <path
       fill="#882255"
       stroke="#882255"
       stroke-width="2"
       stroke-linecap="butt"
       d="m 479.87665,212.57118 9.0762,-3.30347 -9.0762,-3.30346 z"
       fill-rule="evenodd"
       id="path33" />
    <path
       fill="#000000"
       fill-opacity="0"
       d="m 422.96326,276.66928 c 17.22833,0 25.84253,-16.85037 34.4567,-33.70077 8.61416,-16.85041 17.22833,-33.7008 34.45669,-33.7008"
       fill-rule="evenodd"
       id="path35" />
    <path
       stroke="#ffab40"
       stroke-width="2"
       stroke-linejoin="round"
       stroke-linecap="butt"
       d="m 422.96326,276.66928 c 17.22833,0 25.84253,-16.85037 34.4567,-33.70077 4.30706,-8.42521 8.61416,-16.85041 13.99801,-23.1693 1.34598,-1.57973 2.75925,-3.0278 4.25662,-4.31133 0.74869,-0.64175 1.51841,-1.2424 2.31125,-1.79776 0.39646,-0.27768 0.79865,-0.54406 1.20691,-0.7986 0.20416,-0.12727 0.40979,-0.2516 0.61698,-0.37287 0.10357,-0.0607 0.20758,-0.12056 0.31195,-0.17968 l 0.13501,-0.0752"
       fill-rule="evenodd"
       id="path37" />
    <path
       fill="#ffab40"
       stroke="#ffab40"
       stroke-width="2"
       stroke-linecap="butt"
       d="m 481.08145,215.4626 7.96399,-5.4649 -9.61356,-0.93279 z"
       fill-rule="evenodd"
       id="path39" />
    <path
       fill="#eeeeee"
       d="m 782.4068,192.54347 v 0 c 0,-4.61841 3.74396,-8.36237 8.36243,-8.36237 h 127.49573 c 2.21783,0 4.34478,0.88103 5.91308,2.44928 1.56824,1.56826 2.44928,3.69526 2.44928,5.91309 v 33.44849 c 0,4.6184 -3.74395,8.36236 -8.36236,8.36236 H 790.76923 c -4.61847,0 -8.36243,-3.74396 -8.36243,-8.36236 z"
       fill-rule="evenodd"
       id="path41" />
    <path
       stroke="#b7b7b7"
       stroke-width="2"
       stroke-linejoin="round"
       stroke-linecap="butt"
       d="m 782.4068,192.54347 v 0 c 0,-4.61841 3.74396,-8.36237 8.36243,-8.36237 h 127.49573 c 2.21783,0 4.34478,0.88103 5.91308,2.44928 1.56824,1.56826 2.44928,3.69526 2.44928,5.91309 v 33.44849 c 0,4.6184 -3.74395,8.36236 -8.36236,8.36236 H 790.76923 c -4.61847,0 -8.36243,-3.74396 -8.36243,-8.36236 z"
       fill-rule="evenodd"
       id="path43" />
    <path
       fill="#212121"
       d="m 807.6361,210.12521 q 0,1.60937 -0.42187,2.76562 -0.42188,1.15625 -1.21875,1.89063 -0.79688,0.71875 -1.9375,1.0625 -1.125,0.34375 -2.6875,0.34375 h -2.8125 q -0.3125,0 -0.51563,-0.17188 -0.20312,-0.1875 -0.20312,-0.57812 v -10.28125 q 0,-0.40625 0.20312,-0.57813 0.20313,-0.17187 0.51563,-0.17187 h 3.01562 q 1.57813,0 2.67188,0.375 1.10937,0.35937 1.85937,1.09375 0.75,0.71875 1.14063,1.78125 0.39062,1.0625 0.39062,2.46875 z m -2.48437,0.0781 q 0,-0.84375 -0.20313,-1.5625 -0.1875,-0.71875 -0.625,-1.23437 -0.42187,-0.53125 -1.10937,-0.82813 -0.67188,-0.29687 -1.78125,-0.29687 h -1.20313 v 8.01562 h 1.25 q 0.98438,0 1.65625,-0.25 0.67188,-0.26562 1.125,-0.78125 0.45313,-0.51562 0.67188,-1.28125 0.21875,-0.76562 0.21875,-1.78125 z m 11.82287,1.375 q 0,0.42188 -0.1875,0.625 -0.1875,0.1875 -0.51562,0.1875 h -4.95313 q 0,0.53125 0.125,0.95313 0.125,0.42187 0.39063,0.71875 0.28125,0.29687 0.70312,0.45312 0.42188,0.15625 1.01563,0.15625 0.59375,0 1.04687,-0.0781 0.45313,-0.0937 0.78125,-0.20313 0.34375,-0.10937 0.5625,-0.1875 0.21875,-0.0937 0.35938,-0.0937 0.0781,0 0.125,0.0312 0.0625,0.0312 0.0937,0.125 0.0469,0.0781 0.0469,0.23438 0.0156,0.14062 0.0156,0.35937 0,0.20313 -0.0156,0.34375 0,0.14063 -0.0156,0.25 -0.0156,0.0937 -0.0625,0.17188 -0.0312,0.0625 -0.0937,0.125 -0.0469,0.0625 -0.3125,0.17187 -0.26563,0.10938 -0.6875,0.21875 -0.40625,0.0937 -0.9375,0.17188 -0.51563,0.0781 -1.125,0.0781 -1.07813,0 -1.89063,-0.26562 -0.8125,-0.28125 -1.35937,-0.82813 -0.54688,-0.5625 -0.82813,-1.40625 -0.26562,-0.84375 -0.26562,-1.98437 0,-1.07813 0.28125,-1.95313 0.28125,-0.875 0.8125,-1.46875 0.54687,-0.60937 1.3125,-0.92187 0.78125,-0.32813 1.73437,-0.32813 1.03125,0 1.75,0.29688 0.71875,0.29687 1.1875,0.84375 0.46875,0.53125 0.6875,1.26562 0.21875,0.71875 0.21875,1.57813 z m -2.21875,-0.65625 q 0.0156,-0.96875 -0.40625,-1.51562 -0.40625,-0.54688 -1.26562,-0.54688 -0.4375,0 -0.76563,0.17188 -0.3125,0.15625 -0.53125,0.4375 -0.21875,0.26562 -0.32812,0.65625 -0.10938,0.375 -0.14063,0.79687 z m 6.39191,4.95313 q 0,0.0937 -0.0625,0.17187 -0.0469,0.0625 -0.1875,0.10938 -0.125,0.0469 -0.34375,0.0625 -0.21875,0.0156 -0.54688,0.0156 -0.34375,0 -0.5625,-0.0156 -0.21875,-0.0156 -0.35937,-0.0625 -0.125,-0.0469 -0.1875,-0.10938 -0.0469,-0.0781 -0.0469,-0.17187 v -11.96875 q 0,-0.0937 0.0469,-0.17188 0.0625,-0.0781 0.1875,-0.125 0.14062,-0.0469 0.35937,-0.0781 0.21875,-0.0312 0.5625,-0.0312 0.32813,0 0.54688,0.0312 0.21875,0.0312 0.34375,0.0781 0.14062,0.0469 0.1875,0.125 0.0625,0.0781 0.0625,0.17188 z m 9.80078,-4.29688 q 0,0.42188 -0.1875,0.625 -0.1875,0.1875 -0.51563,0.1875 h -4.95312 q 0,0.53125 0.125,0.95313 0.125,0.42187 0.39062,0.71875 0.28125,0.29687 0.70313,0.45312 0.42187,0.15625 1.01562,0.15625 0.59375,0 1.04688,-0.0781 0.45312,-0.0937 0.78125,-0.20313 0.34375,-0.10937 0.5625,-0.1875 0.21875,-0.0937 0.35937,-0.0937 0.0781,0 0.125,0.0312 0.0625,0.0312 0.0937,0.125 0.0469,0.0781 0.0469,0.23438 0.0156,0.14062 0.0156,0.35937 0,0.20313 -0.0156,0.34375 0,0.14063 -0.0156,0.25 -0.0156,0.0937 -0.0625,0.17188 -0.0312,0.0625 -0.0937,0.125 -0.0469,0.0625 -0.3125,0.17187 -0.26562,0.10938 -0.6875,0.21875 -0.40625,0.0937 -0.9375,0.17188 -0.51562,0.0781 -1.125,0.0781 -1.07812,0 -1.89062,-0.26562 -0.8125,-0.28125 -1.35938,-0.82813 -0.54687,-0.5625 -0.82812,-1.40625 -0.26563,-0.84375 -0.26563,-1.98437 0,-1.07813 0.28125,-1.95313 0.28125,-0.875 0.8125,-1.46875 0.54688,-0.60937 1.3125,-0.92187 0.78125,-0.32813 1.73438,-0.32813 1.03125,0 1.75,0.29688 0.71875,0.29687 1.1875,0.84375 0.46875,0.53125 0.6875,1.26562 0.21875,0.71875 0.21875,1.57813 z m -2.21875,-0.65625 q 0.0156,-0.96875 -0.40625,-1.51562 -0.40625,-0.54688 -1.26563,-0.54688 -0.4375,0 -0.76562,0.17188 -0.3125,0.15625 -0.53125,0.4375 -0.21875,0.26562 -0.32813,0.65625 -0.10937,0.375 -0.14062,0.79687 z m 8.77991,4.15625 q 0,0.40625 -0.0469,0.625 -0.0469,0.20313 -0.14062,0.29688 -0.0781,0.0781 -0.23438,0.15625 -0.15625,0.0625 -0.375,0.10937 -0.20312,0.0469 -0.45312,0.0781 -0.25,0.0312 -0.51563,0.0312 -0.6875,0 -1.1875,-0.17188 -0.5,-0.17187 -0.82812,-0.53125 -0.32813,-0.375 -0.48438,-0.92187 -0.14062,-0.54688 -0.14062,-1.28125 v -4.17188 h -0.98438 q -0.17187,0 -0.26562,-0.20312 -0.0937,-0.21875 -0.0937,-0.71875 0,-0.26563 0.0156,-0.4375 0.0312,-0.1875 0.0781,-0.29688 0.0469,-0.10937 0.10937,-0.15625 0.0781,-0.0469 0.17188,-0.0469 h 0.96875 v -1.8125 q 0,-0.0937 0.0469,-0.15625 0.0469,-0.0781 0.17188,-0.125 0.14062,-0.0469 0.35937,-0.0625 0.21875,-0.0312 0.54688,-0.0312 0.34375,0 0.5625,0.0312 0.23437,0.0156 0.35937,0.0625 0.125,0.0469 0.17188,0.125 0.0625,0.0625 0.0625,0.15625 v 1.8125 h 1.76562 q 0.0937,0 0.15625,0.0469 0.0781,0.0469 0.10938,0.15625 0.0469,0.10938 0.0625,0.29688 0.0312,0.17187 0.0312,0.4375 0,0.5 -0.0937,0.71875 -0.0781,0.20312 -0.25,0.20312 h -1.78125 v 3.82813 q 0,0.65625 0.20312,1 0.21875,0.32812 0.75,0.32812 0.1875,0 0.32813,-0.0312 0.14062,-0.0312 0.25,-0.0781 0.125,-0.0469 0.20312,-0.0781 0.0781,-0.0312 0.14063,-0.0312 0.0469,0 0.0937,0.0312 0.0625,0.0312 0.0781,0.14063 0.0312,0.0937 0.0469,0.26562 0.0312,0.15625 0.0312,0.40625 z m 8.94305,-3.5 q 0,0.42188 -0.1875,0.625 -0.1875,0.1875 -0.51563,0.1875 h -4.95312 q 0,0.53125 0.125,0.95313 0.125,0.42187 0.39062,0.71875 0.28125,0.29687 0.70313,0.45312 0.42187,0.15625 1.01562,0.15625 0.59375,0 1.04688,-0.0781 0.45312,-0.0937 0.78125,-0.20313 0.34375,-0.10937 0.5625,-0.1875 0.21875,-0.0937 0.35937,-0.0937 0.0781,0 0.125,0.0312 0.0625,0.0312 0.0937,0.125 0.0469,0.0781 0.0469,0.23438 0.0156,0.14062 0.0156,0.35937 0,0.20313 -0.0156,0.34375 0,0.14063 -0.0156,0.25 -0.0156,0.0937 -0.0625,0.17188 -0.0312,0.0625 -0.0937,0.125 -0.0469,0.0625 -0.3125,0.17187 -0.26562,0.10938 -0.6875,0.21875 -0.40625,0.0937 -0.9375,0.17188 -0.51562,0.0781 -1.125,0.0781 -1.07812,0 -1.89062,-0.26562 -0.8125,-0.28125 -1.35938,-0.82813 -0.54687,-0.5625 -0.82812,-1.40625 -0.26563,-0.84375 -0.26563,-1.98437 0,-1.07813 0.28125,-1.95313 0.28125,-0.875 0.8125,-1.46875 0.54688,-0.60937 1.3125,-0.92187 0.78125,-0.32813 1.73438,-0.32813 1.03125,0 1.75,0.29688 0.71875,0.29687 1.1875,0.84375 0.46875,0.53125 0.6875,1.26562 0.21875,0.71875 0.21875,1.57813 z m -2.21875,-0.65625 q 0.0156,-0.96875 -0.40625,-1.51562 -0.40625,-0.54688 -1.26563,-0.54688 -0.4375,0 -0.76562,0.17188 -0.3125,0.15625 -0.53125,0.4375 -0.21875,0.26562 -0.32813,0.65625 -0.10937,0.375 -0.14062,0.79687 z m 11.81372,4.95313 q 0,0.10937 -0.0469,0.17187 -0.0469,0.0625 -0.15625,0.10938 -0.10938,0.0469 -0.29688,0.0625 -0.1875,0.0156 -0.46875,0.0156 -0.28125,0 -0.46875,-0.0156 -0.1875,-0.0156 -0.29687,-0.0625 -0.10938,-0.0469 -0.15625,-0.10938 -0.0469,-0.0625 -0.0469,-0.17187 v -0.90625 q -0.64062,0.6875 -1.32812,1.0625 -0.6875,0.35937 -1.51563,0.35937 -0.9375,0 -1.57812,-0.35937 -0.64063,-0.35938 -1.04688,-0.96875 -0.40625,-0.60938 -0.59375,-1.42188 -0.17187,-0.8125 -0.17187,-1.71875 0,-1.07812 0.21875,-1.9375 0.23437,-0.875 0.6875,-1.48437 0.45312,-0.60938 1.10937,-0.9375 0.67188,-0.32813 1.53125,-0.32813 0.6875,0 1.23438,0.28125 0.5625,0.26563 1.10937,0.8125 v -4.40625 q 0,-0.0937 0.0469,-0.15625 0.0469,-0.0781 0.17187,-0.125 0.14063,-0.0469 0.35938,-0.0781 0.21875,-0.0312 0.5625,-0.0312 0.32812,0 0.54687,0.0312 0.21875,0.0312 0.34375,0.0781 0.14063,0.0469 0.1875,0.125 0.0625,0.0625 0.0625,0.15625 z m -2.28125,-5.42188 q -0.5,-0.625 -0.95312,-0.95312 -0.4375,-0.32813 -0.9375,-0.32813 -0.4375,0 -0.76563,0.23438 -0.32812,0.21875 -0.53125,0.59375 -0.1875,0.35937 -0.28125,0.82812 -0.0937,0.45313 -0.0937,0.9375 0,0.51563 0.0781,1 0.0781,0.48438 0.26562,0.85938 0.1875,0.375 0.5,0.60937 0.3125,0.21875 0.78125,0.21875 0.23438,0 0.45313,-0.0625 0.23437,-0.0781 0.46875,-0.21875 0.23437,-0.15625 0.46875,-0.40625 0.25,-0.25 0.54687,-0.625 z m 19.54157,-0.29687 q 0,1.46875 -0.375,2.625 -0.35938,1.15625 -1.07813,1.96875 -0.71875,0.79687 -1.78125,1.21875 -1.0625,0.42187 -2.45312,0.42187 -1.375,0 -2.40625,-0.35937 -1.01563,-0.35938 -1.70313,-1.09375 -0.6875,-0.73438 -1.03125,-1.875 -0.32812,-1.14063 -0.32812,-2.70313 0,-1.42187 0.35937,-2.5625 0.35938,-1.14062 1.07813,-1.9375 0.71875,-0.8125 1.78125,-1.23437 1.0625,-0.4375 2.46875,-0.4375 1.34375,0 2.35937,0.35937 1.03125,0.35938 1.71875,1.09375 0.6875,0.73438 1.03125,1.85938 0.35938,1.125 0.35938,2.65625 z m -2.51563,0.125 q 0,-0.92188 -0.15625,-1.6875 -0.14062,-0.76563 -0.5,-1.29688 -0.34375,-0.54687 -0.92187,-0.84375 -0.57813,-0.29687 -1.45313,-0.29687 -0.89062,0 -1.48437,0.34375 -0.59375,0.32812 -0.95313,0.89062 -0.35937,0.54688 -0.51562,1.29688 -0.14063,0.73437 -0.14063,1.5625 0,0.96875 0.14063,1.73437 0.14062,0.76563 0.48437,1.3125 0.35938,0.54688 0.9375,0.84375 0.57813,0.28125 1.46875,0.28125 0.875,0 1.46875,-0.32812 0.59375,-0.32813 0.95313,-0.89063 0.375,-0.5625 0.51562,-1.3125 0.15625,-0.76562 0.15625,-1.60937 z m 12.56976,1.42187 q 0,1.09375 -0.23437,1.95313 -0.23438,0.85937 -0.6875,1.46875 -0.4375,0.60937 -1.09375,0.9375 -0.65625,0.32812 -1.48438,0.32812 -0.40625,0 -0.76562,-0.0781 -0.35938,-0.0781 -0.6875,-0.25 -0.3125,-0.17188 -0.625,-0.42188 -0.3125,-0.26562 -0.64063,-0.64062 v 0.875 q 0,0.10937 -0.0625,0.17187 -0.0469,0.0625 -0.15625,0.10938 -0.10937,0.0469 -0.3125,0.0625 -0.1875,0.0156 -0.45312,0.0156 -0.28125,0 -0.46875,-0.0156 -0.1875,-0.0156 -0.3125,-0.0625 -0.10938,-0.0469 -0.15625,-0.10938 -0.0469,-0.0625 -0.0469,-0.17187 v -11.96875 q 0,-0.0937 0.0469,-0.17188 0.0625,-0.0781 0.1875,-0.125 0.14062,-0.0469 0.35937,-0.0781 0.21875,-0.0312 0.5625,-0.0312 0.32813,0 0.54688,0.0312 0.21875,0.0312 0.34375,0.0781 0.14062,0.0469 0.1875,0.125 0.0625,0.0781 0.0625,0.17188 v 4.48437 q 0.3125,-0.3125 0.625,-0.53125 0.3125,-0.21875 0.60937,-0.35937 0.3125,-0.14063 0.64063,-0.20313 0.32812,-0.0625 0.70312,-0.0625 0.90625,0 1.53125,0.35938 0.625,0.35937 1.01563,0.96875 0.40625,0.60937 0.57812,1.42187 0.1875,0.8125 0.1875,1.71875 z m -2.375,0.17188 q 0,-0.53125 -0.0781,-1 -0.0781,-0.48438 -0.28125,-0.85938 -0.1875,-0.375 -0.5,-0.59375 -0.29688,-0.23437 -0.75,-0.23437 -0.23438,0 -0.45313,0.0625 -0.21875,0.0625 -0.45312,0.21875 -0.23438,0.15625 -0.48438,0.40625 -0.23437,0.25 -0.51562,0.60937 v 2.70313 q 0.48437,0.60937 0.92187,0.9375 0.45313,0.32812 0.9375,0.32812 0.4375,0 0.75,-0.23437 0.3125,-0.23438 0.51563,-0.59375 0.20312,-0.35938 0.29687,-0.82813 0.0937,-0.46875 0.0937,-0.92187 z m 6.66761,4.28125 q 0,0.95312 -0.17188,1.54687 -0.15625,0.59375 -0.48437,1 -0.32813,0.40625 -0.82813,0.60938 -0.5,0.20312 -1.17187,0.20312 -0.375,0 -0.64063,-0.0625 -0.26562,-0.0469 -0.375,-0.10937 -0.125,-0.0469 -0.17187,-0.125 -0.0469,-0.0781 -0.0625,-0.1875 -0.0156,-0.10938 -0.0312,-0.23438 -0.0156,-0.125 -0.0156,-0.34375 0,-0.25 0.0156,-0.42187 0.0156,-0.17188 0.0625,-0.28125 0.0312,-0.0937 0.0781,-0.14063 0.0469,-0.0312 0.10938,-0.0312 0.0469,0 0.1875,0.0156 0.14062,0.0312 0.3125,0.0312 0.23437,0 0.40625,-0.0781 0.17187,-0.0781 0.28125,-0.23437 0.10937,-0.15625 0.15625,-0.40625 0.0625,-0.25 0.0625,-0.79688 v -8.34375 q 0,-0.0937 0.0469,-0.15625 0.0625,-0.0625 0.1875,-0.10937 0.125,-0.0625 0.34375,-0.0781 0.21875,-0.0312 0.5625,-0.0312 0.34375,0 0.5625,0.0312 0.21875,0.0156 0.34375,0.0781 0.125,0.0469 0.17188,0.10937 0.0625,0.0625 0.0625,0.15625 z m 0.1875,-11.15625 q 0,0.6875 -0.28125,0.95312 -0.28125,0.26563 -1.0625,0.26563 -0.76563,0 -1.04688,-0.25 -0.26562,-0.25 -0.26562,-0.92188 0,-0.6875 0.28125,-0.95312 0.29687,-0.28125 1.0625,-0.28125 0.76562,0 1.03125,0.26562 0.28125,0.26563 0.28125,0.92188 z m 9.62365,6.57812 q 0,0.42188 -0.1875,0.625 -0.1875,0.1875 -0.51562,0.1875 h -4.95313 q 0,0.53125 0.125,0.95313 0.125,0.42187 0.39063,0.71875 0.28125,0.29687 0.70312,0.45312 0.42188,0.15625 1.01563,0.15625 0.59375,0 1.04687,-0.0781 0.45313,-0.0937 0.78125,-0.20313 0.34375,-0.10937 0.5625,-0.1875 0.21875,-0.0937 0.35938,-0.0937 0.0781,0 0.125,0.0312 0.0625,0.0312 0.0937,0.125 0.0469,0.0781 0.0469,0.23438 0.0156,0.14062 0.0156,0.35937 0,0.20313 -0.0156,0.34375 0,0.14063 -0.0156,0.25 -0.0156,0.0937 -0.0625,0.17188 -0.0312,0.0625 -0.0937,0.125 -0.0469,0.0625 -0.3125,0.17187 -0.26563,0.10938 -0.6875,0.21875 -0.40625,0.0937 -0.9375,0.17188 -0.51563,0.0781 -1.125,0.0781 -1.07813,0 -1.89063,-0.26562 -0.8125,-0.28125 -1.35937,-0.82813 -0.54688,-0.5625 -0.82813,-1.40625 -0.26562,-0.84375 -0.26562,-1.98437 0,-1.07813 0.28125,-1.95313 0.28125,-0.875 0.8125,-1.46875 0.54687,-0.60937 1.3125,-0.92187 0.78125,-0.32813 1.73437,-0.32813 1.03125,0 1.75,0.29688 0.71875,0.29687 1.1875,0.84375 0.46875,0.53125 0.6875,1.26562 0.21875,0.71875 0.21875,1.57813 z m -2.21875,-0.65625 q 0.0156,-0.96875 -0.40625,-1.51562 -0.40625,-0.54688 -1.26562,-0.54688 -0.4375,0 -0.76563,0.17188 -0.3125,0.15625 -0.53125,0.4375 -0.21875,0.26562 -0.32812,0.65625 -0.10938,0.375 -0.14063,0.79687 z m 10.25122,3.65625 q 0,0.25 -0.0156,0.40625 -0.0156,0.15625 -0.0469,0.26563 -0.0156,0.10937 -0.0469,0.1875 -0.0312,0.0625 -0.14063,0.17187 -0.10937,0.0937 -0.375,0.25 -0.26562,0.14063 -0.60937,0.26563 -0.32813,0.10937 -0.71875,0.1875 -0.39063,0.0781 -0.8125,0.0781 -0.9375,0 -1.67188,-0.28125 -0.71875,-0.29687 -1.21875,-0.85937 -0.48437,-0.57813 -0.73437,-1.39063 -0.25,-0.82812 -0.25,-1.89062 0,-1.21875 0.29687,-2.10938 0.3125,-0.89062 0.85938,-1.46875 0.54687,-0.57812 1.29687,-0.85937 0.75,-0.29688 1.64063,-0.29688 0.35937,0 0.70312,0.0781 0.35938,0.0625 0.65625,0.17187 0.3125,0.10938 0.54688,0.25 0.25,0.125 0.34375,0.23438 0.10937,0.0937 0.14062,0.17187 0.0469,0.0625 0.0625,0.17188 0.0312,0.10937 0.0469,0.26562 0.0156,0.15625 0.0156,0.39063 0,0.51562 -0.0937,0.73437 -0.0937,0.21875 -0.23437,0.21875 -0.15625,0 -0.32813,-0.125 -0.17187,-0.125 -0.42187,-0.28125 -0.23438,-0.15625 -0.5625,-0.28125 -0.32813,-0.14062 -0.78125,-0.14062 -0.89063,0 -1.375,0.6875 -0.46875,0.6875 -0.46875,2.03125 0,0.65625 0.125,1.15625 0.125,0.5 0.34375,0.84375 0.23437,0.32812 0.57812,0.5 0.35938,0.15625 0.82813,0.15625 0.46875,0 0.8125,-0.14063 0.34375,-0.14062 0.59375,-0.3125 0.26562,-0.17187 0.4375,-0.3125 0.17187,-0.14062 0.28125,-0.14062 0.0937,0 0.14062,0.0469 0.0625,0.0469 0.0937,0.17188 0.0312,0.125 0.0469,0.3125 0.0156,0.1875 0.0156,0.48437 z m 6.46314,0.5 q 0,0.40625 -0.0469,0.625 -0.0469,0.20313 -0.14062,0.29688 -0.0781,0.0781 -0.23438,0.15625 -0.15625,0.0625 -0.375,0.10937 -0.20312,0.0469 -0.45312,0.0781 -0.25,0.0312 -0.51563,0.0312 -0.6875,0 -1.1875,-0.17188 -0.5,-0.17187 -0.82812,-0.53125 -0.32813,-0.375 -0.48438,-0.92187 -0.14062,-0.54688 -0.14062,-1.28125 v -4.17188 h -0.98438 q -0.17187,0 -0.26562,-0.20312 -0.0937,-0.21875 -0.0937,-0.71875 0,-0.26563 0.0156,-0.4375 0.0312,-0.1875 0.0781,-0.29688 0.0469,-0.10937 0.10937,-0.15625 0.0781,-0.0469 0.17188,-0.0469 h 0.96875 v -1.8125 q 0,-0.0937 0.0469,-0.15625 0.0469,-0.0781 0.17188,-0.125 0.14062,-0.0469 0.35937,-0.0625 0.21875,-0.0312 0.54688,-0.0312 0.34375,0 0.5625,0.0312 0.23437,0.0156 0.35937,0.0625 0.125,0.0469 0.17188,0.125 0.0625,0.0625 0.0625,0.15625 v 1.8125 h 1.76562 q 0.0937,0 0.15625,0.0469 0.0781,0.0469 0.10938,0.15625 0.0469,0.10938 0.0625,0.29688 0.0312,0.17187 0.0312,0.4375 0,0.5 -0.0937,0.71875 -0.0781,0.20312 -0.25,0.20312 h -1.78125 v 3.82813 q 0,0.65625 0.20312,1 0.21875,0.32812 0.75,0.32812 0.1875,0 0.32813,-0.0312 0.14062,-0.0312 0.25,-0.0781 0.125,-0.0469 0.20312,-0.0781 0.0781,-0.0312 0.14063,-0.0312 0.0469,0 0.0937,0.0312 0.0625,0.0312 0.0781,0.14063 0.0312,0.0937 0.0469,0.26562 0.0312,0.15625 0.0312,0.40625 z"
       fill-rule="nonzero"
       id="path45" />
    <path
       fill="#000000"
       fill-opacity="0"
       d="m 713.4934,276.66928 c 17.22839,0 25.84253,-16.85037 34.45673,-33.70077 8.61419,-16.85041 17.22833,-33.7008 34.45666,-33.7008"
       fill-rule="evenodd"
       id="path47" />
    <path
       stroke="#ffab40"
       stroke-width="2"
       stroke-linejoin="round"
       stroke-linecap="butt"
       d="m 713.4934,276.66928 c 17.22839,0 25.84253,-16.85037 34.45673,-33.70077 4.30706,-8.42521 8.61419,-16.85041 13.99804,-23.1693 1.34595,-1.57973 2.75916,-3.0278 4.25666,-4.31133 0.74865,-0.64175 1.51837,-1.2424 2.31121,-1.79776 0.39643,-0.27768 0.79865,-0.54406 1.20691,-0.7986 0.20411,-0.12727 0.40973,-0.2516 0.61695,-0.37287 0.10357,-0.0607 0.20758,-0.12056 0.31189,-0.17968 l 0.13501,-0.0752"
       fill-rule="evenodd"
       id="path49" />
    <path
       fill="#ffab40"
       stroke="#ffab40"
       stroke-width="2"
       stroke-linecap="butt"
       d="m 771.61163,215.4626 7.96399,-5.4649 -9.61353,-0.93279 z"
       fill-rule="evenodd"
       id="path51" />
    <path
       fill="#cc6677"
       fill-opacity="0.3277"
       d="m 16.590551,185.62993 h 68.18897 v 47.27559 h -68.18897 z"
       fill-rule="evenodd"
       id="path53" />
    <path
       stroke="#882255"
       stroke-width="1"
       stroke-linejoin="round"
       stroke-linecap="butt"
       d="m 16.590551,185.62993 h 68.18897 v 47.27559 h -68.18897 z"
       fill-rule="evenodd"
       id="path55" />
    <path
       fill="#882255"
       d="m 43.7664,211.70334 q 0,1.07812 -0.234375,1.95312 -0.234375,0.85938 -0.6875,1.46875 -0.4375,0.60938 -1.109375,0.9375 -0.65625,0.32813 -1.515625,0.32813 -0.359375,0 -0.65625,-0.0625 -0.28125,-0.0625 -0.5625,-0.20313 -0.28125,-0.14062 -0.5625,-0.34375 -0.265625,-0.21875 -0.5625,-0.5 v 3.82813 q 0,0.0781 -0.0625,0.15625 -0.04687,0.0781 -0.1875,0.125 -0.125,0.0469 -0.34375,0.0781 -0.21875,0.0312 -0.546875,0.0312 -0.34375,0 -0.5625,-0.0312 -0.21875,-0.0312 -0.359375,-0.0781 -0.125,-0.0469 -0.1875,-0.125 -0.04687,-0.0781 -0.04687,-0.15625 v -11.35938 q 0,-0.0937 0.04687,-0.15625 0.04687,-0.0625 0.15625,-0.10937 0.125,-0.0469 0.3125,-0.0625 0.1875,-0.0312 0.46875,-0.0312 0.265625,0 0.453125,0.0312 0.1875,0.0156 0.296875,0.0625 0.125,0.0469 0.171875,0.10937 0.04687,0.0625 0.04687,0.15625 v 0.95313 q 0.34375,-0.35938 0.6875,-0.64063 0.34375,-0.28125 0.703125,-0.45312 0.359375,-0.1875 0.734375,-0.28125 0.375,-0.0937 0.796875,-0.0937 0.90625,0 1.53125,0.35937 0.625,0.34375 1.015625,0.95313 0.40625,0.60937 0.578125,1.42187 0.1875,0.8125 0.1875,1.73438 z m -2.390625,0.15625 q 0,-0.51563 -0.07813,-0.98438 -0.07813,-0.48437 -0.265625,-0.85937 -0.1875,-0.375 -0.5,-0.59375 -0.296875,-0.23438 -0.75,-0.23438 -0.21875,0 -0.453125,0.0781 -0.21875,0.0625 -0.453125,0.21875 -0.234375,0.15625 -0.484375,0.40625 -0.234375,0.23437 -0.515625,0.60937 v 2.67188 q 0.484375,0.60937 0.921875,0.95312 0.4375,0.32813 0.921875,0.32813 0.4375,0 0.75,-0.23438 0.3125,-0.23437 0.515625,-0.59375 0.203125,-0.375 0.296875,-0.82812 0.09375,-0.46875 0.09375,-0.9375 z m 8.954041,3.21875 q 0,0.40625 -0.04687,0.625 -0.04687,0.20312 -0.140625,0.29687 -0.07813,0.0781 -0.234375,0.15625 -0.15625,0.0625 -0.375,0.10938 -0.203125,0.0469 -0.453125,0.0781 -0.25,0.0312 -0.515625,0.0312 -0.6875,0 -1.1875,-0.17187 -0.5,-0.17188 -0.828125,-0.53125 -0.328125,-0.375 -0.484375,-0.92188 -0.140625,-0.54687 -0.140625,-1.28125 v -4.17187 h -0.984375 q -0.171875,0 -0.265625,-0.20313 -0.09375,-0.21875 -0.09375,-0.71875 0,-0.26562 0.01563,-0.4375 0.03125,-0.1875 0.07813,-0.29687 0.04687,-0.10938 0.109375,-0.15625 0.07813,-0.0469 0.171875,-0.0469 h 0.96875 v -1.8125 q 0,-0.0937 0.04687,-0.15625 0.04687,-0.0781 0.171875,-0.125 0.140625,-0.0469 0.359375,-0.0625 0.21875,-0.0312 0.546875,-0.0312 0.34375,0 0.5625,0.0312 0.234375,0.0156 0.359375,0.0625 0.125,0.0469 0.171875,0.125 0.0625,0.0625 0.0625,0.15625 v 1.8125 h 1.765625 q 0.09375,0 0.15625,0.0469 0.07813,0.0469 0.109375,0.15625 0.04687,0.10937 0.0625,0.29687 0.03125,0.17188 0.03125,0.4375 0,0.5 -0.09375,0.71875 -0.07813,0.20313 -0.25,0.20313 h -1.78125 v 3.82812 q 0,0.65625 0.203125,1 0.21875,0.32813 0.75,0.32813 0.1875,0 0.328125,-0.0312 0.140625,-0.0312 0.25,-0.0781 0.125,-0.0469 0.203125,-0.0781 0.07813,-0.0312 0.140625,-0.0312 0.04687,0 0.09375,0.0312 0.0625,0.0312 0.07813,0.14062 0.03125,0.0937 0.04687,0.26563 0.03125,0.15625 0.03125,0.40625 z m 6.889618,-6.5625 q 0,0.32812 -0.03125,0.53125 -0.01563,0.20312 -0.04687,0.32812 -0.03125,0.10938 -0.09375,0.15625 -0.0625,0.0469 -0.15625,0.0469 -0.07813,0 -0.171875,-0.0312 -0.07813,-0.0312 -0.203125,-0.0625 -0.109375,-0.0312 -0.25,-0.0625 -0.125,-0.0469 -0.296875,-0.0469 -0.1875,0 -0.375,0.0781 -0.1875,0.0781 -0.40625,0.25 -0.203125,0.15625 -0.421875,0.4375 -0.21875,0.26562 -0.484375,0.67187 v 5.0625 q 0,0.0937 -0.0625,0.17188 -0.04687,0.0625 -0.1875,0.10937 -0.125,0.0469 -0.34375,0.0625 -0.21875,0.0156 -0.546875,0.0156 -0.34375,0 -0.5625,-0.0156 -0.21875,-0.0156 -0.359375,-0.0625 -0.125,-0.0469 -0.1875,-0.10937 -0.04687,-0.0781 -0.04687,-0.17188 v -8.125 q 0,-0.0937 0.04687,-0.15625 0.04687,-0.0625 0.15625,-0.10937 0.125,-0.0469 0.3125,-0.0625 0.1875,-0.0312 0.46875,-0.0312 0.296875,0 0.484375,0.0312 0.203125,0.0156 0.296875,0.0625 0.109375,0.0469 0.15625,0.10937 0.04687,0.0625 0.04687,0.15625 v 1.01563 q 0.3125,-0.45313 0.59375,-0.75 0.28125,-0.29688 0.53125,-0.46875 0.265625,-0.17188 0.515625,-0.23438 0.265625,-0.0781 0.515625,-0.0781 0.125,0 0.25,0.0156 0.140625,0.0156 0.28125,0.0469 0.15625,0.0312 0.265625,0.0781 0.109375,0.0312 0.15625,0.0781 0.04687,0.0469 0.0625,0.10937 0.03125,0.0469 0.04687,0.14063 0.01563,0.0937 0.03125,0.29687 0.01563,0.1875 0.01563,0.51563 z m 8.850468,6.76562 q 0,0.25 -0.03125,0.4375 -0.01563,0.17188 -0.07813,0.28125 -0.04687,0.0937 -0.109375,0.14063 -0.0625,0.0469 -0.140625,0.0469 h -6.500004 q -0.07813,0 -0.140625,-0.0469 -0.0625,-0.0469 -0.109375,-0.14063 -0.04687,-0.10937 -0.07813,-0.28125 -0.03125,-0.1875 -0.03125,-0.4375 0,-0.26562 0.01563,-0.4375 0.03125,-0.1875 0.07813,-0.29687 0.04687,-0.10938 0.109375,-0.15625 0.07813,-0.0469 0.15625,-0.0469 h 2.1875 v -7.67187 l -1.890625,1.04687 q -0.203125,0.0937 -0.34375,0.125 -0.125,0.0156 -0.203125,-0.0625 -0.07813,-0.0781 -0.109375,-0.26562 -0.03125,-0.1875 -0.03125,-0.53125 0,-0.21875 0,-0.35938 0.01563,-0.14062 0.04687,-0.23437 0.04687,-0.10938 0.109375,-0.17188 0.0625,-0.0625 0.171875,-0.14062 l 2.53125,-1.64063 q 0.04687,-0.0312 0.109375,-0.0469 0.07813,-0.0312 0.1875,-0.0469 0.109375,-0.0156 0.28125,-0.0156 0.1875,-0.0156 0.46875,-0.0156 0.34375,0 0.546875,0.0156 0.21875,0.0156 0.328125,0.0469 0.109375,0.0312 0.140625,0.0937 0.04687,0.0469 0.04687,0.125 v 9.75 h 1.921879 q 0.07813,0 0.140625,0.0469 0.07813,0.0469 0.125,0.15625 0.04687,0.10937 0.0625,0.29687 0.03125,0.17188 0.03125,0.4375 z"
       fill-rule="nonzero"
       id="path57" />
    <path
       fill="#cc6677"
       fill-opacity="0.3277"
       d="m 355.4987,185.62993 h 68.18896 v 47.27559 H 355.4987 Z"
       fill-rule="evenodd"
       id="path59" />
    <path
       stroke="#882255"
       stroke-width="1"
       stroke-linejoin="round"
       stroke-linecap="butt"
       d="m 355.4987,185.62993 h 68.18896 v 47.27559 H 355.4987 Z"
       fill-rule="evenodd"
       id="path61" />
    <path
       fill="#882255"
       d="m 382.67453,211.70334 q 0,1.07812 -0.23438,1.95312 -0.23437,0.85938 -0.6875,1.46875 -0.4375,0.60938 -1.10937,0.9375 -0.65625,0.32813 -1.51563,0.32813 -0.35937,0 -0.65625,-0.0625 -0.28125,-0.0625 -0.5625,-0.20313 -0.28125,-0.14062 -0.5625,-0.34375 -0.26562,-0.21875 -0.5625,-0.5 v 3.82813 q 0,0.0781 -0.0625,0.15625 -0.0469,0.0781 -0.1875,0.125 -0.125,0.0469 -0.34375,0.0781 -0.21875,0.0312 -0.54687,0.0312 -0.34375,0 -0.5625,-0.0312 -0.21875,-0.0312 -0.35938,-0.0781 -0.125,-0.0469 -0.1875,-0.125 -0.0469,-0.0781 -0.0469,-0.15625 v -11.35938 q 0,-0.0937 0.0469,-0.15625 0.0469,-0.0625 0.15625,-0.10937 0.125,-0.0469 0.3125,-0.0625 0.1875,-0.0312 0.46875,-0.0312 0.26563,0 0.45313,0.0312 0.1875,0.0156 0.29687,0.0625 0.125,0.0469 0.17188,0.10937 0.0469,0.0625 0.0469,0.15625 v 0.95313 q 0.34375,-0.35938 0.6875,-0.64063 0.34375,-0.28125 0.70313,-0.45312 0.35937,-0.1875 0.73437,-0.28125 0.375,-0.0937 0.79688,-0.0937 0.90625,0 1.53125,0.35937 0.625,0.34375 1.01562,0.95313 0.40625,0.60937 0.57813,1.42187 0.1875,0.8125 0.1875,1.73438 z m -2.39063,0.15625 q 0,-0.51563 -0.0781,-0.98438 -0.0781,-0.48437 -0.26563,-0.85937 -0.1875,-0.375 -0.5,-0.59375 -0.29687,-0.23438 -0.75,-0.23438 -0.21875,0 -0.45312,0.0781 -0.21875,0.0625 -0.45313,0.21875 -0.23437,0.15625 -0.48437,0.40625 -0.23438,0.23437 -0.51563,0.60937 v 2.67188 q 0.48438,0.60937 0.92188,0.95312 0.4375,0.32813 0.92187,0.32813 0.4375,0 0.75,-0.23438 0.3125,-0.23437 0.51563,-0.59375 0.20312,-0.375 0.29687,-0.82812 0.0937,-0.46875 0.0937,-0.9375 z m 8.95405,3.21875 q 0,0.40625 -0.0469,0.625 -0.0469,0.20312 -0.14062,0.29687 -0.0781,0.0781 -0.23438,0.15625 -0.15625,0.0625 -0.375,0.10938 -0.20312,0.0469 -0.45312,0.0781 -0.25,0.0312 -0.51563,0.0312 -0.6875,0 -1.1875,-0.17187 -0.5,-0.17188 -0.82812,-0.53125 -0.32813,-0.375 -0.48438,-0.92188 -0.14062,-0.54687 -0.14062,-1.28125 v -4.17187 h -0.98438 q -0.17187,0 -0.26562,-0.20313 -0.0937,-0.21875 -0.0937,-0.71875 0,-0.26562 0.0156,-0.4375 0.0312,-0.1875 0.0781,-0.29687 0.0469,-0.10938 0.10937,-0.15625 0.0781,-0.0469 0.17188,-0.0469 h 0.96875 v -1.8125 q 0,-0.0937 0.0469,-0.15625 0.0469,-0.0781 0.17188,-0.125 0.14062,-0.0469 0.35937,-0.0625 0.21875,-0.0312 0.54688,-0.0312 0.34375,0 0.5625,0.0312 0.23437,0.0156 0.35937,0.0625 0.125,0.0469 0.17188,0.125 0.0625,0.0625 0.0625,0.15625 v 1.8125 h 1.76562 q 0.0937,0 0.15625,0.0469 0.0781,0.0469 0.10938,0.15625 0.0469,0.10937 0.0625,0.29687 0.0312,0.17188 0.0312,0.4375 0,0.5 -0.0937,0.71875 -0.0781,0.20313 -0.25,0.20313 h -1.78125 v 3.82812 q 0,0.65625 0.20312,1 0.21875,0.32813 0.75,0.32813 0.1875,0 0.32813,-0.0312 0.14062,-0.0312 0.25,-0.0781 0.125,-0.0469 0.20312,-0.0781 0.0781,-0.0312 0.14063,-0.0312 0.0469,0 0.0937,0.0312 0.0625,0.0312 0.0781,0.14062 0.0312,0.0937 0.0469,0.26563 0.0312,0.15625 0.0312,0.40625 z m 6.88961,-6.5625 q 0,0.32812 -0.0312,0.53125 -0.0156,0.20312 -0.0469,0.32812 -0.0312,0.10938 -0.0937,0.15625 -0.0625,0.0469 -0.15625,0.0469 -0.0781,0 -0.17188,-0.0312 -0.0781,-0.0312 -0.20312,-0.0625 -0.10938,-0.0312 -0.25,-0.0625 -0.125,-0.0469 -0.29688,-0.0469 -0.1875,0 -0.375,0.0781 -0.1875,0.0781 -0.40625,0.25 -0.20312,0.15625 -0.42187,0.4375 -0.21875,0.26562 -0.48438,0.67187 v 5.0625 q 0,0.0937 -0.0625,0.17188 -0.0469,0.0625 -0.1875,0.10937 -0.125,0.0469 -0.34375,0.0625 -0.21875,0.0156 -0.54687,0.0156 -0.34375,0 -0.5625,-0.0156 -0.21875,-0.0156 -0.35938,-0.0625 -0.125,-0.0469 -0.1875,-0.10937 -0.0469,-0.0781 -0.0469,-0.17188 v -8.125 q 0,-0.0937 0.0469,-0.15625 0.0469,-0.0625 0.15625,-0.10937 0.125,-0.0469 0.3125,-0.0625 0.1875,-0.0312 0.46875,-0.0312 0.29688,0 0.48438,0.0312 0.20312,0.0156 0.29687,0.0625 0.10938,0.0469 0.15625,0.10937 0.0469,0.0625 0.0469,0.15625 v 1.01563 q 0.3125,-0.45313 0.59375,-0.75 0.28125,-0.29688 0.53125,-0.46875 0.26562,-0.17188 0.51562,-0.23438 0.26563,-0.0781 0.51563,-0.0781 0.125,0 0.25,0.0156 0.14062,0.0156 0.28125,0.0469 0.15625,0.0312 0.26562,0.0781 0.10938,0.0312 0.15625,0.0781 0.0469,0.0469 0.0625,0.10937 0.0312,0.0469 0.0469,0.14063 0.0156,0.0937 0.0312,0.29687 0.0156,0.1875 0.0156,0.51563 z m 8.85047,6.76562 q 0,0.25 -0.0312,0.4375 -0.0156,0.17188 -0.0781,0.28125 -0.0469,0.0937 -0.10937,0.14063 -0.0625,0.0469 -0.14063,0.0469 h -6.5 q -0.0781,0 -0.14062,-0.0469 -0.0625,-0.0469 -0.10938,-0.14063 -0.0469,-0.10937 -0.0781,-0.28125 -0.0312,-0.1875 -0.0312,-0.4375 0,-0.26562 0.0156,-0.4375 0.0312,-0.1875 0.0781,-0.29687 0.0469,-0.10938 0.10937,-0.15625 0.0781,-0.0469 0.15625,-0.0469 h 2.1875 v -7.67187 l -1.89062,1.04687 q -0.20313,0.0937 -0.34375,0.125 -0.125,0.0156 -0.20313,-0.0625 -0.0781,-0.0781 -0.10937,-0.26562 -0.0312,-0.1875 -0.0312,-0.53125 0,-0.21875 0,-0.35938 0.0156,-0.14062 0.0469,-0.23437 0.0469,-0.10938 0.10938,-0.17188 0.0625,-0.0625 0.17187,-0.14062 l 2.53125,-1.64063 q 0.0469,-0.0312 0.10938,-0.0469 0.0781,-0.0312 0.1875,-0.0469 0.10937,-0.0156 0.28125,-0.0156 0.1875,-0.0156 0.46875,-0.0156 0.34375,0 0.54687,0.0156 0.21875,0.0156 0.32813,0.0469 0.10937,0.0312 0.14062,0.0937 0.0469,0.0469 0.0469,0.125 v 9.75 h 1.92187 q 0.0781,0 0.14063,0.0469 0.0781,0.0469 0.125,0.15625 0.0469,0.10937 0.0625,0.29687 0.0312,0.17188 0.0312,0.4375 z"
       fill-rule="nonzero"
       id="path63" />
    <path
       fill="#ffab40"
       fill-opacity="0.302"
       d="m 355.4987,254.34908 h 68.18896 v 47.27559 H 355.4987 Z"
       fill-rule="evenodd"
       id="path65" />
    <path
       stroke="#ffab40"
       stroke-width="1"
       stroke-linejoin="round"
       stroke-linecap="butt"
       d="m 355.4987,254.34908 h 68.18896 v 47.27559 H 355.4987 Z"
       fill-rule="evenodd"
       id="path67" />
    <path
       fill="#ffab40"
       d="m 382.67453,280.4225 q 0,1.07813 -0.23438,1.95313 -0.23437,0.85937 -0.6875,1.46875 -0.4375,0.60937 -1.10937,0.9375 -0.65625,0.32812 -1.51563,0.32812 -0.35937,0 -0.65625,-0.0625 -0.28125,-0.0625 -0.5625,-0.20312 -0.28125,-0.14063 -0.5625,-0.34375 -0.26562,-0.21875 -0.5625,-0.5 v 3.82812 q 0,0.0781 -0.0625,0.15625 -0.0469,0.0781 -0.1875,0.125 -0.125,0.0469 -0.34375,0.0781 -0.21875,0.0312 -0.54687,0.0312 -0.34375,0 -0.5625,-0.0312 -0.21875,-0.0312 -0.35938,-0.0781 -0.125,-0.0469 -0.1875,-0.125 -0.0469,-0.0781 -0.0469,-0.15625 v -11.35937 q 0,-0.0937 0.0469,-0.15625 0.0469,-0.0625 0.15625,-0.10938 0.125,-0.0469 0.3125,-0.0625 0.1875,-0.0312 0.46875,-0.0312 0.26563,0 0.45313,0.0312 0.1875,0.0156 0.29687,0.0625 0.125,0.0469 0.17188,0.10938 0.0469,0.0625 0.0469,0.15625 v 0.95312 q 0.34375,-0.35937 0.6875,-0.64062 0.34375,-0.28125 0.70313,-0.45313 0.35937,-0.1875 0.73437,-0.28125 0.375,-0.0937 0.79688,-0.0937 0.90625,0 1.53125,0.35938 0.625,0.34375 1.01562,0.95312 0.40625,0.60938 0.57813,1.42188 0.1875,0.8125 0.1875,1.73437 z m -2.39063,0.15625 q 0,-0.51562 -0.0781,-0.98437 -0.0781,-0.48438 -0.26563,-0.85938 -0.1875,-0.375 -0.5,-0.59375 -0.29687,-0.23437 -0.75,-0.23437 -0.21875,0 -0.45312,0.0781 -0.21875,0.0625 -0.45313,0.21875 -0.23437,0.15625 -0.48437,0.40625 -0.23438,0.23438 -0.51563,0.60938 v 2.67187 q 0.48438,0.60938 0.92188,0.95313 0.4375,0.32812 0.92187,0.32812 0.4375,0 0.75,-0.23437 0.3125,-0.23438 0.51563,-0.59375 0.20312,-0.375 0.29687,-0.82813 0.0937,-0.46875 0.0937,-0.9375 z m 8.95405,3.21875 q 0,0.40625 -0.0469,0.625 -0.0469,0.20313 -0.14062,0.29688 -0.0781,0.0781 -0.23438,0.15625 -0.15625,0.0625 -0.375,0.10937 -0.20312,0.0469 -0.45312,0.0781 -0.25,0.0312 -0.51563,0.0312 -0.6875,0 -1.1875,-0.17188 -0.5,-0.17187 -0.82812,-0.53125 -0.32813,-0.375 -0.48438,-0.92187 -0.14062,-0.54688 -0.14062,-1.28125 v -4.17188 h -0.98438 q -0.17187,0 -0.26562,-0.20312 -0.0937,-0.21875 -0.0937,-0.71875 0,-0.26563 0.0156,-0.4375 0.0312,-0.1875 0.0781,-0.29688 0.0469,-0.10937 0.10937,-0.15625 0.0781,-0.0469 0.17188,-0.0469 h 0.96875 v -1.8125 q 0,-0.0937 0.0469,-0.15625 0.0469,-0.0781 0.17188,-0.125 0.14062,-0.0469 0.35937,-0.0625 0.21875,-0.0312 0.54688,-0.0312 0.34375,0 0.5625,0.0312 0.23437,0.0156 0.35937,0.0625 0.125,0.0469 0.17188,0.125 0.0625,0.0625 0.0625,0.15625 v 1.8125 h 1.76562 q 0.0937,0 0.15625,0.0469 0.0781,0.0469 0.10938,0.15625 0.0469,0.10938 0.0625,0.29688 0.0312,0.17187 0.0312,0.4375 0,0.5 -0.0937,0.71875 -0.0781,0.20312 -0.25,0.20312 h -1.78125 v 3.82813 q 0,0.65625 0.20312,1 0.21875,0.32812 0.75,0.32812 0.1875,0 0.32813,-0.0312 0.14062,-0.0312 0.25,-0.0781 0.125,-0.0469 0.20312,-0.0781 0.0781,-0.0312 0.14063,-0.0312 0.0469,0 0.0937,0.0312 0.0625,0.0312 0.0781,0.14063 0.0312,0.0937 0.0469,0.26562 0.0312,0.15625 0.0312,0.40625 z m 6.88961,-6.5625 q 0,0.32813 -0.0312,0.53125 -0.0156,0.20313 -0.0469,0.32813 -0.0312,0.10937 -0.0937,0.15625 -0.0625,0.0469 -0.15625,0.0469 -0.0781,0 -0.17188,-0.0312 -0.0781,-0.0312 -0.20312,-0.0625 -0.10938,-0.0312 -0.25,-0.0625 -0.125,-0.0469 -0.29688,-0.0469 -0.1875,0 -0.375,0.0781 -0.1875,0.0781 -0.40625,0.25 -0.20312,0.15625 -0.42187,0.4375 -0.21875,0.26563 -0.48438,0.67188 v 5.0625 q 0,0.0937 -0.0625,0.17187 -0.0469,0.0625 -0.1875,0.10938 -0.125,0.0469 -0.34375,0.0625 -0.21875,0.0156 -0.54687,0.0156 -0.34375,0 -0.5625,-0.0156 -0.21875,-0.0156 -0.35938,-0.0625 -0.125,-0.0469 -0.1875,-0.10938 -0.0469,-0.0781 -0.0469,-0.17187 v -8.125 q 0,-0.0937 0.0469,-0.15625 0.0469,-0.0625 0.15625,-0.10938 0.125,-0.0469 0.3125,-0.0625 0.1875,-0.0312 0.46875,-0.0312 0.29688,0 0.48438,0.0312 0.20312,0.0156 0.29687,0.0625 0.10938,0.0469 0.15625,0.10938 0.0469,0.0625 0.0469,0.15625 v 1.01562 q 0.3125,-0.45312 0.59375,-0.75 0.28125,-0.29687 0.53125,-0.46875 0.26562,-0.17187 0.51562,-0.23437 0.26563,-0.0781 0.51563,-0.0781 0.125,0 0.25,0.0156 0.14062,0.0156 0.28125,0.0469 0.15625,0.0312 0.26562,0.0781 0.10938,0.0312 0.15625,0.0781 0.0469,0.0469 0.0625,0.10938 0.0312,0.0469 0.0469,0.14062 0.0156,0.0937 0.0312,0.29688 0.0156,0.1875 0.0156,0.51562 z m 8.95984,6.70313 q 0,0.26562 -0.0312,0.45312 -0.0156,0.17188 -0.0625,0.29688 -0.0312,0.125 -0.10937,0.17187 -0.0781,0.0469 -0.17188,0.0469 h -6.76562 q -0.20313,0 -0.35938,-0.0312 -0.14062,-0.0469 -0.23437,-0.14063 -0.0781,-0.10937 -0.125,-0.3125 -0.0469,-0.20312 -0.0469,-0.51562 0,-0.29688 0.0312,-0.51563 0.0312,-0.21875 0.0937,-0.375 0.0781,-0.17187 0.1875,-0.32812 0.125,-0.17188 0.29688,-0.35938 l 2.04687,-2.1875 q 0.60938,-0.64062 0.98438,-1.15625 0.375,-0.53125 0.57812,-0.95312 0.21875,-0.4375 0.29688,-0.79688 0.0781,-0.375 0.0781,-0.70312 0,-0.29688 -0.10937,-0.5625 -0.0937,-0.26563 -0.28125,-0.46875 -0.1875,-0.20313 -0.46875,-0.3125 -0.28125,-0.125 -0.65625,-0.125 -0.54688,0 -0.96875,0.14062 -0.40625,0.14063 -0.71875,0.3125 -0.3125,0.15625 -0.53125,0.29688 -0.20313,0.14062 -0.3125,0.14062 -0.0937,0 -0.15625,-0.0469 -0.0469,-0.0625 -0.0937,-0.1875 -0.0312,-0.125 -0.0625,-0.32813 -0.0156,-0.21875 -0.0156,-0.53125 0,-0.20312 0.0156,-0.34375 0.0156,-0.15625 0.0469,-0.25 0.0312,-0.10937 0.0625,-0.1875 0.0469,-0.0781 0.15625,-0.1875 0.125,-0.10937 0.42188,-0.26562 0.3125,-0.17188 0.75,-0.32813 0.45312,-0.17187 0.98437,-0.28125 0.54688,-0.10937 1.125,-0.10937 0.92188,0 1.60938,0.23437 0.6875,0.23438 1.14062,0.65625 0.45313,0.40625 0.67188,0.98438 0.23437,0.5625 0.23437,1.21875 0,0.57812 -0.10937,1.14062 -0.10938,0.54688 -0.45313,1.1875 -0.34375,0.64063 -0.98437,1.42188 -0.625,0.78125 -1.65625,1.79687 l -1.375,1.42188 h 4.64062 q 0.0937,0 0.17188,0.0625 0.0781,0.0469 0.125,0.15625 0.0625,0.10937 0.0781,0.29687 0.0312,0.1875 0.0312,0.45313 z"
       fill-rule="nonzero"
       id="path69" />
    <path
       fill="#ffab40"
       fill-opacity="0.302"
       d="m 645.30444,254.34908 h 68.18896 v 47.27559 h -68.18896 z"
       fill-rule="evenodd"
       id="path71" />
    <path
       stroke="#ffab40"
       stroke-width="1"
       stroke-linejoin="round"
       stroke-linecap="butt"
       d="m 645.30444,254.34908 h 68.18896 v 47.27559 h -68.18896 z"
       fill-rule="evenodd"
       id="path73" />
    <path
       fill="#ffab40"
       d="m 672.4803,280.4225 q 0,1.07813 -0.23437,1.95313 -0.23438,0.85937 -0.6875,1.46875 -0.4375,0.60937 -1.10938,0.9375 -0.65625,0.32812 -1.51562,0.32812 -0.35938,0 -0.65625,-0.0625 -0.28125,-0.0625 -0.5625,-0.20312 -0.28125,-0.14063 -0.5625,-0.34375 -0.26563,-0.21875 -0.5625,-0.5 v 3.82812 q 0,0.0781 -0.0625,0.15625 -0.0469,0.0781 -0.1875,0.125 -0.125,0.0469 -0.34375,0.0781 -0.21875,0.0312 -0.54688,0.0312 -0.34375,0 -0.5625,-0.0312 -0.21875,-0.0312 -0.35937,-0.0781 -0.125,-0.0469 -0.1875,-0.125 -0.0469,-0.0781 -0.0469,-0.15625 v -11.35937 q 0,-0.0937 0.0469,-0.15625 0.0469,-0.0625 0.15625,-0.10938 0.125,-0.0469 0.3125,-0.0625 0.1875,-0.0312 0.46875,-0.0312 0.26562,0 0.45312,0.0312 0.1875,0.0156 0.29688,0.0625 0.125,0.0469 0.17187,0.10938 0.0469,0.0625 0.0469,0.15625 v 0.95312 q 0.34375,-0.35937 0.6875,-0.64062 0.34375,-0.28125 0.70312,-0.45313 0.35938,-0.1875 0.73438,-0.28125 0.375,-0.0937 0.79687,-0.0937 0.90625,0 1.53125,0.35938 0.625,0.34375 1.01563,0.95312 0.40625,0.60938 0.57812,1.42188 0.1875,0.8125 0.1875,1.73437 z m -2.39062,0.15625 q 0,-0.51562 -0.0781,-0.98437 -0.0781,-0.48438 -0.26562,-0.85938 -0.1875,-0.375 -0.5,-0.59375 -0.29688,-0.23437 -0.75,-0.23437 -0.21875,0 -0.45313,0.0781 -0.21875,0.0625 -0.45312,0.21875 -0.23438,0.15625 -0.48438,0.40625 -0.23437,0.23438 -0.51562,0.60938 v 2.67187 q 0.48437,0.60938 0.92187,0.95313 0.4375,0.32812 0.92188,0.32812 0.4375,0 0.75,-0.23437 0.3125,-0.23438 0.51562,-0.59375 0.20313,-0.375 0.29688,-0.82813 0.0937,-0.46875 0.0937,-0.9375 z m 8.95404,3.21875 q 0,0.40625 -0.0469,0.625 -0.0469,0.20313 -0.14062,0.29688 -0.0781,0.0781 -0.23438,0.15625 -0.15625,0.0625 -0.375,0.10937 -0.20312,0.0469 -0.45312,0.0781 -0.25,0.0312 -0.51563,0.0312 -0.6875,0 -1.1875,-0.17188 -0.5,-0.17187 -0.82812,-0.53125 -0.32813,-0.375 -0.48438,-0.92187 -0.14062,-0.54688 -0.14062,-1.28125 v -4.17188 h -0.98438 q -0.17187,0 -0.26562,-0.20312 -0.0937,-0.21875 -0.0937,-0.71875 0,-0.26563 0.0156,-0.4375 0.0312,-0.1875 0.0781,-0.29688 0.0469,-0.10937 0.10937,-0.15625 0.0781,-0.0469 0.17188,-0.0469 h 0.96875 v -1.8125 q 0,-0.0937 0.0469,-0.15625 0.0469,-0.0781 0.17188,-0.125 0.14062,-0.0469 0.35937,-0.0625 0.21875,-0.0312 0.54688,-0.0312 0.34375,0 0.5625,0.0312 0.23437,0.0156 0.35937,0.0625 0.125,0.0469 0.17188,0.125 0.0625,0.0625 0.0625,0.15625 v 1.8125 h 1.76562 q 0.0937,0 0.15625,0.0469 0.0781,0.0469 0.10938,0.15625 0.0469,0.10938 0.0625,0.29688 0.0312,0.17187 0.0312,0.4375 0,0.5 -0.0937,0.71875 -0.0781,0.20312 -0.25,0.20312 h -1.78125 v 3.82813 q 0,0.65625 0.20312,1 0.21875,0.32812 0.75,0.32812 0.1875,0 0.32813,-0.0312 0.14062,-0.0312 0.25,-0.0781 0.125,-0.0469 0.20312,-0.0781 0.0781,-0.0312 0.14063,-0.0312 0.0469,0 0.0937,0.0312 0.0625,0.0312 0.0781,0.14063 0.0312,0.0937 0.0469,0.26562 0.0312,0.15625 0.0312,0.40625 z m 6.88964,-6.5625 q 0,0.32813 -0.0312,0.53125 -0.0156,0.20313 -0.0469,0.32813 -0.0312,0.10937 -0.0937,0.15625 -0.0625,0.0469 -0.15625,0.0469 -0.0781,0 -0.17188,-0.0312 -0.0781,-0.0312 -0.20312,-0.0625 -0.10938,-0.0312 -0.25,-0.0625 -0.125,-0.0469 -0.29688,-0.0469 -0.1875,0 -0.375,0.0781 -0.1875,0.0781 -0.40625,0.25 -0.20312,0.15625 -0.42187,0.4375 -0.21875,0.26563 -0.48438,0.67188 v 5.0625 q 0,0.0937 -0.0625,0.17187 -0.0469,0.0625 -0.1875,0.10938 -0.125,0.0469 -0.34375,0.0625 -0.21875,0.0156 -0.54687,0.0156 -0.34375,0 -0.5625,-0.0156 -0.21875,-0.0156 -0.35938,-0.0625 -0.125,-0.0469 -0.1875,-0.10938 -0.0469,-0.0781 -0.0469,-0.17187 v -8.125 q 0,-0.0937 0.0469,-0.15625 0.0469,-0.0625 0.15625,-0.10938 0.125,-0.0469 0.3125,-0.0625 0.1875,-0.0312 0.46875,-0.0312 0.29688,0 0.48438,0.0312 0.20312,0.0156 0.29687,0.0625 0.10938,0.0469 0.15625,0.10938 0.0469,0.0625 0.0469,0.15625 v 1.01562 q 0.3125,-0.45312 0.59375,-0.75 0.28125,-0.29687 0.53125,-0.46875 0.26562,-0.17187 0.51562,-0.23437 0.26563,-0.0781 0.51563,-0.0781 0.125,0 0.25,0.0156 0.14062,0.0156 0.28125,0.0469 0.15625,0.0312 0.26562,0.0781 0.10938,0.0312 0.15625,0.0781 0.0469,0.0469 0.0625,0.10938 0.0312,0.0469 0.0469,0.14062 0.0156,0.0937 0.0312,0.29688 0.0156,0.1875 0.0156,0.51562 z m 8.95984,6.70313 q 0,0.26562 -0.0312,0.45312 -0.0156,0.17188 -0.0625,0.29688 -0.0312,0.125 -0.10937,0.17187 -0.0781,0.0469 -0.17188,0.0469 h -6.76562 q -0.20313,0 -0.35938,-0.0312 -0.14062,-0.0469 -0.23437,-0.14063 -0.0781,-0.10937 -0.125,-0.3125 -0.0469,-0.20312 -0.0469,-0.51562 0,-0.29688 0.0312,-0.51563 0.0312,-0.21875 0.0937,-0.375 0.0781,-0.17187 0.1875,-0.32812 0.125,-0.17188 0.29688,-0.35938 l 2.04687,-2.1875 q 0.60938,-0.64062 0.98438,-1.15625 0.375,-0.53125 0.57812,-0.95312 0.21875,-0.4375 0.29688,-0.79688 0.0781,-0.375 0.0781,-0.70312 0,-0.29688 -0.10937,-0.5625 -0.0937,-0.26563 -0.28125,-0.46875 -0.1875,-0.20313 -0.46875,-0.3125 -0.28125,-0.125 -0.65625,-0.125 -0.54688,0 -0.96875,0.14062 -0.40625,0.14063 -0.71875,0.3125 -0.3125,0.15625 -0.53125,0.29688 -0.20313,0.14062 -0.3125,0.14062 -0.0937,0 -0.15625,-0.0469 -0.0469,-0.0625 -0.0937,-0.1875 -0.0312,-0.125 -0.0625,-0.32813 -0.0156,-0.21875 -0.0156,-0.53125 0,-0.20312 0.0156,-0.34375 0.0156,-0.15625 0.0469,-0.25 0.0312,-0.10937 0.0625,-0.1875 0.0469,-0.0781 0.15625,-0.1875 0.125,-0.10937 0.42188,-0.26562 0.3125,-0.17188 0.75,-0.32813 0.45312,-0.17187 0.98437,-0.28125 0.54688,-0.10937 1.125,-0.10937 0.92188,0 1.60938,0.23437 0.6875,0.23438 1.14062,0.65625 0.45313,0.40625 0.67188,0.98438 0.23437,0.5625 0.23437,1.21875 0,0.57812 -0.10937,1.14062 -0.10938,0.54688 -0.45313,1.1875 -0.34375,0.64063 -0.98437,1.42188 -0.625,0.78125 -1.65625,1.79687 l -1.375,1.42188 h 4.64062 q 0.0937,0 0.17188,0.0625 0.0781,0.0469 0.125,0.15625 0.0625,0.10937 0.0781,0.29687 0.0312,0.1875 0.0312,0.45313 z"
       fill-rule="nonzero"
       id="path75" />
  </g>
</svg>
