<?xml version="1.0" encoding="UTF-8" standalone="no"?>
<!-- Generator: Adobe Illustrator 24.1.2, SVG Export Plug-In . SVG Version: 6.00 Build 0)  -->

<svg
   version="1.1"
   id="Layer_1"
   x="0px"
   y="0px"
   viewBox="0 0 1096.7 428.73416"
   xml:space="preserve"
   sodipodi:docname="linkerd-multi-cluster.svg"
   width="1096.7"
   height="428.73416"
   inkscape:version="1.1.2 (0a00cf5339, 2022-02-04)"
   xmlns:inkscape="http://www.inkscape.org/namespaces/inkscape"
   xmlns:sodipodi="http://sodipodi.sourceforge.net/DTD/sodipodi-0.dtd"
   xmlns:xlink="http://www.w3.org/1999/xlink"
   xmlns="http://www.w3.org/2000/svg"
   xmlns:svg="http://www.w3.org/2000/svg"><defs
   id="defs289" /><sodipodi:namedview
   id="namedview287"
   pagecolor="#ffffff"
   bordercolor="#666666"
   borderopacity="1.0"
   inkscape:pageshadow="2"
   inkscape:pageopacity="0.0"
   inkscape:pagecheckerboard="0"
   showgrid="false"
   fit-margin-top="0"
   fit-margin-left="0"
   fit-margin-right="0"
   fit-margin-bottom="0"
   inkscape:zoom="0.91846154"
   inkscape:cx="468.1742"
   inkscape:cy="216.12228"
   inkscape:window-width="1920"
   inkscape:window-height="1031"
   inkscape:window-x="1920"
   inkscape:window-y="25"
   inkscape:window-maximized="1"
   inkscape:current-layer="Layer_1" />
<style
   type="text/css"
   id="style2">
	.st0{fill:#F0F0F0;}
	.st1{fill:none;stroke:#888888;stroke-width:2;stroke-miterlimit:10;}
	.st2{fill:#FFFFFF;stroke:#001E64;stroke-width:2;stroke-miterlimit:10;}
	.st3{fill:#001E64;}
	.st4{font-family:'Rubik-Medium';}
	.st5{font-size:24px;}
	.st6{fill:#FFFFFF;}
	.st7{fill:#0185FD;stroke:#001E64;stroke-width:2;stroke-miterlimit:10;}
	.st8{fill:none;stroke:#001E64;stroke-width:2;stroke-miterlimit:10;}
	.st9{fill:none;stroke:#001E64;stroke-width:6;stroke-miterlimit:10;}
	.st10{font-size:15px;}
	.st11{font-size:13px;}
	.st12{fill:#888888;}
	.st13{fill:#E3F2FE;}
	.st14{fill:#2BEDA7;}
	.st15{fill:#0185FD;}
	.st16{font-family:'RobotoMono-Medium';}
	.st17{font-size:14px;}
</style>
<g
   id="g8"
   transform="translate(-173.3,-13.765825)">
	<path
   class="st0"
   d="M 583.9,49 H 184.3 c -5.5,0 -10,4.5 -10,10 v 372.5 c 0,5.5 4.5,10 10,10 h 399.6 c 5.5,0 10,-4.5 10,-10 V 59 c 0,-5.5 -4.5,-10 -10,-10 z"
   id="path4" />
	<path
   class="st1"
   d="M 583.9,49 H 184.3 c -5.5,0 -10,4.5 -10,10 v 372.5 c 0,5.5 4.5,10 10,10 h 399.6 c 5.5,0 10,-4.5 10,-10 V 59 c 0,-5.5 -4.5,-10 -10,-10 z"
   id="path6" />
</g>
<path
   class="st2"
   d="m 390.6,75.234175 v 29.999995 c 0,5.5 -4.5,10 -10,10 H 38.9 c -5.5,0 -10,-4.5 -10,-10 V 75.234175 c 0,-5.5 4.5,-10 10,-10 h 341.8 c 5.4,0 9.9,4.5 9.9,10 z"
   id="path10" />
<g
   id="g14"
   transform="translate(-173.3,-13.765825)">
	<text
   transform="translate(253.7113,110.8158)"
   class="st3 st4 st5"
   id="text12">Multi-Cluster Gateway</text>
</g>
<g
   id="g20"
   transform="translate(-173.3,-13.765825)">
	<path
   class="st0"
   d="M 1115.7,169 H 716.1 c -5.5,0 -10,4.5 -10,10 v 252.5 c 0,5.5 4.5,10 10,10 h 399.6 c 5.5,0 10,-4.5 10,-10 V 179 c 0,-5.5 -4.5,-10 -10,-10 z"
   id="path16" />
	<path
   class="st1"
   d="M 1115.7,169 H 716.1 c -5.5,0 -10,4.5 -10,10 v 252.5 c 0,5.5 4.5,10 10,10 h 399.6 c 5.5,0 10,-4.5 10,-10 V 179 c 0,-5.5 -4.5,-10 -10,-10 z"
   id="path18" />
</g>
<path
   class="st2"
   d="m 926.2,190.23417 v 30 c 0,5.5 -4.5,10 -10,10 H 574.5 c -5.5,0 -10,-4.5 -10,-10 v -30 c 0,-5.5 4.5,-10 10,-10 h 341.8 c 5.5,0 9.9,4.5 9.9,10 z"
   id="path22" />
<g
   id="g26"
   transform="translate(-173.3,-13.765825)">
	<text
   transform="translate(789.3314,225.8161)"
   class="st3 st4 st5"
   id="text24">Multi-Cluster Gateway</text>
</g>
<g
   id="g32"
   transform="translate(-173.3,-13.765825)">
	<path
   class="st6"
   d="M 553.9,269 H 212.2 c -5.5,0 -10,-4.5 -10,-10 v -80 c 0,-5.5 4.5,-10 10,-10 H 554 c 5.5,0 10,4.5 10,10 v 80 c -0.1,5.5 -4.6,10 -10.1,10 z"
   id="path28" />
	<path
   class="st1"
   d="M 553.9,269 H 212.2 c -5.5,0 -10,-4.5 -10,-10 v -80 c 0,-5.5 4.5,-10 10,-10 H 554 c 5.5,0 10,4.5 10,10 v 80 c -0.1,5.5 -4.6,10 -10.1,10 z"
   id="path30" />
</g>
<path
   class="st2"
   d="m 356.2,180.23417 v 50 c 0,5.5 -4.5,10 -10,10 H 239.7 c -5.5,0 -10,-4.5 -10,-10 v -50 c 0,-5.5 4.5,-10 10,-10 h 106.5 c 5.5,0 10,4.5 10,10 z"
   id="path34" />
<text
   class="st3 st4 st5"
   id="text36"
   x="259.2287"
   y="212.04997">Proxy</text>
<path
   class="st7"
   d="m 189.7,180.23417 v 50 c 0,5.5 -4.5,10 -10,10 H 73.3 c -5.5,0 -10,-4.5 -10,-10 v -50 c 0,-5.5 4.5,-10 10,-10 h 106.4 c 5.6,0 10,4.5 10,10 z"
   id="path38" />
<g
   id="g46"
   transform="translate(-173.3,-13.765825)">
	<text
   transform="translate(256.3397,213.8158)"
   id="text44"><tspan
     x="0"
     y="0"
     class="st6 st4 st5"
     id="tspan40">Service</tspan><tspan
     x="35.099998"
     y="24"
     class="st6 st4 st5"
     id="tspan42">A</tspan></text>
</g>
<g
   id="g68"
   transform="translate(-173.3,-13.765825)">
	<g
   id="g56">
		<g
   id="g54">
			<line
   class="st8"
   x1="397.29999"
   y1="204.3"
   x2="363"
   y2="204.3"
   id="line48" />
			<g
   id="g52">
				<polygon
   class="st3"
   points="396.1,208.3 396.1,200.3 403,204.3 "
   id="polygon50" />
			</g>
		</g>
	</g>
	<g
   id="g66">
		<g
   id="g64">
			<line
   class="st8"
   x1="403"
   y1="233.7"
   x2="368.79999"
   y2="233.7"
   id="line58" />
			<g
   id="g62">
				<polygon
   class="st3"
   points="369.9,237.7 369.9,229.7 363,233.7 "
   id="polygon60" />
			</g>
		</g>
	</g>
</g>
<g
   id="g74"
   transform="translate(-173.3,-13.765825)">
	<path
   class="st6"
   d="M 1089.5,411.5 H 747.8 c -5.5,0 -10,-4.5 -10,-10 v -80 c 0,-5.5 4.5,-10 10,-10 h 341.8 c 5.5,0 10,4.5 10,10 v 80 c -0.1,5.5 -4.5,10 -10.1,10 z"
   id="path70" />
	<path
   class="st1"
   d="M 1089.5,411.5 H 747.8 c -5.5,0 -10,-4.5 -10,-10 v -80 c 0,-5.5 4.5,-10 10,-10 h 341.8 c 5.5,0 10,4.5 10,10 v 80 c -0.1,5.5 -4.5,10 -10.1,10 z"
   id="path72" />
</g>
<path
   class="st2"
   d="m 891.8,322.73417 v 50 c 0,5.5 -4.5,10 -10,10 H 775.4 c -5.5,0 -10,-4.5 -10,-10 v -50 c 0,-5.5 4.5,-10 10,-10 h 106.5 c 5.4,0 9.9,4.5 9.9,10 z"
   id="path76" />
<text
   class="st3 st4 st5"
   id="text78"
   x="794.84882"
   y="354.52377">Proxy</text>
<path
   class="st7"
   d="m 725.4,322.73417 v 50 c 0,5.5 -4.5,10 -10,10 H 608.9 c -5.5,0 -10,-4.5 -10,-10 v -50 c 0,-5.5 4.5,-10 10,-10 h 106.5 c 5.5,0 10,4.5 10,10 z"
   id="path80" />
<g
   id="g88"
   transform="translate(-173.3,-13.765825)">
	<text
   transform="translate(791.9608,356.2896)"
   id="text86"><tspan
     x="0"
     y="0"
     class="st6 st4 st5"
     id="tspan82">Service</tspan><tspan
     x="35.299999"
     y="24"
     class="st6 st4 st5"
     id="tspan84">C</tspan></text>
</g>
<g
   id="g110"
   transform="translate(-173.3,-13.765825)">
	<g
   id="g98">
		<g
   id="g96">
			<line
   class="st8"
   x1="932.90002"
   y1="346.70001"
   x2="898.70001"
   y2="346.70001"
   id="line90" />
			<g
   id="g94">
				<polygon
   class="st3"
   points="931.7,350.7 931.7,342.8 938.7,346.7 "
   id="polygon92" />
			</g>
		</g>
	</g>
	<g
   id="g108">
		<g
   id="g106">
			<line
   class="st8"
   x1="938.70001"
   y1="376.20001"
   x2="904.40002"
   y2="376.20001"
   id="line100" />
			<g
   id="g104">
				<polygon
   class="st3"
   points="905.6,380.2 905.6,372.2 898.7,376.2 "
   id="polygon102" />
			</g>
		</g>
	</g>
</g>
<g
   id="g116"
   transform="translate(-173.3,-13.765825)">
	<path
   class="st6"
   d="M 553.9,411.5 H 212.2 c -5.5,0 -10,-4.5 -10,-10 v -80 c 0,-5.5 4.5,-10 10,-10 H 554 c 5.5,0 10,4.5 10,10 v 80 c -0.1,5.5 -4.6,10 -10.1,10 z"
   id="path112" />
	<path
   class="st1"
   d="M 553.9,411.5 H 212.2 c -5.5,0 -10,-4.5 -10,-10 v -80 c 0,-5.5 4.5,-10 10,-10 H 554 c 5.5,0 10,4.5 10,10 v 80 c -0.1,5.5 -4.6,10 -10.1,10 z"
   id="path114" />
</g>
<path
   class="st2"
   d="m 356.2,322.73417 v 50 c 0,5.5 -4.5,10 -10,10 H 239.7 c -5.5,0 -10,-4.5 -10,-10 v -50 c 0,-5.5 4.5,-10 10,-10 h 106.5 c 5.5,0 10,4.5 10,10 z"
   id="path118" />
<text
   class="st3 st4 st5"
   id="text120"
   x="259.2287"
   y="354.52359">Proxy</text>
<path
   class="st7"
   d="m 189.7,322.73417 v 50 c 0,5.5 -4.5,10 -10,10 H 73.3 c -5.5,0 -10,-4.5 -10,-10 v -50 c 0,-5.5 4.5,-10 10,-10 h 106.4 c 5.6,0 10,4.5 10,10 z"
   id="path122" />
<g
   id="g130"
   transform="translate(-173.3,-13.765825)">
	<text
   transform="translate(256.3397,356.2895)"
   id="text128"><tspan
     x="0"
     y="0"
     class="st6 st4 st5"
     id="tspan124">Service</tspan><tspan
     x="35.200001"
     y="24"
     class="st6 st4 st5"
     id="tspan126">B</tspan></text>
</g>
<g
   id="g152"
   transform="translate(-173.3,-13.765825)">
	<g
   id="g140">
		<g
   id="g138">
			<line
   class="st8"
   x1="397.29999"
   y1="346.70001"
   x2="363"
   y2="346.70001"
   id="line132" />
			<g
   id="g136">
				<polygon
   class="st3"
   points="396.1,350.7 396.1,342.8 403,346.7 "
   id="polygon134" />
			</g>
		</g>
	</g>
	<g
   id="g150">
		<g
   id="g148">
			<line
   class="st8"
   x1="403"
   y1="376.20001"
   x2="368.79999"
   y2="376.20001"
   id="line142" />
			<g
   id="g146">
				<polygon
   class="st3"
   points="369.9,380.2 369.9,372.2 363,376.2 "
   id="polygon144" />
			</g>
		</g>
	</g>
</g>
<g
   id="g162"
   transform="translate(-173.3,-13.765825)">
	<g
   id="g160">
		<line
   class="st9"
   x1="466.20001"
   y1="317.39999"
   x2="466.20001"
   y2="254.8"
   id="line154" />
		<g
   id="g158">
			<polygon
   class="st3"
   points="460.2,315.6 472.2,315.6 466.2,326 "
   id="polygon156" />
		</g>
	</g>
</g>
<g
   id="g172"
   transform="translate(-173.3,-13.765825)">
	<g
   id="g170">
		<line
   class="st9"
   x1="728.09998"
   y1="219"
   x2="530.90002"
   y2="219"
   id="line164" />
		<g
   id="g168">
			<polygon
   class="st3"
   points="726.3,225 726.3,213 736.7,219 "
   id="polygon166" />
		</g>
	</g>
</g>
<g
   id="g182"
   transform="translate(-173.3,-13.765825)">
	<g
   id="g180">
		<line
   class="st9"
   x1="1001.9"
   y1="316.70001"
   x2="1001.9"
   y2="244"
   id="line174" />
		<g
   id="g178">
			<polygon
   class="st3"
   points="995.9,314.9 1007.9,314.9 1001.9,325.3 "
   id="polygon176" />
		</g>
	</g>
</g>
<g
   id="g188"
   transform="translate(-173.3,-13.765825)">
	<circle
   class="st3"
   cx="649.40002"
   cy="219"
   r="12.5"
   id="circle184" />
	<path
   class="st6"
   d="m 653.4,215.7 h -0.7 v -1.3 c 0,-1.8 -1.5,-3.3 -3.3,-3.3 -1.8,0 -3.3,1.5 -3.3,3.3 v 1.3 h -0.7 c -0.7,0 -1.3,0.6 -1.3,1.3 v 6.7 c 0,0.7 0.6,1.3 1.3,1.3 h 8 c 0.7,0 1.3,-0.6 1.3,-1.3 V 217 c 0,-0.7 -0.6,-1.3 -1.3,-1.3 z m -4,6 c -0.7,0 -1.3,-0.6 -1.3,-1.3 0,-0.7 0.6,-1.3 1.3,-1.3 0.7,0 1.3,0.6 1.3,1.3 0,0.7 -0.6,1.3 -1.3,1.3 z m 2,-6 h -4.1 v -1.3 c 0,-1.1 0.9,-2.1 2.1,-2.1 1.2,0 2.1,0.9 2.1,2.1 v 1.3 z"
   id="path186" />
</g>
<g
   id="g192"
   transform="translate(-173.3,-13.765825)">
	<text
   transform="translate(407.218,294.9631)"
   class="st3 st4 st10"
   id="text190">mTLS</text>
</g>
<g
   id="g196"
   transform="translate(-173.3,-13.765825)">
	<text
   transform="translate(631.6392,202.2743)"
   class="st3 st4 st11"
   id="text194">mTLS</text>
</g>
<g
   id="g200"
   transform="translate(-173.3,-13.765825)">
	<text
   transform="translate(943.9755,279.7001)"
   class="st3 st4 st10"
   id="text198">mTLS</text>
</g>
<g
   id="g204"
   transform="translate(-173.3,-13.765825)">
	<text
   transform="translate(174.5209,32.0002)"
   class="st12 st4 st5"
   id="text202">Cluster: west</text>
</g>
<g
   id="g208"
   transform="translate(-173.3,-13.765825)">
	<text
   transform="translate(706.0775,151.9999)"
   class="st12 st4 st5"
   id="text206">Cluster: east</text>
</g>
<g
   id="g214"
   transform="translate(-173.3,-13.765825)">
	<circle
   class="st3"
   cx="466.20001"
   cy="290.39999"
   r="12.5"
   id="circle210" />
	<path
   class="st6"
   d="m 470.2,287.1 h -0.7 v -1.3 c 0,-1.8 -1.5,-3.3 -3.3,-3.3 -1.8,0 -3.3,1.5 -3.3,3.3 v 1.3 h -0.7 c -0.7,0 -1.3,0.6 -1.3,1.3 v 6.7 c 0,0.7 0.6,1.3 1.3,1.3 h 8 c 0.7,0 1.3,-0.6 1.3,-1.3 v -6.7 c 0,-0.7 -0.6,-1.3 -1.3,-1.3 z m -4,6 c -0.7,0 -1.3,-0.6 -1.3,-1.3 0,-0.7 0.6,-1.3 1.3,-1.3 0.7,0 1.3,0.6 1.3,1.3 0,0.7 -0.6,1.3 -1.3,1.3 z m 2.1,-6 h -4.1 v -1.3 c 0,-1.1 0.9,-2.1 2.1,-2.1 1.1,0 2.1,0.9 2.1,2.1 v 1.3 z"
   id="path212" />
</g>
<g
   id="g220"
   transform="translate(-173.3,-13.765825)">
	<circle
   class="st3"
   cx="1001.9"
   cy="275.20001"
   r="12.5"
   id="circle216" />
	<path
   class="st6"
   d="m 1005.9,271.8 h -0.7 v -1.3 c 0,-1.8 -1.5,-3.3 -3.3,-3.3 -1.8,0 -3.3,1.5 -3.3,3.3 v 1.3 h -0.7 c -0.7,0 -1.3,0.6 -1.3,1.3 v 6.7 c 0,0.7 0.6,1.3 1.3,1.3 h 8 c 0.7,0 1.3,-0.6 1.3,-1.3 v -6.7 c 0,-0.7 -0.6,-1.3 -1.3,-1.3 z m -4,6 c -0.7,0 -1.3,-0.6 -1.3,-1.3 0,-0.7 0.6,-1.3 1.3,-1.3 0.7,0 1.3,0.6 1.3,1.3 0,0.7 -0.6,1.3 -1.3,1.3 z m 2.1,-6 h -4.1 v -1.3 c 0,-1.1 0.9,-2.1 2.1,-2.1 1.1,0 2.1,0.9 2.1,2.1 v 1.3 z"
   id="path218" />
</g>
<g
   id="g230"
   transform="translate(-173.3,-13.765825)">
	
		<image
   style="overflow:visible;opacity:0.22"
   width="160"
   height="45"
   xlink:href="28F01BEF.png"
   transform="translate(471,284.7)"
   id="image222">
	</image>
	<g
   id="g228">
		<path
   class="st13"
   d="m 485.3,320.6 c -5,0 -9.1,-4.1 -9.1,-9.1 V 289.6 H 613 c 5,0 9.1,4.1 9.1,9.1 v 12.8 c 0,5 -4.1,9.1 -9.1,9.1 z"
   id="path224" />
		<path
   class="st3"
   d="m 613,290.1 c 4.8,0 8.6,3.9 8.6,8.6 v 12.8 c 0,4.8 -3.9,8.6 -8.6,8.6 H 485.3 c -4.8,0 -8.6,-3.9 -8.6,-8.6 V 290.1 H 613 m 0,-1 h -136.4 -1 v 1 21.4 c 0,5.3 4.3,9.6 9.6,9.6 H 613 c 5.3,0 9.6,-4.3 9.6,-9.6 v -12.8 c 0,-5.3 -4.3,-9.6 -9.6,-9.6 z"
   id="path226" />
	</g>
</g>
<g
   id="g240"
   transform="translate(-173.3,-13.765825)">
	
		<image
   style="overflow:visible;opacity:0.11"
   width="264"
   height="59"
   xlink:href="28F01BED.png"
   transform="translate(1006,270.7)"
   id="image232">
	</image>
	<g
   id="g238">
		<path
   class="st14"
   d="m 1020.5,320.6 c -5,0 -9.1,-4.1 -9.1,-9.1 v -36.1 h 240.5 c 5,0 9.1,4.1 9.1,9.1 v 27 c 0,5 -4.1,9.1 -9.1,9.1 z"
   id="path234" />
		<path
   class="st3"
   d="m 1251.9,275.8 c 4.8,0 8.6,3.9 8.6,8.6 v 27 c 0,4.8 -3.9,8.6 -8.6,8.6 h -231.3 c -4.8,0 -8.6,-3.9 -8.6,-8.6 v -35.6 h 239.9 m 0,-1 h -240 -1 v 1 35.6 c 0,5.3 4.3,9.6 9.6,9.6 h 231.3 c 5.3,0 9.6,-4.3 9.6,-9.6 v -27 c 0.1,-5.3 -4.2,-9.6 -9.5,-9.6 z"
   id="path236" />
	</g>
</g>
<g
   id="g250"
   transform="translate(-173.3,-13.765825)">
	
		<image
   style="overflow:visible;opacity:0.11"
   width="211"
   height="79"
   xlink:href="28F01BF3.png"
   transform="translate(642,224.7)"
   id="image242">
	</image>
	<g
   id="g248">
		<path
   class="st14"
   d="m 656,294.6 c -5,0 -9.1,-4.1 -9.1,-9.1 v -56 h 188.2 c 5,0 9.1,4.1 9.1,9.1 v 46.9 c 0,5 -4.1,9.1 -9.1,9.1 z"
   id="path244" />
		<path
   class="st3"
   d="m 835.1,229.9 c 4.8,0 8.6,3.9 8.6,8.6 v 46.9 c 0,4.8 -3.9,8.6 -8.6,8.6 H 656 c -4.8,0 -8.6,-3.9 -8.6,-8.6 v -55.5 h 187.7 m 0,-1 h -187.7 -1 v 1 55.5 c 0,5.3 4.3,9.6 9.6,9.6 h 179.1 c 5.3,0 9.6,-4.3 9.6,-9.6 v -46.9 c 0,-5.2 -4.3,-9.6 -9.6,-9.6 z"
   id="path246" />
	</g>
</g>
<g
   id="g260"
   transform="translate(-173.3,-13.765825)">
	<text
   transform="translate(485.6997,309.8025)"
   id="text258"><tspan
     x="0"
     y="0"
     class="st15 st16 st17"
     id="tspan252">A</tspan><tspan
     x="8.3999996"
     y="0"
     class="st3 st16 st17"
     id="tspan254"> connects to </tspan><tspan
     x="117.6"
     y="0"
     class="st15 st16 st17"
     id="tspan256">B</tspan></text>
</g>
<g
   id="g270"
   transform="translate(-173.3,-13.765825)">
	<text
   transform="translate(1022.9238,295.2105)"
   id="text268"><tspan
     x="0"
     y="0"
     class="st3 st16 st17"
     id="tspan262">Gateway automatically </tspan><tspan
     x="0"
     y="16"
     class="st3 st16 st17"
     id="tspan264">establishes connection to </tspan><tspan
     x="218.39999"
     y="16"
     class="st15 st16 st17"
     id="tspan266">C</tspan></text>
</g>
<text
   id="text284"
   x="485.19339"
   y="237.67007"><tspan
     x="485.19339"
     y="237.67007"
     class="st15 st16 st17"
     id="tspan272">A </tspan><tspan
     x="501.99341"
     y="237.67007"
     class="st3 st16 st17"
     id="tspan274">connects to </tspan><tspan
     x="602.7934"
     y="237.67007"
     class="st15 st16 st17"
     id="tspan276">C.east</tspan><tspan
     x="653.19342"
     y="237.67007"
     class="st3 st16 st17"
     id="tspan278">,</tspan><tspan
     x="485.19339"
     y="253.67007"
     class="st3 st16 st17"
     id="tspan280">automatically routed </tspan><tspan
     x="485.19339"
     y="269.67007"
     class="st3 st16 st17"
     id="tspan282">through the gateway</tspan></text>
</svg>
