<?xml version="1.0" encoding="UTF-8" standalone="no"?>
<!-- Created with Inkscape (http://www.inkscape.org/) -->

<svg
   version="1.1"
   id="svg2"
   xml:space="preserve"
   width="879.05096"
   height="258.05212"
   viewBox="0 0 879.05096 258.05212"
   sodipodi:docname="network.svg"
   inkscape:version="1.1.2 (0a00cf5339, 2022-02-04)"
   xmlns:inkscape="http://www.inkscape.org/namespaces/inkscape"
   xmlns:sodipodi="http://sodipodi.sourceforge.net/DTD/sodipodi-0.dtd"
   xmlns="http://www.w3.org/2000/svg"
   xmlns:svg="http://www.w3.org/2000/svg"><defs
     id="defs6"><clipPath
       clipPathUnits="userSpaceOnUse"
       id="clipPath54"><path
         d="M 0,0 H 660 V 194 H 0 Z"
         id="path52" /></clipPath><clipPath
       clipPathUnits="userSpaceOnUse"
       id="clipPath118"><path
         d="M 0,0 H 660 V 194 H 0 Z"
         id="path116" /></clipPath></defs><sodipodi:namedview
     id="namedview4"
     pagecolor="#ffffff"
     bordercolor="#666666"
     borderopacity="1.0"
     inkscape:pageshadow="2"
     inkscape:pageopacity="0.0"
     inkscape:pagecheckerboard="0"
     showgrid="false"
     inkscape:zoom="1.3798972"
     inkscape:cx="433.3656"
     inkscape:cy="129.35746"
     inkscape:window-width="1920"
     inkscape:window-height="1031"
     inkscape:window-x="1920"
     inkscape:window-y="25"
     inkscape:window-maximized="1"
     inkscape:current-layer="g10" /><g
     id="g8"
     inkscape:groupmode="layer"
     inkscape:label="network"
     transform="matrix(1.3333333,0,0,1.3333333,0,2.4513031e-6)"><g
       id="g10"><g
         id="g112"
         style="fill:#44aa99;fill-opacity:1"><g
           id="g114"
           style="fill:#44aa99;fill-opacity:1" /><g
           id="g126"
           style="fill:#44aa99;fill-opacity:1"><g
             clip-path="url(#clipPath118)"
             opacity="0.1"
             id="g124"
             style="fill:#44aa99;fill-opacity:1"><g
               id="g122"
               style="fill:#44aa99;fill-opacity:1"><path
                 d="m 137.684,43.539 c -4.375,0 -7.895,3.523 -7.895,7.895 v 134.211 c 0,4.371 3.52,7.894 7.895,7.894 h 239.211 c 4.375,0 7.894,-3.523 7.894,-7.894 V 51.434 c 0,-4.372 -3.519,-7.895 -7.894,-7.895 z M 151.34,68.57 h 80.797 c 5.664,0 10.226,4.563 10.226,10.227 v 35.797 c 0,5.664 -4.562,10.226 -10.226,10.226 H 151.34 c -5.664,0 -10.227,-4.562 -10.227,-10.226 V 78.797 c 0,-5.664 4.563,-10.227 10.227,-10.227 z m 118.312,0 h 80.797 c 5.664,0 10.227,4.563 10.227,10.227 v 35.797 c 0,5.664 -4.563,10.226 -10.227,10.226 h -80.797 c -5.664,0 -10.226,-4.562 -10.226,-10.226 V 78.797 c 0,-5.664 4.562,-10.227 10.226,-10.227 z"
                 style="fill:#44aa99;fill-opacity:1;fill-rule:nonzero;stroke:none"
                 id="path120" /></g></g></g></g><g
         id="g12"
         style="stroke:#332288;stroke-opacity:1;stroke-width:1.22475005;stroke-miterlimit:4;stroke-dasharray:4.89900017,4.89900017;stroke-dashoffset:0"><path
           d="M 138.113,108.977 H 53.363"
           style="fill:none;stroke:#332288;stroke-width:1.22475005;stroke-linecap:butt;stroke-linejoin:miter;stroke-miterlimit:4;stroke-dasharray:4.89900017,4.89900017;stroke-dashoffset:0;stroke-opacity:1"
           id="path14" /></g><g
         id="g16"
         style="fill:#332288;fill-opacity:1"><path
           d="m 69.398,115.633 -18.027,-6.629 18.027,-6.629 c -2.878,3.914 -2.863,9.266 0,13.258 z"
           style="fill:#332288;fill-opacity:1;fill-rule:evenodd;stroke:#2e3436;stroke-width:1.03125;stroke-linecap:butt;stroke-linejoin:round;stroke-miterlimit:4;stroke-dasharray:none;stroke-opacity:1"
           id="path18" /></g><g
         id="g20"
         style="stroke:#332288;stroke-opacity:1;stroke-width:0.99975002;stroke-miterlimit:4;stroke-dasharray:none"><path
           d="m 53.363,78.977 h 83.25"
           style="fill:none;stroke:#332288;stroke-width:0.99975002;stroke-linecap:butt;stroke-linejoin:miter;stroke-miterlimit:4;stroke-dasharray:none;stroke-opacity:1"
           id="path22" /></g><g
         id="g24"
         transform="scale(-1)"
         style="fill:#332288;fill-opacity:1"><path
           d="m -120.578,-72.32 -18.027,-6.629 18.027,-6.629 c -2.879,3.914 -2.863,9.269 0,13.258 z"
           style="fill:#332288;fill-opacity:1;fill-rule:evenodd;stroke:#2e3436;stroke-width:1.03125;stroke-linecap:butt;stroke-linejoin:round;stroke-miterlimit:4;stroke-dasharray:none;stroke-opacity:1"
           id="path26" /></g><path
         d="m 16.355,86.754 c -1.613,0 -2.921,1.308 -2.921,2.922 0,1.613 1.308,2.922 2.921,2.922 1.61,0 2.918,-1.309 2.918,-2.922 0,-1.614 -1.308,-2.922 -2.918,-2.922 z m 14.016,0 c -1.609,0 -2.918,1.308 -2.918,2.922 0,1.613 1.309,2.922 2.918,2.922 1.613,0 2.922,-1.309 2.922,-2.922 0,-1.614 -1.309,-2.922 -2.922,-2.922 z M 23.363,63.977 C 10.465,63.977 0,74.441 0,87.34 c 0,12.894 10.465,23.363 23.363,23.363 12.895,0 23.364,-10.469 23.364,-23.363 0,-12.899 -10.469,-23.363 -23.364,-23.363 z m 0,42.054 c -10.304,0 -18.691,-8.386 -18.691,-18.691 0,-0.676 0.047,-1.356 0.117,-2.008 5.516,-2.453 9.883,-6.965 12.172,-12.547 4.23,5.981 11.191,9.883 19.066,9.883 1.821,0 3.575,-0.211 5.254,-0.609 0.492,1.66 0.774,3.433 0.774,5.281 0,10.305 -8.387,18.691 -18.692,18.691 z"
         style="fill:#332288;fill-opacity:1;fill-rule:nonzero;stroke:none"
         id="path28" /><g
         id="g40"
         style="stroke:#332288;stroke-opacity:1;stroke-width:1.22475003;stroke-miterlimit:4;stroke-dasharray:1.22475003,7.34850018;stroke-dashoffset:0"><path
           d="m 219.227,126.039 v 37.5 h -60 v -37.5"
           style="fill:none;stroke:#332288;stroke-width:1.22475003;stroke-linecap:butt;stroke-linejoin:round;stroke-miterlimit:4;stroke-dasharray:1.22475003,7.34850018;stroke-dashoffset:0;stroke-opacity:1"
           id="path42" /></g><g
         id="g44"
         transform="rotate(90)"
         style="fill:#332288;fill-opacity:1"><path
           d="m 142.074,-152.57 -18.027,-6.629 18.027,-6.629 c -2.879,3.914 -2.863,9.269 0,13.258 z"
           style="fill:#332288;fill-opacity:1;fill-rule:evenodd;stroke:#2e3436;stroke-width:1.03125;stroke-linecap:butt;stroke-linejoin:round;stroke-miterlimit:4;stroke-dasharray:none;stroke-opacity:1"
           id="path46" /></g><g
         id="g48"
         style="fill:#ffab40;fill-opacity:1"><g
           id="g50"
           style="fill:#ffab40;fill-opacity:1" /><g
           id="g62"
           style="fill:#ffab40;fill-opacity:1"><g
             clip-path="url(#clipPath54)"
             opacity="0.25"
             id="g60"
             style="fill:#ffab40;fill-opacity:1"><g
               id="g58"
               style="fill:#ffab40;fill-opacity:1"><path
                 d="m 412.184,43.539 c -4.375,0 -7.895,3.523 -7.895,7.895 v 134.211 c 0,4.371 3.52,7.894 7.895,7.894 h 239.211 c 4.375,0 7.894,-3.523 7.894,-7.894 V 51.434 c 0,-4.372 -3.519,-7.895 -7.894,-7.895 z M 425.84,68.57 h 80.797 c 5.664,0 10.226,4.563 10.226,10.227 v 35.797 c 0,5.664 -4.562,10.226 -10.226,10.226 H 425.84 c -5.664,0 -10.227,-4.562 -10.227,-10.226 V 78.797 c 0,-5.664 4.563,-10.227 10.227,-10.227 z m 118.312,0 h 80.797 c 5.664,0 10.227,4.563 10.227,10.227 v 35.797 c 0,5.664 -4.563,10.226 -10.227,10.226 h -80.797 c -5.664,0 -10.226,-4.562 -10.226,-10.226 V 78.797 c 0,-5.664 4.562,-10.227 10.226,-10.227 z"
                 style="fill:#ffab40;fill-opacity:1;fill-rule:nonzero;stroke:none"
                 id="path56" /></g></g></g></g><g
         id="g64"
         style="stroke:#44aa99;stroke-opacity:1;stroke-width:2.34975006;stroke-miterlimit:4;stroke-dasharray:none"><path
           d="m 425.84,68.57 h 80.797 c 5.664,0 10.226,4.563 10.226,10.227 v 35.797 c 0,5.664 -4.562,10.226 -10.226,10.226 H 425.84 c -5.664,0 -10.227,-4.562 -10.227,-10.226 V 78.797 c 0,-5.664 4.563,-10.227 10.227,-10.227 z"
           style="fill:none;stroke:#44aa99;stroke-width:2.34975006;stroke-linecap:butt;stroke-linejoin:round;stroke-miterlimit:4;stroke-dasharray:none;stroke-opacity:1"
           id="path66" /></g><g
         id="g82"
         style="stroke:#cc6677;stroke-opacity:1;stroke-width:2.34975006;stroke-miterlimit:4;stroke-dasharray:none"><path
           d="m 544.152,68.57 h 80.797 c 5.664,0 10.227,4.563 10.227,10.227 v 35.797 c 0,5.664 -4.563,10.226 -10.227,10.226 h -80.797 c -5.664,0 -10.226,-4.562 -10.226,-10.226 V 78.797 c 0,-5.664 4.562,-10.227 10.226,-10.227 z"
           style="fill:none;stroke:#cc6677;stroke-width:2.34975006;stroke-linecap:butt;stroke-linejoin:round;stroke-miterlimit:4;stroke-dasharray:none;stroke-opacity:1"
           id="path84" /></g><path
         d="m 91.832,59.633 c -1.359,1.937 -2.594,3.609 -2.594,6.922 0,3.328 1.235,4.984 2.594,6.937 l 0.813,-0.562 c -1.25,-1.86 -2.063,-3.375 -2.063,-6.375 0,-3 0.813,-4.5 2.063,-6.36 z"
         style="fill:#332288;fill-opacity:1;fill-rule:nonzero;stroke:none"
         id="path100" /><path
         d="m 97.727,62.102 h -1.125 l -2.907,1.781 0.563,0.922 2.187,-1.344 v 8 h 1.282 z"
         style="fill:#332288;fill-opacity:1;fill-rule:nonzero;stroke:none"
         id="path102" /><path
         d="m 100.648,59.633 -0.812,0.562 c 1.25,1.86 2.062,3.36 2.062,6.36 0,3 -0.812,4.515 -2.062,6.375 l 0.812,0.562 c 1.375,-1.953 2.594,-3.609 2.594,-6.937 0,-3.313 -1.219,-4.985 -2.594,-6.922 z"
         style="fill:#332288;fill-opacity:1;fill-rule:nonzero;stroke:none"
         id="path104" /><path
         d="m 181.145,169.031 c -1.36,1.938 -2.594,3.61 -2.594,6.922 0,3.328 1.234,4.985 2.594,6.938 l 0.812,-0.563 c -1.25,-1.859 -2.062,-3.375 -2.062,-6.375 0,-3 0.812,-4.5 2.062,-6.359 z"
         style="fill:#332288;fill-opacity:1;fill-rule:nonzero;stroke:none"
         id="path106" /><path
         d="m 185.68,171.359 c -1.016,0 -1.875,0.36 -2.688,1.094 l 0.672,0.781 c 0.641,-0.593 1.203,-0.843 1.938,-0.843 0.937,0 1.562,0.547 1.562,1.421 0,1.094 -0.781,1.657 -1.703,1.657 h -0.469 l -0.156,1 h 0.703 c 1.125,0 1.859,0.39 1.859,1.672 0,1.109 -0.718,1.843 -1.89,1.843 -0.766,0 -1.391,-0.281 -2,-0.937 l -0.781,0.719 c 0.718,0.859 1.703,1.265 2.828,1.265 1.937,0 3.187,-1.234 3.187,-2.875 0,-1.406 -0.937,-2.156 -2.109,-2.265 1.047,-0.25 1.812,-0.969 1.812,-2.157 0,-1.265 -0.984,-2.375 -2.765,-2.375 z"
         style="fill:#332288;fill-opacity:1;fill-rule:nonzero;stroke:none"
         id="path108" /><path
         d="m 190.883,169.031 -0.813,0.563 c 1.25,1.859 2.063,3.359 2.063,6.359 0,3 -0.813,4.516 -2.063,6.375 l 0.813,0.563 c 1.375,-1.953 2.594,-3.61 2.594,-6.938 0,-3.312 -1.219,-4.984 -2.594,-6.922 z"
         style="fill:#332288;fill-opacity:1;fill-rule:nonzero;stroke:none"
         id="path110" /><g
         id="g128"
         style="stroke:#44aa99;stroke-opacity:1;stroke-width:2.34975006;stroke-miterlimit:4;stroke-dasharray:none"><path
           d="m 151.34,68.57 h 80.797 c 5.664,0 10.226,4.563 10.226,10.227 v 35.797 c 0,5.664 -4.562,10.226 -10.226,10.226 H 151.34 c -5.664,0 -10.227,-4.562 -10.227,-10.226 V 78.797 c 0,-5.664 4.563,-10.227 10.227,-10.227 z"
           style="fill:none;stroke:#44aa99;stroke-width:2.34975006;stroke-linecap:butt;stroke-linejoin:round;stroke-miterlimit:4;stroke-dasharray:none;stroke-opacity:1"
           id="path130" /></g><g
         id="g146"
         style="stroke:#cc6677;stroke-opacity:1;stroke-width:2.34975006;stroke-miterlimit:4;stroke-dasharray:none"><path
           d="m 269.652,68.57 h 80.797 c 5.664,0 10.227,4.563 10.227,10.227 v 35.797 c 0,5.664 -4.563,10.226 -10.227,10.226 h -80.797 c -5.664,0 -10.226,-4.562 -10.226,-10.226 V 78.797 c 0,-5.664 4.562,-10.227 10.226,-10.227 z"
           style="fill:none;stroke:#cc6677;stroke-width:2.34975006;stroke-linecap:butt;stroke-linejoin:round;stroke-miterlimit:4;stroke-dasharray:none;stroke-opacity:1"
           id="path148" /></g><g
         id="g164"
         style="stroke:#aa4499;stroke-opacity:1"><path
           d="m 587.602,66.008 v -43.5 h -405 v 45"
           style="fill:none;stroke:#aa4499;stroke-width:2.25071;stroke-linecap:butt;stroke-linejoin:round;stroke-miterlimit:4;stroke-dasharray:none;stroke-opacity:1"
           id="path166" /></g><g
         id="g168"
         transform="rotate(-90)"
         style="fill:#aa4499;fill-opacity:1;stroke:#aa4499;stroke-opacity:1"><path
           d="m -54.234,593.047 -14.754,-5.426 14.754,-5.426 c -2.356,3.203 -2.344,7.586 0,10.852 z"
           style="fill:#aa4499;fill-opacity:1;fill-rule:evenodd;stroke:#aa4499;stroke-width:0.844016;stroke-linecap:butt;stroke-linejoin:round;stroke-miterlimit:4;stroke-dasharray:none;stroke-opacity:1"
           id="path170" /></g><path
         d="m 305.09,0.008 c -1.375,1.922 -2.656,3.687 -2.656,7.015 0,3.344 1.281,5.11 2.656,7.032 l 1.156,-0.766 c -1.297,-1.844 -1.984,-3.484 -1.984,-6.266 0,-2.781 0.687,-4.406 1.984,-6.25 z"
         style="fill:#aa4499;fill-opacity:1;fill-rule:nonzero;stroke:none"
         id="path172" /><path
         d="m 309.844,2.336 c -1.313,0 -2.297,0.562 -3.063,1.547 l 1.11,0.859 c 0.578,-0.687 1.062,-0.984 1.812,-0.984 0.813,0 1.359,0.5 1.359,1.375 0,1.328 -0.781,2.203 -4.015,5.484 v 1.313 h 5.875 l 0.187,-1.407 h -4.031 c 2.922,-2.781 3.828,-3.937 3.828,-5.531 0,-1.469 -1.125,-2.656 -3.062,-2.656 z"
         style="fill:#aa4499;fill-opacity:1;fill-rule:nonzero;stroke:none"
         id="path174" /><path
         d="m 315.16,0.008 -1.14,0.765 c 1.281,1.844 1.984,3.469 1.984,6.25 0,2.782 -0.703,4.422 -1.984,6.266 l 1.14,0.766 c 1.406,-1.922 2.656,-3.688 2.656,-7.032 0,-3.328 -1.25,-5.093 -2.656,-7.015 z"
         style="fill:#aa4499;fill-opacity:1;fill-rule:nonzero;stroke:none"
         id="path176" /><path
         d="m 325.699,2.258 h -2.844 v 9.672 h 1.844 V 8.555 h 1.125 c 2.188,0 3.797,-1 3.797,-3.219 0,-2.094 -1.484,-3.078 -3.922,-3.078 z m -0.015,4.906 h -0.985 V 3.617 h 0.985 c 1.265,0 2.015,0.5 2.015,1.719 0,1.406 -0.781,1.828 -2.015,1.828 z"
         style="fill:#aa4499;fill-opacity:1;fill-rule:nonzero;stroke:none"
         id="path178" /><path
         d="m 334.832,2.039 c -2.594,0 -4.234,1.875 -4.234,5.063 0,3.234 1.64,5.031 4.234,5.031 2.594,0 4.234,-1.86 4.234,-5.047 0,-3.234 -1.64,-5.047 -4.234,-5.047 z m 0,1.422 c 1.453,0 2.281,1.031 2.281,3.625 0,2.625 -0.843,3.641 -2.281,3.641 -1.406,0 -2.297,-1.016 -2.297,-3.625 0,-2.61 0.86,-3.641 2.297,-3.641 z"
         style="fill:#aa4499;fill-opacity:1;fill-rule:nonzero;stroke:none"
         id="path180" /><path
         d="m 343.512,2.039 c -1.907,0 -3.297,1.078 -3.297,2.688 0,1.468 0.89,2.281 2.922,2.906 1.5,0.453 1.906,0.828 1.906,1.64 0,0.938 -0.734,1.438 -1.766,1.438 -1.015,0 -1.781,-0.359 -2.484,-0.969 l -0.969,1.063 c 0.797,0.781 1.953,1.328 3.485,1.328 2.312,0 3.671,-1.219 3.671,-2.969 0,-1.812 -1.171,-2.516 -2.875,-3.047 -1.609,-0.5 -1.984,-0.812 -1.984,-1.515 0,-0.75 0.625,-1.141 1.5,-1.141 0.797,0 1.469,0.25 2.172,0.828 l 0.906,-1.047 c -0.844,-0.781 -1.781,-1.203 -3.187,-1.203 z"
         style="fill:#aa4499;fill-opacity:1;fill-rule:nonzero;stroke:none"
         id="path182" /><path
         d="m 354.637,2.258 h -7.172 v 1.469 h 2.594 v 8.203 h 1.875 V 3.727 h 2.515 z"
         style="fill:#aa4499;fill-opacity:1;fill-rule:nonzero;stroke:none"
         id="path184" /><path
         d="m 362.727,0.555 -3.282,12.515 1.547,0.375 3.266,-12.531 z"
         style="fill:#aa4499;fill-opacity:1;fill-rule:nonzero;stroke:none"
         id="path186" /><path
         d="m 370.102,4.32 c -0.766,0 -1.563,0.344 -2.141,1.11 l -0.109,-0.907 h -1.563 v 10.454 l 1.797,-0.188 V 11.32 c 0.453,0.547 1.094,0.813 1.859,0.813 1.875,0 2.922,-1.656 2.922,-3.922 0,-2.375 -0.812,-3.891 -2.765,-3.891 z m -0.657,6.453 c -0.562,0 -1.015,-0.25 -1.359,-0.781 V 6.664 c 0.344,-0.578 0.859,-1 1.484,-1 0.922,0 1.422,0.672 1.422,2.563 0,1.781 -0.578,2.546 -1.547,2.546 z"
         style="fill:#aa4499;fill-opacity:1;fill-rule:nonzero;stroke:none"
         id="path188" /><path
         d="m 377.664,4.32 c -2.203,0 -3.5,1.578 -3.5,3.907 0,2.421 1.297,3.906 3.484,3.906 2.172,0 3.485,-1.578 3.485,-3.906 0,-2.422 -1.297,-3.907 -3.469,-3.907 z m 0,1.344 c 1.031,0 1.578,0.797 1.578,2.563 0,1.75 -0.547,2.562 -1.594,2.562 -1.062,0 -1.609,-0.797 -1.609,-2.562 0,-1.75 0.563,-2.563 1.625,-2.563 z"
         style="fill:#aa4499;fill-opacity:1;fill-rule:nonzero;stroke:none"
         id="path190" /><path
         d="m 386.465,4.32 c -0.875,0 -1.578,0.594 -1.938,1.657 l -0.172,-1.454 h -1.546 v 7.407 h 1.796 V 7.992 c 0.282,-1.25 0.719,-1.922 1.641,-1.922 0.25,0 0.422,0.032 0.656,0.094 L 387.199,4.43 C 386.965,4.352 386.73,4.32 386.465,4.32 Z"
         style="fill:#aa4499;fill-opacity:1;fill-rule:nonzero;stroke:none"
         id="path192" /><path
         d="m 392.145,10.414 c -0.313,0.203 -0.594,0.281 -0.875,0.281 -0.547,0 -0.782,-0.297 -0.782,-1.015 V 5.805 h 1.532 l 0.187,-1.282 h -1.719 V 2.68 l -1.797,0.203 v 1.64 h -1.171 v 1.282 h 1.171 v 3.906 c 0,1.594 0.766,2.422 2.219,2.422 0.656,0 1.328,-0.172 1.86,-0.547 z"
         style="fill:#aa4499;fill-opacity:1;fill-rule:nonzero;stroke:none"
         id="path194" /><path
         d="m 400.238,0.195 c -2.218,0 -2.859,0.703 -2.859,2.203 V 5.18 c 0,0.797 -0.203,1.125 -0.938,1.125 v 1.468 c 0.735,0 0.938,0.313 0.938,1.11 v 2.781 c 0,1.484 0.641,2.203 2.859,2.203 V 12.57 c -0.875,0 -1.172,-0.234 -1.172,-0.89 V 8.742 c 0,-1.14 -0.484,-1.484 -1.281,-1.703 0.797,-0.219 1.281,-0.562 1.281,-1.719 V 2.383 c 0,-0.656 0.297,-0.891 1.172,-0.891 z"
         style="fill:#aa4499;fill-opacity:1;fill-rule:nonzero;stroke:none"
         id="path196" /><path
         d="m 409.262,4.32 c -0.938,0 -1.688,0.438 -2.266,1.188 l -0.141,-0.985 h -1.546 v 7.407 h 1.796 V 6.773 c 0.422,-0.687 0.907,-1.109 1.547,-1.109 0.563,0 0.907,0.266 0.907,1.188 v 5.078 h 1.796 V 6.57 c 0,-1.422 -0.765,-2.25 -2.093,-2.25 z"
         style="fill:#aa4499;fill-opacity:1;fill-rule:nonzero;stroke:none"
         id="path198" /><path
         d="m 419.52,8.055 c 0,-2.344 -1.188,-3.735 -3.266,-3.735 -2.094,0 -3.281,1.703 -3.281,3.953 0,2.344 1.218,3.86 3.515,3.86 1.125,0 2.016,-0.406 2.75,-0.985 l -0.75,-1.031 c -0.64,0.453 -1.187,0.672 -1.843,0.672 -0.985,0 -1.672,-0.5 -1.813,-2.016 h 4.641 c 0.015,-0.187 0.047,-0.484 0.047,-0.718 z m -1.782,-0.438 h -2.906 c 0.094,-1.469 0.625,-2.031 1.469,-2.031 1,0 1.437,0.734 1.437,1.953 z"
         style="fill:#aa4499;fill-opacity:1;fill-rule:nonzero;stroke:none"
         id="path200" /><path
         d="m 424.777,10.414 c -0.312,0.203 -0.593,0.281 -0.875,0.281 -0.547,0 -0.781,-0.297 -0.781,-1.015 V 5.805 h 1.531 l 0.188,-1.282 h -1.719 V 2.68 l -1.797,0.203 v 1.64 h -1.172 v 1.282 h 1.172 v 3.906 c 0,1.594 0.766,2.422 2.219,2.422 0.656,0 1.328,-0.172 1.859,-0.547 z"
         style="fill:#aa4499;fill-opacity:1;fill-rule:nonzero;stroke:none"
         id="path202" /><path
         d="m 435.465,4.523 h -1.719 l -1.109,6.094 -1.172,-6.094 h -1.844 l -1.281,6.094 -1.047,-6.094 h -1.781 l 1.64,7.407 h 2.188 l 1.156,-5.813 1.109,5.813 h 2.25 z"
         style="fill:#aa4499;fill-opacity:1;fill-rule:nonzero;stroke:none"
         id="path204" /><path
         d="m 439.586,4.32 c -2.203,0 -3.5,1.578 -3.5,3.907 0,2.421 1.297,3.906 3.484,3.906 2.172,0 3.485,-1.578 3.485,-3.906 0,-2.422 -1.297,-3.907 -3.469,-3.907 z m 0,1.344 c 1.031,0 1.578,0.797 1.578,2.563 0,1.75 -0.547,2.562 -1.594,2.562 -1.062,0 -1.609,-0.797 -1.609,-2.562 0,-1.75 0.562,-2.563 1.625,-2.563 z"
         style="fill:#aa4499;fill-opacity:1;fill-rule:nonzero;stroke:none"
         id="path206" /><path
         d="m 448.387,4.32 c -0.875,0 -1.578,0.594 -1.938,1.657 l -0.172,-1.454 h -1.547 v 7.407 h 1.797 V 7.992 c 0.282,-1.25 0.719,-1.922 1.641,-1.922 0.25,0 0.422,0.032 0.656,0.094 l 0.297,-1.734 c -0.234,-0.078 -0.469,-0.11 -0.734,-0.11 z"
         style="fill:#aa4499;fill-opacity:1;fill-rule:nonzero;stroke:none"
         id="path208" /><path
         d="m 452.043,1.367 -1.797,0.188 V 11.93 h 1.797 z m 4.437,3.156 h -1.89 l -2.485,3.36 2.547,4.047 h 2.063 l -2.703,-4.141 z"
         style="fill:#aa4499;fill-opacity:1;fill-rule:nonzero;stroke:none"
         id="path210" /><path
         d="m 458.316,4.883 c -0.64,0 -1.125,0.515 -1.125,1.14 0,0.625 0.485,1.125 1.125,1.125 0.641,0 1.141,-0.5 1.141,-1.125 0,-0.625 -0.5,-1.14 -1.141,-1.14 z m 0,4.984 c -0.64,0 -1.125,0.516 -1.125,1.141 0,0.609 0.485,1.125 1.125,1.125 0.641,0 1.141,-0.516 1.141,-1.125 0,-0.625 -0.5,-1.141 -1.141,-1.141 z"
         style="fill:#aa4499;fill-opacity:1;fill-rule:nonzero;stroke:none"
         id="path212" /><path
         d="m 471.598,10.633 c -0.125,0.031 -0.282,0.062 -0.422,0.062 -0.297,0 -0.422,-0.172 -0.422,-0.578 V 1.445 l -1.672,0.188 c -0.531,-0.172 -1.031,-0.266 -1.656,-0.266 -1.813,0 -2.672,1 -2.672,2.344 v 0.812 h -1.172 v 1.282 h 1.172 v 6.125 h 1.781 V 5.805 h 1.391 l 0.203,-1.282 h -1.594 V 3.727 c 0,-0.719 0.266,-1.016 1.125,-1.016 0.485,0 0.844,0.047 1.297,0.187 v 7.344 c 0,1.235 0.641,1.891 1.75,1.891 0.453,0 0.906,-0.094 1.266,-0.25 z"
         style="fill:#aa4499;fill-opacity:1;fill-rule:nonzero;stroke:none"
         id="path214" /><path
         d="m 478.633,9.977 v -3.11 c 0,-1.64 -0.86,-2.547 -2.844,-2.547 -0.828,0 -1.766,0.172 -2.687,0.532 l 0.421,1.218 c 0.75,-0.265 1.454,-0.406 1.969,-0.406 0.953,0 1.375,0.328 1.375,1.297 v 0.422 h -0.922 c -2.156,0 -3.375,0.859 -3.375,2.469 0,1.343 0.922,2.281 2.407,2.281 0.875,0 1.687,-0.313 2.203,-1.094 0.297,0.719 0.828,1 1.64,1.078 l 0.375,-1.203 c -0.359,-0.125 -0.562,-0.344 -0.562,-0.937 z m -3.188,0.859 c -0.687,0 -1.047,-0.406 -1.047,-1.125 0,-0.859 0.579,-1.281 1.735,-1.281 h 0.734 v 1.5 c -0.328,0.593 -0.797,0.906 -1.422,0.906 z"
         style="fill:#aa4499;fill-opacity:1;fill-rule:nonzero;stroke:none"
         id="path216" /><path
         d="m 484.418,10.414 c -0.313,0.203 -0.594,0.281 -0.875,0.281 -0.547,0 -0.781,-0.297 -0.781,-1.015 V 5.805 h 1.531 l 0.187,-1.282 h -1.718 V 2.68 l -1.797,0.203 v 1.64 h -1.172 v 1.282 h 1.172 v 3.906 c 0,1.594 0.765,2.422 2.219,2.422 0.656,0 1.328,-0.172 1.859,-0.547 z"
         style="fill:#aa4499;fill-opacity:1;fill-rule:nonzero;stroke:none"
         id="path218" /><path
         d="m 488.965,0.195 v 1.297 c 0.89,0 1.187,0.235 1.187,0.891 V 5.32 c 0,1.157 0.469,1.5 1.266,1.719 -0.797,0.219 -1.266,0.563 -1.266,1.703 v 2.938 c 0,0.656 -0.312,0.89 -1.187,0.89 v 1.297 c 2.234,0 2.859,-0.719 2.859,-2.203 V 8.883 c 0,-0.797 0.219,-1.11 0.953,-1.11 V 6.305 c -0.734,0 -0.953,-0.328 -0.953,-1.125 V 2.398 c 0,-1.5 -0.625,-2.203 -2.859,-2.203 z"
         style="fill:#aa4499;fill-opacity:1;fill-rule:nonzero;stroke:none"
         id="path220" /><path
         d="m 304.188,41.906 c -2.204,0 -2.876,0.672 -3.094,2.172 l -0.391,2.781 c -0.109,0.797 -0.391,1.157 -1.109,1.157 l -0.235,1.468 c 0.797,0 0.938,0.282 0.813,1.078 l -0.375,2.766 c -0.203,1.5 0.562,2.25 2.531,2.25 l 0.125,-1.297 c -0.859,0 -1.094,-0.203 -1.015,-0.843 l 0.421,-2.954 c 0.172,-1.187 -0.297,-1.5 -1.031,-1.703 0.844,-0.25 1.344,-0.578 1.5,-1.719 l 0.422,-2.937 c 0.094,-0.641 0.438,-0.922 1.297,-0.922 z"
         style="fill:#aa4499;fill-opacity:1;fill-rule:nonzero;stroke:none"
         id="path222" /><path
         d="m 316.297,46.031 c -0.875,0 -1.703,0.531 -2.328,1.438 -0.141,-0.938 -0.797,-1.438 -1.625,-1.438 -0.953,0 -1.735,0.578 -2.375,1.5 l 0.078,-1.297 h -1.531 l -1.032,7.407 h 1.766 l 0.578,-4.25 c 0.516,-1.047 1.11,-1.891 1.734,-1.891 0.407,0 0.704,0.188 0.579,1.109 l -0.703,5.032 h 1.765 l 0.609,-4.297 c 0.5,-1.016 1.11,-1.844 1.719,-1.844 0.407,0 0.719,0.188 0.594,1.109 l -0.719,5.032 h 1.766 l 0.75,-5.329 c 0.203,-1.421 -0.469,-2.281 -1.625,-2.281 z"
         style="fill:#aa4499;fill-opacity:1;fill-rule:nonzero;stroke:none"
         id="path224" /><path
         d="m 323.324,46.031 c -3.031,0 -4.125,2.828 -4.125,4.922 0,1.75 0.813,2.891 2.391,2.891 0.937,0 1.656,-0.516 2.203,-1.25 0.172,0.797 0.75,1.14 1.531,1.234 l 0.5,-1.187 c -0.265,-0.11 -0.422,-0.25 -0.422,-0.625 0,-0.078 0.016,-0.188 0.032,-0.313 l 0.734,-4.969 c -0.984,-0.515 -1.906,-0.703 -2.844,-0.703 z m -0.031,1.313 c 0.422,0 0.672,0.047 1.016,0.187 l -0.563,3.781 c -0.5,0.704 -1,1.188 -1.641,1.188 -0.656,0 -1.062,-0.422 -1.062,-1.547 0,-1.547 0.609,-3.609 2.25,-3.609 z"
         style="fill:#aa4499;fill-opacity:1;fill-rule:nonzero;stroke:none"
         id="path226" /><path
         d="m 331.195,46.031 c -2.89,0 -3.984,2.766 -3.984,4.703 0,1.922 1.094,3.11 2.984,3.11 0.907,0 1.703,-0.282 2.453,-0.813 l -0.671,-1.187 c -0.579,0.359 -1.016,0.547 -1.594,0.547 -0.813,0 -1.313,-0.422 -1.313,-1.563 0,-1.39 0.453,-3.39 2.125,-3.39 0.532,0 0.938,0.14 1.36,0.531 l 0.906,-1.063 c -0.625,-0.609 -1.391,-0.875 -2.266,-0.875 z"
         style="fill:#aa4499;fill-opacity:1;fill-rule:nonzero;stroke:none"
         id="path228" /><path
         d="m 335.367,46.594 c -0.687,0 -1.219,0.578 -1.219,1.25 0,0.594 0.407,1.015 0.985,1.015 0.703,0 1.25,-0.562 1.25,-1.234 0,-0.594 -0.422,-1.031 -1.016,-1.031 z m -0.687,4.984 c -0.688,0 -1.235,0.563 -1.235,1.25 0,0.578 0.407,1.016 0.985,1.016 0.703,0 1.25,-0.563 1.25,-1.25 0,-0.578 -0.422,-1.016 -1,-1.016 z"
         style="fill:#aa4499;fill-opacity:1;fill-rule:nonzero;stroke:none"
         id="path230" /><path
         d="m 341.27,47.766 h 1.234 l 0.766,-3.797 h -1.704 z m 2.671,0 h 1.235 l 0.765,-3.797 h -1.687 z"
         style="fill:#aa4499;fill-opacity:1;fill-rule:nonzero;stroke:none"
         id="path232" /><path
         d="m 350.633,44.422 c 0.328,0 0.75,0.078 1.156,0.344 l 0.641,-1.125 c -0.516,-0.329 -1.11,-0.563 -1.922,-0.563 -1.656,0 -2.61,0.953 -2.797,2.297 l -0.125,0.859 h -1.188 l -0.187,1.282 h 1.187 l -0.765,5.531 c -0.219,1.469 -0.797,1.906 -1.844,2.328 l 0.469,1.313 c 1.719,-0.672 2.812,-1.407 3.14,-3.672 l 0.766,-5.5 h 1.563 l 0.375,-1.282 h -1.75 l 0.109,-0.734 c 0.094,-0.719 0.453,-1.078 1.172,-1.078 z"
         style="fill:#aa4499;fill-opacity:1;fill-rule:nonzero;stroke:none"
         id="path234" /><path
         d="m 355.051,46.031 c -3.031,0 -4.125,2.828 -4.125,4.922 0,1.75 0.812,2.891 2.39,2.891 0.938,0 1.657,-0.516 2.204,-1.25 0.171,0.797 0.75,1.14 1.531,1.234 l 0.5,-1.187 c -0.266,-0.11 -0.422,-0.25 -0.422,-0.625 0,-0.078 0.016,-0.188 0.031,-0.313 l 0.735,-4.969 c -0.985,-0.515 -1.907,-0.703 -2.844,-0.703 z m -0.031,1.313 c 0.421,0 0.671,0.047 1.015,0.187 l -0.562,3.781 c -0.5,0.704 -1,1.188 -1.641,1.188 -0.656,0 -1.062,-0.422 -1.062,-1.547 0,-1.547 0.609,-3.609 2.25,-3.609 z"
         style="fill:#aa4499;fill-opacity:1;fill-rule:nonzero;stroke:none"
         id="path236" /><path
         d="m 360.496,46.594 c -0.687,0 -1.219,0.578 -1.219,1.25 0,0.594 0.407,1.015 0.985,1.015 0.703,0 1.25,-0.562 1.25,-1.234 0,-0.594 -0.422,-1.031 -1.016,-1.031 z m -0.687,4.984 c -0.688,0 -1.235,0.563 -1.235,1.25 0,0.578 0.406,1.016 0.985,1.016 0.703,0 1.25,-0.563 1.25,-1.25 0,-0.578 -0.422,-1.016 -1,-1.016 z"
         style="fill:#aa4499;fill-opacity:1;fill-rule:nonzero;stroke:none"
         id="path238" /><path
         d="m 367.312,44.219 h -1.578 l -3.281,1.875 0.594,1.328 2.265,-1.266 -1.062,7.485 H 366 Z"
         style="fill:#aa4499;fill-opacity:1;fill-rule:nonzero;stroke:none"
         id="path240" /><path
         d="m 375.031,50.109 h -1.109 l 0.328,-2.359 h -1.531 l -0.531,2.359 h -2.032 l 3.063,-5.5 -1.485,-0.578 -3.515,6.219 -0.172,1.234 H 372 l -0.297,2.157 h 1.719 l 0.312,-2.157 h 1.11 z"
         style="fill:#aa4499;fill-opacity:1;fill-rule:nonzero;stroke:none"
         id="path242" /><path
         d="m 377.492,46.594 c -0.687,0 -1.219,0.578 -1.219,1.25 0,0.594 0.407,1.015 0.985,1.015 0.703,0 1.25,-0.562 1.25,-1.234 0,-0.594 -0.422,-1.031 -1.016,-1.031 z m -0.687,4.984 c -0.688,0 -1.235,0.563 -1.235,1.25 0,0.578 0.407,1.016 0.985,1.016 0.703,0 1.25,-0.563 1.25,-1.25 0,-0.578 -0.422,-1.016 -1,-1.016 z"
         style="fill:#aa4499;fill-opacity:1;fill-rule:nonzero;stroke:none"
         id="path244" /><path
         d="m 380.164,51.578 c -0.687,0 -1.234,0.563 -1.234,1.25 0,0.578 0.406,1.016 0.984,1.016 0.703,0 1.25,-0.563 1.25,-1.25 0,-0.578 -0.422,-1.016 -1,-1.016 z"
         style="fill:#aa4499;fill-opacity:1;fill-rule:nonzero;stroke:none"
         id="path246" /><path
         d="m 383.527,51.578 c -0.687,0 -1.234,0.563 -1.234,1.25 0,0.578 0.406,1.016 0.984,1.016 0.703,0 1.25,-0.563 1.25,-1.25 0,-0.578 -0.422,-1.016 -1,-1.016 z"
         style="fill:#aa4499;fill-opacity:1;fill-rule:nonzero;stroke:none"
         id="path248" /><path
         d="m 386.887,51.578 c -0.688,0 -1.235,0.563 -1.235,1.25 0,0.578 0.407,1.016 0.985,1.016 0.703,0 1.25,-0.563 1.25,-1.25 0,-0.578 -0.422,-1.016 -1,-1.016 z"
         style="fill:#aa4499;fill-opacity:1;fill-rule:nonzero;stroke:none"
         id="path250" /><path
         d="m 388.41,47.766 h 1.235 l 0.765,-3.797 h -1.703 z m 2.672,0 h 1.234 l 0.766,-3.797 h -1.687 z"
         style="fill:#aa4499;fill-opacity:1;fill-rule:nonzero;stroke:none"
         id="path252" /><path
         d="m 393.227,51.578 c -0.672,0 -1.219,0.578 -1.219,1.266 0,0.328 0.14,0.594 0.359,0.781 l -0.937,2.422 h 1.109 l 1.188,-2.063 c 0.359,-0.656 0.515,-0.984 0.515,-1.39 0,-0.578 -0.422,-1.016 -1.015,-1.016 z"
         style="fill:#aa4499;fill-opacity:1;fill-rule:nonzero;stroke:none"
         id="path254" /><path
         d="m 401.551,42.484 c -0.641,0 -1.141,0.438 -1.219,1.032 -0.078,0.64 0.328,1.14 1,1.14 0.641,0 1.125,-0.437 1.219,-1.031 0.078,-0.641 -0.313,-1.141 -1,-1.141 z m 0.39,3.75 h -1.765 l -1.031,7.407 h 1.765 z"
         style="fill:#aa4499;fill-opacity:1;fill-rule:nonzero;stroke:none"
         id="path256" /><path
         d="m 407.816,46.031 c -0.703,0 -1.453,0.25 -2.218,1.078 l 0.015,-0.875 h -1.547 l -1.468,10.485 1.765,-0.203 0.422,-2.891 c 0.375,0.125 0.797,0.219 1.375,0.219 2.922,0 3.938,-2.813 3.938,-4.922 0,-1.844 -0.813,-2.891 -2.282,-2.891 z m -0.64,1.344 c 0.625,0 1.094,0.359 1.094,1.516 0,1.515 -0.594,3.609 -2.172,3.609 -0.453,0 -0.735,-0.062 -1.11,-0.188 l 0.547,-3.984 c 0.485,-0.547 1,-0.953 1.641,-0.953 z"
         style="fill:#aa4499;fill-opacity:1;fill-rule:nonzero;stroke:none"
         id="path258" /><path
         d="m 412.773,46.594 c -0.687,0 -1.218,0.578 -1.218,1.25 0,0.594 0.406,1.015 0.984,1.015 0.703,0 1.25,-0.562 1.25,-1.234 0,-0.594 -0.422,-1.031 -1.016,-1.031 z m -0.687,4.984 c -0.688,0 -1.234,0.563 -1.234,1.25 0,0.578 0.406,1.016 0.984,1.016 0.703,0 1.25,-0.563 1.25,-1.25 0,-0.578 -0.422,-1.016 -1,-1.016 z"
         style="fill:#aa4499;fill-opacity:1;fill-rule:nonzero;stroke:none"
         id="path260" /><path
         d="m 418.676,47.766 h 1.234 l 0.766,-3.797 h -1.703 z m 2.672,0 h 1.234 l 0.766,-3.797 h -1.688 z"
         style="fill:#aa4499;fill-opacity:1;fill-rule:nonzero;stroke:none"
         id="path262" /><path
         d="m 429.035,44.219 h -1.578 l -3.281,1.875 0.594,1.328 2.265,-1.266 -1.062,7.485 h 1.75 z"
         style="fill:#aa4499;fill-opacity:1;fill-rule:nonzero;stroke:none"
         id="path264" /><path
         d="m 434.242,44.047 c -3.156,0 -4.047,3.75 -4.047,6.297 0,2.25 0.969,3.5 2.813,3.5 3.156,0 4.047,-3.766 4.047,-6.313 0,-2.234 -0.969,-3.484 -2.813,-3.484 z m -0.062,1.359 c 0.734,0 1.109,0.485 1.109,1.766 0,0.469 -0.031,1.016 -0.141,1.703 -0.375,2.687 -1.015,3.625 -2.046,3.625 -0.75,0 -1.125,-0.516 -1.125,-1.797 0,-0.453 0.046,-1.015 0.14,-1.703 0.36,-2.641 1,-3.594 2.063,-3.594 z"
         style="fill:#aa4499;fill-opacity:1;fill-rule:nonzero;stroke:none"
         id="path266" /><path
         d="m 438.852,51.578 c -0.688,0 -1.235,0.563 -1.235,1.25 0,0.578 0.406,1.016 0.985,1.016 0.703,0 1.25,-0.563 1.25,-1.25 0,-0.578 -0.422,-1.016 -1,-1.016 z"
         style="fill:#aa4499;fill-opacity:1;fill-rule:nonzero;stroke:none"
         id="path268" /><path
         d="m 445.512,44.047 c -3.157,0 -4.047,3.75 -4.047,6.297 0,2.25 0.969,3.5 2.812,3.5 3.157,0 4.047,-3.766 4.047,-6.313 0,-2.234 -0.969,-3.484 -2.812,-3.484 z m -0.063,1.359 c 0.735,0 1.11,0.485 1.11,1.766 0,0.469 -0.032,1.016 -0.141,1.703 -0.375,2.687 -1.016,3.625 -2.047,3.625 -0.75,0 -1.125,-0.516 -1.125,-1.797 0,-0.453 0.047,-1.015 0.141,-1.703 0.359,-2.641 1,-3.594 2.062,-3.594 z"
         style="fill:#aa4499;fill-opacity:1;fill-rule:nonzero;stroke:none"
         id="path270" /><path
         d="m 450.125,51.578 c -0.687,0 -1.234,0.563 -1.234,1.25 0,0.578 0.406,1.016 0.984,1.016 0.703,0 1.25,-0.563 1.25,-1.25 0,-0.578 -0.422,-1.016 -1,-1.016 z"
         style="fill:#aa4499;fill-opacity:1;fill-rule:nonzero;stroke:none"
         id="path272" /><path
         d="m 456.781,44.047 c -3.156,0 -4.047,3.75 -4.047,6.297 0,2.25 0.969,3.5 2.813,3.5 3.156,0 4.047,-3.766 4.047,-6.313 0,-2.234 -0.969,-3.484 -2.813,-3.484 z m -0.062,1.359 c 0.734,0 1.109,0.485 1.109,1.766 0,0.469 -0.031,1.016 -0.14,1.703 -0.376,2.687 -1.016,3.625 -2.047,3.625 -0.75,0 -1.125,-0.516 -1.125,-1.797 0,-0.453 0.046,-1.015 0.14,-1.703 0.36,-2.641 1,-3.594 2.063,-3.594 z"
         style="fill:#aa4499;fill-opacity:1;fill-rule:nonzero;stroke:none"
         id="path274" /><path
         d="m 461.395,51.578 c -0.688,0 -1.235,0.563 -1.235,1.25 0,0.578 0.406,1.016 0.985,1.016 0.703,0 1.25,-0.563 1.25,-1.25 0,-0.578 -0.422,-1.016 -1,-1.016 z"
         style="fill:#aa4499;fill-opacity:1;fill-rule:nonzero;stroke:none"
         id="path276" /><path
         d="m 467.316,44.047 c -1.218,0 -2.296,0.5 -3.218,1.469 l 1.047,0.968 c 0.64,-0.703 1.187,-1.015 1.921,-1.015 0.704,0 1.188,0.39 1.188,1.14 0,1.188 -0.656,1.969 -4.797,5.688 l -0.172,1.344 h 5.781 l 0.407,-1.407 -3.969,0.016 c 3.891,-3.156 4.578,-4.406 4.578,-5.797 0,-1.375 -1,-2.406 -2.766,-2.406 z"
         style="fill:#aa4499;fill-opacity:1;fill-rule:nonzero;stroke:none"
         id="path278" /><path
         d="m 471.582,47.766 h 1.234 l 0.766,-3.797 h -1.703 z m 2.672,0 h 1.234 l 0.766,-3.797 h -1.688 z"
         style="fill:#aa4499;fill-opacity:1;fill-rule:nonzero;stroke:none"
         id="path280" /><path
         d="m 479.191,55.578 c 2.219,0 2.891,-0.672 3.094,-2.172 l 0.391,-2.797 c 0.125,-0.781 0.39,-1.14 1.125,-1.14 L 484.02,48 c -0.782,0 -0.938,-0.281 -0.813,-1.078 l 0.391,-2.766 c 0.203,-1.5 -0.563,-2.25 -2.547,-2.25 l -0.125,1.297 c 0.875,0 1.109,0.203 1.031,0.844 l -0.422,2.937 c -0.172,1.204 0.297,1.516 1.016,1.719 -0.828,0.25 -1.344,0.563 -1.5,1.719 l -0.406,2.937 c -0.094,0.641 -0.438,0.922 -1.313,0.922 z"
         style="fill:#aa4499;fill-opacity:1;fill-rule:nonzero;stroke:none"
         id="path282" /><g
         id="g284"
         style="stroke:#aa4499;stroke-opacity:1;stroke-width:1.22475003;stroke-miterlimit:4;stroke-dasharray:4.89900012,4.89900012;stroke-dashoffset:0"><path
           d="m 196.102,66.008 v -33 h 378 v 34.5"
           style="fill:none;stroke:#aa4499;stroke-width:1.22475003;stroke-linecap:butt;stroke-linejoin:round;stroke-miterlimit:4;stroke-dasharray:4.89900012,4.89900012;stroke-dashoffset:0;stroke-opacity:1"
           id="path286" /></g><g
         id="g288"
         transform="rotate(-90)"
         style="fill:#aa4499;fill-opacity:1;stroke:#aa4499;stroke-opacity:1"><path
           d="m -54.238,201.547 -14.75,-5.426 14.75,-5.422 c -2.356,3.199 -2.344,7.582 0,10.848 z"
           style="fill:#aa4499;fill-opacity:1;fill-rule:evenodd;stroke:#aa4499;stroke-width:0.84375;stroke-linecap:butt;stroke-linejoin:round;stroke-miterlimit:4;stroke-dasharray:none;stroke-opacity:1"
           id="path290" /></g><path
         d="m 368.688,142.621 v 1.125 l 1.781,2.906 0.922,-0.562 -1.344,-2.188 h 8 v -1.281 z"
         style="fill:#cc6677;fill-opacity:1;fill-rule:nonzero;stroke:none"
         id="path292" /><path
         d="m 368.547,137.449 c 0,1.625 1.125,3 3.094,3 1.859,0 3,-1.14 3,-2.594 0,-0.953 -0.485,-1.687 -1.11,-2.093 2.11,0.093 3.188,1.593 3.86,3.937 l 0.968,-0.297 c -1,-3.437 -2.297,-4.984 -6.171,-4.984 -2.204,0 -3.641,1.016 -3.641,3.031 z m 5.094,0.141 c 0,0.906 -0.641,1.547 -1.985,1.547 -1.344,0 -2.094,-0.625 -2.094,-1.719 0,-1.156 0.797,-1.734 2.907,-1.688 0.719,0.454 1.172,1.063 1.172,1.86 z"
         style="fill:#cc6677;fill-opacity:1;fill-rule:nonzero;stroke:none"
         id="path294" /><path
         d="m 368.547,130.535 c 0,1.172 0.469,2.078 1.406,2.844 l 0.672,-0.875 c -0.719,-0.594 -1.016,-1.125 -1.016,-1.906 0,-0.907 0.563,-1.532 1.547,-1.532 1.532,0 2.422,0.813 5.875,4.11 h 1.016 v -5.531 l -1.078,-0.157 v 4.219 c -2.875,-2.875 -4.11,-3.984 -5.86,-3.984 -1.468,0 -2.562,1.093 -2.562,2.812 z"
         style="fill:#cc6677;fill-opacity:1;fill-rule:nonzero;stroke:none"
         id="path296" /><path
         d="m 376.266,125.121 c 0,0.547 0.437,0.969 0.968,0.969 0.547,0 0.985,-0.422 0.985,-0.969 0,-0.547 -0.438,-0.969 -0.985,-0.969 -0.531,0 -0.968,0.422 -0.968,0.969 z"
         style="fill:#cc6677;fill-opacity:1;fill-rule:nonzero;stroke:none"
         id="path298" /><path
         d="m 368.688,120.598 v 1.125 l 1.781,2.906 0.922,-0.563 -1.344,-2.187 h 8 v -1.281 z"
         style="fill:#cc6677;fill-opacity:1;fill-rule:nonzero;stroke:none"
         id="path300" /><path
         d="m 371.891,114.738 c 0,0.875 0.359,1.641 1.234,2.25 -2.141,-0.062 -3.563,-0.875 -3.563,-2.234 0,-0.516 0.141,-1.016 0.407,-1.438 l -0.86,-0.515 c -0.359,0.547 -0.562,1.187 -0.562,1.937 0,2.219 2.031,3.547 5.109,3.547 2.688,0 4.563,-0.875 4.563,-3.156 0,-1.656 -1.313,-2.984 -3.344,-2.984 -2.016,0 -2.984,1.218 -2.984,2.593 z m 5.297,0.391 c 0,1.25 -0.954,1.797 -2.985,1.844 -0.781,-0.469 -1.297,-1.172 -1.297,-2.016 0,-0.875 0.516,-1.5 2,-1.5 1.375,0 2.282,0.563 2.282,1.672 z"
         style="fill:#cc6677;fill-opacity:1;fill-rule:nonzero;stroke:none"
         id="path302" /><path
         d="m 373.016,106.48 c -0.532,-1.062 -1.157,-1.593 -2.11,-1.593 -1.594,0 -2.359,1.437 -2.359,2.843 0,1.422 0.812,2.844 2.406,2.844 0.969,0 1.672,-0.453 2.188,-1.469 0.5,1.157 1.218,1.86 2.421,1.86 1.547,0 2.657,-1.281 2.657,-3.219 0,-1.891 -1.11,-3.234 -2.672,-3.234 -1.188,0 -2.016,0.687 -2.531,1.968 z m -3.516,1.25 c 0,-1.031 0.578,-1.593 1.453,-1.593 0.797,0 1.281,0.359 1.766,1.203 l -0.094,0.234 c -0.344,1.078 -0.703,1.735 -1.656,1.735 -0.938,0 -1.469,-0.61 -1.469,-1.579 z m 7.688,0.016 c 0,1.156 -0.594,1.875 -1.626,1.875 -1.015,0 -1.656,-0.453 -2.109,-1.375 l 0.125,-0.359 c 0.516,-1.5 0.969,-2.032 1.984,-2.032 0.969,0 1.626,0.704 1.626,1.891 z"
         style="fill:#cc6677;fill-opacity:1;fill-rule:nonzero;stroke:none"
         id="path304" /><path
         d="m 376.266,102.203 c 0,0.547 0.437,0.969 0.968,0.969 0.547,0 0.985,-0.422 0.985,-0.969 0,-0.547 -0.438,-0.969 -0.985,-0.969 -0.531,0 -0.968,0.422 -0.968,0.969 z"
         style="fill:#cc6677;fill-opacity:1;fill-rule:nonzero;stroke:none"
         id="path306" /><path
         d="m 368.547,96.609 c 0,2.094 1.719,3.141 4.828,3.141 3.109,0 4.844,-1.047 4.844,-3.141 0,-2.093 -1.735,-3.14 -4.844,-3.14 -3.094,0 -4.828,1.047 -4.828,3.14 z m 1.015,0 c 0,-1.156 1.063,-1.797 3.813,-1.797 2.75,0 3.813,0.641 3.813,1.797 0,1.172 -1.063,1.797 -3.813,1.797 -2.75,0 -3.813,-0.625 -3.813,-1.797 z"
         style="fill:#cc6677;fill-opacity:1;fill-rule:nonzero;stroke:none"
         id="path308" /><path
         d="m 376.266,91.031 c 0,0.547 0.437,0.969 0.968,0.969 0.547,0 0.985,-0.422 0.985,-0.969 0,-0.547 -0.438,-0.969 -0.985,-0.969 -0.531,0 -0.968,0.422 -0.968,0.969 z"
         style="fill:#cc6677;fill-opacity:1;fill-rule:nonzero;stroke:none"
         id="path310" /><path
         d="m 368.547,85.438 c 0,2.093 1.719,3.14 4.828,3.14 3.109,0 4.844,-1.047 4.844,-3.14 0,-2.094 -1.735,-3.141 -4.844,-3.141 -3.094,0 -4.828,1.047 -4.828,3.141 z m 1.015,0 c 0,-1.157 1.063,-1.797 3.813,-1.797 2.75,0 3.813,0.64 3.813,1.797 0,1.171 -1.063,1.796 -3.813,1.796 -2.75,0 -3.813,-0.625 -3.813,-1.796 z"
         style="fill:#cc6677;fill-opacity:1;fill-rule:nonzero;stroke:none"
         id="path312" /><path
         d="m 366.75,77.371 12.484,3.25 0.266,-1.109 -12.5,-3.235 z"
         style="fill:#cc6677;fill-opacity:1;fill-rule:nonzero;stroke:none"
         id="path314" /><path
         d="m 368.688,70.715 v 1.125 l 1.781,2.906 0.922,-0.562 -1.344,-2.188 h 8 v -1.281 z"
         style="fill:#cc6677;fill-opacity:1;fill-rule:nonzero;stroke:none"
         id="path316" /><path
         d="m 371.891,64.855 c 0,0.875 0.359,1.641 1.234,2.25 -2.141,-0.062 -3.563,-0.875 -3.563,-2.234 0,-0.516 0.141,-1.016 0.407,-1.437 l -0.86,-0.516 c -0.359,0.547 -0.562,1.187 -0.562,1.937 0,2.219 2.031,3.547 5.109,3.547 2.688,0 4.563,-0.875 4.563,-3.156 0,-1.656 -1.313,-2.984 -3.344,-2.984 -2.016,0 -2.984,1.218 -2.984,2.593 z m 5.297,0.391 c 0,1.25 -0.954,1.797 -2.985,1.844 -0.781,-0.469 -1.297,-1.172 -1.297,-2.016 0,-0.875 0.516,-1.5 2,-1.5 1.375,0 2.282,0.563 2.282,1.672 z"
         style="fill:#cc6677;fill-opacity:1;fill-rule:nonzero;stroke:none"
         id="path318" /><path
         d="m 372.141,152.227 v 0.457 h -5.981 c -1.777,0 -3.219,1.445 -3.219,3.222 v 7.821 h -3.679 v -0.461 c 0,-0.758 -0.625,-1.379 -1.383,-1.379 h -4.598 c -0.761,0 -1.383,0.621 -1.383,1.379 v 4.601 c 0,0.758 0.622,1.379 1.383,1.379 h 4.598 c 0.758,0 1.383,-0.621 1.383,-1.379 v -0.461 h 3.679 v 7.821 c 0,1.773 1.442,3.218 3.219,3.218 h 5.981 v 0.461 c 0,0.758 0.621,1.379 1.379,1.379 h 4.601 c 0.758,0 1.379,-0.621 1.379,-1.379 v -4.601 c 0,-0.758 -0.621,-1.379 -1.379,-1.379 h -4.601 c -0.758,0 -1.379,0.621 -1.379,1.379 v 0.461 h -5.52 v -7.36 h 5.52 v 0.457 c 0,0.762 0.621,1.383 1.379,1.383 h 4.601 c 0.758,0 1.379,-0.621 1.379,-1.383 v -4.597 c 0,-0.758 -0.621,-1.383 -1.379,-1.383 h -4.601 c -0.758,0 -1.379,0.625 -1.379,1.383 v 0.457 h -5.52 v -7.36 h 5.52 v 0.461 c 0,0.758 0.621,1.379 1.379,1.379 h 4.601 c 0.758,0 1.379,-0.621 1.379,-1.379 v -4.601 c 0,-0.758 -0.621,-1.379 -1.379,-1.379 h -4.601 c -0.758,0 -1.379,0.621 -1.379,1.379 z m 5.519,22.539 v 3.679 h -3.68 v -3.679 z m 0,-11.039 v 3.679 h -3.68 v -3.679 z m -20.242,3.679 h -3.68 v -3.679 h 3.68 z m 20.242,-14.722 v 3.679 h -3.68 v -3.679 z"
         style="fill:#cc6677;fill-opacity:1;fill-rule:nonzero;stroke:none"
         id="path320" /><path
         d="m 183.578,127.676 c 0.281,0 0.551,0.148 0.813,0.437 0.195,0.211 0.336,0.602 0.421,1.172 0.25,-0.008 0.422,0.008 0.516,0.047 0.313,0.125 0.535,0.258 0.672,0.391 0.145,0.125 0.219,0.293 0.219,0.5 0,0.386 -0.078,0.656 -0.235,0.812 -2.355,2.149 -4.683,4.746 -6.984,7.797 1.445,1.992 2.895,3.777 4.344,5.359 0.164,0.18 0.25,0.383 0.25,0.61 0,0.48 -0.149,0.851 -0.438,1.109 -0.199,0.168 -0.48,0.262 -0.844,0.281 -0.023,0.168 -0.101,0.418 -0.234,0.75 -0.23,0.575 -0.5,0.86 -0.812,0.86 -0.356,0 -0.68,-0.117 -0.969,-0.36 -0.086,0.18 -0.195,0.321 -0.328,0.422 -0.356,0.274 -0.664,0.407 -0.922,0.407 -0.219,0 -0.461,-0.141 -0.719,-0.422 -0.867,-0.926 -1.89,-2.321 -3.078,-4.188 -2.242,2.555 -3.793,4.492 -4.656,5.813 -0.168,0.25 -0.352,0.375 -0.547,0.375 h -0.031 c -0.18,0 -0.352,-0.176 -0.516,-0.532 -0.148,-0.3 -0.23,-0.515 -0.25,-0.64 -0.199,0.117 -0.387,0.172 -0.562,0.172 -0.243,0 -0.5,-0.145 -0.782,-0.438 -0.355,-0.344 -0.531,-0.598 -0.531,-0.765 0,-0.258 0.145,-0.61 0.437,-1.047 -0.085,-0.032 -0.171,-0.11 -0.265,-0.235 -0.18,-0.238 -0.266,-0.472 -0.266,-0.703 0,-0.207 0.117,-0.461 0.36,-0.765 1.269,-1.719 2.859,-3.614 4.765,-5.688 -1.187,-1.844 -2.265,-4.066 -3.234,-6.672 -0.211,-0.594 -0.313,-1.031 -0.313,-1.312 0,-0.25 0.11,-0.614 0.329,-1.094 0.156,-0.313 0.343,-0.469 0.562,-0.469 0.25,0 0.609,0.195 1.078,0.578 0.008,-0.133 0.067,-0.328 0.172,-0.578 0.227,-0.488 0.426,-0.734 0.594,-0.734 0.414,0 0.687,0.133 0.812,0.39 1.039,1.907 2.289,3.774 3.75,5.594 2.258,-2.582 4.602,-4.937 7.032,-7.062 0.124,-0.114 0.253,-0.172 0.39,-0.172 z"
         style="fill:#aa4499;fill-opacity:1;fill-rule:nonzero;stroke:#aa4499;stroke-opacity:1"
         id="path322" /><path
         d="m 646.184,133.621 v 1.125 l 1.781,2.906 0.922,-0.562 -1.344,-2.188 h 8 v -1.281 z"
         style="fill:#cc6677;fill-opacity:1;fill-rule:nonzero;stroke:none"
         id="path324" /><path
         d="m 646.043,128.168 c 0,2.094 1.719,3.141 4.828,3.141 3.109,0 4.844,-1.047 4.844,-3.141 0,-2.094 -1.735,-3.141 -4.844,-3.141 -3.094,0 -4.828,1.047 -4.828,3.141 z m 1.016,0 c 0,-1.156 1.062,-1.797 3.812,-1.797 2.75,0 3.813,0.641 3.813,1.797 0,1.172 -1.063,1.797 -3.813,1.797 -2.75,0 -3.812,-0.625 -3.812,-1.797 z"
         style="fill:#cc6677;fill-opacity:1;fill-rule:nonzero;stroke:none"
         id="path326" /><path
         d="m 653.762,122.59 c 0,0.547 0.437,0.969 0.968,0.969 0.547,0 0.985,-0.422 0.985,-0.969 0,-0.547 -0.438,-0.969 -0.985,-0.969 -0.531,0 -0.968,0.422 -0.968,0.969 z"
         style="fill:#cc6677;fill-opacity:1;fill-rule:nonzero;stroke:none"
         id="path328" /><path
         d="m 646.043,116.996 c 0,2.094 1.719,3.141 4.828,3.141 3.109,0 4.844,-1.047 4.844,-3.141 0,-2.094 -1.735,-3.141 -4.844,-3.141 -3.094,0 -4.828,1.047 -4.828,3.141 z m 1.016,0 c 0,-1.156 1.062,-1.797 3.812,-1.797 2.75,0 3.813,0.641 3.813,1.797 0,1.172 -1.063,1.797 -3.813,1.797 -2.75,0 -3.812,-0.625 -3.812,-1.797 z"
         style="fill:#cc6677;fill-opacity:1;fill-rule:nonzero;stroke:none"
         id="path330" /><path
         d="m 653.762,111.418 c 0,0.547 0.437,0.969 0.968,0.969 0.547,0 0.985,-0.422 0.985,-0.969 0,-0.547 -0.438,-0.969 -0.985,-0.969 -0.531,0 -0.968,0.422 -0.968,0.969 z"
         style="fill:#cc6677;fill-opacity:1;fill-rule:nonzero;stroke:none"
         id="path332" /><path
         d="m 646.043,105.824 c 0,2.094 1.719,3.141 4.828,3.141 3.109,0 4.844,-1.047 4.844,-3.141 0,-2.094 -1.735,-3.14 -4.844,-3.14 -3.094,0 -4.828,1.046 -4.828,3.14 z m 1.016,0 c 0,-1.156 1.062,-1.797 3.812,-1.797 2.75,0 3.813,0.641 3.813,1.797 0,1.172 -1.063,1.797 -3.813,1.797 -2.75,0 -3.812,-0.625 -3.812,-1.797 z"
         style="fill:#cc6677;fill-opacity:1;fill-rule:nonzero;stroke:none"
         id="path334" /><path
         d="m 653.762,100.246 c 0,0.547 0.437,0.969 0.968,0.969 0.547,0 0.985,-0.422 0.985,-0.969 0,-0.547 -0.438,-0.969 -0.985,-0.969 -0.531,0 -0.968,0.422 -0.968,0.969 z"
         style="fill:#cc6677;fill-opacity:1;fill-rule:nonzero;stroke:none"
         id="path336" /><path
         d="m 646.043,94.652 c 0,2.094 1.719,3.141 4.828,3.141 3.109,0 4.844,-1.047 4.844,-3.141 0,-2.093 -1.735,-3.14 -4.844,-3.14 -3.094,0 -4.828,1.047 -4.828,3.14 z m 1.016,0 c 0,-1.156 1.062,-1.797 3.812,-1.797 2.75,0 3.813,0.641 3.813,1.797 0,1.172 -1.063,1.797 -3.813,1.797 -2.75,0 -3.812,-0.625 -3.812,-1.797 z"
         style="fill:#cc6677;fill-opacity:1;fill-rule:nonzero;stroke:none"
         id="path338" /><path
         d="m 644.246,86.586 12.484,3.25 0.266,-1.109 -12.5,-3.235 z"
         style="fill:#cc6677;fill-opacity:1;fill-rule:nonzero;stroke:none"
         id="path340" /><path
         d="m 650.512,79.754 c -0.532,-1.063 -1.157,-1.594 -2.11,-1.594 -1.593,0 -2.359,1.438 -2.359,2.844 0,1.422 0.812,2.844 2.406,2.844 0.969,0 1.672,-0.453 2.188,-1.469 0.5,1.156 1.218,1.859 2.422,1.859 1.546,0 2.656,-1.281 2.656,-3.218 0,-1.891 -1.11,-3.235 -2.672,-3.235 -1.188,0 -2.016,0.688 -2.531,1.969 z m -3.516,1.25 c 0,-1.031 0.578,-1.594 1.453,-1.594 0.797,0 1.281,0.36 1.766,1.203 l -0.094,0.235 c -0.344,1.078 -0.703,1.734 -1.656,1.734 -0.938,0 -1.469,-0.609 -1.469,-1.578 z m 7.688,0.016 c 0,1.156 -0.594,1.875 -1.625,1.875 -1.016,0 -1.657,-0.454 -2.11,-1.375 l 0.125,-0.36 c 0.516,-1.5 0.969,-2.031 1.985,-2.031 0.968,0 1.625,0.703 1.625,1.891 z"
         style="fill:#cc6677;fill-opacity:1;fill-rule:nonzero;stroke:none"
         id="path342" /><path
         d="m 649.641,152.227 v 0.457 h -5.981 c -1.777,0 -3.219,1.445 -3.219,3.222 v 7.821 h -3.683 v -0.461 c 0,-0.758 -0.621,-1.379 -1.379,-1.379 h -4.602 c -0.757,0 -1.379,0.621 -1.379,1.379 v 4.601 c 0,0.758 0.622,1.379 1.379,1.379 h 4.602 c 0.758,0 1.379,-0.621 1.379,-1.379 v -0.461 h 3.683 v 7.821 c 0,1.773 1.442,3.218 3.219,3.218 h 5.981 v 0.461 c 0,0.758 0.621,1.379 1.379,1.379 h 4.601 c 0.758,0 1.379,-0.621 1.379,-1.379 v -4.601 c 0,-0.758 -0.621,-1.379 -1.379,-1.379 h -4.601 c -0.758,0 -1.379,0.621 -1.379,1.379 v 0.461 h -5.52 v -7.36 h 5.52 v 0.457 c 0,0.762 0.621,1.383 1.379,1.383 h 4.601 c 0.758,0 1.379,-0.621 1.379,-1.383 v -4.597 c 0,-0.758 -0.621,-1.383 -1.379,-1.383 h -4.601 c -0.758,0 -1.379,0.625 -1.379,1.383 v 0.457 h -5.52 v -7.36 h 5.52 v 0.461 c 0,0.758 0.621,1.379 1.379,1.379 h 4.601 c 0.758,0 1.379,-0.621 1.379,-1.379 v -4.601 c 0,-0.758 -0.621,-1.379 -1.379,-1.379 h -4.601 c -0.758,0 -1.379,0.621 -1.379,1.379 z m 5.519,22.539 v 3.679 h -3.68 v -3.679 z m 0,-11.039 v 3.679 h -3.68 v -3.679 z m -20.242,3.679 h -3.68 v -3.679 h 3.68 z m 20.242,-14.722 v 3.679 h -3.68 v -3.679 z"
         style="fill:#cc6677;fill-opacity:1;fill-rule:nonzero;stroke:none"
         id="path344" /><path
         d="m 334.457,176.41 h -12.941 c -0.813,0 -1.477,0.664 -1.477,1.477 v 3.48 h 3.59 v -0.57 c 0,-0.442 0.355,-0.797 0.797,-0.797 h 7.121 c 0.441,0 0.797,0.355 0.797,0.797 v 0.57 h 3.59 v -3.48 c 0,-0.813 -0.664,-1.477 -1.477,-1.477 z"
         style="fill:#ed1844;fill-opacity:1;fill-rule:evenodd;stroke:none"
         id="path346" /><path
         d="m 332.344,187.578 c 0,0.442 -0.356,0.801 -0.797,0.801 h -7.121 c -0.442,0 -0.797,-0.359 -0.797,-0.801 v -0.57 h -3.59 v 3.48 c 0,0.813 0.664,1.481 1.477,1.481 h 12.941 c 0.813,0 1.477,-0.668 1.477,-1.481 v -3.48 h -3.59 z"
         style="fill:#ed1844;fill-opacity:1;fill-rule:evenodd;stroke:none"
         id="path348" /><path
         d="m 320.039,182.395 h 3.59 v 3.59 h -3.59 z"
         style="fill:#ed1844;fill-opacity:1;fill-rule:evenodd;stroke:none"
         id="path350" /><path
         d="m 332.344,182.395 h 3.59 v 3.59 h -3.59 z"
         style="fill:#ed1844;fill-opacity:1;fill-rule:evenodd;stroke:none"
         id="path352" /><path
         d="m 284.793,179.641 c -1.781,0 -3.047,1.031 -3.047,2.515 0,1.5 0.984,2.219 2.859,2.782 1.641,0.515 2.094,0.937 2.094,1.874 0,1.157 -0.937,1.719 -2.078,1.719 -1.047,0 -1.797,-0.375 -2.516,-0.984 l -0.75,0.828 c 0.797,0.781 1.891,1.25 3.282,1.25 2.172,0 3.437,-1.187 3.437,-2.859 0,-1.844 -1.312,-2.454 -2.844,-2.922 -1.734,-0.532 -2.125,-0.922 -2.125,-1.735 0,-0.937 0.782,-1.375 1.75,-1.375 0.797,0 1.469,0.25 2.188,0.844 l 0.734,-0.812 c -0.812,-0.735 -1.656,-1.125 -2.984,-1.125 z"
         style="fill:#2e3436;fill-opacity:1;fill-rule:nonzero;stroke:none"
         id="path354" /><path
         d="m 290.594,178.531 c -0.532,0 -0.891,0.375 -0.891,0.891 0,0.484 0.359,0.859 0.891,0.859 0.547,0 0.922,-0.375 0.922,-0.859 0,-0.516 -0.375,-0.891 -0.922,-0.891 z m 0.672,3.547 h -1.297 v 7.375 h 1.297 z"
         style="fill:#2e3436;fill-opacity:1;fill-rule:nonzero;stroke:none"
         id="path356" /><path
         d="m 297.152,188.234 c -0.359,0.219 -0.656,0.328 -0.984,0.328 -0.641,0 -0.875,-0.359 -0.875,-1.093 v -4.407 h 1.609 l 0.141,-0.984 h -1.75 v -1.828 l -1.297,0.156 v 1.672 h -1.281 v 0.984 h 1.281 v 4.454 c 0,1.375 0.75,2.109 2,2.109 0.625,0 1.156,-0.172 1.641,-0.516 z"
         style="fill:#2e3436;fill-opacity:1;fill-rule:nonzero;stroke:none"
         id="path358" /><path
         d="m 304.41,185.547 c 0,-2.25 -1.047,-3.641 -3.047,-3.641 -1.906,0 -3.062,1.641 -3.062,3.938 0,2.328 1.203,3.781 3.265,3.781 1.016,0 1.844,-0.359 2.579,-0.922 l -0.563,-0.781 c -0.641,0.453 -1.187,0.656 -1.922,0.656 -1.062,0 -1.859,-0.672 -1.984,-2.375 h 4.703 c 0.016,-0.172 0.031,-0.406 0.031,-0.656 z m -1.281,-0.297 h -3.453 c 0.094,-1.641 0.734,-2.328 1.719,-2.328 1.156,0 1.734,0.812 1.734,2.25 z"
         style="fill:#2e3436;fill-opacity:1;fill-rule:nonzero;stroke:none"
         id="path360" /><path
         d="m 313.43,180.094 h -1.125 l -2.907,1.781 0.563,0.922 2.187,-1.344 v 8 h 1.282 z"
         style="fill:#2e3436;fill-opacity:1;fill-rule:nonzero;stroke:none"
         id="path362" /><path
         d="m 608.207,177.156 h -12.941 c -0.813,0 -1.477,0.668 -1.477,1.481 v 3.48 h 3.59 v -0.57 c 0,-0.442 0.355,-0.797 0.797,-0.797 h 7.121 c 0.441,0 0.797,0.355 0.797,0.797 v 0.57 h 3.59 v -3.48 c 0,-0.813 -0.664,-1.481 -1.477,-1.481 z"
         style="fill:#ed1844;fill-opacity:1;fill-rule:evenodd;stroke:none"
         id="path364" /><path
         d="m 606.094,188.328 c 0,0.442 -0.356,0.797 -0.797,0.797 h -7.121 c -0.442,0 -0.797,-0.355 -0.797,-0.797 v -0.57 h -3.59 v 3.48 c 0,0.813 0.664,1.481 1.477,1.481 h 12.941 c 0.813,0 1.477,-0.668 1.477,-1.481 v -3.48 h -3.59 z"
         style="fill:#ed1844;fill-opacity:1;fill-rule:evenodd;stroke:none"
         id="path366" /><path
         d="m 593.789,183.141 h 3.59 v 3.594 h -3.59 z"
         style="fill:#ed1844;fill-opacity:1;fill-rule:evenodd;stroke:none"
         id="path368" /><path
         d="m 606.094,183.141 h 3.59 v 3.594 h -3.59 z"
         style="fill:#ed1844;fill-opacity:1;fill-rule:evenodd;stroke:none"
         id="path370" /><path
         d="m 558.543,180.391 c -1.781,0 -3.047,1.031 -3.047,2.515 0,1.5 0.984,2.219 2.859,2.782 1.641,0.515 2.094,0.937 2.094,1.874 0,1.157 -0.937,1.719 -2.078,1.719 -1.047,0 -1.797,-0.375 -2.516,-0.984 l -0.75,0.828 c 0.797,0.781 1.891,1.25 3.282,1.25 2.172,0 3.437,-1.187 3.437,-2.859 0,-1.844 -1.312,-2.454 -2.844,-2.922 -1.734,-0.532 -2.125,-0.922 -2.125,-1.735 0,-0.937 0.782,-1.375 1.75,-1.375 0.797,0 1.469,0.25 2.188,0.844 l 0.734,-0.812 c -0.812,-0.735 -1.656,-1.125 -2.984,-1.125 z"
         style="fill:#2e3436;fill-opacity:1;fill-rule:nonzero;stroke:none"
         id="path372" /><path
         d="m 564.344,179.281 c -0.532,0 -0.891,0.375 -0.891,0.891 0,0.484 0.359,0.859 0.891,0.859 0.547,0 0.922,-0.375 0.922,-0.859 0,-0.516 -0.375,-0.891 -0.922,-0.891 z m 0.672,3.547 h -1.297 v 7.375 h 1.297 z"
         style="fill:#2e3436;fill-opacity:1;fill-rule:nonzero;stroke:none"
         id="path374" /><path
         d="m 570.902,188.984 c -0.359,0.219 -0.656,0.328 -0.984,0.328 -0.641,0 -0.875,-0.359 -0.875,-1.093 v -4.407 h 1.609 l 0.141,-0.984 h -1.75 V 181 l -1.297,0.156 v 1.672 h -1.281 v 0.984 h 1.281 v 4.454 c 0,1.375 0.75,2.109 2,2.109 0.625,0 1.156,-0.172 1.641,-0.516 z"
         style="fill:#2e3436;fill-opacity:1;fill-rule:nonzero;stroke:none"
         id="path376" /><path
         d="m 578.16,186.297 c 0,-2.25 -1.047,-3.641 -3.047,-3.641 -1.906,0 -3.062,1.641 -3.062,3.938 0,2.328 1.203,3.781 3.265,3.781 1.016,0 1.844,-0.359 2.579,-0.922 l -0.563,-0.781 c -0.641,0.453 -1.187,0.656 -1.922,0.656 -1.062,0 -1.859,-0.672 -1.984,-2.375 h 4.703 c 0.016,-0.172 0.031,-0.406 0.031,-0.656 z M 576.879,186 h -3.453 c 0.094,-1.641 0.734,-2.328 1.719,-2.328 1.156,0 1.734,0.812 1.734,2.25 z"
         style="fill:#2e3436;fill-opacity:1;fill-rule:nonzero;stroke:none"
         id="path378" /><path
         d="m 585.852,180.703 c -1.172,0 -2.079,0.469 -2.844,1.406 l 0.875,0.672 c 0.594,-0.719 1.125,-1.015 1.906,-1.015 0.906,0 1.531,0.562 1.531,1.546 0,1.532 -0.812,2.422 -4.109,5.876 v 1.015 h 5.531 l 0.156,-1.078 h -4.218 c 2.875,-2.875 3.984,-4.109 3.984,-5.859 0,-1.469 -1.094,-2.563 -2.812,-2.563 z"
         style="fill:#2e3436;fill-opacity:1;fill-rule:nonzero;stroke:none"
         id="path380" /><text
         xml:space="preserve"
         style="font-style:normal;font-weight:normal;font-size:20px;line-height:1.25;font-family:sans-serif;letter-spacing:0px;word-spacing:0px;fill:#000000;fill-opacity:1;stroke:none;stroke-width:0.75"
         x="151.94806"
         y="101.125"
         id="text3181"><tspan
           sodipodi:role="line"
           id="tspan3179"
           style="font-style:normal;font-variant:normal;font-weight:600;font-stretch:normal;font-size:20px;font-family:'Fira Sans';-inkscape-font-specification:'Fira Sans Semi-Bold';fill:#44aa99;fill-opacity:1;stroke-width:0.75"
           x="151.94806"
           y="101.125">compute</tspan></text><text
         xml:space="preserve"
         style="font-style:normal;font-weight:normal;font-size:20px;line-height:1.25;font-family:sans-serif;letter-spacing:0px;word-spacing:0px;fill:#000000;fill-opacity:1;stroke:none;stroke-width:0.75"
         x="426.44806"
         y="101.125"
         id="text3181-3"><tspan
           sodipodi:role="line"
           id="tspan3179-6"
           style="font-style:normal;font-variant:normal;font-weight:600;font-stretch:normal;font-size:20px;font-family:'Fira Sans';-inkscape-font-specification:'Fira Sans Semi-Bold';fill:#44aa99;fill-opacity:1;stroke-width:0.75"
           x="426.44806"
           y="101.125">compute</tspan></text><text
         xml:space="preserve"
         style="font-style:normal;font-weight:normal;font-size:20px;line-height:1.25;font-family:sans-serif;letter-spacing:0px;word-spacing:0px;fill:#000000;fill-opacity:1;stroke:none;stroke-width:0.75"
         x="271.54105"
         y="104.105"
         id="text3855"><tspan
           sodipodi:role="line"
           id="tspan3853"
           style="font-style:normal;font-variant:normal;font-weight:600;font-stretch:normal;font-size:20px;font-family:'Fira Sans';-inkscape-font-specification:'Fira Sans Semi-Bold';fill:#cc6677;fill-opacity:1;stroke:none;stroke-width:0.75;stroke-opacity:1"
           x="271.54105"
           y="104.105">network</tspan></text><text
         xml:space="preserve"
         style="font-style:normal;font-weight:normal;font-size:20px;line-height:1.25;font-family:sans-serif;letter-spacing:0px;word-spacing:0px;fill:#000000;fill-opacity:1;stroke:none;stroke-width:0.75"
         x="546.04108"
         y="104.105"
         id="text3855-7"><tspan
           sodipodi:role="line"
           id="tspan3853-5"
           style="font-style:normal;font-variant:normal;font-weight:600;font-stretch:normal;font-size:20px;font-family:'Fira Sans';-inkscape-font-specification:'Fira Sans Semi-Bold';fill:#cc6677;fill-opacity:1;stroke:none;stroke-width:0.75;stroke-opacity:1"
           x="546.04108"
           y="104.105">network</tspan></text></g></g></svg>
