<?xml version="1.0" encoding="UTF-8" standalone="no"?>
<!-- Created with Inkscape (http://www.inkscape.org/) -->

<svg
   version="1.1"
   id="svg2"
   xml:space="preserve"
   width="646.30133"
   height="253.00925"
   viewBox="0 0 646.30133 253.00925"
   sodipodi:docname="network-solo.svg"
   inkscape:version="1.1.2 (0a00cf5339, 2022-02-04)"
   xmlns:inkscape="http://www.inkscape.org/namespaces/inkscape"
   xmlns:sodipodi="http://sodipodi.sourceforge.net/DTD/sodipodi-0.dtd"
   xmlns="http://www.w3.org/2000/svg"
   xmlns:svg="http://www.w3.org/2000/svg"><defs
     id="defs6"><clipPath
       clipPathUnits="userSpaceOnUse"
       id="clipPath18"><path
         d="M 0,0 H 485 V 190 H 0 Z"
         id="path16" /></clipPath></defs><sodipodi:namedview
     id="namedview4"
     pagecolor="#ffffff"
     bordercolor="#666666"
     borderopacity="1.0"
     inkscape:pageshadow="2"
     inkscape:pageopacity="0.0"
     inkscape:pagecheckerboard="0"
     showgrid="false"
     inkscape:zoom="1.9124206"
     inkscape:cx="318.96749"
     inkscape:cy="126.27975"
     inkscape:window-width="1920"
     inkscape:window-height="1031"
     inkscape:window-x="1920"
     inkscape:window-y="25"
     inkscape:window-maximized="1"
     inkscape:current-layer="g10" /><g
     id="g8"
     inkscape:groupmode="layer"
     inkscape:label="network-solo"
     transform="matrix(1.3333333,0,0,1.3333333,0,1.0325231e-5)"><g
       id="g10"><g
         id="g388"
         style="stroke:#cc6677;stroke-opacity:1;stroke-width:2.34975006;stroke-miterlimit:4;stroke-dasharray:none"><path
           d="m 369.953,53.75 h 80.797 c 5.668,0 10.227,4.559 10.227,10.227 V 99.77 c 0,5.668 -4.559,10.23 -10.227,10.23 h -80.797 c -5.664,0 -10.226,-4.562 -10.226,-10.23 V 63.977 c 0,-5.668 4.562,-10.227 10.226,-10.227 z"
           style="fill:#ffffff;fill-opacity:1;fill-rule:nonzero;stroke:#cc6677;stroke-width:2.34975006;stroke-linecap:butt;stroke-linejoin:round;stroke-miterlimit:4;stroke-dasharray:none;stroke-opacity:1"
           id="path390" /></g><text
         xml:space="preserve"
         style="font-style:normal;font-weight:normal;font-size:20px;line-height:1.25;font-family:sans-serif;letter-spacing:0px;word-spacing:0px;fill:#000000;fill-opacity:1;stroke:none;stroke-width:0.75"
         x="371.84204"
         y="89.285004"
         id="text3855"><tspan
           sodipodi:role="line"
           id="tspan3853"
           style="font-style:normal;font-variant:normal;font-weight:600;font-stretch:normal;font-size:20px;font-family:'Fira Sans';-inkscape-font-specification:'Fira Sans Semi-Bold';fill:#cc6677;fill-opacity:1;stroke:none;stroke-width:0.75;stroke-opacity:1"
           x="371.84204"
           y="89.285004">network</tspan></text><g
         id="g12"
         style="fill:#44aa99;fill-opacity:1"><g
           id="g14"
           style="fill:#44aa99;fill-opacity:1" /><g
           id="g26"
           style="fill:#44aa99;fill-opacity:1"><g
             clip-path="url(#clipPath18)"
             opacity="0.1"
             id="g24"
             style="fill:#44aa99;fill-opacity:1"><g
               id="g22"
               style="fill:#44aa99;fill-opacity:1"><path
                 d="m 167.121,29.82 c -4.375,0 -7.894,3.52 -7.894,7.895 v 134.211 c 0,4.375 3.519,7.894 7.894,7.894 h 309.711 c 4.375,0 7.895,-3.519 7.895,-7.894 V 37.715 c 0,-4.375 -3.52,-7.895 -7.895,-7.895 z m 13.656,25.032 h 80.797 c 5.664,0 10.227,4.562 10.227,10.226 v 35.797 c 0,5.664 -4.563,10.227 -10.227,10.227 h -80.797 c -5.664,0 -10.226,-4.563 -10.226,-10.227 V 65.078 c 0,-5.664 4.562,-10.226 10.226,-10.226 z m 188.813,0 h 80.797 c 5.664,0 10.226,4.562 10.226,10.226 v 35.797 c 0,5.664 -4.562,10.227 -10.226,10.227 H 369.59 c -5.664,0 -10.227,-4.563 -10.227,-10.227 V 65.078 c 0,-5.664 4.563,-10.226 10.227,-10.226 z"
                 style="fill:#44aa99;fill-opacity:1;fill-rule:nonzero;stroke:none"
                 id="path20" /></g></g></g></g><g
         id="g28"
         style="stroke:#332288;stroke-opacity:1;stroke-width:1.22475003;stroke-miterlimit:4;stroke-dasharray:4.89900012,4.89900012;stroke-dashoffset:0"><path
           d="M 168.113,95.258 H 53.363"
           style="fill:none;stroke:#332288;stroke-width:1.22475003;stroke-linecap:butt;stroke-linejoin:miter;stroke-miterlimit:4;stroke-dasharray:4.89900012,4.89900012;stroke-dashoffset:0;stroke-opacity:1"
           id="path30" /></g><g
         id="g32"
         style="fill:#332288;fill-opacity:1;stroke:#332288;stroke-opacity:1"><path
           d="M 69.398,101.914 51.371,95.285 69.398,88.652 c -2.878,3.914 -2.863,9.27 0,13.262 z"
           style="fill:#332288;fill-opacity:1;fill-rule:evenodd;stroke:#332288;stroke-width:1.03125;stroke-linecap:butt;stroke-linejoin:round;stroke-miterlimit:4;stroke-dasharray:none;stroke-opacity:1"
           id="path34" /></g><g
         id="g36"
         style="stroke:#332288;stroke-opacity:1"><path
           d="m 273.863,65.258 h 81.75"
           style="fill:none;stroke:#332288;stroke-width:1.5;stroke-linecap:butt;stroke-linejoin:miter;stroke-miterlimit:4;stroke-dasharray:none;stroke-opacity:1"
           id="path38" /></g><g
         id="g40"
         transform="scale(-1)"
         style="fill:#332288;fill-opacity:1;stroke:#332288;stroke-opacity:1"><path
           d="m -339.578,-58.602 -18.027,-6.628 18.027,-6.629 c -2.879,3.914 -2.863,9.269 0,13.257 z"
           style="fill:#332288;fill-opacity:1;fill-rule:evenodd;stroke:#332288;stroke-width:1.03125;stroke-linecap:butt;stroke-linejoin:round;stroke-miterlimit:4;stroke-dasharray:none;stroke-opacity:1"
           id="path42" /></g><g
         id="g44"
         style="stroke:#332288;stroke-opacity:1;stroke-width:1.22475003;stroke-miterlimit:4;stroke-dasharray:4.89900012,4.89900012;stroke-dashoffset:0"><path
           d="m 357.113,95.258 h -81.75"
           style="fill:none;stroke:#332288;stroke-width:1.22475003;stroke-linecap:butt;stroke-linejoin:miter;stroke-miterlimit:4;stroke-dasharray:4.89900012,4.89900012;stroke-dashoffset:0;stroke-opacity:1"
           id="path46" /></g><g
         id="g48"
         style="fill:#332288;fill-opacity:1;stroke:#332288;stroke-opacity:1"><path
           d="m 291.398,101.914 -18.027,-6.629 18.027,-6.633 c -2.878,3.914 -2.863,9.27 0,13.262 z"
           style="fill:#332288;fill-opacity:1;fill-rule:evenodd;stroke:#332288;stroke-width:1.03125;stroke-linecap:butt;stroke-linejoin:round;stroke-miterlimit:4;stroke-dasharray:none;stroke-opacity:1"
           id="path50" /></g><g
         id="g52"
         style="stroke:#332288;stroke-opacity:1"><path
           d="m 53.363,65.258 h 113.25"
           style="fill:none;stroke:#332288;stroke-width:1.5;stroke-linecap:butt;stroke-linejoin:miter;stroke-miterlimit:4;stroke-dasharray:none;stroke-opacity:1"
           id="path54" /></g><g
         id="g56"
         transform="scale(-1)"
         style="fill:#332288;fill-opacity:1;stroke:#332288;stroke-opacity:1"><path
           d="m -150.578,-58.602 -18.027,-6.628 18.027,-6.629 c -2.879,3.914 -2.863,9.269 0,13.257 z"
           style="fill:#332288;fill-opacity:1;fill-rule:evenodd;stroke:#332288;stroke-width:1.03125;stroke-linecap:butt;stroke-linejoin:round;stroke-miterlimit:4;stroke-dasharray:none;stroke-opacity:1"
           id="path58" /></g><path
         d="m 16.355,79.035 c -1.613,0 -2.921,1.309 -2.921,2.922 0,1.613 1.308,2.918 2.921,2.918 1.61,0 2.918,-1.305 2.918,-2.918 0,-1.613 -1.308,-2.922 -2.918,-2.922 z m 14.016,0 c -1.609,0 -2.918,1.309 -2.918,2.922 0,1.613 1.309,2.918 2.918,2.918 1.613,0 2.922,-1.305 2.922,-2.918 0,-1.613 -1.309,-2.922 -2.922,-2.922 z M 23.363,56.258 C 10.465,56.258 0,66.723 0,79.621 c 0,12.895 10.465,23.363 23.363,23.363 12.895,0 23.364,-10.468 23.364,-23.363 0,-12.898 -10.469,-23.363 -23.364,-23.363 z m 0,42.054 c -10.304,0 -18.691,-8.39 -18.691,-18.691 0,-0.68 0.047,-1.355 0.117,-2.012 5.516,-2.453 9.883,-6.961 12.172,-12.543 4.23,5.981 11.191,9.883 19.066,9.883 1.821,0 3.575,-0.211 5.254,-0.609 0.492,1.66 0.774,3.433 0.774,5.281 0,10.301 -8.387,18.691 -18.692,18.691 z"
         style="fill:#332288;fill-opacity:1;fill-rule:nonzero;stroke:none"
         id="path60" /><g
         id="g72"
         style="stroke-width:1.22475003;stroke-miterlimit:4;stroke-dasharray:1.22475003,4.89900012;stroke:#332288;stroke-opacity:1;stroke-dashoffset:0"><path
           d="m 249.227,112.32 v 37.5 h -60 v -37.5"
           style="fill:none;stroke:#332288;stroke-width:1.22475003;stroke-linecap:butt;stroke-linejoin:round;stroke-miterlimit:4;stroke-dasharray:1.22475003,4.89900012;stroke-dashoffset:0;stroke-opacity:1"
           id="path74" /></g><path
         d="m 51.844,0.008 c -1.375,1.922 -2.656,3.687 -2.656,7.015 0,3.344 1.281,5.11 2.656,7.032 L 53,13.289 C 51.703,11.445 51.016,9.805 51.016,7.023 51.016,4.242 51.703,2.617 53,0.773 Z"
         style="fill:#332288;fill-opacity:1;fill-rule:nonzero;stroke:none"
         id="path80" /><path
         d="M 58.301,2.508 H 56.723 L 53.66,4.383 54.441,5.586 56.535,4.32 v 7.61 h 1.766 z"
         style="fill:#332288;fill-opacity:1;fill-rule:nonzero;stroke:none"
         id="path82" /><path
         d="m 61.117,0.008 -1.14,0.765 c 1.281,1.844 1.984,3.469 1.984,6.25 0,2.782 -0.703,4.422 -1.984,6.266 l 1.14,0.766 c 1.406,-1.922 2.656,-3.688 2.656,-7.032 0,-3.328 -1.25,-5.093 -2.656,-7.015 z"
         style="fill:#332288;fill-opacity:1;fill-rule:nonzero;stroke:none"
         id="path84" /><path
         d="m 71.652,2.258 h -2.843 v 9.672 h 1.843 V 8.555 h 1.125 c 2.188,0 3.797,-1 3.797,-3.219 0,-2.094 -1.484,-3.078 -3.922,-3.078 z M 71.637,7.164 H 70.652 V 3.617 h 0.985 c 1.265,0 2.015,0.5 2.015,1.719 0,1.406 -0.781,1.828 -2.015,1.828 z"
         style="fill:#332288;fill-opacity:1;fill-rule:nonzero;stroke:none"
         id="path86" /><path
         d="m 80.785,2.039 c -2.594,0 -4.234,1.875 -4.234,5.063 0,3.234 1.64,5.031 4.234,5.031 2.594,0 4.235,-1.86 4.235,-5.047 0,-3.234 -1.641,-5.047 -4.235,-5.047 z m 0,1.422 c 1.453,0 2.281,1.031 2.281,3.625 0,2.625 -0.843,3.641 -2.281,3.641 -1.406,0 -2.297,-1.016 -2.297,-3.625 0,-2.61 0.86,-3.641 2.297,-3.641 z"
         style="fill:#332288;fill-opacity:1;fill-rule:nonzero;stroke:none"
         id="path88" /><path
         d="m 89.469,2.039 c -1.907,0 -3.297,1.078 -3.297,2.688 0,1.468 0.89,2.281 2.922,2.906 1.5,0.453 1.906,0.828 1.906,1.64 0,0.938 -0.734,1.438 -1.766,1.438 -1.015,0 -1.781,-0.359 -2.484,-0.969 l -0.969,1.063 c 0.797,0.781 1.953,1.328 3.485,1.328 2.312,0 3.672,-1.219 3.672,-2.969 0,-1.812 -1.172,-2.516 -2.876,-3.047 -1.609,-0.5 -1.984,-0.812 -1.984,-1.515 0,-0.75 0.625,-1.141 1.5,-1.141 0.797,0 1.469,0.25 2.172,0.828 L 92.656,3.242 C 91.812,2.461 90.875,2.039 89.469,2.039 Z"
         style="fill:#332288;fill-opacity:1;fill-rule:nonzero;stroke:none"
         id="path90" /><path
         d="m 100.59,2.258 h -7.172 v 1.469 h 2.594 v 8.203 h 1.875 V 3.727 h 2.515 z"
         style="fill:#332288;fill-opacity:1;fill-rule:nonzero;stroke:none"
         id="path92" /><path
         d="m 108.68,0.555 -3.282,12.515 1.547,0.375 3.266,-12.531 z"
         style="fill:#332288;fill-opacity:1;fill-rule:nonzero;stroke:none"
         id="path94" /><path
         d="m 114.445,4.32 c -1.734,0 -2.859,0.922 -2.859,2.157 0,1.078 0.672,1.812 2.203,2.234 1.375,0.391 1.672,0.594 1.672,1.203 0,0.563 -0.516,0.891 -1.313,0.891 -0.765,0 -1.437,-0.282 -2.015,-0.719 l -0.906,1 c 0.687,0.625 1.687,1.047 2.953,1.047 1.703,0 3.125,-0.813 3.125,-2.344 0,-1.312 -0.844,-1.937 -2.36,-2.344 -1.265,-0.343 -1.562,-0.562 -1.562,-1.062 0,-0.438 0.406,-0.735 1.125,-0.735 0.656,0 1.25,0.204 1.859,0.594 L 117.07,5.195 C 116.367,4.648 115.508,4.32 114.445,4.32 Z"
         style="fill:#332288;fill-opacity:1;fill-rule:nonzero;stroke:none"
         id="path96" /><path
         d="m 124.844,8.055 c 0,-2.344 -1.188,-3.735 -3.266,-3.735 -2.094,0 -3.281,1.703 -3.281,3.953 0,2.344 1.219,3.86 3.515,3.86 1.126,0 2.016,-0.406 2.75,-0.985 l -0.75,-1.031 c -0.64,0.453 -1.187,0.672 -1.843,0.672 -0.985,0 -1.672,-0.5 -1.813,-2.016 h 4.641 c 0.015,-0.187 0.047,-0.484 0.047,-0.718 z m -1.782,-0.438 h -2.906 c 0.094,-1.469 0.625,-2.031 1.469,-2.031 1,0 1.437,0.734 1.437,1.953 z"
         style="fill:#332288;fill-opacity:1;fill-rule:nonzero;stroke:none"
         id="path98" /><path
         d="m 130.152,4.32 c -0.875,0 -1.578,0.594 -1.937,1.657 l -0.172,-1.454 h -1.547 v 7.407 h 1.797 V 7.992 c 0.281,-1.25 0.719,-1.922 1.641,-1.922 0.25,0 0.421,0.032 0.656,0.094 l 0.297,-1.734 c -0.235,-0.078 -0.469,-0.11 -0.735,-0.11 z"
         style="fill:#332288;fill-opacity:1;fill-rule:nonzero;stroke:none"
         id="path100" /><path
         d="m 138.203,4.523 h -1.844 l -1.625,5.969 -1.593,-5.969 h -1.938 l 2.453,7.407 h 2.141 z"
         style="fill:#332288;fill-opacity:1;fill-rule:nonzero;stroke:none"
         id="path102" /><path
         d="m 145.242,8.055 c 0,-2.344 -1.187,-3.735 -3.265,-3.735 -2.094,0 -3.282,1.703 -3.282,3.953 0,2.344 1.219,3.86 3.516,3.86 1.125,0 2.016,-0.406 2.75,-0.985 l -0.75,-1.031 c -0.641,0.453 -1.188,0.672 -1.844,0.672 -0.984,0 -1.672,-0.5 -1.812,-2.016 h 4.64 c 0.016,-0.187 0.047,-0.484 0.047,-0.718 z m -1.781,-0.438 h -2.906 c 0.093,-1.469 0.625,-2.031 1.468,-2.031 1,0 1.438,0.734 1.438,1.953 z"
         style="fill:#332288;fill-opacity:1;fill-rule:nonzero;stroke:none"
         id="path104" /><path
         d="m 150.551,4.32 c -0.875,0 -1.578,0.594 -1.938,1.657 l -0.172,-1.454 h -1.546 v 7.407 h 1.796 V 7.992 c 0.282,-1.25 0.719,-1.922 1.641,-1.922 0.25,0 0.422,0.032 0.656,0.094 l 0.297,-1.734 c -0.234,-0.078 -0.469,-0.11 -0.734,-0.11 z"
         style="fill:#332288;fill-opacity:1;fill-rule:nonzero;stroke:none"
         id="path106" /><path
         d="m 52.828,20.562 c -2.219,0 -2.859,0.704 -2.859,2.204 v 2.781 c 0,0.797 -0.203,1.125 -0.938,1.125 v 1.469 c 0.735,0 0.938,0.312 0.938,1.109 v 2.781 c 0,1.485 0.64,2.203 2.859,2.203 v -1.296 c -0.875,0 -1.172,-0.235 -1.172,-0.891 v -2.938 c 0,-1.14 -0.484,-1.484 -1.281,-1.703 0.797,-0.218 1.281,-0.562 1.281,-1.718 V 22.75 c 0,-0.656 0.297,-0.891 1.172,-0.891 z"
         style="fill:#332288;fill-opacity:1;fill-rule:nonzero;stroke:none"
         id="path108" /><path
         d="m 61.848,24.688 c -0.938,0 -1.688,0.437 -2.266,1.187 l -0.141,-0.984 h -1.546 v 7.406 h 1.796 v -5.156 c 0.422,-0.688 0.907,-1.11 1.547,-1.11 0.563,0 0.907,0.266 0.907,1.188 v 5.078 h 1.796 v -5.359 c 0,-1.422 -0.765,-2.25 -2.093,-2.25 z"
         style="fill:#332288;fill-opacity:1;fill-rule:nonzero;stroke:none"
         id="path110" /><path
         d="m 72.105,28.422 c 0,-2.344 -1.187,-3.734 -3.265,-3.734 -2.094,0 -3.281,1.703 -3.281,3.953 0,2.343 1.218,3.859 3.515,3.859 1.125,0 2.016,-0.406 2.75,-0.984 l -0.75,-1.032 c -0.64,0.454 -1.187,0.672 -1.844,0.672 -0.984,0 -1.671,-0.5 -1.812,-2.015 h 4.641 c 0.015,-0.188 0.046,-0.485 0.046,-0.719 z m -1.781,-0.438 h -2.906 c 0.094,-1.468 0.625,-2.031 1.469,-2.031 1,0 1.437,0.735 1.437,1.953 z"
         style="fill:#332288;fill-opacity:1;fill-rule:nonzero;stroke:none"
         id="path112" /><path
         d="m 77.367,30.781 c -0.312,0.203 -0.594,0.281 -0.875,0.281 -0.547,0 -0.781,-0.296 -0.781,-1.015 v -3.875 h 1.531 l 0.188,-1.281 h -1.719 v -1.844 l -1.797,0.203 v 1.641 h -1.172 v 1.281 h 1.172 v 3.906 c 0,1.594 0.766,2.422 2.219,2.422 0.656,0 1.328,-0.172 1.859,-0.547 z"
         style="fill:#332288;fill-opacity:1;fill-rule:nonzero;stroke:none"
         id="path114" /><path
         d="m 88.055,24.891 h -1.719 l -1.109,6.093 -1.172,-6.093 h -1.844 l -1.281,6.093 -1.047,-6.093 h -1.781 l 1.64,7.406 h 2.188 l 1.156,-5.813 1.109,5.813 h 2.25 z"
         style="fill:#332288;fill-opacity:1;fill-rule:nonzero;stroke:none"
         id="path116" /><path
         d="m 92.176,24.688 c -2.203,0 -3.5,1.578 -3.5,3.906 0,2.422 1.297,3.906 3.484,3.906 2.172,0 3.485,-1.578 3.485,-3.906 0,-2.422 -1.297,-3.906 -3.469,-3.906 z m 0,1.343 c 1.031,0 1.578,0.797 1.578,2.563 0,1.75 -0.547,2.562 -1.594,2.562 -1.062,0 -1.609,-0.797 -1.609,-2.562 0,-1.75 0.562,-2.563 1.625,-2.563 z"
         style="fill:#332288;fill-opacity:1;fill-rule:nonzero;stroke:none"
         id="path118" /><path
         d="m 100.977,24.688 c -0.875,0 -1.579,0.593 -1.938,1.656 L 98.867,24.891 H 97.32 v 7.406 h 1.797 v -3.938 c 0.281,-1.25 0.719,-1.921 1.641,-1.921 0.25,0 0.422,0.031 0.656,0.093 l 0.297,-1.734 c -0.234,-0.078 -0.469,-0.109 -0.734,-0.109 z"
         style="fill:#332288;fill-opacity:1;fill-rule:nonzero;stroke:none"
         id="path120" /><path
         d="m 104.633,21.734 -1.797,0.188 v 10.375 h 1.797 z m 4.437,3.157 h -1.89 l -2.485,3.359 2.547,4.047 h 2.063 l -2.703,-4.141 z"
         style="fill:#332288;fill-opacity:1;fill-rule:nonzero;stroke:none"
         id="path122" /><path
         d="m 110.906,25.25 c -0.64,0 -1.125,0.516 -1.125,1.141 0,0.625 0.485,1.125 1.125,1.125 0.641,0 1.141,-0.5 1.141,-1.125 0,-0.625 -0.5,-1.141 -1.141,-1.141 z m 0,4.984 c -0.64,0 -1.125,0.516 -1.125,1.141 0,0.609 0.485,1.125 1.125,1.125 0.641,0 1.141,-0.516 1.141,-1.125 0,-0.625 -0.5,-1.141 -1.141,-1.141 z"
         style="fill:#332288;fill-opacity:1;fill-rule:nonzero;stroke:none"
         id="path124" /><path
         d="m 124.188,31 c -0.126,0.031 -0.282,0.062 -0.422,0.062 -0.297,0 -0.422,-0.171 -0.422,-0.578 V 21.812 L 121.672,22 c -0.531,-0.172 -1.031,-0.266 -1.656,-0.266 -1.813,0 -2.672,1 -2.672,2.344 v 0.813 h -1.172 v 1.281 h 1.172 v 6.125 h 1.781 v -6.125 h 1.391 l 0.203,-1.281 h -1.594 v -0.797 c 0,-0.719 0.266,-1.016 1.125,-1.016 0.484,0 0.844,0.047 1.297,0.188 v 7.343 c 0,1.235 0.641,1.891 1.75,1.891 0.453,0 0.906,-0.094 1.265,-0.25 z"
         style="fill:#332288;fill-opacity:1;fill-rule:nonzero;stroke:none"
         id="path126" /><path
         d="m 131.223,30.344 v -3.11 c 0,-1.64 -0.86,-2.546 -2.844,-2.546 -0.828,0 -1.766,0.171 -2.688,0.531 l 0.422,1.219 c 0.75,-0.266 1.453,-0.407 1.969,-0.407 0.953,0 1.375,0.328 1.375,1.297 v 0.422 h -0.922 c -2.156,0 -3.375,0.859 -3.375,2.469 0,1.343 0.922,2.281 2.406,2.281 0.875,0 1.688,-0.312 2.204,-1.094 0.296,0.719 0.828,1 1.64,1.078 l 0.375,-1.203 c -0.359,-0.125 -0.562,-0.343 -0.562,-0.937 z m -3.188,0.859 c -0.687,0 -1.047,-0.406 -1.047,-1.125 0,-0.859 0.578,-1.281 1.735,-1.281 h 0.734 v 1.5 c -0.328,0.594 -0.797,0.906 -1.422,0.906 z"
         style="fill:#332288;fill-opacity:1;fill-rule:nonzero;stroke:none"
         id="path128" /><path
         d="m 137.008,30.781 c -0.313,0.203 -0.594,0.281 -0.875,0.281 -0.547,0 -0.781,-0.296 -0.781,-1.015 v -3.875 h 1.531 l 0.187,-1.281 h -1.718 v -1.844 l -1.797,0.203 v 1.641 h -1.172 v 1.281 h 1.172 v 3.906 c 0,1.594 0.765,2.422 2.218,2.422 0.657,0 1.329,-0.172 1.86,-0.547 z"
         style="fill:#332288;fill-opacity:1;fill-rule:nonzero;stroke:none"
         id="path130" /><path
         d="m 50.469,50.602 c -0.641,0 -1.125,0.5 -1.125,1.125 0,0.39 0.172,0.734 0.468,0.937 L 49.25,55.07 h 1.094 l 0.906,-2.062 c 0.25,-0.563 0.359,-0.906 0.359,-1.266 0,-0.64 -0.484,-1.14 -1.14,-1.14 z"
         style="fill:#332288;fill-opacity:1;fill-rule:nonzero;stroke:none"
         id="path132" /><path
         d="m 62.688,45.258 h -1.844 l -1.625,5.969 -1.594,-5.969 h -1.937 l 2.453,7.406 h 2.14 z"
         style="fill:#332288;fill-opacity:1;fill-rule:nonzero;stroke:none"
         id="path134" /><path
         d="m 71.648,45.055 c -0.984,0 -1.656,0.453 -2.218,1.234 -0.297,-0.797 -0.953,-1.234 -1.813,-1.234 -0.937,0 -1.609,0.422 -2.14,1.172 l -0.141,-0.969 h -1.547 v 7.406 h 1.797 v -5.156 c 0.406,-0.688 0.781,-1.11 1.406,-1.11 0.438,0 0.813,0.266 0.813,1.188 v 5.078 h 1.797 v -5.156 c 0.406,-0.688 0.781,-1.11 1.39,-1.11 0.453,0 0.813,0.266 0.813,1.188 v 5.078 h 1.797 v -5.359 c 0,-1.407 -0.782,-2.25 -1.954,-2.25 z"
         style="fill:#332288;fill-opacity:1;fill-rule:nonzero;stroke:none"
         id="path136" /><path
         d="m 75.344,47.57 h 4.219 v 1.422 h -4.219 z"
         style="fill:#332288;fill-opacity:1;fill-rule:nonzero;stroke:none"
         id="path138" /><path
         d="m 85.312,45.055 c -0.937,0 -1.687,0.437 -2.265,1.187 l -0.141,-0.984 h -1.547 v 7.406 h 1.797 v -5.156 c 0.422,-0.688 0.906,-1.11 1.547,-1.11 0.563,0 0.906,0.266 0.906,1.188 v 5.078 h 1.797 v -5.359 c 0,-1.422 -0.765,-2.25 -2.094,-2.25 z"
         style="fill:#332288;fill-opacity:1;fill-rule:nonzero;stroke:none"
         id="path140" /><path
         d="m 94.961,50.711 v -3.109 c 0,-1.641 -0.859,-2.547 -2.844,-2.547 -0.828,0 -1.765,0.172 -2.687,0.531 l 0.422,1.219 c 0.75,-0.266 1.453,-0.407 1.968,-0.407 0.953,0 1.375,0.329 1.375,1.297 v 0.422 h -0.922 c -2.156,0 -3.375,0.86 -3.375,2.469 0,1.344 0.922,2.281 2.407,2.281 0.875,0 1.687,-0.312 2.203,-1.094 0.297,0.719 0.828,1 1.64,1.079 l 0.375,-1.204 c -0.359,-0.125 -0.562,-0.343 -0.562,-0.937 z m -3.188,0.859 c -0.687,0 -1.046,-0.406 -1.046,-1.125 0,-0.859 0.578,-1.281 1.734,-1.281 h 0.734 v 1.5 c -0.328,0.594 -0.797,0.906 -1.422,0.906 z"
         style="fill:#332288;fill-opacity:1;fill-rule:nonzero;stroke:none"
         id="path142" /><path
         d="m 104.996,45.055 c -0.984,0 -1.656,0.453 -2.219,1.234 -0.297,-0.797 -0.953,-1.234 -1.812,-1.234 -0.938,0 -1.61,0.422 -2.141,1.172 l -0.14,-0.969 h -1.547 v 7.406 h 1.797 v -5.156 c 0.406,-0.688 0.781,-1.11 1.406,-1.11 0.437,0 0.812,0.266 0.812,1.188 v 5.078 h 1.797 v -5.156 c 0.406,-0.688 0.781,-1.11 1.391,-1.11 0.453,0 0.812,0.266 0.812,1.188 v 5.078 h 1.797 v -5.359 c 0,-1.407 -0.781,-2.25 -1.953,-2.25 z"
         style="fill:#332288;fill-opacity:1;fill-rule:nonzero;stroke:none"
         id="path144" /><path
         d="m 115.113,48.789 c 0,-2.344 -1.187,-3.734 -3.265,-3.734 -2.094,0 -3.282,1.703 -3.282,3.953 0,2.344 1.219,3.859 3.516,3.859 1.125,0 2.016,-0.406 2.75,-0.984 l -0.75,-1.031 c -0.641,0.453 -1.187,0.671 -1.844,0.671 -0.984,0 -1.672,-0.5 -1.812,-2.015 h 4.64 c 0.016,-0.188 0.047,-0.485 0.047,-0.719 z m -1.781,-0.437 h -2.906 c 0.094,-1.469 0.625,-2.032 1.469,-2.032 1,0 1.437,0.735 1.437,1.953 z"
         style="fill:#332288;fill-opacity:1;fill-rule:nonzero;stroke:none"
         id="path146" /><path
         d="m 117.359,45.617 c -0.64,0 -1.125,0.516 -1.125,1.141 0,0.625 0.485,1.125 1.125,1.125 0.641,0 1.141,-0.5 1.141,-1.125 0,-0.625 -0.5,-1.141 -1.141,-1.141 z m 0,4.985 c -0.64,0 -1.125,0.515 -1.125,1.14 0,0.61 0.485,1.125 1.125,1.125 0.641,0 1.141,-0.515 1.141,-1.125 0,-0.625 -0.5,-1.14 -1.141,-1.14 z"
         style="fill:#332288;fill-opacity:1;fill-rule:nonzero;stroke:none"
         id="path148" /><path
         d="m 131.484,45.055 c -0.984,0 -1.656,0.453 -2.218,1.234 -0.297,-0.797 -0.954,-1.234 -1.813,-1.234 -0.937,0 -1.609,0.422 -2.141,1.172 l -0.14,-0.969 h -1.547 v 7.406 h 1.797 v -5.156 c 0.406,-0.688 0.781,-1.11 1.406,-1.11 0.438,0 0.813,0.266 0.813,1.188 v 5.078 h 1.797 v -5.156 c 0.406,-0.688 0.781,-1.11 1.39,-1.11 0.453,0 0.813,0.266 0.813,1.188 v 5.078 h 1.797 v -5.359 c 0,-1.407 -0.782,-2.25 -1.954,-2.25 z"
         style="fill:#332288;fill-opacity:1;fill-rule:nonzero;stroke:none"
         id="path150" /><path
         d="m 141.371,45.258 h -1.844 l -1.672,6.219 -1.609,-6.219 h -1.906 l 2.344,7.406 h 0.625 c -0.422,1.047 -0.907,1.531 -2.375,1.75 l 0.187,1.297 c 2.203,-0.156 3.297,-1.281 3.844,-3.016 z"
         style="fill:#332288;fill-opacity:1;fill-rule:nonzero;stroke:none"
         id="path152" /><path
         d="m 142.125,47.57 h 4.219 v 1.422 h -4.219 z"
         style="fill:#332288;fill-opacity:1;fill-rule:nonzero;stroke:none"
         id="path154" /><path
         d="m 154.094,45.258 h -1.844 l -1.625,5.969 -1.594,-5.969 h -1.937 l 2.453,7.406 h 2.141 z"
         style="fill:#332288;fill-opacity:1;fill-rule:nonzero;stroke:none"
         id="path156" /><path
         d="m 163.055,45.055 c -0.985,0 -1.657,0.453 -2.219,1.234 -0.297,-0.797 -0.953,-1.234 -1.813,-1.234 -0.937,0 -1.609,0.422 -2.14,1.172 l -0.141,-0.969 h -1.547 v 7.406 h 1.797 v -5.156 c 0.406,-0.688 0.781,-1.11 1.406,-1.11 0.438,0 0.813,0.266 0.813,1.188 v 5.078 h 1.797 v -5.156 c 0.406,-0.688 0.781,-1.11 1.39,-1.11 0.454,0 0.813,0.266 0.813,1.188 v 5.078 h 1.797 v -5.359 c 0,-1.407 -0.781,-2.25 -1.953,-2.25 z"
         style="fill:#332288;fill-opacity:1;fill-rule:nonzero;stroke:none"
         id="path158" /><path
         d="m 170,40.93 v 1.297 c 0.891,0 1.188,0.234 1.188,0.89 v 2.938 c 0,1.156 0.468,1.5 1.265,1.718 -0.797,0.219 -1.265,0.563 -1.265,1.704 v 2.937 c 0,0.656 -0.313,0.891 -1.188,0.891 v 1.297 c 2.234,0 2.859,-0.719 2.859,-2.204 v -2.781 c 0,-0.797 0.219,-1.109 0.953,-1.109 v -1.469 c -0.734,0 -0.953,-0.328 -0.953,-1.125 v -2.781 c 0,-1.5 -0.625,-2.203 -2.859,-2.203 z"
         style="fill:#332288;fill-opacity:1;fill-rule:nonzero;stroke:none"
         id="path160" /><path
         d="m 91.523,108.043 h -1.89 l -3.172,8.031 -0.938,-8.031 h -1.921 l 1.562,9.672 h 2.172 z"
         style="fill:#332288;fill-opacity:1;fill-rule:nonzero;stroke:none"
         id="path162" /><path
         d="m 100.762,108.043 h -2.453 l -2.532,6.844 -0.781,-6.844 H 92.73 l -2.125,9.672 h 1.782 l 0.781,-3.969 c 0.281,-1.359 0.5,-2.75 0.609,-4.094 l 0.875,7.016 h 1.75 l 2.719,-7.047 c -0.187,1.172 -0.328,2.594 -0.437,4 l -0.329,4.094 h 1.797 z"
         style="fill:#332288;fill-opacity:1;fill-rule:nonzero;stroke:none"
         id="path164" /><path
         d="m 113.809,108.043 h -1.844 l -0.906,6.375 c -0.204,1.359 -0.844,2.062 -2.063,2.062 -1.141,0 -1.578,-0.64 -1.375,-1.984 l 0.906,-6.453 h -1.843 l -0.907,6.484 c -0.281,1.985 0.75,3.391 3.11,3.391 2.312,0 3.718,-1.391 4,-3.344 z"
         style="fill:#332288;fill-opacity:1;fill-rule:nonzero;stroke:none"
         id="path166" /><path
         d="m 122.883,108.043 h -1.844 l -0.906,6.375 c -0.203,1.359 -0.844,2.062 -2.063,2.062 -1.14,0 -1.578,-0.64 -1.375,-1.984 l 0.907,-6.453 h -1.844 l -0.906,6.484 c -0.282,1.985 0.75,3.391 3.109,3.391 2.312,0 3.719,-1.391 4,-3.344 z"
         style="fill:#332288;fill-opacity:1;fill-rule:nonzero;stroke:none"
         id="path168" /><path
         d="m 126.812,108.043 h -1.843 l -1.344,9.672 h 1.828 z"
         style="fill:#332288;fill-opacity:1;fill-rule:nonzero;stroke:none"
         id="path170" /><path
         d="m 131.387,108.043 h -2.344 l -1.344,9.672 h 2.625 c 3.985,0 5.375,-2.891 5.375,-6 0,-3.016 -2.078,-3.672 -4.312,-3.672 z m 0.156,1.391 c 1.234,0 2.281,0.328 2.281,2.265 0,2.063 -0.719,4.625 -3.234,4.625 h -0.875 l 0.969,-6.89 z"
         style="fill:#332288;fill-opacity:1;fill-rule:nonzero;stroke:none"
         id="path172" /><path
         d="m 186.371,157.406 c -1.375,1.922 -2.656,3.688 -2.656,7.016 0,3.344 1.281,5.109 2.656,7.031 l 1.156,-0.765 c -1.297,-1.844 -1.984,-3.485 -1.984,-6.266 0,-2.781 0.687,-4.406 1.984,-6.25 z"
         style="fill:#332288;fill-opacity:1;fill-rule:nonzero;stroke:none"
         id="path174" /><path
         d="m 191.109,159.734 c -1.14,0 -2.109,0.407 -2.953,1.204 l 0.906,1 c 0.594,-0.563 1.157,-0.829 1.891,-0.829 0.844,0 1.391,0.469 1.391,1.235 0,0.922 -0.641,1.422 -1.516,1.422 h -0.5 l -0.219,1.281 h 0.75 c 1.063,0 1.688,0.391 1.688,1.515 0,0.969 -0.656,1.579 -1.656,1.579 -0.75,0 -1.344,-0.282 -1.969,-0.907 l -1,0.954 c 0.734,0.874 1.766,1.343 3.062,1.343 2.157,0 3.407,-1.281 3.407,-2.89 0,-1.453 -0.953,-2.188 -2.141,-2.297 1.109,-0.297 1.844,-1.032 1.844,-2.219 0,-1.297 -1.047,-2.391 -2.985,-2.391 z"
         style="fill:#332288;fill-opacity:1;fill-rule:nonzero;stroke:none"
         id="path176" /><path
         d="m 196.484,157.406 -1.14,0.766 c 1.281,1.844 1.984,3.469 1.984,6.25 0,2.781 -0.703,4.422 -1.984,6.266 l 1.14,0.765 c 1.407,-1.922 2.657,-3.687 2.657,-7.031 0,-3.328 -1.25,-5.094 -2.657,-7.016 z"
         style="fill:#332288;fill-opacity:1;fill-rule:nonzero;stroke:none"
         id="path178" /><path
         d="m 207.926,161.719 c -0.828,0 -1.547,0.39 -2.016,1.031 v -3.984 l -1.797,0.187 v 10.375 h 1.578 l 0.11,-0.75 c 0.484,0.594 1.156,0.953 1.969,0.953 1.812,0 2.921,-1.609 2.921,-3.906 0,-2.484 -1,-3.906 -2.765,-3.906 z m -0.641,6.469 c -0.562,0 -1.047,-0.329 -1.375,-0.844 v -3.282 c 0.344,-0.578 0.828,-1 1.469,-1 0.844,0 1.437,0.579 1.437,2.563 0,1.859 -0.625,2.563 -1.531,2.563 z"
         style="fill:#332288;fill-opacity:1;fill-rule:nonzero;stroke:none"
         id="path180" /><path
         d="m 215.488,161.719 c -2.203,0 -3.5,1.578 -3.5,3.906 0,2.422 1.297,3.906 3.485,3.906 2.172,0 3.484,-1.578 3.484,-3.906 0,-2.422 -1.297,-3.906 -3.469,-3.906 z m 0,1.343 c 1.032,0 1.578,0.797 1.578,2.563 0,1.75 -0.546,2.563 -1.593,2.563 -1.063,0 -1.61,-0.797 -1.61,-2.563 0,-1.75 0.563,-2.563 1.625,-2.563 z"
         style="fill:#332288;fill-opacity:1;fill-rule:nonzero;stroke:none"
         id="path182" /><path
         d="m 223.664,161.719 c -2.203,0 -3.5,1.578 -3.5,3.906 0,2.422 1.297,3.906 3.484,3.906 2.172,0 3.485,-1.578 3.485,-3.906 0,-2.422 -1.297,-3.906 -3.469,-3.906 z m 0,1.343 c 1.031,0 1.578,0.797 1.578,2.563 0,1.75 -0.547,2.563 -1.594,2.563 -1.062,0 -1.609,-0.797 -1.609,-2.563 0,-1.75 0.563,-2.563 1.625,-2.563 z"
         style="fill:#332288;fill-opacity:1;fill-rule:nonzero;stroke:none"
         id="path184" /><path
         d="m 232.418,167.812 c -0.313,0.204 -0.594,0.282 -0.875,0.282 -0.547,0 -0.781,-0.297 -0.781,-1.016 v -3.875 h 1.531 l 0.187,-1.281 h -1.718 v -1.844 l -1.797,0.203 v 1.641 h -1.172 v 1.281 h 1.172 v 3.906 c 0,1.594 0.765,2.422 2.219,2.422 0.656,0 1.328,-0.172 1.859,-0.547 z"
         style="fill:#332288;fill-opacity:1;fill-rule:nonzero;stroke:none"
         id="path186" /><path
         d="m 244.434,159.656 h -1.891 l -2.047,8.032 -2.094,-8.032 h -1.984 l 2.953,9.672 h 2.188 z"
         style="fill:#332288;fill-opacity:1;fill-rule:nonzero;stroke:none"
         id="path188" /><path
         d="m 253.785,159.656 h -2.406 l -1.625,6.782 -1.719,-6.782 h -2.39 l -0.766,9.672 h 1.797 l 0.234,-3.984 c 0.094,-1.391 0.11,-2.719 0.063,-4.032 l 1.875,6.969 h 1.75 l 1.765,-6.953 c -0.031,1.031 0.032,2.531 0.125,3.953 l 0.25,4.047 h 1.797 z"
         style="fill:#332288;fill-opacity:1;fill-rule:nonzero;stroke:none"
         id="path190" /><g
         id="g192"><path
           d="M 36.547,127.508 H 142.93 c 4.808,0 8.683,3.871 8.683,8.683 v 44.508 c 0,4.809 -3.875,8.684 -8.683,8.684 H 36.547 c -4.809,0 -8.684,-3.875 -8.684,-8.684 v -44.508 c 0,-4.812 3.875,-8.683 8.684,-8.683 z"
           style="fill:none;stroke:#2e3436;stroke-width:0.749999;stroke-linecap:butt;stroke-linejoin:round;stroke-miterlimit:4;stroke-dasharray:none;stroke-opacity:1"
           id="path194" /></g><g
         id="g196"
         style="fill-opacity:1;fill:none;stroke:#332288;stroke-opacity:1"><path
           d="M 35.484,145.613 H 142.738"
           style="fill:none;stroke:#332288;stroke-width:0.749999;stroke-linecap:butt;stroke-linejoin:miter;stroke-miterlimit:4;stroke-dasharray:none;stroke-opacity:1;fill-opacity:1"
           id="path198" /></g><g
         id="g200"
         transform="scale(-1)"
         style="fill:#332288;fill-opacity:1;stroke:#332288;stroke-opacity:1"><path
           d="m -134.719,-142.285 -9.011,-3.317 9.011,-3.312 c -1.441,1.957 -1.429,4.633 0,6.629 z"
           style="fill:#332288;fill-opacity:1;fill-rule:evenodd;stroke:#332288;stroke-width:0.515624;stroke-linecap:butt;stroke-linejoin:round;stroke-miterlimit:4;stroke-dasharray:none;stroke-opacity:1"
           id="path202" /></g><g
         id="g204"
         style="stroke:#332288;stroke-opacity:1;stroke-width:1.22475003;stroke-miterlimit:4;stroke-dasharray:3.67425009,3.67425009;stroke-dashoffset:0"><path
           d="M 35.484,162.07 H 142.738"
           style="fill:none;stroke:#332288;stroke-width:1.22475003;stroke-linecap:butt;stroke-linejoin:miter;stroke-miterlimit:4;stroke-dasharray:3.67425009,3.67425009;stroke-dashoffset:0;stroke-opacity:1"
           id="path206" /></g><g
         id="g208"
         transform="scale(-1)"
         style="fill:#332288;fill-opacity:1;stroke:#332288;stroke-opacity:1"><path
           d="m -134.719,-158.742 -9.011,-3.313 9.011,-3.316 c -1.441,1.957 -1.429,4.633 0,6.629 z"
           style="fill:#332288;fill-opacity:1;fill-rule:evenodd;stroke:#332288;stroke-width:0.515624;stroke-linecap:butt;stroke-linejoin:round;stroke-miterlimit:4;stroke-dasharray:none;stroke-opacity:1"
           id="path210" /></g><path
         d="m 53.406,142.965 h 1.406 v -7.313 h -1.406 v 2.922 h -2.609 v -2.922 h -1.391 v 7.313 h 1.391 v -3.281 h 2.609 z"
         style="fill:#332288;fill-opacity:1;fill-rule:nonzero;stroke:none"
         id="path212" /><path
         d="m 61.227,135.652 h -5.438 v 1.11 h 1.969 v 6.203 h 1.406 v -6.203 h 1.906 z"
         style="fill:#332288;fill-opacity:1;fill-rule:nonzero;stroke:none"
         id="path214" /><path
         d="m 66.84,135.652 h -5.438 v 1.11 h 1.969 v 6.203 h 1.406 v -6.203 h 1.907 z"
         style="fill:#332288;fill-opacity:1;fill-rule:nonzero;stroke:none"
         id="path216" /><path
         d="M 69.906,135.652 H 67.75 v 7.313 h 1.391 v -2.547 H 70 c 1.656,0 2.875,-0.766 2.875,-2.438 0,-1.578 -1.125,-2.328 -2.969,-2.328 z m 0,3.703 h -0.765 v -2.687 h 0.765 c 0.953,0 1.516,0.391 1.516,1.312 0,1.063 -0.594,1.375 -1.516,1.375 z"
         style="fill:#332288;fill-opacity:1;fill-rule:nonzero;stroke:none"
         id="path218" /><path
         d="m 80.566,142.965 h 1.61 l -1.922,-3.188 c 1,-0.39 1.484,-0.968 1.484,-1.984 0,-1.453 -0.984,-2.141 -2.89,-2.141 H 76.66 v 7.313 h 1.391 v -2.938 h 0.89 z m -2.515,-6.297 h 0.765 c 1.016,0 1.469,0.328 1.469,1.125 0,0.875 -0.484,1.234 -1.359,1.234 h -0.875 z"
         style="fill:#332288;fill-opacity:1;fill-rule:nonzero;stroke:none"
         id="path220" /><path
         d="m 87.574,140.027 c 0,-1.765 -0.89,-2.828 -2.469,-2.828 -1.578,0 -2.484,1.297 -2.484,3 0,1.766 0.938,2.922 2.672,2.922 0.844,0 1.531,-0.297 2.078,-0.75 l -0.562,-0.766 c -0.485,0.329 -0.907,0.485 -1.407,0.485 -0.734,0 -1.265,-0.36 -1.375,-1.516 h 3.516 c 0.016,-0.14 0.031,-0.359 0.031,-0.547 z m -1.344,-0.328 h -2.203 c 0.078,-1.109 0.485,-1.531 1.125,-1.531 0.75,0 1.078,0.547 1.078,1.469 z"
         style="fill:#332288;fill-opacity:1;fill-rule:nonzero;stroke:none"
         id="path222" /><path
         d="m 92.312,137.355 -0.078,0.547 c -0.39,-0.422 -0.875,-0.703 -1.484,-0.703 -1.422,0 -2.281,1.235 -2.281,2.969 0,1.781 0.734,2.953 2.125,2.953 0.687,0 1.203,-0.312 1.547,-0.781 v 2.781 l 1.359,0.156 v -7.922 z m -1.328,4.735 c -0.672,0 -1.078,-0.485 -1.078,-1.938 0,-1.343 0.469,-1.937 1.172,-1.937 0.438,0 0.766,0.219 1.063,0.594 v 2.562 c -0.329,0.484 -0.657,0.719 -1.157,0.719 z"
         style="fill:#332288;fill-opacity:1;fill-rule:nonzero;stroke:none"
         id="path224" /><path
         d="m 99.605,137.355 h -1.359 v 3.954 c -0.297,0.484 -0.672,0.781 -1.125,0.781 -0.469,0 -0.687,-0.219 -0.687,-0.875 v -3.86 h -1.36 v 4.032 c 0,1.078 0.547,1.734 1.563,1.734 0.765,0 1.312,-0.297 1.718,-0.937 l 0.079,0.781 h 1.171 z"
         style="fill:#332288;fill-opacity:1;fill-rule:nonzero;stroke:none"
         id="path226" /><path
         d="m 105.824,140.027 c 0,-1.765 -0.89,-2.828 -2.469,-2.828 -1.578,0 -2.484,1.297 -2.484,3 0,1.766 0.938,2.922 2.672,2.922 0.844,0 1.531,-0.297 2.078,-0.75 l -0.562,-0.766 c -0.485,0.329 -0.907,0.485 -1.407,0.485 -0.734,0 -1.265,-0.36 -1.375,-1.516 h 3.516 c 0.016,-0.14 0.031,-0.359 0.031,-0.547 z m -1.344,-0.328 h -2.203 c 0.078,-1.109 0.485,-1.531 1.125,-1.531 0.75,0 1.078,0.547 1.078,1.469 z"
         style="fill:#332288;fill-opacity:1;fill-rule:nonzero;stroke:none"
         id="path228" /><path
         d="m 108.844,137.199 c -1.297,0 -2.156,0.703 -2.156,1.641 0,0.812 0.515,1.375 1.671,1.687 1.047,0.297 1.266,0.453 1.266,0.907 0,0.421 -0.391,0.687 -1,0.687 -0.563,0 -1.094,-0.219 -1.516,-0.547 l -0.687,0.75 c 0.516,0.469 1.281,0.797 2.234,0.797 1.282,0 2.36,-0.609 2.36,-1.781 0,-0.985 -0.641,-1.453 -1.782,-1.766 -0.953,-0.265 -1.172,-0.437 -1.172,-0.797 0,-0.343 0.297,-0.562 0.844,-0.562 0.5,0 0.938,0.156 1.406,0.453 l 0.532,-0.797 c -0.532,-0.422 -1.188,-0.672 -2,-0.672 z"
         style="fill:#332288;fill-opacity:1;fill-rule:nonzero;stroke:none"
         id="path230" /><path
         d="m 114.855,141.824 c -0.234,0.141 -0.453,0.203 -0.671,0.203 -0.407,0 -0.594,-0.218 -0.594,-0.765 v -2.922 h 1.172 l 0.14,-0.985 h -1.312 v -1.39 l -1.344,0.156 v 1.234 h -0.891 v 0.985 h 0.891 v 2.953 c 0,1.187 0.578,1.812 1.672,1.828 0.5,0 1.016,-0.141 1.422,-0.422 z"
         style="fill:#332288;fill-opacity:1;fill-rule:nonzero;stroke:none"
         id="path232" /><path
         d="m 52.953,159.422 h 1.391 l 1.031,-7.313 h -1.391 l -0.422,2.922 H 51 l 0.422,-2.922 H 50.031 L 49,159.422 h 1.391 l 0.453,-3.281 h 2.562 z"
         style="fill:#332288;fill-opacity:1;fill-rule:nonzero;stroke:none"
         id="path234" /><path
         d="m 61.703,152.109 h -5.375 l -0.156,1.11 h 1.953 l -0.875,6.203 h 1.391 l 0.875,-6.203 h 1.875 z"
         style="fill:#332288;fill-opacity:1;fill-rule:nonzero;stroke:none"
         id="path236" /><path
         d="m 67.234,152.109 h -5.375 l -0.156,1.11 h 1.953 l -0.875,6.203 h 1.391 l 0.875,-6.203 h 1.875 z"
         style="fill:#332288;fill-opacity:1;fill-rule:nonzero;stroke:none"
         id="path238" /><path
         d="m 70.246,152.109 h -2.125 l -1.031,7.313 h 1.39 l 0.36,-2.547 h 0.859 c 2.36,0 3.188,-1.437 3.188,-2.781 0,-1.344 -0.985,-1.985 -2.641,-1.985 z m -0.531,3.703 H 68.98 l 0.375,-2.687 h 0.766 c 0.844,0 1.328,0.281 1.328,1.016 0,0.781 -0.344,1.671 -1.734,1.671 z"
         style="fill:#332288;fill-opacity:1;fill-rule:nonzero;stroke:none"
         id="path240" /><path
         d="m 81.621,153.953 c 0,-1.25 -0.875,-1.844 -2.609,-1.844 h -2.141 l -1.031,7.313 h 1.39 l 0.407,-2.938 h 0.906 l 1.219,2.938 h 1.531 l -1.438,-3.156 c 1.375,-0.5 1.766,-1.407 1.766,-2.313 z m -3.516,-0.828 h 0.782 c 0.875,0 1.281,0.266 1.281,0.891 0,0.656 -0.313,1.468 -1.5,1.468 h -0.891 z"
         style="fill:#332288;fill-opacity:1;fill-rule:nonzero;stroke:none"
         id="path242" /><path
         d="m 87.059,155.141 c 0,-0.797 -0.657,-1.485 -1.938,-1.485 -2.25,0 -3.047,2.063 -3.047,3.594 0,1.422 0.781,2.328 2.313,2.328 0.812,0 1.515,-0.281 2.125,-0.719 l -0.516,-0.843 c -0.516,0.359 -0.953,0.515 -1.469,0.515 -0.609,0 -1.062,-0.297 -1.078,-1.172 1.844,-0.187 3.61,-0.64 3.61,-2.218 z m -3.563,1.343 c 0.156,-0.922 0.578,-1.859 1.531,-1.859 0.516,0 0.657,0.328 0.657,0.578 0,0.703 -0.672,1.125 -2.188,1.281 z"
         style="fill:#332288;fill-opacity:1;fill-rule:nonzero;stroke:none"
         id="path244" /><path
         d="m 90.102,153.656 c -1.5,0 -2.25,0.844 -2.25,1.703 0,0.813 0.437,1.266 1.453,1.594 0.89,0.297 1.14,0.453 1.14,0.891 0,0.344 -0.281,0.718 -1.047,0.718 -0.625,0 -1.14,-0.25 -1.531,-0.593 l -0.703,0.75 c 0.453,0.469 1.219,0.859 2.203,0.859 1.485,0 2.438,-0.75 2.438,-1.89 0,-0.876 -0.516,-1.36 -1.516,-1.672 -0.812,-0.266 -1.094,-0.391 -1.094,-0.75 0,-0.375 0.328,-0.594 0.907,-0.594 0.468,0 0.937,0.156 1.343,0.453 l 0.61,-0.75 c -0.485,-0.437 -1.141,-0.719 -1.953,-0.719 z"
         style="fill:#332288;fill-opacity:1;fill-rule:nonzero;stroke:none"
         id="path246" /><path
         d="m 96.262,153.656 c -0.532,0 -1.094,0.188 -1.672,0.813 v -0.657 h -1.156 l -1.125,7.938 1.343,-0.156 0.313,-2.188 c 0.281,0.094 0.609,0.172 1.047,0.172 2.203,0 2.968,-2.125 2.968,-3.719 0,-1.406 -0.609,-2.203 -1.718,-2.203 z m -0.485,1.016 c 0.485,0 0.828,0.281 0.828,1.156 0,1.141 -0.437,2.734 -1.64,2.734 -0.344,0 -0.563,-0.046 -0.844,-0.14 l 0.422,-3.031 c 0.359,-0.407 0.75,-0.719 1.234,-0.719 z"
         style="fill:#332288;fill-opacity:1;fill-rule:nonzero;stroke:none"
         id="path248" /><path
         d="m 101.863,153.656 c -2.281,0 -3.031,2.078 -3.031,3.563 0,1.469 0.813,2.359 2.266,2.359 2.281,0 3.015,-2.109 3.015,-3.562 0,-1.454 -0.797,-2.36 -2.25,-2.36 z m -0.078,1.032 c 0.625,0 0.953,0.374 0.938,1.218 0,0.953 -0.297,2.641 -1.547,2.641 -0.625,0 -0.953,-0.375 -0.953,-1.219 0,-0.953 0.297,-2.64 1.562,-2.64 z"
         style="fill:#332288;fill-opacity:1;fill-rule:nonzero;stroke:none"
         id="path250" /><path
         d="m 108.762,153.656 c -0.797,0 -1.438,0.485 -1.938,1.203 l 0.063,-1.047 h -1.157 l -0.796,5.61 h 1.343 l 0.438,-3.203 c 0.422,-0.797 0.937,-1.453 1.484,-1.453 0.328,0 0.563,0.187 0.453,0.859 l -0.531,3.797 h 1.328 l 0.563,-4 c 0.156,-1.11 -0.344,-1.766 -1.25,-1.766 z"
         style="fill:#332288;fill-opacity:1;fill-rule:nonzero;stroke:none"
         id="path252" /><path
         d="m 113.426,153.656 c -1.5,0 -2.25,0.844 -2.25,1.703 0,0.813 0.437,1.266 1.453,1.594 0.891,0.297 1.141,0.453 1.141,0.891 0,0.344 -0.282,0.718 -1.047,0.718 -0.625,0 -1.141,-0.25 -1.532,-0.593 l -0.703,0.75 c 0.453,0.469 1.219,0.859 2.203,0.859 1.485,0 2.438,-0.75 2.438,-1.89 0,-0.876 -0.516,-1.36 -1.516,-1.672 -0.812,-0.266 -1.093,-0.391 -1.093,-0.75 0,-0.375 0.328,-0.594 0.906,-0.594 0.469,0 0.937,0.156 1.344,0.453 l 0.609,-0.75 c -0.484,-0.437 -1.141,-0.719 -1.953,-0.719 z"
         style="fill:#332288;fill-opacity:1;fill-rule:nonzero;stroke:none"
         id="path254" /><path
         d="m 120.945,155.141 c 0,-0.797 -0.656,-1.485 -1.937,-1.485 -2.25,0 -3.047,2.063 -3.047,3.594 0,1.422 0.781,2.328 2.312,2.328 0.813,0 1.516,-0.281 2.125,-0.719 l -0.515,-0.843 c -0.516,0.359 -0.953,0.515 -1.469,0.515 -0.609,0 -1.062,-0.297 -1.078,-1.172 1.844,-0.187 3.609,-0.64 3.609,-2.218 z m -3.562,1.343 c 0.156,-0.922 0.578,-1.859 1.531,-1.859 0.516,0 0.656,0.328 0.656,0.578 0,0.703 -0.672,1.125 -2.187,1.281 z"
         style="fill:#332288;fill-opacity:1;fill-rule:nonzero;stroke:none"
         id="path256" /><path
         d="m 49.406,169.121 h 1.391 v 7.312 h -1.391 z"
         style="fill:#332288;fill-opacity:1;fill-rule:nonzero;stroke:none"
         id="path258" /><path
         d="m 55.457,170.668 c -0.703,0 -1.266,0.344 -1.703,0.906 l -0.109,-0.75 h -1.172 v 5.61 h 1.359 v -3.907 c 0.328,-0.515 0.688,-0.843 1.172,-0.843 0.422,0 0.687,0.203 0.687,0.906 v 3.844 h 1.36 v -4.063 c 0,-1.062 -0.578,-1.703 -1.594,-1.703 z"
         style="fill:#332288;fill-opacity:1;fill-rule:nonzero;stroke:none"
         id="path260" /><path
         d="m 61.359,175.293 c -0.234,0.141 -0.453,0.203 -0.671,0.203 -0.407,0 -0.594,-0.219 -0.594,-0.766 v -2.921 h 1.172 l 0.14,-0.985 h -1.312 v -1.39 l -1.344,0.156 v 1.234 h -0.891 v 0.985 h 0.891 v 2.953 c 0,1.187 0.578,1.812 1.672,1.828 0.5,0 1.016,-0.141 1.422,-0.422 z"
         style="fill:#332288;fill-opacity:1;fill-rule:nonzero;stroke:none"
         id="path262" /><path
         d="m 67.086,173.496 c 0,-1.766 -0.891,-2.828 -2.469,-2.828 -1.578,0 -2.484,1.297 -2.484,3 0,1.766 0.937,2.922 2.672,2.922 0.843,0 1.531,-0.297 2.078,-0.75 l -0.563,-0.766 c -0.484,0.328 -0.906,0.485 -1.406,0.485 -0.734,0 -1.266,-0.36 -1.375,-1.516 h 3.516 c 0.015,-0.141 0.031,-0.359 0.031,-0.547 z m -1.344,-0.328 h -2.203 c 0.078,-1.109 0.484,-1.531 1.125,-1.531 0.75,0 1.078,0.547 1.078,1.468 z"
         style="fill:#332288;fill-opacity:1;fill-rule:nonzero;stroke:none"
         id="path264" /><path
         d="m 71.105,170.684 c -0.656,0 -1.187,0.437 -1.453,1.25 l -0.14,-1.11 H 68.34 v 5.61 h 1.359 v -2.985 c 0.219,-0.953 0.547,-1.437 1.235,-1.437 0.203,0 0.328,0.015 0.5,0.062 l 0.234,-1.312 c -0.172,-0.063 -0.359,-0.078 -0.563,-0.078 z"
         style="fill:#332288;fill-opacity:1;fill-rule:nonzero;stroke:none"
         id="path266" /><path
         d="m 75.5,170.668 c -0.703,0 -1.266,0.344 -1.703,0.906 l -0.109,-0.75 h -1.172 v 5.61 h 1.359 v -3.907 c 0.328,-0.515 0.687,-0.843 1.172,-0.843 0.422,0 0.687,0.203 0.687,0.906 v 3.844 h 1.36 v -4.063 c 0,-1.062 -0.578,-1.703 -1.594,-1.703 z"
         style="fill:#332288;fill-opacity:1;fill-rule:nonzero;stroke:none"
         id="path268" /><path
         d="m 82.809,174.949 v -2.344 c 0,-1.25 -0.657,-1.937 -2.141,-1.937 -0.641,0 -1.344,0.141 -2.047,0.406 l 0.328,0.922 c 0.563,-0.187 1.094,-0.297 1.485,-0.297 0.718,0 1.046,0.25 1.046,0.969 v 0.328 h -0.703 c -1.625,0 -2.547,0.656 -2.547,1.875 0,1.016 0.688,1.719 1.813,1.719 0.656,0 1.281,-0.235 1.672,-0.828 0.219,0.547 0.625,0.75 1.234,0.812 l 0.281,-0.906 c -0.265,-0.109 -0.421,-0.266 -0.421,-0.719 z m -2.407,0.656 c -0.531,0 -0.797,-0.312 -0.797,-0.843 0,-0.657 0.438,-0.969 1.313,-0.969 h 0.562 v 1.125 c -0.25,0.453 -0.609,0.687 -1.078,0.687 z"
         style="fill:#332288;fill-opacity:1;fill-rule:nonzero;stroke:none"
         id="path270" /><path
         d="m 85.781,176.59 c 0.344,0 0.672,-0.078 0.907,-0.188 l -0.297,-0.953 c -0.094,0.031 -0.188,0.047 -0.313,0.047 -0.219,0 -0.312,-0.125 -0.312,-0.391 v -6.671 l -1.36,0.156 v 6.562 c 0,0.922 0.516,1.438 1.375,1.438 z"
         style="fill:#332288;fill-opacity:1;fill-rule:nonzero;stroke:none"
         id="path272" /><path
         d="m 93.055,168.949 c -1.782,0 -3.188,1.344 -3.188,3.813 0,2.484 1.328,3.828 3.219,3.828 1,0 1.766,-0.438 2.203,-0.891 l -0.656,-0.844 c -0.422,0.313 -0.86,0.61 -1.485,0.61 -1.046,0 -1.812,-0.781 -1.812,-2.703 0,-1.985 0.797,-2.735 1.797,-2.735 0.515,0 0.937,0.188 1.359,0.532 l 0.719,-0.829 c -0.594,-0.5 -1.203,-0.781 -2.156,-0.781 z"
         style="fill:#332288;fill-opacity:1;fill-rule:nonzero;stroke:none"
         id="path274" /><path
         d="m 100.383,174.949 v -2.344 c 0,-1.25 -0.656,-1.937 -2.141,-1.937 -0.64,0 -1.344,0.141 -2.047,0.406 l 0.328,0.922 c 0.563,-0.187 1.094,-0.297 1.485,-0.297 0.719,0 1.047,0.25 1.047,0.969 v 0.328 h -0.703 c -1.625,0 -2.547,0.656 -2.547,1.875 0,1.016 0.687,1.719 1.812,1.719 0.656,0 1.281,-0.235 1.672,-0.828 0.219,0.547 0.625,0.75 1.234,0.812 l 0.282,-0.906 c -0.266,-0.109 -0.422,-0.266 -0.422,-0.719 z m -2.406,0.656 c -0.532,0 -0.797,-0.312 -0.797,-0.843 0,-0.657 0.437,-0.969 1.312,-0.969 h 0.563 v 1.125 c -0.25,0.453 -0.61,0.687 -1.078,0.687 z"
         style="fill:#332288;fill-opacity:1;fill-rule:nonzero;stroke:none"
         id="path276" /><path
         d="m 103.355,176.59 c 0.344,0 0.672,-0.078 0.907,-0.188 l -0.297,-0.953 c -0.094,0.031 -0.188,0.047 -0.313,0.047 -0.218,0 -0.312,-0.125 -0.312,-0.391 v -6.671 l -1.36,0.156 v 6.562 c 0,0.922 0.516,1.438 1.375,1.438 z"
         style="fill:#332288;fill-opacity:1;fill-rule:nonzero;stroke:none"
         id="path278" /><path
         d="m 106.48,176.59 c 0.344,0 0.672,-0.078 0.907,-0.188 l -0.297,-0.953 c -0.094,0.031 -0.188,0.047 -0.313,0.047 -0.218,0 -0.312,-0.125 -0.312,-0.391 v -6.671 l -1.36,0.156 v 6.562 c 0,0.922 0.516,1.438 1.375,1.438 z"
         style="fill:#332288;fill-opacity:1;fill-rule:nonzero;stroke:none"
         id="path280" /><g
         id="g282"
         style="stroke:#332288;stroke-opacity:1;stroke-width:1.22475003;stroke-miterlimit:4;stroke-dasharray:1.22475003,4.89900012;stroke-dashoffset:0"><path
           d="M 35.484,178.527 H 142.738"
           style="fill:none;stroke:#332288;stroke-width:1.22475003;stroke-linecap:butt;stroke-linejoin:miter;stroke-miterlimit:4;stroke-dasharray:1.22475003,4.89900012;stroke-dashoffset:0;stroke-opacity:1"
           id="path284" /></g><g
         id="g286"
         transform="scale(-1)"
         style="fill:#332288;fill-opacity:1;stroke:#332288;stroke-opacity:1"><path
           d="m -134.719,-175.199 -9.011,-3.313 9.011,-3.316 c -1.441,1.957 -1.429,4.637 0,6.629 z"
           style="fill:#332288;fill-opacity:1;fill-rule:evenodd;stroke:#332288;stroke-width:0.515624;stroke-linecap:butt;stroke-linejoin:round;stroke-miterlimit:4;stroke-dasharray:none;stroke-opacity:1"
           id="path288" /></g><g
         id="g290"
         style="stroke:#44aa99;stroke-opacity:1;stroke-width:2.34975006;stroke-miterlimit:4;stroke-dasharray:none"><path
           d="m 180.777,55.602 h 80.797 c 5.664,0 10.227,4.562 10.227,10.226 v 35.797 c 0,5.664 -4.563,10.227 -10.227,10.227 h -80.797 c -5.664,0 -10.226,-4.563 -10.226,-10.227 V 65.828 c 0,-5.664 4.562,-10.226 10.226,-10.226 z"
           style="fill:none;stroke:#44aa99;stroke-width:2.34975006;stroke-linecap:butt;stroke-linejoin:round;stroke-miterlimit:4;stroke-dasharray:none;stroke-opacity:1"
           id="path292" /></g><path
         d="m 470.262,125.695 v 1.125 l 1.781,2.907 0.922,-0.563 -1.344,-2.187 h 8 v -1.282 z"
         style="fill:#cc6677;fill-opacity:1;fill-rule:nonzero;stroke:none"
         id="path308" /><path
         d="m 470.121,120.523 c 0,1.625 1.125,3 3.094,3 1.859,0 3,-1.14 3,-2.593 0,-0.953 -0.485,-1.688 -1.11,-2.094 2.11,0.094 3.188,1.594 3.86,3.937 l 0.969,-0.296 c -1,-3.438 -2.297,-4.985 -6.172,-4.985 -2.203,0 -3.641,1.016 -3.641,3.031 z m 5.094,0.141 c 0,0.906 -0.641,1.547 -1.985,1.547 -1.343,0 -2.093,-0.625 -2.093,-1.719 0,-1.156 0.797,-1.734 2.906,-1.687 0.719,0.453 1.172,1.062 1.172,1.859 z"
         style="fill:#cc6677;fill-opacity:1;fill-rule:nonzero;stroke:none"
         id="path310" /><path
         d="m 470.121,113.609 c 0,1.172 0.469,2.079 1.406,2.844 l 0.672,-0.875 c -0.719,-0.594 -1.015,-1.125 -1.015,-1.906 0,-0.906 0.562,-1.531 1.546,-1.531 1.532,0 2.422,0.812 5.875,4.109 h 1.016 v -5.531 l -1.078,-0.157 v 4.219 c -2.875,-2.875 -4.109,-3.984 -5.859,-3.984 -1.469,0 -2.563,1.094 -2.563,2.812 z"
         style="fill:#cc6677;fill-opacity:1;fill-rule:nonzero;stroke:none"
         id="path312" /><path
         d="m 477.84,108.195 c 0,0.547 0.437,0.969 0.969,0.969 0.546,0 0.984,-0.422 0.984,-0.969 0,-0.547 -0.438,-0.968 -0.984,-0.968 -0.532,0 -0.969,0.421 -0.969,0.968 z"
         style="fill:#cc6677;fill-opacity:1;fill-rule:nonzero;stroke:none"
         id="path314" /><path
         d="m 470.262,103.672 v 1.125 l 1.781,2.906 0.922,-0.562 -1.344,-2.188 h 8 v -1.281 z"
         style="fill:#cc6677;fill-opacity:1;fill-rule:nonzero;stroke:none"
         id="path316" /><path
         d="m 473.465,97.812 c 0,0.876 0.359,1.641 1.234,2.25 -2.14,-0.062 -3.562,-0.874 -3.562,-2.234 0,-0.516 0.14,-1.016 0.406,-1.437 l -0.859,-0.516 c -0.36,0.547 -0.563,1.187 -0.563,1.937 0,2.219 2.031,3.547 5.109,3.547 2.688,0 4.563,-0.875 4.563,-3.156 0,-1.656 -1.313,-2.984 -3.344,-2.984 -2.015,0 -2.984,1.219 -2.984,2.593 z m 5.297,0.391 c 0,1.25 -0.953,1.797 -2.985,1.844 -0.781,-0.469 -1.297,-1.172 -1.297,-2.016 0,-0.875 0.516,-1.5 2,-1.5 1.375,0 2.282,0.563 2.282,1.672 z"
         style="fill:#cc6677;fill-opacity:1;fill-rule:nonzero;stroke:none"
         id="path318" /><path
         d="m 474.59,89.555 c -0.531,-1.063 -1.156,-1.594 -2.11,-1.594 -1.593,0 -2.359,1.437 -2.359,2.844 0,1.422 0.813,2.843 2.406,2.843 0.969,0 1.672,-0.453 2.188,-1.468 0.5,1.156 1.219,1.859 2.422,1.859 1.547,0 2.656,-1.281 2.656,-3.219 0,-1.89 -1.109,-3.234 -2.672,-3.234 -1.187,0 -2.016,0.687 -2.531,1.969 z m -3.516,1.25 c 0,-1.032 0.578,-1.594 1.453,-1.594 0.797,0 1.282,0.359 1.766,1.203 l -0.094,0.234 c -0.344,1.079 -0.703,1.735 -1.656,1.735 -0.938,0 -1.469,-0.61 -1.469,-1.578 z m 7.688,0.015 c 0,1.157 -0.594,1.875 -1.625,1.875 -1.016,0 -1.657,-0.453 -2.11,-1.375 l 0.125,-0.359 c 0.516,-1.5 0.969,-2.031 1.985,-2.031 0.968,0 1.625,0.703 1.625,1.89 z"
         style="fill:#cc6677;fill-opacity:1;fill-rule:nonzero;stroke:none"
         id="path320" /><path
         d="m 477.84,85.277 c 0,0.547 0.437,0.969 0.969,0.969 0.546,0 0.984,-0.422 0.984,-0.969 0,-0.547 -0.438,-0.968 -0.984,-0.968 -0.532,0 -0.969,0.421 -0.969,0.968 z"
         style="fill:#cc6677;fill-opacity:1;fill-rule:nonzero;stroke:none"
         id="path322" /><path
         d="m 470.121,79.684 c 0,2.093 1.719,3.14 4.828,3.14 3.11,0 4.844,-1.047 4.844,-3.14 0,-2.094 -1.734,-3.141 -4.844,-3.141 -3.094,0 -4.828,1.047 -4.828,3.141 z m 1.016,0 c 0,-1.157 1.062,-1.797 3.812,-1.797 2.75,0 3.813,0.64 3.813,1.797 0,1.171 -1.063,1.796 -3.813,1.796 -2.75,0 -3.812,-0.625 -3.812,-1.796 z"
         style="fill:#cc6677;fill-opacity:1;fill-rule:nonzero;stroke:none"
         id="path324" /><path
         d="m 477.84,74.105 c 0,0.547 0.437,0.969 0.969,0.969 0.546,0 0.984,-0.422 0.984,-0.969 0,-0.546 -0.438,-0.968 -0.984,-0.968 -0.532,0 -0.969,0.422 -0.969,0.968 z"
         style="fill:#cc6677;fill-opacity:1;fill-rule:nonzero;stroke:none"
         id="path326" /><path
         d="m 470.121,68.512 c 0,2.093 1.719,3.14 4.828,3.14 3.11,0 4.844,-1.047 4.844,-3.14 0,-2.094 -1.734,-3.141 -4.844,-3.141 -3.094,0 -4.828,1.047 -4.828,3.141 z m 1.016,0 c 0,-1.157 1.062,-1.797 3.812,-1.797 2.75,0 3.813,0.64 3.813,1.797 0,1.172 -1.063,1.797 -3.813,1.797 -2.75,0 -3.812,-0.625 -3.812,-1.797 z"
         style="fill:#cc6677;fill-opacity:1;fill-rule:nonzero;stroke:none"
         id="path328" /><path
         d="m 468.324,60.449 12.485,3.25 0.265,-1.109 -12.5,-3.235 z"
         style="fill:#cc6677;fill-opacity:1;fill-rule:nonzero;stroke:none"
         id="path330" /><path
         d="m 470.262,53.789 v 1.125 l 1.781,2.906 0.922,-0.562 -1.344,-2.188 h 8 v -1.281 z"
         style="fill:#cc6677;fill-opacity:1;fill-rule:nonzero;stroke:none"
         id="path332" /><path
         d="m 473.465,47.93 c 0,0.875 0.359,1.64 1.234,2.25 -2.14,-0.063 -3.562,-0.875 -3.562,-2.235 0,-0.515 0.14,-1.015 0.406,-1.437 l -0.859,-0.516 c -0.36,0.547 -0.563,1.188 -0.563,1.938 0,2.218 2.031,3.547 5.109,3.547 2.688,0 4.563,-0.875 4.563,-3.157 0,-1.656 -1.313,-2.984 -3.344,-2.984 -2.015,0 -2.984,1.219 -2.984,2.594 z m 5.297,0.39 c 0,1.25 -0.953,1.797 -2.985,1.844 -0.781,-0.469 -1.297,-1.172 -1.297,-2.016 0,-0.875 0.516,-1.5 2,-1.5 1.375,0 2.282,0.563 2.282,1.672 z"
         style="fill:#cc6677;fill-opacity:1;fill-rule:nonzero;stroke:none"
         id="path334" /><path
         d="m 473.719,135.301 v 0.457 h -5.981 c -1.777,0 -3.222,1.445 -3.222,3.222 v 7.821 h -3.68 v -0.461 c 0,-0.758 -0.621,-1.379 -1.379,-1.379 h -4.602 c -0.757,0 -1.378,0.621 -1.378,1.379 v 4.601 c 0,0.758 0.621,1.379 1.378,1.379 h 4.602 c 0.758,0 1.379,-0.621 1.379,-1.379 v -0.461 h 3.68 v 7.821 c 0,1.777 1.445,3.219 3.222,3.219 h 5.981 v 0.46 c 0,0.758 0.621,1.379 1.379,1.379 h 4.597 c 0.762,0 1.383,-0.621 1.383,-1.379 v -4.601 c 0,-0.758 -0.621,-1.379 -1.383,-1.379 h -4.597 c -0.758,0 -1.379,0.621 -1.379,1.379 v 0.461 h -5.524 v -7.36 h 5.524 v 0.461 c 0,0.758 0.621,1.379 1.379,1.379 h 4.597 c 0.762,0 1.383,-0.621 1.383,-1.379 v -4.601 c 0,-0.758 -0.621,-1.379 -1.383,-1.379 h -4.597 c -0.758,0 -1.379,0.621 -1.379,1.379 v 0.461 h -5.524 v -7.363 h 5.524 v 0.46 c 0,0.758 0.621,1.379 1.379,1.379 h 4.597 c 0.762,0 1.383,-0.621 1.383,-1.379 v -4.601 c 0,-0.758 -0.621,-1.379 -1.383,-1.379 h -4.597 c -0.758,0 -1.379,0.621 -1.379,1.379 z m 5.519,22.539 v 3.68 h -3.679 v -3.68 z m 0,-11.039 v 3.679 h -3.679 v -3.679 z m -20.242,3.679 h -3.68 v -3.679 h 3.68 z m 20.242,-14.718 v 3.679 h -3.679 v -3.679 z"
         style="fill:#cc6677;fill-opacity:1;fill-rule:nonzero;stroke:none"
         id="path336" /><path
         d="m 270.633,16.996 c -1.375,1.922 -2.656,3.688 -2.656,7.016 0,3.343 1.281,5.109 2.656,7.031 l 1.156,-0.766 c -1.297,-1.843 -1.984,-3.484 -1.984,-6.265 0,-2.782 0.687,-4.407 1.984,-6.25 z"
         style="fill:#332288;fill-opacity:1;fill-rule:nonzero;stroke:none"
         id="path338" /><path
         d="m 275.391,19.324 c -1.313,0 -2.297,0.563 -3.063,1.547 l 1.11,0.859 c 0.578,-0.687 1.062,-0.984 1.812,-0.984 0.812,0 1.359,0.5 1.359,1.375 0,1.328 -0.781,2.203 -4.015,5.484 v 1.313 h 5.875 l 0.187,-1.406 h -4.031 c 2.922,-2.782 3.828,-3.938 3.828,-5.532 0,-1.468 -1.125,-2.656 -3.062,-2.656 z"
         style="fill:#332288;fill-opacity:1;fill-rule:nonzero;stroke:none"
         id="path340" /><path
         d="m 280.707,16.996 -1.141,0.766 c 1.282,1.843 1.985,3.468 1.985,6.25 0,2.781 -0.703,4.422 -1.985,6.265 l 1.141,0.766 c 1.406,-1.922 2.656,-3.688 2.656,-7.031 0,-3.328 -1.25,-5.094 -2.656,-7.016 z"
         style="fill:#332288;fill-opacity:1;fill-rule:nonzero;stroke:none"
         id="path342" /><path
         d="m 291.242,19.246 h -2.844 v 9.672 h 1.844 v -3.375 h 1.125 c 2.188,0 3.797,-1 3.797,-3.219 0,-2.094 -1.484,-3.078 -3.922,-3.078 z m -0.015,4.906 h -0.985 v -3.547 h 0.985 c 1.265,0 2.015,0.5 2.015,1.719 0,1.406 -0.781,1.828 -2.015,1.828 z"
         style="fill:#332288;fill-opacity:1;fill-rule:nonzero;stroke:none"
         id="path344" /><path
         d="m 300.375,19.027 c -2.594,0 -4.234,1.875 -4.234,5.063 0,3.234 1.64,5.031 4.234,5.031 2.594,0 4.234,-1.859 4.234,-5.047 0,-3.234 -1.64,-5.047 -4.234,-5.047 z m 0,1.422 c 1.453,0 2.281,1.031 2.281,3.625 0,2.625 -0.844,3.641 -2.281,3.641 -1.406,0 -2.297,-1.016 -2.297,-3.625 0,-2.61 0.86,-3.641 2.297,-3.641 z"
         style="fill:#332288;fill-opacity:1;fill-rule:nonzero;stroke:none"
         id="path346" /><path
         d="m 309.059,19.027 c -1.907,0 -3.297,1.078 -3.297,2.688 0,1.469 0.89,2.281 2.922,2.906 1.5,0.453 1.906,0.828 1.906,1.641 0,0.937 -0.735,1.437 -1.766,1.437 -1.015,0 -1.781,-0.359 -2.484,-0.969 l -0.969,1.063 c 0.797,0.781 1.953,1.328 3.484,1.328 2.313,0 3.672,-1.219 3.672,-2.969 0,-1.812 -1.172,-2.515 -2.875,-3.047 -1.609,-0.5 -1.984,-0.812 -1.984,-1.515 0,-0.75 0.625,-1.141 1.5,-1.141 0.797,0 1.469,0.25 2.172,0.828 l 0.906,-1.047 c -0.844,-0.781 -1.781,-1.203 -3.187,-1.203 z"
         style="fill:#332288;fill-opacity:1;fill-rule:nonzero;stroke:none"
         id="path348" /><path
         d="m 320.18,19.246 h -7.172 v 1.469 h 2.594 v 8.203 h 1.875 v -8.203 h 2.515 z"
         style="fill:#332288;fill-opacity:1;fill-rule:nonzero;stroke:none"
         id="path350" /><path
         d="m 328.27,17.543 -3.282,12.516 1.547,0.375 3.266,-12.532 z"
         style="fill:#332288;fill-opacity:1;fill-rule:nonzero;stroke:none"
         id="path352" /><path
         d="m 335.645,21.309 c -0.766,0 -1.563,0.343 -2.141,1.109 l -0.109,-0.906 h -1.563 v 10.453 l 1.797,-0.188 v -3.468 c 0.453,0.546 1.094,0.812 1.859,0.812 1.875,0 2.922,-1.656 2.922,-3.922 0,-2.375 -0.812,-3.89 -2.765,-3.89 z m -0.657,6.453 c -0.562,0 -1.015,-0.25 -1.359,-0.782 v -3.328 c 0.344,-0.578 0.859,-1 1.484,-1 0.922,0 1.422,0.672 1.422,2.563 0,1.781 -0.578,2.547 -1.547,2.547 z"
         style="fill:#332288;fill-opacity:1;fill-rule:nonzero;stroke:none"
         id="path354" /><path
         d="m 343.207,21.309 c -2.203,0 -3.5,1.578 -3.5,3.906 0,2.422 1.297,3.906 3.484,3.906 2.172,0 3.485,-1.578 3.485,-3.906 0,-2.422 -1.297,-3.906 -3.469,-3.906 z m 0,1.343 c 1.031,0 1.578,0.797 1.578,2.563 0,1.75 -0.547,2.562 -1.594,2.562 -1.062,0 -1.609,-0.797 -1.609,-2.562 0,-1.75 0.563,-2.563 1.625,-2.563 z"
         style="fill:#332288;fill-opacity:1;fill-rule:nonzero;stroke:none"
         id="path356" /><path
         d="m 352.008,21.309 c -0.875,0 -1.578,0.593 -1.938,1.656 l -0.172,-1.453 h -1.546 v 7.406 h 1.796 V 24.98 c 0.282,-1.25 0.719,-1.921 1.641,-1.921 0.25,0 0.422,0.031 0.656,0.093 l 0.297,-1.734 c -0.234,-0.078 -0.469,-0.109 -0.734,-0.109 z"
         style="fill:#332288;fill-opacity:1;fill-rule:nonzero;stroke:none"
         id="path358" /><path
         d="m 357.688,27.402 c -0.313,0.203 -0.594,0.282 -0.876,0.282 -0.546,0 -0.781,-0.297 -0.781,-1.016 v -3.875 h 1.531 l 0.188,-1.281 h -1.719 v -1.844 l -1.797,0.203 v 1.641 h -1.172 v 1.281 h 1.172 v 3.906 c 0,1.594 0.766,2.422 2.219,2.422 0.656,0 1.328,-0.172 1.859,-0.547 z"
         style="fill:#332288;fill-opacity:1;fill-rule:nonzero;stroke:none"
         id="path360" /><path
         d="m 271.617,37.551 c -2.219,0 -2.859,0.703 -2.859,2.203 v 2.781 c 0,0.797 -0.203,1.125 -0.938,1.125 v 1.469 c 0.735,0 0.938,0.312 0.938,1.109 v 2.782 c 0,1.484 0.64,2.203 2.859,2.203 v -1.297 c -0.875,0 -1.172,-0.235 -1.172,-0.891 v -2.937 c 0,-1.141 -0.484,-1.485 -1.281,-1.703 0.797,-0.219 1.281,-0.563 1.281,-1.719 v -2.938 c 0,-0.656 0.297,-0.89 1.172,-0.89 z"
         style="fill:#332288;fill-opacity:1;fill-rule:nonzero;stroke:none"
         id="path362" /><path
         d="m 280.641,41.676 c -0.938,0 -1.688,0.437 -2.266,1.187 l -0.141,-0.984 h -1.546 v 7.406 h 1.796 v -5.156 c 0.422,-0.688 0.907,-1.109 1.547,-1.109 0.563,0 0.907,0.265 0.907,1.187 v 5.078 h 1.796 v -5.359 c 0,-1.422 -0.765,-2.25 -2.093,-2.25 z"
         style="fill:#332288;fill-opacity:1;fill-rule:nonzero;stroke:none"
         id="path364" /><path
         d="m 290.898,45.41 c 0,-2.344 -1.187,-3.734 -3.265,-3.734 -2.094,0 -3.281,1.703 -3.281,3.953 0,2.344 1.218,3.859 3.515,3.859 1.125,0 2.016,-0.406 2.75,-0.984 l -0.75,-1.031 c -0.64,0.453 -1.187,0.672 -1.844,0.672 -0.984,0 -1.671,-0.5 -1.812,-2.016 h 4.641 c 0.015,-0.188 0.046,-0.484 0.046,-0.719 z m -1.781,-0.437 h -2.906 c 0.094,-1.469 0.625,-2.032 1.469,-2.032 1,0 1.437,0.735 1.437,1.954 z"
         style="fill:#332288;fill-opacity:1;fill-rule:nonzero;stroke:none"
         id="path366" /><path
         d="m 296.16,47.77 c -0.312,0.203 -0.594,0.281 -0.875,0.281 -0.547,0 -0.781,-0.297 -0.781,-1.016 V 43.16 h 1.531 l 0.188,-1.281 h -1.719 v -1.844 l -1.797,0.203 v 1.641 h -1.172 v 1.281 h 1.172 v 3.906 c 0,1.594 0.766,2.422 2.219,2.422 0.656,0 1.328,-0.172 1.859,-0.547 z"
         style="fill:#332288;fill-opacity:1;fill-rule:nonzero;stroke:none"
         id="path368" /><path
         d="m 306.848,41.879 h -1.719 l -1.109,6.094 -1.172,-6.094 h -1.844 l -1.281,6.094 -1.047,-6.094 h -1.781 l 1.64,7.406 h 2.188 l 1.156,-5.812 1.109,5.812 h 2.25 z"
         style="fill:#332288;fill-opacity:1;fill-rule:nonzero;stroke:none"
         id="path370" /><path
         d="m 310.965,41.676 c -2.203,0 -3.5,1.578 -3.5,3.906 0,2.422 1.297,3.906 3.484,3.906 2.172,0 3.485,-1.578 3.485,-3.906 0,-2.422 -1.297,-3.906 -3.469,-3.906 z m 0,1.344 c 1.031,0 1.578,0.796 1.578,2.562 0,1.75 -0.547,2.563 -1.594,2.563 -1.062,0 -1.609,-0.797 -1.609,-2.563 0,-1.75 0.562,-2.562 1.625,-2.562 z"
         style="fill:#332288;fill-opacity:1;fill-rule:nonzero;stroke:none"
         id="path372" /><path
         d="m 319.766,41.676 c -0.875,0 -1.578,0.594 -1.938,1.656 l -0.172,-1.453 h -1.547 v 7.406 h 1.797 v -3.937 c 0.282,-1.25 0.719,-1.922 1.641,-1.922 0.25,0 0.422,0.031 0.656,0.094 l 0.297,-1.735 c -0.234,-0.078 -0.469,-0.109 -0.734,-0.109 z"
         style="fill:#332288;fill-opacity:1;fill-rule:nonzero;stroke:none"
         id="path374" /><path
         d="m 323.426,38.723 -1.797,0.187 v 10.375 h 1.797 z m 4.437,3.156 h -1.89 l -2.485,3.359 2.547,4.047 h 2.063 l -2.703,-4.14 z"
         style="fill:#332288;fill-opacity:1;fill-rule:nonzero;stroke:none"
         id="path376" /><path
         d="m 329.695,42.238 c -0.64,0 -1.125,0.516 -1.125,1.141 0,0.625 0.485,1.125 1.125,1.125 0.641,0 1.141,-0.5 1.141,-1.125 0,-0.625 -0.5,-1.141 -1.141,-1.141 z m 0,4.985 c -0.64,0 -1.125,0.515 -1.125,1.14 0,0.61 0.485,1.125 1.125,1.125 0.641,0 1.141,-0.515 1.141,-1.125 0,-0.625 -0.5,-1.14 -1.141,-1.14 z"
         style="fill:#332288;fill-opacity:1;fill-rule:nonzero;stroke:none"
         id="path378" /><path
         d="m 342.98,47.988 c -0.125,0.032 -0.281,0.063 -0.421,0.063 -0.297,0 -0.422,-0.172 -0.422,-0.578 v -8.672 l -1.672,0.187 c -0.531,-0.172 -1.031,-0.265 -1.656,-0.265 -1.813,0 -2.672,1 -2.672,2.343 v 0.813 h -1.172 v 1.281 h 1.172 v 6.125 h 1.781 V 43.16 h 1.391 l 0.203,-1.281 h -1.594 v -0.797 c 0,-0.719 0.266,-1.016 1.125,-1.016 0.484,0 0.844,0.047 1.297,0.188 v 7.344 c 0,1.234 0.64,1.89 1.75,1.89 0.453,0 0.906,-0.093 1.265,-0.25 z"
         style="fill:#332288;fill-opacity:1;fill-rule:nonzero;stroke:none"
         id="path380" /><path
         d="m 350.016,47.332 v -3.109 c 0,-1.641 -0.86,-2.547 -2.844,-2.547 -0.828,0 -1.766,0.172 -2.688,0.531 l 0.422,1.219 c 0.75,-0.266 1.453,-0.406 1.969,-0.406 0.953,0 1.375,0.328 1.375,1.296 v 0.422 h -0.922 c -2.156,0 -3.375,0.86 -3.375,2.469 0,1.344 0.922,2.281 2.406,2.281 0.875,0 1.688,-0.312 2.203,-1.093 0.297,0.718 0.829,1 1.641,1.078 l 0.375,-1.203 c -0.359,-0.125 -0.562,-0.344 -0.562,-0.938 z m -3.188,0.859 c -0.687,0 -1.047,-0.406 -1.047,-1.125 0,-0.859 0.578,-1.281 1.735,-1.281 h 0.734 v 1.5 c -0.328,0.594 -0.797,0.906 -1.422,0.906 z"
         style="fill:#332288;fill-opacity:1;fill-rule:nonzero;stroke:none"
         id="path382" /><path
         d="m 355.797,47.77 c -0.313,0.203 -0.594,0.281 -0.875,0.281 -0.547,0 -0.781,-0.297 -0.781,-1.016 V 43.16 h 1.531 l 0.187,-1.281 h -1.718 v -1.844 l -1.797,0.203 v 1.641 h -1.172 v 1.281 h 1.172 v 3.906 c 0,1.594 0.765,2.422 2.218,2.422 0.657,0 1.329,-0.172 1.86,-0.547 z"
         style="fill:#332288;fill-opacity:1;fill-rule:nonzero;stroke:none"
         id="path384" /><path
         d="m 360.344,37.551 v 1.297 c 0.89,0 1.187,0.234 1.187,0.89 v 2.938 c 0,1.156 0.469,1.5 1.266,1.719 -0.797,0.218 -1.266,0.562 -1.266,1.703 v 2.937 c 0,0.656 -0.312,0.891 -1.187,0.891 v 1.297 c 2.234,0 2.859,-0.719 2.859,-2.203 v -2.782 c 0,-0.797 0.219,-1.109 0.953,-1.109 V 43.66 c -0.734,0 -0.953,-0.328 -0.953,-1.125 v -2.781 c 0,-1.5 -0.625,-2.203 -2.859,-2.203 z"
         style="fill:#332288;fill-opacity:1;fill-rule:nonzero;stroke:none"
         id="path386" /><path
         d="m 275.336,106.867 c -2.203,0 -2.875,0.672 -3.094,2.172 l -0.39,2.781 c -0.11,0.797 -0.391,1.157 -1.11,1.157 l -0.234,1.468 c 0.797,0 0.937,0.282 0.812,1.078 l -0.375,2.766 c -0.203,1.5 0.563,2.25 2.532,2.25 l 0.125,-1.297 c -0.86,0 -1.094,-0.203 -1.016,-0.844 l 0.422,-2.953 c 0.172,-1.187 -0.297,-1.5 -1.031,-1.703 0.843,-0.25 1.343,-0.578 1.5,-1.719 l 0.421,-2.937 c 0.094,-0.641 0.438,-0.922 1.297,-0.922 z"
         style="fill:#332288;fill-opacity:1;fill-rule:nonzero;stroke:none"
         id="path406" /><path
         d="m 287.445,110.992 c -0.875,0 -1.703,0.531 -2.328,1.438 -0.14,-0.938 -0.797,-1.438 -1.625,-1.438 -0.953,0 -1.734,0.578 -2.375,1.5 l 0.078,-1.297 h -1.531 l -1.031,7.407 h 1.765 l 0.579,-4.25 c 0.515,-1.047 1.109,-1.891 1.734,-1.891 0.406,0 0.703,0.187 0.578,1.109 l -0.703,5.032 h 1.766 l 0.609,-4.297 c 0.5,-1.016 1.109,-1.844 1.719,-1.844 0.406,0 0.718,0.187 0.593,1.109 l -0.718,5.032 h 1.765 l 0.75,-5.329 c 0.203,-1.421 -0.468,-2.281 -1.625,-2.281 z"
         style="fill:#332288;fill-opacity:1;fill-rule:nonzero;stroke:none"
         id="path408" /><path
         d="m 294.473,110.992 c -3.032,0 -4.125,2.828 -4.125,4.922 0,1.75 0.812,2.891 2.39,2.891 0.938,0 1.657,-0.516 2.203,-1.25 0.172,0.797 0.75,1.14 1.532,1.234 l 0.5,-1.187 c -0.266,-0.11 -0.422,-0.25 -0.422,-0.625 0,-0.079 0.015,-0.188 0.031,-0.313 l 0.734,-4.969 c -0.984,-0.515 -1.906,-0.703 -2.843,-0.703 z m -0.032,1.313 c 0.422,0 0.672,0.047 1.016,0.187 l -0.562,3.781 c -0.5,0.704 -1,1.188 -1.641,1.188 -0.656,0 -1.063,-0.422 -1.063,-1.547 0,-1.547 0.61,-3.609 2.25,-3.609 z"
         style="fill:#332288;fill-opacity:1;fill-rule:nonzero;stroke:none"
         id="path410" /><path
         d="m 302.344,110.992 c -2.891,0 -3.985,2.766 -3.985,4.703 0,1.922 1.094,3.11 2.985,3.11 0.906,0 1.703,-0.282 2.453,-0.813 l -0.672,-1.187 c -0.578,0.359 -1.016,0.547 -1.594,0.547 -0.812,0 -1.312,-0.422 -1.312,-1.563 0,-1.391 0.453,-3.391 2.125,-3.391 0.531,0 0.937,0.141 1.359,0.532 l 0.906,-1.063 c -0.625,-0.609 -1.39,-0.875 -2.265,-0.875 z"
         style="fill:#332288;fill-opacity:1;fill-rule:nonzero;stroke:none"
         id="path412" /><path
         d="m 306.516,111.555 c -0.688,0 -1.219,0.578 -1.219,1.25 0,0.593 0.406,1.015 0.984,1.015 0.703,0 1.25,-0.562 1.25,-1.234 0,-0.594 -0.422,-1.031 -1.015,-1.031 z m -0.688,4.984 c -0.687,0 -1.234,0.563 -1.234,1.25 0,0.578 0.406,1.016 0.984,1.016 0.703,0 1.25,-0.563 1.25,-1.25 0,-0.578 -0.422,-1.016 -1,-1.016 z"
         style="fill:#332288;fill-opacity:1;fill-rule:nonzero;stroke:none"
         id="path414" /><path
         d="m 312.418,112.727 h 1.234 l 0.766,-3.797 h -1.703 z m 2.672,0 h 1.234 l 0.766,-3.797 h -1.688 z"
         style="fill:#332288;fill-opacity:1;fill-rule:nonzero;stroke:none"
         id="path416" /><path
         d="m 321.781,109.383 c 0.328,0 0.75,0.078 1.157,0.344 l 0.64,-1.125 c -0.516,-0.329 -1.109,-0.563 -1.922,-0.563 -1.656,0 -2.609,0.953 -2.797,2.297 l -0.125,0.859 h -1.187 l -0.188,1.282 h 1.188 l -0.766,5.531 c -0.219,1.469 -0.797,1.906 -1.843,2.328 l 0.468,1.312 c 1.719,-0.671 2.813,-1.406 3.141,-3.671 l 0.765,-5.5 h 1.563 l 0.375,-1.282 h -1.75 l 0.109,-0.734 c 0.094,-0.719 0.453,-1.078 1.172,-1.078 z"
         style="fill:#332288;fill-opacity:1;fill-rule:nonzero;stroke:none"
         id="path418" /><path
         d="m 326.199,110.992 c -3.031,0 -4.125,2.828 -4.125,4.922 0,1.75 0.813,2.891 2.391,2.891 0.937,0 1.656,-0.516 2.203,-1.25 0.172,0.797 0.75,1.14 1.531,1.234 l 0.5,-1.187 c -0.265,-0.11 -0.422,-0.25 -0.422,-0.625 0,-0.079 0.016,-0.188 0.032,-0.313 l 0.734,-4.969 c -0.984,-0.515 -1.906,-0.703 -2.844,-0.703 z m -0.031,1.313 c 0.422,0 0.672,0.047 1.016,0.187 l -0.563,3.781 c -0.5,0.704 -1,1.188 -1.641,1.188 -0.656,0 -1.062,-0.422 -1.062,-1.547 0,-1.547 0.609,-3.609 2.25,-3.609 z"
         style="fill:#332288;fill-opacity:1;fill-rule:nonzero;stroke:none"
         id="path420" /><path
         d="m 331.645,111.555 c -0.688,0 -1.219,0.578 -1.219,1.25 0,0.593 0.406,1.015 0.984,1.015 0.703,0 1.25,-0.562 1.25,-1.234 0,-0.594 -0.422,-1.031 -1.015,-1.031 z m -0.688,4.984 c -0.687,0 -1.234,0.563 -1.234,1.25 0,0.578 0.406,1.016 0.984,1.016 0.703,0 1.25,-0.563 1.25,-1.25 0,-0.578 -0.422,-1.016 -1,-1.016 z"
         style="fill:#332288;fill-opacity:1;fill-rule:nonzero;stroke:none"
         id="path422" /><path
         d="m 338.461,109.18 h -1.578 l -3.281,1.875 0.593,1.328 2.266,-1.266 -1.063,7.485 h 1.75 z"
         style="fill:#332288;fill-opacity:1;fill-rule:nonzero;stroke:none"
         id="path424" /><path
         d="m 346.18,115.07 h -1.11 l 0.328,-2.359 h -1.531 l -0.531,2.359 h -2.031 l 3.062,-5.5 -1.484,-0.578 -3.516,6.219 -0.172,1.234 h 3.953 l -0.296,2.157 h 1.718 l 0.313,-2.157 h 1.109 z"
         style="fill:#332288;fill-opacity:1;fill-rule:nonzero;stroke:none"
         id="path426" /><path
         d="m 348.641,111.555 c -0.688,0 -1.219,0.578 -1.219,1.25 0,0.593 0.406,1.015 0.984,1.015 0.703,0 1.25,-0.562 1.25,-1.234 0,-0.594 -0.422,-1.031 -1.015,-1.031 z m -0.688,4.984 c -0.687,0 -1.234,0.563 -1.234,1.25 0,0.578 0.406,1.016 0.984,1.016 0.703,0 1.25,-0.563 1.25,-1.25 0,-0.578 -0.422,-1.016 -1,-1.016 z"
         style="fill:#332288;fill-opacity:1;fill-rule:nonzero;stroke:none"
         id="path428" /><path
         d="m 351.312,116.539 c -0.687,0 -1.234,0.563 -1.234,1.25 0,0.578 0.406,1.016 0.984,1.016 0.704,0 1.25,-0.563 1.25,-1.25 0,-0.578 -0.421,-1.016 -1,-1.016 z"
         style="fill:#332288;fill-opacity:1;fill-rule:nonzero;stroke:none"
         id="path430" /><path
         d="m 354.676,116.539 c -0.688,0 -1.235,0.563 -1.235,1.25 0,0.578 0.407,1.016 0.985,1.016 0.703,0 1.25,-0.563 1.25,-1.25 0,-0.578 -0.422,-1.016 -1,-1.016 z"
         style="fill:#332288;fill-opacity:1;fill-rule:nonzero;stroke:none"
         id="path432" /><path
         d="m 358.035,116.539 c -0.687,0 -1.234,0.563 -1.234,1.25 0,0.578 0.406,1.016 0.984,1.016 0.703,0 1.25,-0.563 1.25,-1.25 0,-0.578 -0.422,-1.016 -1,-1.016 z"
         style="fill:#332288;fill-opacity:1;fill-rule:nonzero;stroke:none"
         id="path434" /><path
         d="m 359.559,112.727 h 1.234 l 0.766,-3.797 h -1.704 z m 2.671,0 h 1.235 l 0.765,-3.797 h -1.687 z"
         style="fill:#332288;fill-opacity:1;fill-rule:nonzero;stroke:none"
         id="path436" /><path
         d="m 271.695,136.91 c -0.672,0 -1.218,0.578 -1.218,1.266 0,0.328 0.14,0.594 0.359,0.781 l -0.938,2.422 h 1.11 l 1.187,-2.063 c 0.36,-0.656 0.516,-0.984 0.516,-1.39 0,-0.578 -0.422,-1.016 -1.016,-1.016 z"
         style="fill:#332288;fill-opacity:1;fill-rule:nonzero;stroke:none"
         id="path438" /><path
         d="m 280.02,127.816 c -0.641,0 -1.141,0.438 -1.219,1.032 -0.078,0.64 0.328,1.14 1,1.14 0.64,0 1.125,-0.437 1.219,-1.031 0.078,-0.641 -0.313,-1.141 -1,-1.141 z m 0.39,3.75 h -1.765 l -1.032,7.407 h 1.766 z"
         style="fill:#332288;fill-opacity:1;fill-rule:nonzero;stroke:none"
         id="path440" /><path
         d="m 286.285,131.363 c -0.703,0 -1.453,0.25 -2.219,1.078 l 0.016,-0.875 h -1.547 l -1.469,10.485 1.766,-0.203 0.422,-2.891 c 0.375,0.125 0.797,0.219 1.375,0.219 2.922,0 3.937,-2.813 3.937,-4.922 0,-1.844 -0.812,-2.891 -2.281,-2.891 z m -0.64,1.344 c 0.625,0 1.093,0.359 1.093,1.516 0,1.515 -0.593,3.609 -2.172,3.609 -0.453,0 -0.734,-0.062 -1.109,-0.187 l 0.547,-3.985 c 0.484,-0.547 1,-0.953 1.641,-0.953 z"
         style="fill:#332288;fill-opacity:1;fill-rule:nonzero;stroke:none"
         id="path442" /><path
         d="m 291.242,131.926 c -0.687,0 -1.219,0.578 -1.219,1.25 0,0.594 0.407,1.015 0.985,1.015 0.703,0 1.25,-0.562 1.25,-1.234 0,-0.594 -0.422,-1.031 -1.016,-1.031 z m -0.687,4.984 c -0.688,0 -1.235,0.563 -1.235,1.25 0,0.578 0.407,1.016 0.985,1.016 0.703,0 1.25,-0.563 1.25,-1.25 0,-0.578 -0.422,-1.016 -1,-1.016 z"
         style="fill:#332288;fill-opacity:1;fill-rule:nonzero;stroke:none"
         id="path444" /><path
         d="m 297.145,133.098 h 1.234 l 0.766,-3.797 h -1.704 z m 2.671,0 h 1.235 l 0.765,-3.797 h -1.687 z"
         style="fill:#332288;fill-opacity:1;fill-rule:nonzero;stroke:none"
         id="path446" /><path
         d="m 307.504,129.551 h -1.578 l -3.281,1.875 0.593,1.328 2.266,-1.266 -1.063,7.485 h 1.75 z"
         style="fill:#332288;fill-opacity:1;fill-rule:nonzero;stroke:none"
         id="path448" /><path
         d="m 312.41,129.379 c -2.547,0 -3.578,2.016 -3.578,3.703 0,1.563 0.984,2.563 2.281,2.563 0.86,0 1.532,-0.375 2.047,-0.938 -0.531,1.797 -2,2.719 -4.39,3.328 l 0.25,1.297 c 5.328,-1.094 6.328,-4.281 6.328,-6.937 0,-1.813 -1.016,-3.016 -2.938,-3.016 z m -0.75,4.953 c -0.625,0 -1.062,-0.391 -1.062,-1.281 0,-0.938 0.359,-2.344 1.781,-2.344 0.766,0 1.172,0.438 1.172,1.516 0,0.328 -0.031,0.64 -0.094,1.078 -0.516,0.64 -1.125,1.031 -1.797,1.031 z"
         style="fill:#332288;fill-opacity:1;fill-rule:nonzero;stroke:none"
         id="path450" /><path
         d="m 319.477,129.379 c -1.219,0 -2.297,0.5 -3.219,1.469 l 1.047,0.968 c 0.64,-0.703 1.187,-1.015 1.922,-1.015 0.703,0 1.187,0.39 1.187,1.14 0,1.188 -0.656,1.969 -4.797,5.688 l -0.172,1.344 h 5.782 l 0.406,-1.407 -3.969,0.016 c 3.891,-3.156 4.578,-4.406 4.578,-5.797 0,-1.375 -1,-2.406 -2.765,-2.406 z"
         style="fill:#332288;fill-opacity:1;fill-rule:nonzero;stroke:none"
         id="path452" /><path
         d="m 323.902,136.91 c -0.687,0 -1.234,0.563 -1.234,1.25 0,0.578 0.406,1.016 0.984,1.016 0.703,0 1.25,-0.563 1.25,-1.25 0,-0.578 -0.422,-1.016 -1,-1.016 z"
         style="fill:#332288;fill-opacity:1;fill-rule:nonzero;stroke:none"
         id="path454" /><path
         d="m 329.863,129.551 h -1.578 l -3.281,1.875 0.594,1.328 2.265,-1.266 -1.062,7.485 h 1.75 z"
         style="fill:#332288;fill-opacity:1;fill-rule:nonzero;stroke:none"
         id="path456" /><path
         d="m 335.191,132.707 c -0.734,0 -1.484,0.281 -2.187,0.969 0.391,-1.828 1.297,-2.969 2.484,-2.969 0.469,0 0.891,0.125 1.25,0.391 l 0.782,-1.078 c -0.485,-0.391 -1.125,-0.641 -1.969,-0.641 -2.344,0 -4.047,2.062 -4.485,5.172 -0.078,0.453 -0.093,0.89 -0.093,1.281 0,2.031 0.843,3.344 2.89,3.344 2.594,0 3.594,-2.422 3.594,-3.969 0,-1.641 -0.969,-2.5 -2.266,-2.5 z m -1.265,5.141 c -0.813,0 -1.188,-0.516 -1.188,-1.657 0,-0.328 0.032,-0.718 0.094,-1.171 0.516,-0.61 1.172,-1.016 1.844,-1.016 0.625,0 1.015,0.297 1.015,1.187 0,0.922 -0.375,2.657 -1.765,2.657 z"
         style="fill:#332288;fill-opacity:1;fill-rule:nonzero;stroke:none"
         id="path458" /><path
         d="m 343.562,133.941 c 1.313,-0.625 1.844,-1.39 1.844,-2.343 0,-1.438 -1.265,-2.219 -2.812,-2.219 -1.906,0 -3.328,1.125 -3.328,2.734 0,0.782 0.359,1.453 1.14,1.938 -1.656,0.656 -2.156,1.625 -2.156,2.625 0,1.437 1.125,2.5 3.078,2.5 2.266,0 3.797,-1.344 3.797,-3.031 0,-0.954 -0.531,-1.688 -1.563,-2.204 z m -1,-3.296 c 0.75,0 1.126,0.39 1.126,1 0,0.531 -0.157,1.187 -1.282,1.828 l -0.234,-0.094 c -0.766,-0.297 -1.203,-0.609 -1.203,-1.313 0,-0.578 0.375,-1.421 1.593,-1.421 z m -1.109,7.203 c -0.891,0 -1.406,-0.469 -1.406,-1.235 0,-0.64 0.265,-1.484 1.453,-2.047 l 0.375,0.125 c 1.047,0.407 1.469,0.735 1.469,1.391 0,1 -0.719,1.766 -1.891,1.766 z"
         style="fill:#332288;fill-opacity:1;fill-rule:nonzero;stroke:none"
         id="path460" /><path
         d="m 347.168,136.91 c -0.688,0 -1.234,0.563 -1.234,1.25 0,0.578 0.406,1.016 0.984,1.016 0.703,0 1.25,-0.563 1.25,-1.25 0,-0.578 -0.422,-1.016 -1,-1.016 z"
         style="fill:#332288;fill-opacity:1;fill-rule:nonzero;stroke:none"
         id="path462" /><path
         d="m 353.828,129.379 c -3.156,0 -4.047,3.75 -4.047,6.297 0,2.25 0.969,3.5 2.813,3.5 3.156,0 4.047,-3.766 4.047,-6.313 0,-2.234 -0.969,-3.484 -2.813,-3.484 z m -0.062,1.359 c 0.734,0 1.109,0.485 1.109,1.766 0,0.469 -0.031,1.016 -0.141,1.703 -0.375,2.688 -1.015,3.625 -2.046,3.625 -0.75,0 -1.126,-0.516 -1.126,-1.797 0,-0.453 0.047,-1.015 0.141,-1.703 0.359,-2.641 1,-3.594 2.063,-3.594 z"
         style="fill:#332288;fill-opacity:1;fill-rule:nonzero;stroke:none"
         id="path464" /><path
         d="m 358.441,136.91 c -0.687,0 -1.234,0.563 -1.234,1.25 0,0.578 0.406,1.016 0.984,1.016 0.704,0 1.25,-0.563 1.25,-1.25 0,-0.578 -0.421,-1.016 -1,-1.016 z"
         style="fill:#332288;fill-opacity:1;fill-rule:nonzero;stroke:none"
         id="path466" /><path
         d="m 364.363,129.379 c -1.109,0 -2.109,0.375 -3.062,1.172 l 0.812,1.047 c 0.657,-0.563 1.266,-0.844 2,-0.844 0.735,0 1.172,0.359 1.172,1.016 0,0.656 -0.484,1.64 -1.734,1.64 h -0.5 l -0.375,1.281 h 0.765 c 0.922,0 1.469,0.282 1.469,1.11 0,1.203 -0.812,1.984 -1.937,1.984 -0.719,0 -1.282,-0.25 -1.75,-0.906 l -1.125,0.922 c 0.609,0.875 1.578,1.375 2.859,1.375 2.781,0 3.75,-1.969 3.75,-3.235 0,-1.203 -0.797,-1.859 -1.797,-1.937 1.594,-0.406 2.141,-1.484 2.141,-2.391 0,-1.25 -0.922,-2.234 -2.688,-2.234 z"
         style="fill:#332288;fill-opacity:1;fill-rule:nonzero;stroke:none"
         id="path468" /><path
         d="m 368.672,133.098 h 1.234 l 0.766,-3.797 h -1.703 z m 2.672,0 h 1.234 l 0.766,-3.797 h -1.688 z"
         style="fill:#332288;fill-opacity:1;fill-rule:nonzero;stroke:none"
         id="path470" /><path
         d="m 376.277,140.91 c 2.219,0 2.891,-0.672 3.094,-2.172 l 0.391,-2.797 c 0.125,-0.781 0.39,-1.14 1.125,-1.14 l 0.218,-1.469 c -0.781,0 -0.937,-0.281 -0.812,-1.078 l 0.391,-2.766 c 0.203,-1.5 -0.563,-2.25 -2.547,-2.25 l -0.125,1.297 c 0.875,0 1.109,0.203 1.031,0.844 l -0.422,2.937 c -0.172,1.204 0.297,1.516 1.016,1.719 -0.828,0.25 -1.344,0.563 -1.5,1.719 l -0.407,2.937 c -0.093,0.641 -0.437,0.922 -1.312,0.922 z"
         style="fill:#332288;fill-opacity:1;fill-rule:nonzero;stroke:none"
         id="path472" /><path
         d="M 443.535,161.734 H 430.59 c -0.813,0 -1.477,0.664 -1.477,1.477 v 3.48 h 3.59 v -0.57 c 0,-0.441 0.359,-0.797 0.801,-0.797 h 7.117 c 0.441,0 0.801,0.356 0.801,0.797 v 0.57 h 3.59 v -3.48 c 0,-0.813 -0.664,-1.477 -1.477,-1.477 z"
         style="fill:#ed1844;fill-opacity:1;fill-rule:evenodd;stroke:none"
         id="path474" /><path
         d="m 441.422,172.902 c 0,0.442 -0.36,0.801 -0.801,0.801 h -7.117 c -0.442,0 -0.801,-0.359 -0.801,-0.801 v -0.566 h -3.59 v 3.48 c 0,0.813 0.664,1.477 1.477,1.477 h 12.945 c 0.813,0 1.477,-0.664 1.477,-1.477 v -3.48 h -3.59 z"
         style="fill:#ed1844;fill-opacity:1;fill-rule:evenodd;stroke:none"
         id="path476" /><path
         d="m 429.113,167.719 h 3.59 v 3.59 h -3.59 z"
         style="fill:#ed1844;fill-opacity:1;fill-rule:evenodd;stroke:none"
         id="path478" /><path
         d="m 441.422,167.719 h 3.59 v 3.59 h -3.59 z"
         style="fill:#ed1844;fill-opacity:1;fill-rule:evenodd;stroke:none"
         id="path480" /><path
         d="m 393.867,164.965 c -1.781,0 -3.047,1.031 -3.047,2.515 0,1.5 0.985,2.219 2.86,2.782 1.64,0.515 2.093,0.937 2.093,1.875 0,1.156 -0.937,1.718 -2.078,1.718 -1.047,0 -1.797,-0.375 -2.515,-0.984 l -0.75,0.828 c 0.797,0.781 1.89,1.25 3.281,1.25 2.172,0 3.437,-1.187 3.437,-2.859 0,-1.844 -1.312,-2.453 -2.843,-2.922 -1.735,-0.531 -2.125,-0.922 -2.125,-1.734 0,-0.938 0.781,-1.375 1.75,-1.375 0.797,0 1.468,0.25 2.187,0.843 l 0.735,-0.812 c -0.813,-0.735 -1.657,-1.125 -2.985,-1.125 z"
         style="fill:#2e3436;fill-opacity:1;fill-rule:nonzero;stroke:none"
         id="path482" /><path
         d="m 399.672,163.855 c -0.531,0 -0.891,0.375 -0.891,0.891 0,0.484 0.36,0.859 0.891,0.859 0.547,0 0.922,-0.375 0.922,-0.859 0,-0.516 -0.375,-0.891 -0.922,-0.891 z m 0.672,3.547 h -1.297 v 7.375 h 1.297 z"
         style="fill:#2e3436;fill-opacity:1;fill-rule:nonzero;stroke:none"
         id="path484" /><path
         d="m 406.227,173.559 c -0.36,0.218 -0.657,0.328 -0.985,0.328 -0.64,0 -0.875,-0.36 -0.875,-1.094 v -4.406 h 1.61 l 0.14,-0.985 h -1.75 v -1.828 l -1.297,0.156 v 1.672 h -1.281 v 0.985 h 1.281 v 4.453 c 0,1.375 0.75,2.109 2,2.109 0.625,0 1.157,-0.172 1.641,-0.515 z"
         style="fill:#2e3436;fill-opacity:1;fill-rule:nonzero;stroke:none"
         id="path486" /><path
         d="m 413.484,170.871 c 0,-2.25 -1.046,-3.641 -3.046,-3.641 -1.907,0 -3.063,1.641 -3.063,3.938 0,2.328 1.203,3.781 3.266,3.781 1.015,0 1.843,-0.359 2.578,-0.922 l -0.563,-0.781 c -0.64,0.453 -1.187,0.656 -1.922,0.656 -1.062,0 -1.859,-0.672 -1.984,-2.375 h 4.703 c 0.016,-0.172 0.031,-0.406 0.031,-0.656 z m -1.281,-0.297 h -3.453 c 0.094,-1.64 0.734,-2.328 1.719,-2.328 1.156,0 1.734,0.813 1.734,2.25 z"
         style="fill:#2e3436;fill-opacity:1;fill-rule:nonzero;stroke:none"
         id="path488" /><path
         d="m 422.504,165.418 h -1.125 l -2.906,1.781 0.562,0.922 2.188,-1.344 v 8 h 1.281 z"
         style="fill:#2e3436;fill-opacity:1;fill-rule:nonzero;stroke:none"
         id="path490" /><text
         xml:space="preserve"
         style="font-style:normal;font-weight:normal;font-size:20px;line-height:1.25;font-family:sans-serif;letter-spacing:0px;word-spacing:0px;fill:#000000;fill-opacity:1;stroke:none;stroke-width:0.75"
         x="181.38605"
         y="88.156998"
         id="text3181"><tspan
           sodipodi:role="line"
           id="tspan3179"
           style="font-style:normal;font-variant:normal;font-weight:600;font-stretch:normal;font-size:20px;font-family:'Fira Sans';-inkscape-font-specification:'Fira Sans Semi-Bold';fill:#44aa99;fill-opacity:1;stroke-width:0.75"
           x="181.38605"
           y="88.156998">compute</tspan></text><g
         id="g76"
         transform="rotate(90)"
         style="fill:#332288;fill-opacity:1;stroke:#332288;stroke-opacity:1"><path
           d="m 128.355,-182.57 -18.027,-6.629 18.027,-6.629 c -2.878,3.914 -2.863,9.269 0,13.258 z"
           style="fill:#332288;fill-opacity:1;fill-rule:evenodd;stroke:#332288;stroke-width:1.03125;stroke-linecap:butt;stroke-linejoin:round;stroke-miterlimit:4;stroke-dasharray:none;stroke-opacity:1"
           id="path78" /></g></g></g></svg>
