<?xml version="1.0" encoding="UTF-8" standalone="no"?>
<!-- Created with Inkscape (http://www.inkscape.org/) -->

<svg
   version="1.1"
   id="svg2"
   xml:space="preserve"
   width="819.35358"
   height="200.00024"
   viewBox="0 0 819.35358 200.00024"
   sodipodi:docname="openstack-share.svg"
   inkscape:version="1.1.2 (0a00cf5339, 2022-02-04)"
   xmlns:inkscape="http://www.inkscape.org/namespaces/inkscape"
   xmlns:sodipodi="http://sodipodi.sourceforge.net/DTD/sodipodi-0.dtd"
   xmlns="http://www.w3.org/2000/svg"
   xmlns:svg="http://www.w3.org/2000/svg"><defs
     id="defs6"><clipPath
       clipPathUnits="userSpaceOnUse"
       id="clipPath32"><path
         d="M 0,0 H 615 V 151 H 0 Z"
         id="path30" /></clipPath><clipPath
       clipPathUnits="userSpaceOnUse"
       id="clipPath98"><path
         d="M 0,0 H 615 V 151 H 0 Z"
         id="path96" /></clipPath></defs><sodipodi:namedview
     id="namedview4"
     pagecolor="#ffffff"
     bordercolor="#666666"
     borderopacity="1.0"
     inkscape:pageshadow="2"
     inkscape:pageopacity="0.0"
     inkscape:pagecheckerboard="0"
     showgrid="false"
     inkscape:zoom="1.5292543"
     inkscape:cx="391.04026"
     inkscape:cy="99.721806"
     inkscape:window-width="1920"
     inkscape:window-height="1031"
     inkscape:window-x="1920"
     inkscape:window-y="25"
     inkscape:window-maximized="1"
     inkscape:current-layer="g10" /><g
     id="g8"
     inkscape:groupmode="layer"
     inkscape:label="openstack-share"
     transform="matrix(1.3333333,0,0,1.3333333,0,1.0000061e-6)"><g
       id="g10"><path
         d="m 21.645,49.215 c -1.614,0 -2.922,1.308 -2.922,2.922 0,1.613 1.308,2.922 2.922,2.922 1.609,0 2.917,-1.309 2.917,-2.922 0,-1.614 -1.308,-2.922 -2.917,-2.922 z m 14.015,0 c -1.609,0 -2.918,1.308 -2.918,2.922 0,1.613 1.309,2.922 2.918,2.922 1.613,0 2.922,-1.309 2.922,-2.922 0,-1.614 -1.309,-2.922 -2.922,-2.922 z M 28.652,26.438 c -12.898,0 -23.363,10.468 -23.363,23.363 0,12.898 10.465,23.363 23.363,23.363 12.895,0 23.364,-10.465 23.364,-23.363 0,-12.895 -10.469,-23.363 -23.364,-23.363 z m 0,42.054 c -10.304,0 -18.691,-8.387 -18.691,-18.691 0,-0.676 0.047,-1.356 0.117,-2.008 5.516,-2.453 9.883,-6.965 12.172,-12.547 4.23,5.981 11.191,9.883 19.066,9.883 1.821,0 3.575,-0.211 5.254,-0.609 0.492,1.66 0.774,3.433 0.774,5.281 0,10.304 -8.387,18.691 -18.692,18.691 z"
         style="fill:#332288;fill-opacity:1;fill-rule:nonzero;stroke:none"
         id="path12" /><g
         id="g26"
         style="fill:#44aa99;fill-opacity:1"><g
           id="g28"
           style="fill:#44aa99;fill-opacity:1" /><g
           id="g40"
           style="fill:#44aa99;fill-opacity:1"><g
             clip-path="url(#clipPath32)"
             opacity="0.1"
             id="g38"
             style="fill:#44aa99;fill-opacity:1"><g
               id="g36"
               style="fill:#44aa99;fill-opacity:1"><path
                 d="m 142.41,0 c -4.375,0 -7.894,3.523 -7.894,7.895 v 134.21 c 0,4.375 3.519,7.895 7.894,7.895 h 269.211 c 4.375,0 7.895,-3.52 7.895,-7.895 V 7.895 C 419.516,3.523 415.996,0 411.621,0 Z m 13.656,25.031 h 80.797 c 5.664,0 10.227,4.563 10.227,10.227 v 35.797 c 0,5.664 -4.563,10.226 -10.227,10.226 h -80.797 c -5.664,0 -10.226,-4.562 -10.226,-10.226 V 35.258 c 0,-5.664 4.562,-10.227 10.226,-10.227 z m 163.313,0 h 80.797 c 5.664,0 10.226,4.563 10.226,10.227 v 35.797 c 0,5.664 -4.562,10.226 -10.226,10.226 h -80.797 c -5.664,0 -10.227,-4.562 -10.227,-10.226 V 35.258 c 0,-5.664 4.563,-10.227 10.227,-10.227 z"
                 style="fill:#44aa99;fill-opacity:1;fill-rule:nonzero;stroke:none"
                 id="path34" /></g></g></g></g><path
         d="m 408.066,101.164 h -21.757 c -1.368,0 -2.485,1.117 -2.485,2.484 v 5.852 h 6.035 v -0.957 c 0,-0.742 0.602,-1.344 1.344,-1.344 h 11.969 c 0.742,0 1.344,0.602 1.344,1.344 v 0.957 h 6.035 v -5.852 c 0,-1.367 -1.117,-2.484 -2.485,-2.484 z"
         style="fill:#ed1844;fill-opacity:1;fill-rule:evenodd;stroke:none"
         id="path42" /><path
         d="m 404.516,119.941 c 0,0.743 -0.602,1.344 -1.344,1.344 h -11.969 c -0.742,0 -1.344,-0.601 -1.344,-1.344 v -0.953 h -6.035 v 5.848 c 0,1.367 1.117,2.484 2.485,2.484 h 21.757 c 1.368,0 2.485,-1.117 2.485,-2.484 v -5.848 h -6.035 z"
         style="fill:#ed1844;fill-opacity:1;fill-rule:evenodd;stroke:none"
         id="path44" /><path
         d="m 383.824,111.227 h 6.035 v 6.035 h -6.035 z"
         style="fill:#ed1844;fill-opacity:1;fill-rule:evenodd;stroke:none"
         id="path46" /><path
         d="m 404.516,111.227 h 6.035 v 6.035 h -6.035 z"
         style="fill:#ed1844;fill-opacity:1;fill-rule:evenodd;stroke:none"
         id="path48" /><g
         id="g50"
         style="stroke:#332288;stroke-opacity:1;stroke-width:1.22475003;stroke-miterlimit:4;stroke-dasharray:3.67425009,3.67425009;stroke-dashoffset:0"><path
           d="M 143.402,65.438 H 58.652"
           style="fill:none;stroke:#332288;stroke-width:1.22475003;stroke-linecap:butt;stroke-linejoin:miter;stroke-miterlimit:4;stroke-dasharray:3.67425009,3.67425009;stroke-dashoffset:0;stroke-opacity:1"
           id="path52" /></g><g
         id="g54"
         style="fill:#332288;fill-opacity:1"><path
           d="m 66.672,68.766 -9.016,-3.317 9.016,-3.312 c -1.442,1.957 -1.434,4.633 0,6.629 z"
           style="fill:#332288;fill-opacity:1;fill-rule:evenodd;stroke:#2e3436;stroke-width:0.515624;stroke-linecap:butt;stroke-linejoin:round;stroke-miterlimit:4;stroke-dasharray:none;stroke-opacity:1"
           id="path56" /></g><g
         id="g58"
         style="stroke:#332288;stroke-opacity:1;stroke-width:1.07475003;stroke-miterlimit:4;stroke-dasharray:none;stroke-dashoffset:0"><path
           d="m 58.652,35.438 h 83.25"
           style="fill:none;stroke:#332288;stroke-width:1.07475003;stroke-linecap:butt;stroke-linejoin:miter;stroke-miterlimit:4;stroke-dasharray:none;stroke-opacity:1;stroke-dashoffset:0"
           id="path60" /></g><g
         id="g62"
         transform="scale(-1)"
         style="fill:#332288;fill-opacity:1"><path
           d="m -133.883,-32.109 -9.015,-3.317 9.015,-3.312 c -1.441,1.957 -1.433,4.633 0,6.629 z"
           style="fill:#332288;fill-opacity:1;fill-rule:evenodd;stroke:#2e3436;stroke-width:0.515624;stroke-linecap:butt;stroke-linejoin:round;stroke-miterlimit:4;stroke-dasharray:none;stroke-opacity:1"
           id="path64" /></g><g
         id="g66"
         style="stroke:#332288;stroke-opacity:1;stroke-width:1.22475003;stroke-miterlimit:4;stroke-dasharray:1.22475003,4.89900012;stroke-dashoffset:0"><path
           d="M 224.516,82.5 V 120 h -60 V 82.5"
           style="fill:none;stroke:#332288;stroke-width:1.22475003;stroke-linecap:butt;stroke-linejoin:round;stroke-miterlimit:4;stroke-dasharray:1.22475003,4.89900012;stroke-dashoffset:0;stroke-opacity:1"
           id="path68" /></g><g
         id="g70"
         transform="rotate(90)"
         style="fill:#332288;fill-opacity:1"><path
           d="m 90.52,-161.188 -9.016,-3.316 9.016,-3.312 c -1.442,1.957 -1.434,4.632 0,6.628 z"
           style="fill:#332288;fill-opacity:1;fill-rule:evenodd;stroke:#2e3436;stroke-width:0.515624;stroke-linecap:butt;stroke-linejoin:round;stroke-miterlimit:4;stroke-dasharray:none;stroke-opacity:1"
           id="path72" /></g><path
         d="m 89.621,15.281 c -1.359,1.938 -2.594,3.61 -2.594,6.922 0,3.328 1.235,4.985 2.594,6.938 l 0.813,-0.563 c -1.25,-1.859 -2.063,-3.375 -2.063,-6.375 0,-3 0.813,-4.5 2.063,-6.359 z"
         style="fill:#332288;fill-opacity:1;fill-rule:nonzero;stroke:none"
         id="path74" /><path
         d="m 95.516,17.75 h -1.125 l -2.907,1.781 0.563,0.922 2.187,-1.344 v 8 h 1.282 z"
         style="fill:#332288;fill-opacity:1;fill-rule:nonzero;stroke:none"
         id="path76" /><path
         d="m 98.438,15.281 -0.813,0.563 c 1.25,1.859 2.063,3.359 2.063,6.359 0,3 -0.813,4.516 -2.063,6.375 l 0.813,0.563 c 1.374,-1.953 2.593,-3.61 2.593,-6.938 0,-3.312 -1.219,-4.984 -2.593,-6.922 z"
         style="fill:#332288;fill-opacity:1;fill-rule:nonzero;stroke:none"
         id="path78" /><path
         d="m 191.77,127.68 c -1.36,1.937 -2.594,3.609 -2.594,6.922 0,3.328 1.234,4.984 2.594,6.937 l 0.812,-0.562 c -1.25,-1.86 -2.062,-3.375 -2.062,-6.375 0,-3 0.812,-4.5 2.062,-6.36 z"
         style="fill:#332288;fill-opacity:1;fill-rule:nonzero;stroke:none"
         id="path80" /><path
         d="m 196.305,130.008 c -1.016,0 -1.875,0.359 -2.688,1.094 l 0.672,0.781 c 0.641,-0.594 1.203,-0.844 1.938,-0.844 0.937,0 1.562,0.547 1.562,1.422 0,1.094 -0.781,1.656 -1.703,1.656 h -0.469 l -0.156,1 h 0.703 c 1.125,0 1.859,0.391 1.859,1.672 0,1.109 -0.718,1.844 -1.89,1.844 -0.766,0 -1.391,-0.281 -2,-0.938 l -0.781,0.719 c 0.718,0.859 1.703,1.266 2.828,1.266 1.937,0 3.187,-1.235 3.187,-2.875 0,-1.407 -0.937,-2.157 -2.109,-2.266 1.047,-0.25 1.812,-0.969 1.812,-2.156 0,-1.266 -0.984,-2.375 -2.765,-2.375 z"
         style="fill:#332288;fill-opacity:1;fill-rule:nonzero;stroke:none"
         id="path82" /><path
         d="m 201.508,127.68 -0.813,0.562 c 1.25,1.86 2.063,3.36 2.063,6.36 0,3 -0.813,4.515 -2.063,6.375 l 0.813,0.562 c 1.375,-1.953 2.594,-3.609 2.594,-6.937 0,-3.313 -1.219,-4.985 -2.594,-6.922 z"
         style="fill:#332288;fill-opacity:1;fill-rule:nonzero;stroke:none"
         id="path84" /><g
         id="g92"><g
           id="g94" /><g
           id="g106"
           style="fill:#ffab40;fill-opacity:1"><g
             clip-path="url(#clipPath98)"
             opacity="0.25"
             id="g104"
             style="fill:#ffab40;fill-opacity:1"><g
               id="g102"
               style="fill:#ffab40;fill-opacity:1"><path
                 d="m 494.91,0 c -4.375,0 -7.894,3.523 -7.894,7.895 v 134.21 c 0,4.372 3.519,7.895 7.894,7.895 h 111.711 c 4.375,0 7.895,-3.523 7.895,-7.895 V 7.895 C 614.516,3.523 610.996,0 606.621,0 Z m 13.656,25.031 h 80.797 c 5.664,0 10.227,4.563 10.227,10.227 v 35.797 c 0,5.664 -4.563,10.226 -10.227,10.226 h -80.797 c -5.664,0 -10.226,-4.562 -10.226,-10.226 V 35.258 c 0,-5.664 4.562,-10.227 10.226,-10.227 z"
                 style="fill:#ffab40;fill-opacity:1;fill-rule:nonzero;stroke:none"
                 id="path100" /></g></g></g></g><path
         d="m 604.566,101.164 h -21.757 c -1.368,0 -2.485,1.117 -2.485,2.484 v 5.852 h 6.035 v -0.957 c 0,-0.742 0.602,-1.344 1.344,-1.344 h 11.969 c 0.742,0 1.344,0.602 1.344,1.344 v 0.957 h 6.035 v -5.852 c 0,-1.367 -1.117,-2.484 -2.485,-2.484 z"
         style="fill:#ed1844;fill-opacity:1;fill-rule:evenodd;stroke:none"
         id="path108" /><path
         d="m 601.016,119.941 c 0,0.743 -0.602,1.344 -1.344,1.344 h -11.969 c -0.742,0 -1.344,-0.601 -1.344,-1.344 v -0.953 h -6.035 v 5.848 c 0,1.367 1.117,2.484 2.485,2.484 h 21.757 c 1.368,0 2.485,-1.117 2.485,-2.484 v -5.848 h -6.035 z"
         style="fill:#ed1844;fill-opacity:1;fill-rule:evenodd;stroke:none"
         id="path110" /><path
         d="m 580.324,111.227 h 6.035 v 6.035 h -6.035 z"
         style="fill:#ed1844;fill-opacity:1;fill-rule:evenodd;stroke:none"
         id="path112" /><path
         d="m 601.016,111.227 h 6.035 v 6.035 h -6.035 z"
         style="fill:#ed1844;fill-opacity:1;fill-rule:evenodd;stroke:none"
         id="path114" /><g
         id="g122"
         style="stroke:#44aa99;stroke-opacity:1;stroke-width:2.34975006;stroke-miterlimit:4;stroke-dasharray:none"><path
           d="m 156.066,25.031 h 80.797 c 5.664,0 10.227,4.563 10.227,10.227 v 35.797 c 0,5.664 -4.563,10.226 -10.227,10.226 h -80.797 c -5.664,0 -10.226,-4.562 -10.226,-10.226 V 35.258 c 0,-5.664 4.562,-10.227 10.226,-10.227 z"
           style="fill:none;stroke:#44aa99;stroke-width:2.34975006;stroke-linecap:butt;stroke-linejoin:round;stroke-miterlimit:4;stroke-dasharray:none;stroke-opacity:1"
           id="path124" /></g><g
         id="g140"
         style="stroke:#cc6677;stroke-opacity:1;stroke-width:2.34975006;stroke-miterlimit:4;stroke-dasharray:none"><path
           d="m 318.629,24.188 h 80.797 c 5.664,0 10.226,4.562 10.226,10.226 v 35.797 c 0,5.664 -4.562,10.227 -10.226,10.227 h -80.797 c -5.664,0 -10.227,-4.563 -10.227,-10.227 V 34.414 c 0,-5.664 4.563,-10.226 10.227,-10.226 z"
           style="fill:none;stroke:#cc6677;stroke-width:2.34975006;stroke-linecap:butt;stroke-linejoin:round;stroke-miterlimit:4;stroke-dasharray:none;stroke-opacity:1"
           id="path142" /></g><g
         id="g154"
         style="stroke:#cc6677;stroke-opacity:1;stroke-width:2.34975006;stroke-miterlimit:4;stroke-dasharray:none"><path
           d="m 508.566,25.031 h 80.797 c 5.664,0 10.227,4.563 10.227,10.227 v 35.797 c 0,5.664 -4.563,10.226 -10.227,10.226 h -80.797 c -5.664,0 -10.226,-4.562 -10.226,-10.226 V 35.258 c 0,-5.664 4.562,-10.227 10.226,-10.227 z"
           style="fill:none;stroke:#cc6677;stroke-width:2.34975006;stroke-linecap:butt;stroke-linejoin:round;stroke-miterlimit:4;stroke-dasharray:none;stroke-opacity:1"
           id="path156" /></g><g
         id="g168"
         style="stroke:#332288;stroke-opacity:1;stroke-width:1.07475003;stroke-miterlimit:4;stroke-dasharray:none;stroke-dashoffset:0"><path
           d="m 247.652,35.438 h 59.25"
           style="fill:none;stroke:#332288;stroke-width:1.07475003;stroke-linecap:butt;stroke-linejoin:miter;stroke-miterlimit:4;stroke-dasharray:none;stroke-opacity:1;stroke-dashoffset:0"
           id="path170" /></g><g
         id="g172"
         transform="scale(-1)"
         style="fill:#332288;fill-opacity:1"><path
           d="m -298.883,-32.109 -9.015,-3.317 9.015,-3.312 c -1.441,1.957 -1.433,4.633 0,6.629 z"
           style="fill:#332288;fill-opacity:1;fill-rule:evenodd;stroke:#2e3436;stroke-width:0.515624;stroke-linecap:butt;stroke-linejoin:round;stroke-miterlimit:4;stroke-dasharray:none;stroke-opacity:1"
           id="path174" /></g><g
         id="g176"
         style="stroke:#332288;stroke-opacity:1;stroke-width:1.22475003;stroke-miterlimit:4;stroke-dasharray:3.67425009,3.67425009;stroke-dashoffset:0"><path
           d="m 309.152,64.688 h -59.25"
           style="fill:none;stroke:#332288;stroke-width:1.22475003;stroke-linecap:butt;stroke-linejoin:miter;stroke-miterlimit:4;stroke-dasharray:3.67425009,3.67425009;stroke-dashoffset:0;stroke-opacity:1"
           id="path178" /></g><g
         id="g180"
         style="fill:#332288;fill-opacity:1"><path
           d="m 257.922,68.016 -9.016,-3.317 9.016,-3.312 c -1.442,1.957 -1.434,4.633 0,6.629 z"
           style="fill:#332288;fill-opacity:1;fill-rule:evenodd;stroke:#2e3436;stroke-width:0.515624;stroke-linecap:butt;stroke-linejoin:round;stroke-miterlimit:4;stroke-dasharray:none;stroke-opacity:1"
           id="path182" /></g><path
         d="m 269.879,15.281 c -1.359,1.938 -2.594,3.61 -2.594,6.922 0,3.328 1.235,4.985 2.594,6.938 l 0.812,-0.563 c -1.25,-1.859 -2.062,-3.375 -2.062,-6.375 0,-3 0.812,-4.5 2.062,-6.359 z"
         style="fill:#332288;fill-opacity:1;fill-rule:nonzero;stroke:none"
         id="path184" /><path
         d="m 274.445,17.609 c -1.172,0 -2.078,0.469 -2.843,1.407 l 0.875,0.672 c 0.593,-0.719 1.125,-1.016 1.906,-1.016 0.906,0 1.531,0.562 1.531,1.547 0,1.531 -0.812,2.422 -4.109,5.875 v 1.015 h 5.531 l 0.156,-1.078 h -4.219 c 2.875,-2.875 3.985,-4.109 3.985,-5.859 0,-1.469 -1.094,-2.563 -2.813,-2.563 z"
         style="fill:#332288;fill-opacity:1;fill-rule:nonzero;stroke:none"
         id="path186" /><path
         d="m 284.484,25.391 v -3.375 c 0,-1.547 -0.812,-2.454 -2.593,-2.454 -0.813,0 -1.625,0.172 -2.547,0.5 L 279.672,21 c 0.75,-0.25 1.437,-0.391 1.984,-0.391 1.032,0 1.547,0.391 1.547,1.453 v 0.547 h -1.141 c -2.062,0 -3.25,0.86 -3.25,2.438 0,1.328 0.891,2.234 2.36,2.234 0.89,0 1.672,-0.343 2.203,-1.109 0.219,0.734 0.687,1.016 1.437,1.109 l 0.297,-0.906 c -0.39,-0.141 -0.625,-0.344 -0.625,-0.984 z m -3.015,0.921 c -0.844,0 -1.281,-0.468 -1.281,-1.328 0,-1.015 0.687,-1.515 2.046,-1.515 h 0.969 v 1.687 c -0.422,0.782 -0.984,1.156 -1.734,1.156 z"
         style="fill:#332288;fill-opacity:1;fill-rule:nonzero;stroke:none"
         id="path188" /><path
         d="m 287.18,15.281 -0.813,0.563 c 1.25,1.859 2.063,3.359 2.063,6.359 0,3 -0.813,4.516 -2.063,6.375 l 0.813,0.563 c 1.375,-1.953 2.593,-3.61 2.593,-6.938 0,-3.312 -1.218,-4.984 -2.593,-6.922 z"
         style="fill:#332288;fill-opacity:1;fill-rule:nonzero;stroke:none"
         id="path190" /><g
         id="g192"
         style="fill:#aa4499;fill-opacity:1;stroke:#aa4499;stroke-opacity:1"><path
           d="m 494.965,53.156 h -81.75"
           style="fill:#aa4499;stroke:#aa4499;stroke-width:1.5;stroke-linecap:butt;stroke-linejoin:miter;stroke-miterlimit:4;stroke-dasharray:1.5, 4.5;stroke-dashoffset:0;stroke-opacity:1;fill-opacity:1"
           id="path194" /></g><g
         id="g196"
         transform="scale(-1)"
         style="fill:#aa4499;fill-opacity:1;stroke:#aa4499;stroke-opacity:1"><path
           d="m -487.117,-49.527 -9.836,-3.614 9.836,-3.617 c -1.571,2.137 -1.563,5.055 0,7.231 z"
           style="fill:#aa4499;fill-opacity:1;fill-rule:evenodd;stroke:#aa4499;stroke-width:0.5625;stroke-linecap:butt;stroke-linejoin:round;stroke-miterlimit:4;stroke-dasharray:none;stroke-opacity:1"
           id="path198" /></g><g
         id="g200"
         style="fill:#aa4499;fill-opacity:1;stroke:#aa4499;stroke-opacity:1"><path
           d="m 421.062,56.785 -9.835,-3.613 9.835,-3.617 c -1.57,2.136 -1.562,5.054 0,7.23 z"
           style="fill:#aa4499;fill-opacity:1;fill-rule:evenodd;stroke:#aa4499;stroke-width:0.5625;stroke-linecap:butt;stroke-linejoin:round;stroke-miterlimit:4;stroke-dasharray:none;stroke-opacity:1"
           id="path202" /></g><path
         d="m 422.816,65.344 -0.531,3.75 c -0.39,-0.485 -0.969,-0.813 -1.75,-0.813 -2.594,0 -3.531,2.875 -3.531,4.844 0,1.828 0.781,2.969 2.328,2.969 1,0 1.719,-0.563 2.234,-1.344 l -0.015,1.141 h 1.547 l 1.453,-10.36 z m -1.937,4.281 c 0.562,0 0.922,0.25 1.25,0.687 l -0.406,2.922 c -0.547,0.86 -1.11,1.516 -1.875,1.516 -0.594,0 -1,-0.422 -1,-1.562 0,-1.344 0.453,-3.563 2.031,-3.563 z"
         style="fill:#aa4499;fill-opacity:1;fill-rule:nonzero;stroke:none"
         id="path204" /><path
         d="m 431.809,70.234 c 0,-1.046 -0.86,-1.953 -2.563,-1.953 -2.984,0 -4.031,2.719 -4.031,4.735 0,1.875 1.031,3.078 3.047,3.078 1.078,0 2.015,-0.375 2.812,-0.938 l -0.672,-1.125 c -0.672,0.469 -1.265,0.688 -1.937,0.688 -0.813,0 -1.406,-0.391 -1.422,-1.563 2.422,-0.234 4.766,-0.828 4.766,-2.922 z M 427.105,72 c 0.204,-1.203 0.75,-2.453 2.016,-2.453 0.688,0 0.875,0.437 0.875,0.765 0,0.938 -0.906,1.485 -2.891,1.688 z"
         style="fill:#aa4499;fill-opacity:1;fill-rule:nonzero;stroke:none"
         id="path206" /><path
         d="m 435.871,65.328 -1.781,0.188 -1.406,10.031 c 1.031,0.375 1.875,0.547 2.843,0.547 3.203,0 4.172,-2.813 4.172,-4.922 0,-1.844 -0.812,-2.891 -2.281,-2.891 -0.766,0 -1.484,0.313 -2.078,0.875 z m 0.906,4.297 c 0.625,0 1.078,0.359 1.078,1.516 0,1.515 -0.578,3.609 -2.171,3.609 -0.438,0 -0.719,-0.062 -1.094,-0.188 l 0.547,-3.984 c 0.484,-0.547 1,-0.953 1.64,-0.953 z"
         style="fill:#aa4499;fill-opacity:1;fill-rule:nonzero;stroke:none"
         id="path208" /><path
         d="m 443.16,64.734 c -0.64,0 -1.14,0.438 -1.219,1.032 -0.078,0.64 0.329,1.14 1,1.14 0.641,0 1.125,-0.437 1.219,-1.031 0.078,-0.641 -0.312,-1.141 -1,-1.141 z m 0.391,3.75 h -1.766 l -1.031,7.407 h 1.766 z"
         style="fill:#aa4499;fill-opacity:1;fill-rule:nonzero;stroke:none"
         id="path210" /><path
         d="m 448.742,68.281 c -3.031,0 -4.125,2.828 -4.125,4.922 0,1.75 0.813,2.891 2.391,2.891 0.937,0 1.656,-0.516 2.203,-1.25 0.172,0.797 0.75,1.14 1.531,1.234 l 0.5,-1.187 c -0.265,-0.11 -0.422,-0.25 -0.422,-0.625 0,-0.078 0.016,-0.188 0.032,-0.313 l 0.734,-4.969 c -0.984,-0.515 -1.906,-0.703 -2.844,-0.703 z m -0.031,1.313 c 0.422,0 0.672,0.047 1.016,0.187 l -0.563,3.781 c -0.5,0.704 -1,1.188 -1.641,1.188 -0.656,0 -1.062,-0.422 -1.062,-1.547 0,-1.547 0.609,-3.609 2.25,-3.609 z"
         style="fill:#aa4499;fill-opacity:1;fill-rule:nonzero;stroke:none"
         id="path212" /><path
         d="m 457.688,68.281 c -1.047,0 -1.891,0.625 -2.563,1.578 l 0.078,-1.375 h -1.531 l -1.031,7.407 h 1.765 l 0.578,-4.235 c 0.563,-1.062 1.235,-1.906 1.969,-1.906 0.438,0 0.735,0.234 0.594,1.109 l -0.703,5.032 h 1.765 l 0.735,-5.297 c 0.218,-1.453 -0.453,-2.313 -1.656,-2.313 z"
         style="fill:#aa4499;fill-opacity:1;fill-rule:nonzero;stroke:none"
         id="path214" /><path
         d="m 467.285,65.328 -1.781,0.188 -1.406,10.031 c 1.031,0.375 1.875,0.547 2.843,0.547 3.204,0 4.172,-2.813 4.172,-4.922 0,-1.844 -0.812,-2.891 -2.281,-2.891 -0.766,0 -1.484,0.313 -2.078,0.875 z m 0.906,4.297 c 0.625,0 1.079,0.359 1.079,1.516 0,1.515 -0.579,3.609 -2.172,3.609 -0.438,0 -0.719,-0.062 -1.094,-0.188 l 0.547,-3.984 c 0.484,-0.547 1,-0.953 1.64,-0.953 z"
         style="fill:#aa4499;fill-opacity:1;fill-rule:nonzero;stroke:none"
         id="path216" /><path
         d="m 475.344,65.328 -1.782,0.188 -1.203,8.562 c -0.187,1.344 0.407,2.016 1.516,2.016 0.406,0 0.844,-0.078 1.234,-0.266 l -0.265,-1.266 c -0.141,0.047 -0.297,0.094 -0.422,0.094 -0.266,0 -0.36,-0.14 -0.313,-0.531 z"
         style="fill:#aa4499;fill-opacity:1;fill-rule:nonzero;stroke:none"
         id="path218" /><path
         d="m 480.047,68.281 c -3,0 -3.985,2.735 -3.985,4.703 0,1.922 1.063,3.11 2.985,3.11 3.015,0 3.984,-2.782 3.984,-4.719 0,-1.891 -1.062,-3.094 -2.984,-3.094 z m -0.094,1.344 c 0.828,0 1.266,0.5 1.25,1.625 0,1.25 -0.391,3.5 -2.062,3.5 -0.829,0 -1.266,-0.516 -1.266,-1.625 0,-1.266 0.406,-3.5 2.078,-3.5 z"
         style="fill:#aa4499;fill-opacity:1;fill-rule:nonzero;stroke:none"
         id="path220" /><path
         d="m 487.363,65.328 -1.781,0.188 -1.406,10.031 c 1.031,0.375 1.875,0.547 2.844,0.547 3.203,0 4.171,-2.813 4.171,-4.922 0,-1.844 -0.812,-2.891 -2.281,-2.891 -0.765,0 -1.484,0.313 -2.078,0.875 z m 0.907,4.297 c 0.625,0 1.078,0.359 1.078,1.516 0,1.515 -0.578,3.609 -2.172,3.609 -0.438,0 -0.719,-0.062 -1.094,-0.188 l 0.547,-3.984 c 0.484,-0.547 1,-0.953 1.641,-0.953 z"
         style="fill:#aa4499;fill-opacity:1;fill-rule:nonzero;stroke:none"
         id="path222" /><path
         d="m 446.121,26.438 c -1.641,1.937 -3.109,3.687 -3.578,7 -0.469,3.359 0.547,5.124 1.656,7.062 l 1.203,-0.688 c -1,-1.859 -1.453,-3.515 -1.062,-6.265 0.39,-2.797 1.328,-4.438 2.859,-6.297 z"
         style="fill:#aa4499;fill-opacity:1;fill-rule:nonzero;stroke:none"
         id="path224" /><path
         d="m 450.402,28.797 c -1.218,0 -2.297,0.5 -3.218,1.469 l 1.046,0.968 c 0.641,-0.703 1.188,-1.015 1.922,-1.015 0.703,0 1.188,0.39 1.188,1.14 0,1.188 -0.656,1.969 -4.797,5.688 l -0.172,1.344 h 5.781 L 452.559,36.984 448.59,37 c 3.89,-3.156 4.578,-4.406 4.578,-5.797 0,-1.375 -1,-2.406 -2.766,-2.406 z"
         style="fill:#aa4499;fill-opacity:1;fill-rule:nonzero;stroke:none"
         id="path226" /><path
         d="m 457.203,27.828 -1.781,0.188 -1.406,10.031 c 1.031,0.375 1.875,0.547 2.843,0.547 3.203,0 4.172,-2.813 4.172,-4.922 0,-1.844 -0.812,-2.891 -2.281,-2.891 -0.766,0 -1.484,0.313 -2.078,0.875 z m 0.906,4.297 c 0.625,0 1.079,0.359 1.079,1.516 0,1.515 -0.579,3.609 -2.172,3.609 -0.438,0 -0.719,-0.062 -1.094,-0.188 l 0.547,-3.984 c 0.484,-0.547 1,-0.953 1.64,-0.953 z"
         style="fill:#aa4499;fill-opacity:1;fill-rule:nonzero;stroke:none"
         id="path228" /><path
         d="m 464.102,26.484 -1.188,0.672 c 1,1.875 1.453,3.516 1.063,6.282 -0.391,2.796 -1.329,4.437 -2.86,6.296 l 1.063,0.813 c 1.656,-1.953 3.109,-3.703 3.593,-7 0.454,-3.359 -0.562,-5.125 -1.671,-7.063 z"
         style="fill:#aa4499;fill-opacity:1;fill-rule:nonzero;stroke:none"
         id="path230" /><text
         xml:space="preserve"
         style="font-style:normal;font-weight:normal;font-size:14px;line-height:1.25;font-family:sans-serif;letter-spacing:0px;word-spacing:0px;fill:#000000;fill-opacity:1;stroke:none;stroke-width:0.75"
         x="380.87054"
         y="142.77904"
         id="text5275"><tspan
           sodipodi:role="line"
           id="tspan5273"
           style="font-style:normal;font-variant:normal;font-weight:normal;font-stretch:normal;font-size:14px;font-family:'Fira Sans';-inkscape-font-specification:'Fira Sans';stroke-width:0.75"
           x="380.87054"
           y="142.77904">Site 1</tspan></text><text
         xml:space="preserve"
         style="font-style:normal;font-weight:normal;font-size:14px;line-height:1.25;font-family:sans-serif;letter-spacing:0px;word-spacing:0px;fill:#000000;fill-opacity:1;stroke:none;stroke-width:0.75"
         x="576.51654"
         y="142.77904"
         id="text5275-3"><tspan
           sodipodi:role="line"
           id="tspan5273-6"
           style="font-style:normal;font-variant:normal;font-weight:normal;font-stretch:normal;font-size:14px;font-family:'Fira Sans';-inkscape-font-specification:'Fira Sans';stroke-width:0.75"
           x="576.51654"
           y="142.77904">Site 2</tspan></text><text
         xml:space="preserve"
         style="font-style:normal;font-weight:normal;font-size:20px;line-height:1.25;font-family:sans-serif;letter-spacing:0px;word-spacing:0px;fill:#000000;fill-opacity:1;stroke:none;stroke-width:0.75"
         x="156.67505"
         y="57.585999"
         id="text3181"><tspan
           sodipodi:role="line"
           id="tspan3179"
           style="font-style:normal;font-variant:normal;font-weight:600;font-stretch:normal;font-size:20px;font-family:'Fira Sans';-inkscape-font-specification:'Fira Sans Semi-Bold';fill:#44aa99;fill-opacity:1;stroke-width:0.75"
           x="156.67505"
           y="57.585999">compute</tspan></text><text
         xml:space="preserve"
         style="font-style:normal;font-weight:normal;font-size:20px;line-height:1.25;font-family:sans-serif;letter-spacing:0px;word-spacing:0px;fill:#000000;fill-opacity:1;stroke:none;stroke-width:0.75"
         x="331.39703"
         y="58.143002"
         id="text14553"><tspan
           sodipodi:role="line"
           id="tspan14551"
           style="font-style:normal;font-variant:normal;font-weight:600;font-stretch:normal;font-size:20px;font-family:'Fira Sans';-inkscape-font-specification:'Fira Sans Semi-Bold';fill:#cc6677;fill-opacity:1;stroke-width:0.75"
           x="331.39703"
           y="58.143002">image</tspan></text><text
         xml:space="preserve"
         style="font-style:normal;font-weight:normal;font-size:20px;line-height:1.25;font-family:sans-serif;letter-spacing:0px;word-spacing:0px;fill:#000000;fill-opacity:1;stroke:none;stroke-width:0.75"
         x="521.33502"
         y="58.986"
         id="text14553-3"><tspan
           sodipodi:role="line"
           id="tspan14551-6"
           style="font-style:normal;font-variant:normal;font-weight:600;font-stretch:normal;font-size:20px;font-family:'Fira Sans';-inkscape-font-specification:'Fira Sans Semi-Bold';fill:#cc6677;fill-opacity:1;stroke-width:0.75"
           x="521.33502"
           y="58.986">image</tspan></text></g></g></svg>
