<?xml version="1.0" encoding="UTF-8" standalone="no"?>
<!-- Created with Inkscape (http://www.inkscape.org/) -->

<svg
   version="1.1"
   id="svg2"
   xml:space="preserve"
   width="870.30127"
   height="180.35451"
   viewBox="0 0 870.30127 180.35451"
   sodipodi:docname="openstack-db-backend.svg"
   inkscape:version="1.1.2 (0a00cf5339, 2022-02-04)"
   xmlns:inkscape="http://www.inkscape.org/namespaces/inkscape"
   xmlns:sodipodi="http://sodipodi.sourceforge.net/DTD/sodipodi-0.dtd"
   xmlns="http://www.w3.org/2000/svg"
   xmlns:svg="http://www.w3.org/2000/svg"><defs
     id="defs6"><rect
       x="172.30266"
       y="144.35467"
       width="90.35468"
       height="45.120408"
       id="rect34853" /><clipPath
       clipPathUnits="userSpaceOnUse"
       id="clipPath24"><path
         d="M 0,0 H 653 V 136 H 0 Z"
         id="path22" /></clipPath><clipPath
       clipPathUnits="userSpaceOnUse"
       id="clipPath40"><path
         d="M 0,0 H 653 V 136 H 0 Z"
         id="path38" /></clipPath></defs><sodipodi:namedview
     id="namedview4"
     pagecolor="#ffffff"
     bordercolor="#666666"
     borderopacity="1.0"
     inkscape:pageshadow="2"
     inkscape:pageopacity="0.0"
     inkscape:pagecheckerboard="0"
     showgrid="false"
     inkscape:zoom="1.3937702"
     inkscape:cx="432.63947"
     inkscape:cy="54.887097"
     inkscape:window-width="1920"
     inkscape:window-height="1031"
     inkscape:window-x="1920"
     inkscape:window-y="25"
     inkscape:window-maximized="1"
     inkscape:current-layer="g10" /><g
     id="g8"
     inkscape:groupmode="layer"
     inkscape:label="openstack-db-backend"
     transform="matrix(1.3333333,0,0,1.3333333,0,2.5088628e-6)"><g
       id="g10"><g
         id="g12"><text
           transform="translate(279.61583,89.186975)"
           style="font-variant:normal;font-weight:normal;font-size:30px;font-family:'DejaVu Sans';-inkscape-font-specification:DejaVuSans;writing-mode:lr-tb;fill:#aa4499;fill-opacity:1;fill-rule:nonzero;stroke:none"
           id="text16"><tspan
             x="0"
             y="0"
             id="tspan14"
             style="fill:#aa4499;fill-opacity:1">✘</tspan></text><g
           id="g18"
           style="fill:#ffab40;fill-opacity:1"><g
             id="g20"
             style="fill:#ffab40;fill-opacity:1" /><g
             id="g32"
             style="fill:#ffab40;fill-opacity:1"><g
               clip-path="url(#clipPath24)"
               opacity="0.25"
               id="g30"
               style="fill:#ffab40;fill-opacity:1"><g
                 id="g28"
                 style="fill:#ffab40;fill-opacity:1"><path
                   d="m 420.621,0 c -4.375,0 -7.894,3.523 -7.894,7.895 v 119.21 c 0,4.372 3.519,7.895 7.894,7.895 h 224.211 c 4.375,0 7.895,-3.523 7.895,-7.895 V 7.895 C 652.727,3.523 649.207,0 644.832,0 Z m 13.656,25.031 h 80.797 c 5.664,0 10.227,4.563 10.227,10.227 v 35.797 c 0,5.664 -4.563,10.226 -10.227,10.226 h -80.797 c -5.664,0 -10.226,-4.562 -10.226,-10.226 V 35.258 c 0,-5.664 4.562,-10.227 10.226,-10.227 z m 118.313,0 h 80.797 l 10.226,10.227 v 82.297 l -10.226,10.226 H 552.59 c -1.977,-1.593 -10.227,-9.093 -10.227,-10.226 V 35.258 c 0,0 8.25,-10.227 10.227,-10.227 z"
                   style="fill:#ffab40;fill-opacity:1;fill-rule:nonzero;stroke:none"
                   id="path26" /></g></g></g></g></g><g
         id="g34"
         style="fill:#2fbfa8;fill-opacity:1;opacity:1"><g
           id="g36"
           style="fill:#2fbfa8;fill-opacity:1" /><g
           id="g48"
           style="fill:#2fbfa8;fill-opacity:1"><g
             clip-path="url(#clipPath40)"
             opacity="0.1"
             id="g46"
             style="fill:#2fbfa8;fill-opacity:1"><g
               id="g44"
               style="fill:#2fbfa8;fill-opacity:1"><path
                 d="m 107.121,0.266 c -4.375,0 -7.894,3.523 -7.894,7.894 v 119.211 c 0,4.375 3.519,7.895 7.894,7.895 h 142.18 v -135 z m 142.18,0 v 135 h 104.531 c 4.375,0 7.895,-3.52 7.895,-7.895 V 8.16 c 0,-4.371 -3.52,-7.894 -7.895,-7.894 z M 120.777,25.297 h 80.797 c 5.664,0 10.227,4.562 10.227,10.226 V 71.32 c 0,5.664 -4.563,10.227 -10.227,10.227 h -80.797 c -5.664,0 -10.226,-4.563 -10.226,-10.227 V 35.523 c 0,-5.664 4.562,-10.226 10.226,-10.226 z m 143.813,0 h 80.797 c 2.726,3.391 10.226,10.226 10.226,10.226 v 73.297 c 0,5.664 -4.562,20.727 -10.226,20.727 H 264.59 c -5.664,0 -10.227,-15.063 -10.227,-20.727 V 35.523 Z"
                 style="fill:#2fbfa8;fill-opacity:1;fill-rule:nonzero;stroke:none"
                 id="path42" /></g></g></g></g><g
         id="g50"
         style="fill:none;fill-opacity:1;stroke:#332288;stroke-opacity:1;stroke-width:1.22475005;stroke-miterlimit:4;stroke-dasharray:3.67425013,3.67425013;stroke-dashoffset:0"><path
           d="M 108.113,65.703 H 53.363"
           style="fill:none;stroke:#332288;stroke-width:1.22475005;stroke-linecap:butt;stroke-linejoin:miter;stroke-miterlimit:4;stroke-dasharray:3.67425013,3.67425013;stroke-dashoffset:0;stroke-opacity:1;fill-opacity:1"
           id="path52" /></g><g
         id="g54"
         style="fill:#332288;fill-opacity:1;stroke:#332288;stroke-opacity:1"><path
           d="m 61.383,69.031 -9.016,-3.312 9.016,-3.317 c -1.442,1.957 -1.434,4.633 0,6.629 z"
           style="fill:#332288;fill-opacity:1;fill-rule:evenodd;stroke:#332288;stroke-width:0.515624;stroke-linecap:butt;stroke-linejoin:round;stroke-miterlimit:4;stroke-dasharray:none;stroke-opacity:1"
           id="path56" /></g><g
         id="g58"
         style="fill:#332288;fill-opacity:1;stroke:#332288;stroke-opacity:1"><path
           d="m 213.863,35.703 h 36.75"
           style="fill:#332288;stroke:#332288;stroke-width:0.749999;stroke-linecap:butt;stroke-linejoin:miter;stroke-miterlimit:4;stroke-dasharray:none;stroke-opacity:1;fill-opacity:1"
           id="path60" /></g><g
         id="g62"
         transform="scale(-1)"
         style="fill:#332288;fill-opacity:1;stroke:#332288;stroke-opacity:1"><path
           d="m -242.594,-32.375 -9.015,-3.316 9.015,-3.313 c -1.441,1.957 -1.433,4.633 0,6.629 z"
           style="fill:#332288;fill-opacity:1;fill-rule:evenodd;stroke:#332288;stroke-width:0.515624;stroke-linecap:butt;stroke-linejoin:round;stroke-miterlimit:4;stroke-dasharray:none;stroke-opacity:1"
           id="path64" /></g><g
         id="g66"
         style="fill:#332288;fill-opacity:1;stroke:#332288;stroke-opacity:1;stroke-width:1.22475005;stroke-miterlimit:4;stroke-dasharray:3.67425013,3.67425013;stroke-dashoffset:0"><path
           d="m 252.113,65.703 h -36.75"
           style="fill:#332288;stroke:#332288;stroke-width:1.22475005;stroke-linecap:butt;stroke-linejoin:miter;stroke-miterlimit:4;stroke-dasharray:3.67425013,3.67425013;stroke-dashoffset:0;stroke-opacity:1;fill-opacity:1"
           id="path68" /></g><g
         id="g70"
         style="fill:#332288;fill-opacity:1;stroke:#332288;stroke-opacity:1"><path
           d="m 223.383,69.031 -9.016,-3.312 9.016,-3.317 c -1.442,1.957 -1.434,4.633 0,6.629 z"
           style="fill:#332288;fill-opacity:1;fill-rule:evenodd;stroke:#332288;stroke-width:0.515624;stroke-linecap:butt;stroke-linejoin:round;stroke-miterlimit:4;stroke-dasharray:none;stroke-opacity:1"
           id="path72" /></g><g
         id="g74"
         style="fill:none;fill-opacity:1;stroke:#332288;stroke-opacity:1"><path
           d="m 53.363,35.703 h 53.25"
           style="fill:none;stroke:#332288;stroke-width:0.749999;stroke-linecap:butt;stroke-linejoin:miter;stroke-miterlimit:4;stroke-dasharray:none;stroke-opacity:1;fill-opacity:1"
           id="path76" /></g><g
         id="g78"
         transform="scale(-1)"
         style="fill:#332288;fill-opacity:1;stroke:#332288;stroke-opacity:1"><path
           d="m -98.594,-32.375 -9.015,-3.316 9.015,-3.313 c -1.441,1.957 -1.433,4.633 0,6.629 z"
           style="fill:#332288;fill-opacity:1;fill-rule:evenodd;stroke:#332288;stroke-width:0.515624;stroke-linecap:butt;stroke-linejoin:round;stroke-miterlimit:4;stroke-dasharray:none;stroke-opacity:1"
           id="path80" /></g><path
         d="m 16.355,43.484 c -1.613,0 -2.921,1.309 -2.921,2.918 0,1.614 1.308,2.922 2.921,2.922 1.61,0 2.918,-1.308 2.918,-2.922 0,-1.609 -1.308,-2.918 -2.918,-2.918 z m 14.016,0 c -1.609,0 -2.918,1.309 -2.918,2.918 0,1.614 1.309,2.922 2.918,2.922 1.613,0 2.922,-1.308 2.922,-2.922 0,-1.609 -1.309,-2.918 -2.922,-2.918 z M 23.363,20.703 C 10.465,20.703 0,31.172 0,44.066 0,56.965 10.465,67.43 23.363,67.43 c 12.895,0 23.364,-10.465 23.364,-23.364 0,-12.894 -10.469,-23.363 -23.364,-23.363 z m 0,42.055 c -10.304,0 -18.691,-8.387 -18.691,-18.692 0,-0.675 0.047,-1.355 0.117,-2.007 5.516,-2.454 9.883,-6.965 12.172,-12.547 4.23,5.98 11.191,9.883 19.066,9.883 1.821,0 3.575,-0.211 5.254,-0.61 0.492,1.66 0.774,3.438 0.774,5.281 0,10.305 -8.387,18.692 -18.692,18.692 z"
         style="fill:#332288;fill-opacity:1;fill-rule:nonzero;stroke:none;stroke-opacity:1"
         id="path82" /><text
         transform="translate(4.04398,86.468344)"
         style="font-variant:normal;font-weight:bold;font-size:18px;font-family:'Fira Sans';-inkscape-font-specification:FiraSans-Bold;writing-mode:lr-tb;fill:#332288;fill-opacity:1;fill-rule:nonzero;stroke:none;stroke-opacity:1"
         id="text86"><tspan
           x="0 10.62 15.966 21.042 29.483999"
           y="0"
           sodipodi:role="line"
           id="tspan84"
           style="font-style:normal;font-variant:normal;font-weight:600;font-stretch:normal;font-family:'Fira Sans';-inkscape-font-specification:'Fira Sans Semi-Bold'">Alice</tspan></text><g
         id="g88"
         style="fill:none;fill-opacity:1;stroke:#332288;stroke-opacity:1;stroke-width:1.22475005;stroke-miterlimit:4;stroke-dasharray:1.22475005,4.89900017;stroke-dashoffset:0"><path
           d="m 189.227,82.766 v 25.5 h -60 v -25.5"
           style="fill:none;stroke:#332288;stroke-width:1.22475005;stroke-linecap:butt;stroke-linejoin:round;stroke-miterlimit:4;stroke-dasharray:1.22475005,4.89900017;stroke-dashoffset:0;stroke-opacity:1;fill-opacity:1"
           id="path90" /></g><g
         id="g92"
         transform="rotate(90)"
         style="fill:#332288;fill-opacity:1;stroke:#332288;stroke-opacity:1"><path
           d="m 90.785,-125.898 -9.015,-3.317 9.015,-3.312 c -1.441,1.957 -1.433,4.632 0,6.629 z"
           style="fill:#332288;fill-opacity:1;fill-rule:evenodd;stroke:#332288;stroke-width:0.515624;stroke-linecap:butt;stroke-linejoin:round;stroke-miterlimit:4;stroke-dasharray:none;stroke-opacity:1"
           id="path94" /></g><text
         style="font-variant:normal;font-weight:normal;font-size:14px;font-family:'Fira Sans';-inkscape-font-specification:FiraSans-Regular;writing-mode:lr-tb;fill:#332288;fill-opacity:1;fill-rule:nonzero;stroke:none;stroke-opacity:1;stroke-width:0.47475001;stroke-miterlimit:4;stroke-dasharray:none"
         id="text104"
         transform="translate(68.616882,22.124695)"><tspan
           x="0 4.5360079 10.598019"
           y="0"
           sodipodi:role="line"
           id="tspan96">(1)</tspan><tspan
           x="152.43925 156.97527 163.90527 171.52129"
           y="1.8672113"
           sodipodi:role="line"
           id="tspan98">(2a)</tspan><tspan
           x="85.455734 89.991737 96.977753"
           y="80.900253"
           sodipodi:role="line"
           id="tspan100">(3)</tspan><tspan
           sodipodi:role="line"
           id="tspan102"
           x="0"
           y="98.400253" /></text><g
         id="g106"
         style="stroke:#44aa99;stroke-opacity:1"><path
           d="m 120.777,26.047 h 80.797 c 5.664,0 10.227,4.562 10.227,10.226 V 72.07 c 0,5.664 -4.563,10.227 -10.227,10.227 h -80.797 c -5.664,0 -10.226,-4.563 -10.226,-10.227 V 36.273 c 0,-5.664 4.562,-10.226 10.226,-10.226 z"
           style="fill:none;stroke:#44aa99;stroke-width:2.25;stroke-linecap:butt;stroke-linejoin:round;stroke-miterlimit:4;stroke-dasharray:none;stroke-opacity:1"
           id="path108" /></g><text
         style="font-variant:normal;font-weight:bold;font-size:18px;font-family:'Fira Sans';-inkscape-font-specification:FiraSans-Bold;writing-mode:lr-tb;fill:#44aa99;fill-opacity:1;fill-rule:nonzero;stroke:none"
         id="text112"
         x="125.22775"
         y="58.150002"><tspan
           x="125.22775 133.66975 144.18175 159.39175 170.13776 180.43375 187.20175"
           y="58.150002"
           sodipodi:role="line"
           id="tspan110">compute</tspan></text><g
         id="g114"
         style="fill:none;fill-opacity:1;stroke:#cc6677;stroke-opacity:1"><path
           d="m 273.387,25.297 h 63.199 c 10.543,0 19.027,8.484 19.027,19.027 v 66.586 c 0,10.543 -8.484,19.028 -19.027,19.028 h -63.199 c -10.539,0 -19.024,-8.485 -19.024,-19.028 V 44.324 c 0,-10.543 8.485,-19.027 19.024,-19.027 z"
           style="fill:none;stroke:#cc6677;stroke-width:2.25;stroke-linecap:butt;stroke-linejoin:round;stroke-miterlimit:4;stroke-dasharray:none;stroke-opacity:1;fill-opacity:1"
           id="path116" /></g><text
         transform="translate(279.89621,49.288474)"
         style="font-variant:normal;font-weight:bold;font-size:18px;font-family:'Fira Sans';-inkscape-font-specification:FiraSans-Bold;writing-mode:lr-tb;fill:#cc6677;fill-opacity:1;fill-rule:nonzero;stroke:none;stroke-opacity:1"
         id="text120"><tspan
           x="0 5.0760002 20.285999 30.15 39.888"
           y="0"
           sodipodi:role="line"
           id="tspan118">image</tspan></text><g
         id="g122"
         style="stroke:#44aa99;stroke-opacity:1"><path
           d="m 433.34,25.297 h 80.797 c 5.664,0 10.226,4.562 10.226,10.226 V 71.32 c 0,5.664 -4.562,10.227 -10.226,10.227 H 433.34 c -5.664,0 -10.227,-4.563 -10.227,-10.227 V 35.523 c 0,-5.664 4.563,-10.226 10.227,-10.226 z"
           style="fill:none;stroke:#44aa99;stroke-width:2.25;stroke-linecap:butt;stroke-linejoin:round;stroke-miterlimit:4;stroke-dasharray:none;stroke-opacity:1"
           id="path124" /></g><text
         style="font-variant:normal;font-weight:bold;font-size:18px;font-family:'Fira Sans';-inkscape-font-specification:FiraSans-Bold;writing-mode:lr-tb;fill:#44aa99;fill-opacity:1;fill-rule:nonzero;stroke:none"
         id="text128"
         x="437.79016"
         y="57.400002"><tspan
           x="437.79016 446.23218 456.74417 471.95416 482.70016 492.99619 499.76416"
           y="57.400002"
           sodipodi:role="line"
           id="tspan126">compute</tspan></text><path
         d="m 345.863,82.863 v 3.676 c 0,3.234 -8.062,5.875 -18,5.875 -9.937,0 -18,-2.641 -18,-5.875 v -3.676 c 0,-3.238 8.063,-5.879 18,-5.879 9.938,0 18,2.641 18,5.879 z m 0,8.266 v 8.266 c 0,3.238 -8.062,5.878 -18,5.878 -9.937,0 -18,-2.64 -18,-5.878 v -8.266 c 3.867,2.664 10.946,3.902 18,3.902 7.055,0 14.133,-1.238 18,-3.902 z m 0,12.855 v 8.266 c 0,3.238 -8.062,5.879 -18,5.879 -9.937,0 -18,-2.641 -18,-5.879 v -8.266 c 3.867,2.664 10.946,3.907 18,3.907 7.055,0 14.133,-1.243 18,-3.907 z"
         style="fill:#88ccee;fill-opacity:1;fill-rule:nonzero;stroke:none"
         id="path130" /><path
         d="m 585.863,82.863 v 3.676 c 0,3.234 -8.062,5.875 -18,5.875 -9.937,0 -18,-2.641 -18,-5.875 v -3.676 c 0,-3.238 8.063,-5.879 18,-5.879 9.938,0 18,2.641 18,5.879 z m 0,8.266 v 8.266 c 0,3.238 -8.062,5.878 -18,5.878 -9.937,0 -18,-2.64 -18,-5.878 v -8.266 c 3.867,2.664 10.946,3.902 18,3.902 7.055,0 14.133,-1.238 18,-3.902 z m 0,12.855 v 8.266 c 0,3.238 -8.062,5.879 -18,5.879 -9.937,0 -18,-2.641 -18,-5.879 v -8.266 c 3.867,2.664 10.946,3.907 18,3.907 7.055,0 14.133,-1.243 18,-3.907 z"
         style="fill:#88ccee;fill-opacity:1;fill-rule:nonzero;stroke:none"
         id="path132" /><path
         d="m 298.609,104.57 -6.711,-9.64 c -0.57,-0.825 -1.511,-1.317 -2.515,-1.317 h -17.227 c -1.004,0 -1.941,0.492 -2.515,1.317 l -6.707,9.64 c -0.36,0.516 -0.551,1.125 -0.551,1.75 v 8.746 c 0,1.692 1.371,3.063 3.066,3.063 h 30.645 c 1.691,0 3.062,-1.371 3.062,-3.063 v -8.746 c 0,-0.625 -0.191,-1.234 -0.547,-1.75 z m -26.453,-7.89 h 17.227 l 4.976,7.148 h -27.175 z m 23.938,18.386 h -30.645 v -8.171 h 30.645 z m -2.043,-4.086 c 0,1.125 -0.918,2.043 -2.043,2.043 -1.129,0 -2.043,-0.918 -2.043,-2.043 0,-1.128 0.914,-2.042 2.043,-2.042 1.125,0 2.043,0.914 2.043,2.042 z m -6.129,0 c 0,1.125 -0.918,2.043 -2.043,2.043 -1.129,0 -2.043,-0.918 -2.043,-2.043 0,-1.128 0.914,-2.042 2.043,-2.042 1.125,0 2.043,0.914 2.043,2.042 z"
         style="fill:#117733;fill-opacity:1;fill-rule:nonzero;stroke:#117733;stroke-opacity:1;stroke-width:0.99975002;stroke-miterlimit:4;stroke-dasharray:none"
         id="path134" /><g
         id="g136"
         style="stroke:#aa4499;stroke-opacity:1"><path
           d="M 550.613,108.059 H 348.863"
           style="fill:none;stroke:#aa4499;stroke-width:2.25071;stroke-linecap:butt;stroke-linejoin:miter;stroke-miterlimit:4;stroke-dasharray:2.25071, 4.50142;stroke-dashoffset:0;stroke-opacity:1"
           id="path138" /></g><g
         id="g140"
         style="fill:#aa4499;fill-opacity:1;stroke-width:0.99975002;stroke-miterlimit:4;stroke-dasharray:none;stroke:#aa4499;stroke-opacity:1"><path
           d="m 360.637,113.504 -14.754,-5.426 14.754,-5.426 c -2.356,3.203 -2.344,7.586 0,10.852 z"
           style="fill:#aa4499;fill-opacity:1;fill-rule:evenodd;stroke:#aa4499;stroke-width:0.99975002;stroke-linecap:butt;stroke-linejoin:round;stroke-miterlimit:4;stroke-dasharray:none;stroke-opacity:1"
           id="path142" /></g><path
         d="m 634.609,104.57 -6.711,-9.64 c -0.57,-0.825 -1.511,-1.317 -2.515,-1.317 h -17.227 c -1.004,0 -1.941,0.492 -2.515,1.317 l -6.707,9.64 c -0.36,0.516 -0.551,1.125 -0.551,1.75 v 8.746 c 0,1.692 1.375,3.063 3.066,3.063 h 30.645 c 1.691,0 3.062,-1.371 3.062,-3.063 v -8.746 c 0,-0.625 -0.191,-1.234 -0.547,-1.75 z m -26.453,-7.89 h 17.227 l 4.976,7.148 h -27.175 z m 23.938,18.386 h -30.645 v -8.171 h 30.645 z m -2.043,-4.086 c 0,1.125 -0.914,2.043 -2.043,2.043 -1.129,0 -2.043,-0.918 -2.043,-2.043 0,-1.128 0.914,-2.042 2.043,-2.042 1.129,0 2.043,0.914 2.043,2.042 z m -6.129,0 c 0,1.125 -0.914,2.043 -2.043,2.043 -1.129,0 -2.043,-0.918 -2.043,-2.043 0,-1.128 0.914,-2.042 2.043,-2.042 1.129,0 2.043,0.914 2.043,2.042 z"
         style="fill:#117733;fill-opacity:1;fill-rule:nonzero;stroke:#117733;stroke-opacity:1;stroke-width:0.99975002;stroke-miterlimit:4;stroke-dasharray:none"
         id="path144" /><path
         d="M 123.285,116.262 H 110.34 c -0.813,0 -1.477,0.664 -1.477,1.476 v 3.481 h 3.59 v -0.567 c 0,-0.441 0.359,-0.8 0.801,-0.8 h 7.117 c 0.441,0 0.801,0.359 0.801,0.8 v 0.567 h 3.59 v -3.481 c 0,-0.812 -0.664,-1.476 -1.477,-1.476 z"
         style="fill:#ed1844;fill-opacity:1;fill-rule:evenodd;stroke:none"
         id="path146" /><path
         d="m 121.172,127.43 c 0,0.441 -0.36,0.8 -0.801,0.8 h -7.117 c -0.442,0 -0.801,-0.359 -0.801,-0.8 v -0.567 h -3.59 v 3.481 c 0,0.812 0.664,1.476 1.477,1.476 h 12.945 c 0.813,0 1.477,-0.664 1.477,-1.476 v -3.481 h -3.59 z"
         style="fill:#ed1844;fill-opacity:1;fill-rule:evenodd;stroke:none"
         id="path148" /><path
         d="m 108.863,122.246 h 3.59 v 3.59 h -3.59 z"
         style="fill:#ed1844;fill-opacity:1;fill-rule:evenodd;stroke:none"
         id="path150" /><path
         d="m 121.172,122.246 h 3.59 v 3.59 h -3.59 z"
         style="fill:#ed1844;fill-opacity:1;fill-rule:evenodd;stroke:none"
         id="path152" /><text
         transform="translate(443.3375,129.30577)"
         style="font-variant:normal;font-weight:normal;font-size:14px;font-family:'Fira Sans';-inkscape-font-specification:FiraSans-Regular;writing-mode:lr-tb;fill:#2e3436;fill-opacity:1;fill-rule:nonzero;stroke:none"
         id="text156"><tspan
           sodipodi:role="line"
           id="tspan154"
           x="0"
           y="0">Site 2</tspan></text><path
         d="M 436.785,116.262 H 423.84 c -0.813,0 -1.477,0.664 -1.477,1.476 v 3.481 h 3.59 v -0.567 c 0,-0.441 0.359,-0.8 0.801,-0.8 h 7.117 c 0.441,0 0.801,0.359 0.801,0.8 v 0.567 h 3.59 v -3.481 c 0,-0.812 -0.664,-1.476 -1.477,-1.476 z"
         style="fill:#ed1844;fill-opacity:1;fill-rule:evenodd;stroke:none"
         id="path158" /><path
         d="m 434.672,127.43 c 0,0.441 -0.36,0.8 -0.801,0.8 h -7.117 c -0.442,0 -0.801,-0.359 -0.801,-0.8 v -0.567 h -3.59 v 3.481 c 0,0.812 0.664,1.476 1.477,1.476 h 12.945 c 0.813,0 1.477,-0.664 1.477,-1.476 v -3.481 h -3.59 z"
         style="fill:#ed1844;fill-opacity:1;fill-rule:evenodd;stroke:none"
         id="path160" /><path
         d="m 422.363,122.246 h 3.59 v 3.59 h -3.59 z"
         style="fill:#ed1844;fill-opacity:1;fill-rule:evenodd;stroke:none"
         id="path162" /><path
         d="m 434.672,122.246 h 3.59 v 3.59 h -3.59 z"
         style="fill:#ed1844;fill-opacity:1;fill-rule:evenodd;stroke:none"
         id="path164" /><g
         id="g166"
         style="fill:none;fill-opacity:1;stroke:#cc6677;stroke-opacity:1"><path
           d="m 561.387,23.797 h 63.199 c 10.543,0 19.027,8.484 19.027,19.027 v 66.586 c 0,10.543 -8.484,19.028 -19.027,19.028 h -63.199 c -10.539,0 -19.024,-8.485 -19.024,-19.028 V 42.824 c 0,-10.543 8.485,-19.027 19.024,-19.027 z"
           style="fill:none;stroke:#cc6677;stroke-width:2.25;stroke-linecap:butt;stroke-linejoin:round;stroke-miterlimit:4;stroke-dasharray:none;stroke-opacity:1;fill-opacity:1"
           id="path168" /></g><text
         transform="translate(567.89624,49.28855)"
         style="font-variant:normal;font-weight:bold;font-size:18px;font-family:'Fira Sans';-inkscape-font-specification:FiraSans-Bold;writing-mode:lr-tb;fill:#cc6677;fill-opacity:1;fill-rule:nonzero;stroke:none;stroke-opacity:1"
         id="text172"><tspan
           x="0 5.0760002 20.285999 30.15 39.888"
           y="0"
           sodipodi:role="line"
           id="tspan170">image</tspan></text><path
         d="m 617.551,73.57 c 0.051,0.516 0.258,-0.117 0.301,-0.8 -0.161,-0.172 -0.321,-0.329 -0.477,-0.465 0.137,0.41 0.18,0.836 0.176,1.265"
         style="fill:#a80030;fill-opacity:1;fill-rule:nonzero;stroke:none"
         id="path174" /><path
         d="m 616.621,70.871 c -0.449,-0.269 -0.93,-0.453 -1.418,-0.488 0.348,0.039 0.66,0.199 0.985,0.344 0.691,0.91 -0.352,0.125 -0.727,0.066 1.394,0.918 0.793,0.074 1.16,0.078"
         style="fill:#a80030;fill-opacity:1;fill-rule:nonzero;stroke:none"
         id="path176" /><path
         d="m 613.883,70.086 c -0.934,0.019 -0.617,0.238 -0.258,0.289 0.043,-0.102 0.637,-0.23 0.258,-0.289"
         style="fill:#a80030;fill-opacity:1;fill-rule:nonzero;stroke:none"
         id="path178" /><path
         d="m 601.727,76.922 c 0.023,-0.281 0.031,-0.602 0.101,-0.563 -0.09,-0.293 -0.156,-0.355 -0.101,0.563"
         style="fill:#a80030;fill-opacity:1;fill-rule:nonzero;stroke:none"
         id="path180" /><path
         d="m 601.828,76.359 0.059,0.192 -0.032,-0.18 -0.027,-0.012"
         style="fill:#a80030;fill-opacity:1;fill-rule:nonzero;stroke:none"
         id="path182" /><path
         d="m 601.324,79.508 c 0.742,1.359 1.41,2.781 2.395,3.988 -0.985,0.258 1.199,1.121 1.551,1.793 1.117,1.133 2.457,1.906 3.984,2.297 -1.363,1.957 0.34,0.172 1.383,0.844 1.707,0.593 3.367,0.98 5.121,0.617 4.156,-0.027 8.367,-1.246 11.539,-4.016 3.867,-3.207 6.914,-8.613 5.039,-13.672 -1.281,1.657 -0.281,4.176 -2.059,5.539 -0.433,1.055 -1.097,0.778 -0.984,1.903 -0.313,0.715 -1.059,1.031 -1.105,1.734 -0.493,0.258 -1.711,1.277 -1.418,0.453 -2.938,-0.078 1.007,0.535 -1.332,1.59 -0.622,0.356 -0.965,-0.039 -1.977,0.734 -0.738,0.317 -1.402,0.938 -1.508,1.715 -0.359,-0.242 -0.808,0.18 -1.445,0.586 -1.188,0.059 -2.301,0.871 -3.625,0.645 -1.738,0.137 -3.426,-0.039 -4.985,-0.848 -1.48,-0.34 -3.074,-1.601 -3.777,-3.117 -0.113,-0.848 -1.59,-0.656 -1.398,-1.813 -0.121,-1.101 -1.535,-1.304 -1.321,-2.597 -1.488,-3.313 -0.011,-7.465 3.141,-9.262 2.102,-1.297 4.641,-1.406 7.016,-1.129 0.371,1.008 1.718,0.184 2.023,1.281 0.59,1.137 1.699,1.7 1.895,2.879 1.101,2.84 -1.493,5.953 -4.368,6.141 -3.113,0.519 -5.531,-3.688 -3.496,-6.141 1.231,-1.89 -0.586,-1.234 -1.343,-0.238 -2.043,2.293 -1.09,6.207 1.656,7.438 1.816,1.179 4.203,1.289 6.144,0.257 0.785,-1.98 -0.332,2.067 1.379,-0.132 2.305,-1.711 3.75,-5.082 2.672,-7.86 -0.789,-1.058 -1.09,-1.426 -1.715,-2.562 -0.465,-0.731 -1.226,-1.325 -1.355,-1.821 -0.922,-0.871 -1.539,-0.859 -0.078,-1.746 -0.789,-0.043 -2.653,0.91 -3.496,-0.386 -0.344,-0.454 -1.43,-0.297 -2.325,-0.344 -1.062,-0.164 -1.183,-0.5 -1.75,-0.664 -1.441,-0.219 -1.566,0.515 -3.023,0.465 -2.809,0.609 -4.918,3.086 -6.109,5.601 -0.219,0.469 -0.575,1.031 -0.383,1.641 0.386,0.363 -0.43,1.625 -0.469,2.406 0.195,0.582 0.578,1.5 -0.277,1.223 -0.438,1.019 -0.137,2.082 -0.039,3.156 -1.84,-1.594 0.121,0.891 0.222,1.422 z m 0.031,-3.731 c 0.469,1.309 -1.054,0.106 0,0 z m 4.641,4.258 c 0.563,0.027 -0.434,0.32 0,0 z m 0.508,-0.191 c -0.34,0.437 -0.699,-0.856 0,0 z m 2.922,7.426 c 0.074,-0.125 -0.043,0.093 0,0 z m 2.156,-23.243 c 0.207,0.817 -0.809,0.313 0,0 z m 1.543,13.856 c 2.145,0.23 -0.641,1.437 0,0 z m 3.703,-10.742 c 0,1.593 -1.863,-0.411 0,0 z m 0.078,0.621 c 0.856,0.73 -0.547,0.152 0,0 z m 0.778,-2.578 c 0.293,1.832 -2.422,-0.278 0,0 z m 8.988,16.543 c 0.351,-0.02 -0.246,0.394 0,0 z"
         style="fill:#a80030;fill-opacity:1;fill-rule:nonzero;stroke:none"
         id="path184" /><path
         d="m 618.75,79.125 0.367,0.039 c 0.426,-0.379 0.903,-0.691 1.223,-1.152 -0.578,0.363 -0.809,0.617 -1.59,1.113"
         style="fill:#a80030;fill-opacity:1;fill-rule:nonzero;stroke:none"
         id="path186" /><path
         d="m 618.648,78.328 c -0.183,0.195 -0.414,0.32 -0.64,0.461 0.41,-0.148 0.746,-0.414 1.094,-0.66 l -0.454,0.199"
         style="fill:#a80030;fill-opacity:1;fill-rule:nonzero;stroke:none"
         id="path188" /><path
         d="m 614.336,64.457 0.199,0.059 c 0.992,0.054 1.992,0.265 2.938,0.644 -0.996,-0.422 -2.067,-0.656 -3.137,-0.703"
         style="fill:#a80030;fill-opacity:1;fill-rule:nonzero;stroke:none"
         id="path190" /><path
         d="m 601.469,76.84 c -0.157,-0.336 -0.145,-0.848 -0.262,-1.207 0.082,0.476 0.148,0.953 0.25,1.418 l 0.012,-0.211"
         style="fill:#a80030;fill-opacity:1;fill-rule:nonzero;stroke:none"
         id="path192" /><path
         d="m 609.027,88.48 c 0.735,-0.144 1.078,0.469 0.528,-0.187 -0.875,-0.301 -0.219,0.168 -0.528,0.187"
         style="fill:#a80030;fill-opacity:1;fill-rule:nonzero;stroke:none"
         id="path194" /><path
         d="m 612.531,89.004 c -0.508,-0.121 -0.804,-0.121 -1.097,-0.16 0.609,0.398 0.707,0.144 1.097,0.16"
         style="fill:#a80030;fill-opacity:1;fill-rule:nonzero;stroke:none"
         id="path196" /><text
         transform="translate(361.24126,98.398859)"
         style="font-style:italic;font-variant:normal;font-weight:500;font-size:14px;font-family:'Fira Sans Medium';-inkscape-font-specification:FiraSans-MediumItalic;writing-mode:lr-tb;fill:#a80030;fill-opacity:1;fill-rule:nonzero;stroke:none"
         id="text200"><tspan
           x="0"
           y="0"
           id="tspan198"
           style="fill:#aa4499;fill-opacity:1">&quot;</tspan></text><text
         transform="translate(367.02327,98.398859)"
         style="font-style:italic;font-variant:normal;font-weight:500;font-size:14px;font-family:'Fira Sans Medium';-inkscape-font-specification:FiraSans-MediumItalic;writing-mode:lr-tb;fill:#a80030;fill-opacity:1;fill-rule:nonzero;stroke:none"
         id="text204"><tspan
           x="0"
           y="0"
           id="tspan202"
           style="fill:#aa4499;fill-opacity:1">ﬁ</tspan></text><text
         transform="translate(375.18528,98.398859)"
         style="font-style:italic;font-variant:normal;font-weight:500;font-size:14px;font-family:'Fira Sans Medium';-inkscape-font-specification:FiraSans-MediumItalic;writing-mode:lr-tb;fill:#a80030;fill-opacity:1;fill-rule:nonzero;stroke:none"
         id="text212"><tspan
           x="0 3.8920069 11.29802 14.658026 21.826038 28.994051 35.882065 44.072079 52.066093 57.204102 65.24012 71.148125 79.422142 86.828156 94.948166 98.840179 106.83419 114.85621 118.07621 126.12623 132.58023 140.50426 150.66827"
           y="0"
           sodipodi:role="line"
           id="tspan206"
           style="fill:#aa4499;fill-opacity:1">le:///path/debian.qcow&quot;</tspan><tspan
           x="-13.118037 -8.6940298 -1.708017 6.4119973"
           y="-14.404248"
           sodipodi:role="line"
           id="tspan208"
           style="fill:#aa4499;fill-opacity:1">(2b)</tspan><tspan
           x="-116.69452 -112.27052 -105.2845 -98.690491"
           y="-16.933855"
           sodipodi:role="line"
           id="tspan210"
           style="fill:#aa4499;fill-opacity:1">(2c)</tspan></text><text
         xml:space="preserve"
         transform="matrix(0.75000002,0,0,0.75000002,-0.96734729,7.7269329)"
         id="text34851"
         style="font-style:normal;font-weight:normal;font-size:18.6667px;line-height:1.25;font-family:sans-serif;letter-spacing:0px;word-spacing:0px;white-space:pre;shape-inside:url(#rect34853);fill:#000000;fill-opacity:1;stroke:none"><tspan
           x="172.30273"
           y="161.23328"
           id="tspan4255"><tspan
             style="font-family:'Fira Sans';-inkscape-font-specification:'Fira Sans'"
             id="tspan4253">Site 1</tspan></tspan></text></g></g></svg>
