<?xml version="1.0" encoding="UTF-8" standalone="no"?>
<!-- Created with Inkscape (http://www.inkscape.org/) -->

<svg
   version="1.1"
   id="svg2"
   xml:space="preserve"
   width="629.35999"
   height="252.87997"
   viewBox="0 0 629.35999 252.87997"
   sodipodi:docname="openstack-vmprovision.svg"
   inkscape:version="1.1.2 (0a00cf5339, 2022-02-04)"
   xmlns:inkscape="http://www.inkscape.org/namespaces/inkscape"
   xmlns:sodipodi="http://sodipodi.sourceforge.net/DTD/sodipodi-0.dtd"
   xmlns="http://www.w3.org/2000/svg"
   xmlns:svg="http://www.w3.org/2000/svg"><defs
     id="defs6"><clipPath
       clipPathUnits="userSpaceOnUse"
       id="clipPath18"><path
         d="M 0,0 H 473 V 190 H 0 Z"
         id="path16" /></clipPath></defs><sodipodi:namedview
     id="namedview4"
     pagecolor="#ffffff"
     bordercolor="#666666"
     borderopacity="1.0"
     inkscape:pageshadow="2"
     inkscape:pageopacity="0.0"
     inkscape:pagecheckerboard="0"
     showgrid="false"
     inkscape:zoom="1.9321216"
     inkscape:cx="332.27722"
     inkscape:cy="126.54483"
     inkscape:window-width="1920"
     inkscape:window-height="1031"
     inkscape:window-x="1920"
     inkscape:window-y="25"
     inkscape:window-maximized="1"
     inkscape:current-layer="g10" /><g
     id="g8"
     inkscape:groupmode="layer"
     inkscape:label="openstack-vmprovision"
     transform="matrix(1.3333333,0,0,1.3333333,0,2.3219996e-6)"><g
       id="g10"><g
         id="g12"
         style="fill:#44aa99;fill-opacity:1"><g
           id="g14"
           style="fill:#44aa99;fill-opacity:1" /><g
           id="g26"
           style="fill:#44aa99;fill-opacity:1"><g
             clip-path="url(#clipPath18)"
             opacity="0.1"
             id="g24"
             style="fill:#44aa99;fill-opacity:1"><g
               id="g22"
               style="fill:#44aa99;fill-opacity:1"><path
                 d="m 172.414,29.723 c -4.375,0 -7.894,3.519 -7.894,7.894 v 134.211 c 0,4.371 3.519,7.895 7.894,7.895 h 187.18 v -150 z m 187.18,0 v 150 h 104.531 c 4.375,0 7.895,-3.524 7.895,-7.895 V 37.617 c 0,-4.375 -3.52,-7.894 -7.895,-7.894 z M 186.07,54.754 h 80.797 c 5.664,0 10.227,4.558 10.227,10.226 v 35.793 c 0,5.668 -4.563,10.231 -10.227,10.231 H 186.07 c -5.664,0 -10.226,-4.563 -10.226,-10.231 V 64.98 c 0,-5.668 4.562,-10.226 10.226,-10.226 z m 188.813,0 h 80.797 c 5.664,0 10.226,4.558 10.226,10.226 v 35.793 c 0,5.668 -4.562,10.231 -10.226,10.231 h -80.797 c -5.664,0 -10.227,-4.563 -10.227,-10.231 V 64.98 c 0,-5.668 4.563,-10.226 10.227,-10.226 z"
                 style="fill:#44aa99;fill-opacity:1;fill-rule:nonzero;stroke:none"
                 id="path20" /></g></g></g></g><path
         d="m 463.57,130.887 h -21.758 c -1.363,0 -2.484,1.117 -2.484,2.484 v 5.852 h 6.035 v -0.957 c 0,-0.743 0.602,-1.344 1.344,-1.344 h 11.969 c 0.742,0 1.344,0.601 1.344,1.344 v 0.957 h 6.035 v -5.852 c 0,-1.367 -1.117,-2.484 -2.485,-2.484 z"
         style="fill:#ed1844;fill-opacity:1;fill-rule:evenodd;stroke:none"
         id="path28" /><path
         d="m 460.02,149.664 c 0,0.742 -0.602,1.344 -1.344,1.344 h -11.969 c -0.742,0 -1.344,-0.602 -1.344,-1.344 v -0.957 h -6.035 v 5.852 c 0,1.367 1.121,2.484 2.484,2.484 h 21.758 c 1.368,0 2.485,-1.117 2.485,-2.484 v -5.852 h -6.035 z"
         style="fill:#ed1844;fill-opacity:1;fill-rule:evenodd;stroke:none"
         id="path30" /><path
         d="m 439.332,140.945 h 6.035 v 6.035 h -6.035 z"
         style="fill:#ed1844;fill-opacity:1;fill-rule:evenodd;stroke:none"
         id="path32" /><path
         d="m 460.02,140.945 h 6.035 v 6.035 h -6.035 z"
         style="fill:#ed1844;fill-opacity:1;fill-rule:evenodd;stroke:none"
         id="path34" /><g
         id="g36"
         style="stroke:#332288;stroke-opacity:1;stroke-width:1.22475003;stroke-miterlimit:4;stroke-dasharray:4.89900012, 4.89900012;stroke-dashoffset:0"><path
           d="M 173.406,95.16 H 58.656"
           style="fill:none;stroke:#332288;stroke-width:1.22475003;stroke-linecap:butt;stroke-linejoin:miter;stroke-miterlimit:4;stroke-dasharray:4.89900012, 4.89900012;stroke-dashoffset:0;stroke-opacity:1"
           id="path38" /></g><g
         id="g40"
         style="fill:#332288;fill-opacity:1"><path
           d="m 66.676,98.488 -9.016,-3.316 9.016,-3.313 c -1.442,1.957 -1.434,4.633 0,6.629 z"
           style="fill:#332288;fill-opacity:1;fill-rule:evenodd;stroke:#2e3436;stroke-width:0.515624;stroke-linecap:butt;stroke-linejoin:round;stroke-miterlimit:4;stroke-dasharray:none;stroke-opacity:1"
           id="path42" /></g><g
         id="g44"
         style="stroke-width:0.99975002;stroke-miterlimit:4;stroke-dasharray:none;stroke:#332288;stroke-opacity:1"><path
           d="m 279.156,65.16 h 81.75"
           style="fill:none;stroke:#332288;stroke-width:0.99975002;stroke-linecap:butt;stroke-linejoin:miter;stroke-miterlimit:4;stroke-dasharray:none;stroke-opacity:1"
           id="path46" /></g><g
         id="g48"
         transform="scale(-1)"
         style="fill:#332288;fill-opacity:1"><path
           d="m -352.887,-61.832 -9.015,-3.313 9.015,-3.316 c -1.441,1.957 -1.433,4.637 0,6.629 z"
           style="fill:#332288;fill-opacity:1;fill-rule:evenodd;stroke:#2e3436;stroke-width:0.515624;stroke-linecap:butt;stroke-linejoin:round;stroke-miterlimit:4;stroke-dasharray:none;stroke-opacity:1"
           id="path50" /></g><g
         id="g52"
         style="stroke:#332288;stroke-opacity:1;stroke-width:1.22475003;stroke-miterlimit:4;stroke-dasharray:4.89900012, 4.89900012;stroke-dashoffset:0"><path
           d="m 362.406,95.16 h -81.75"
           style="fill:none;stroke:#332288;stroke-width:1.22475003;stroke-linecap:butt;stroke-linejoin:miter;stroke-miterlimit:4;stroke-dasharray:4.89900012, 4.89900012;stroke-dashoffset:0;stroke-opacity:1"
           id="path54" /></g><g
         id="g56"
         style="fill:#332288;fill-opacity:1"><path
           d="m 288.676,98.488 -9.016,-3.316 9.016,-3.313 c -1.442,1.957 -1.434,4.633 0,6.629 z"
           style="fill:#332288;fill-opacity:1;fill-rule:evenodd;stroke:#2e3436;stroke-width:0.515624;stroke-linecap:butt;stroke-linejoin:round;stroke-miterlimit:4;stroke-dasharray:none;stroke-opacity:1"
           id="path58" /></g><g
         id="g60"
         style="stroke-width:0.99975002;stroke-miterlimit:4;stroke-dasharray:none;stroke:#332288;stroke-opacity:1"><path
           d="m 58.656,65.16 h 113.25"
           style="fill:none;stroke:#332288;stroke-width:0.99975002;stroke-linecap:butt;stroke-linejoin:miter;stroke-miterlimit:4;stroke-dasharray:none;stroke-opacity:1"
           id="path62" /></g><g
         id="g64"
         transform="scale(-1)"
         style="fill:#332288;fill-opacity:1"><path
           d="m -163.875,-61.824 -9.027,-3.321 9.027,-3.32 c -1.441,1.961 -1.434,4.641 0,6.641 z"
           style="fill:#332288;fill-opacity:1;fill-rule:evenodd;stroke:#2e3436;stroke-width:0.516435;stroke-linecap:butt;stroke-linejoin:round;stroke-miterlimit:4;stroke-dasharray:none;stroke-opacity:1"
           id="path66" /></g><path
         d="m 21.648,72.938 c -1.613,0 -2.921,1.308 -2.921,2.921 0,1.61 1.308,2.918 2.921,2.918 1.61,0 2.918,-1.308 2.918,-2.918 0,-1.613 -1.308,-2.921 -2.918,-2.921 z m 14.016,0 c -1.609,0 -2.918,1.308 -2.918,2.921 0,1.61 1.309,2.918 2.918,2.918 1.613,0 2.922,-1.308 2.922,-2.918 0,-1.613 -1.309,-2.921 -2.922,-2.921 z M 28.656,50.16 c -12.898,0 -23.363,10.465 -23.363,23.363 0,12.895 10.465,23.364 23.363,23.364 12.895,0 23.364,-10.469 23.364,-23.364 C 52.02,60.625 41.551,50.16 28.656,50.16 Z m 0,42.051 c -10.304,0 -18.691,-8.387 -18.691,-18.688 0,-0.679 0.047,-1.355 0.117,-2.011 5.516,-2.453 9.883,-6.961 12.172,-12.543 4.23,5.98 11.191,9.879 19.066,9.879 1.821,0 3.575,-0.207 5.254,-0.606 0.492,1.66 0.774,3.434 0.774,5.281 0,10.301 -8.387,18.688 -18.692,18.688 z"
         style="fill:#332288;fill-opacity:1;fill-rule:nonzero;stroke:none"
         id="path68" /><g
         id="g82"
         style="stroke:#332288;stroke-opacity:1;stroke-width:0.99974998;stroke-miterlimit:4;stroke-dasharray:0.99974998,3.99899993;stroke-dashoffset:0"><path
           d="m 254.52,112.223 v 37.5 h -60 v -37.5"
           style="fill:none;stroke:#332288;stroke-width:0.99974998;stroke-linecap:butt;stroke-linejoin:round;stroke-miterlimit:4;stroke-dasharray:0.99974998,3.99899993;stroke-dashoffset:0;stroke-opacity:1"
           id="path84" /></g><path
         d="m 57.246,0 c -1.359,1.938 -2.594,3.609 -2.594,6.922 0,3.328 1.235,4.984 2.594,6.937 l 0.813,-0.562 c -1.25,-1.859 -2.063,-3.375 -2.063,-6.375 0,-3 0.813,-4.5 2.063,-6.36 z"
         style="fill:#332288;fill-opacity:1;fill-rule:nonzero;stroke:none"
         id="path90" /><path
         d="m 63.141,2.469 h -1.125 l -2.907,1.781 0.563,0.922 2.187,-1.344 v 8 h 1.282 z"
         style="fill:#332288;fill-opacity:1;fill-rule:nonzero;stroke:none"
         id="path92" /><path
         d="M 66.062,0 65.25,0.562 c 1.25,1.86 2.062,3.36 2.062,6.36 0,3 -0.812,4.516 -2.062,6.375 l 0.812,0.562 C 67.438,11.906 68.656,10.25 68.656,6.922 68.656,3.609 67.438,1.938 66.062,0 Z"
         style="fill:#332288;fill-opacity:1;fill-rule:nonzero;stroke:none"
         id="path94" /><path
         d="M 76.871,2.188 H 74.34 v 9.64 h 1.328 V 8.281 h 1.219 c 2.125,0 3.734,-0.906 3.734,-3.109 0,-2.031 -1.422,-2.984 -3.75,-2.984 z M 76.824,7.234 H 75.668 V 3.219 h 1.187 c 1.422,0 2.344,0.515 2.344,1.953 0,1.64 -0.953,2.062 -2.375,2.062 z"
         style="fill:#332288;fill-opacity:1;fill-rule:nonzero;stroke:none"
         id="path96" /><path
         d="m 85.91,2.016 c -2.406,0 -4.078,1.828 -4.078,5.015 0,3.235 1.672,4.969 4.078,4.969 2.422,0 4.078,-1.797 4.078,-4.984 0,-3.25 -1.656,-5 -4.078,-5 z m 0,1.093 c 1.656,0 2.656,1.125 2.656,3.907 0,2.796 -1.031,3.89 -2.656,3.89 -1.562,0 -2.656,-1.094 -2.656,-3.875 0,-2.797 1.047,-3.922 2.656,-3.922 z"
         style="fill:#332288;fill-opacity:1;fill-rule:nonzero;stroke:none"
         id="path98" /><path
         d="m 94.465,2.016 c -1.781,0 -3.047,1.031 -3.047,2.515 0,1.5 0.984,2.219 2.859,2.781 1.641,0.516 2.094,0.938 2.094,1.876 0,1.156 -0.937,1.718 -2.078,1.718 -1.047,0 -1.797,-0.375 -2.516,-0.984 l -0.75,0.828 c 0.797,0.781 1.891,1.25 3.282,1.25 2.171,0 3.437,-1.188 3.437,-2.859 0,-1.844 -1.312,-2.453 -2.844,-2.922 -1.734,-0.531 -2.125,-0.922 -2.125,-1.735 0,-0.937 0.782,-1.375 1.75,-1.375 0.797,0 1.469,0.25 2.188,0.844 L 97.449,3.141 C 96.637,2.406 95.793,2.016 94.465,2.016 Z"
         style="fill:#332288;fill-opacity:1;fill-rule:nonzero;stroke:none"
         id="path100" /><path
         d="m 105.27,2.188 h -6.891 v 1.124 h 2.75 v 8.516 h 1.328 V 3.312 h 2.672 z"
         style="fill:#332288;fill-opacity:1;fill-rule:nonzero;stroke:none"
         id="path102" /><path
         d="m 113.84,0.531 -3.25,12.485 1.109,0.265 3.235,-12.5 z"
         style="fill:#332288;fill-opacity:1;fill-rule:nonzero;stroke:none"
         id="path104" /><path
         d="m 119.309,4.281 c -1.516,0 -2.657,0.86 -2.657,2.031 0,1.032 0.625,1.719 2.219,2.141 1.438,0.375 1.797,0.656 1.797,1.391 0,0.703 -0.609,1.109 -1.578,1.109 -0.797,0 -1.485,-0.265 -2.078,-0.703 l -0.688,0.781 c 0.656,0.563 1.547,0.969 2.797,0.969 1.5,0 2.906,-0.703 2.906,-2.25 0,-1.281 -0.89,-1.891 -2.453,-2.297 -1.187,-0.297 -1.578,-0.578 -1.578,-1.187 0,-0.578 0.516,-0.969 1.359,-0.969 0.688,0 1.266,0.219 1.922,0.641 l 0.547,-0.813 c -0.703,-0.531 -1.469,-0.844 -2.515,-0.844 z"
         style="fill:#332288;fill-opacity:1;fill-rule:nonzero;stroke:none"
         id="path106" /><path
         d="m 129.426,7.922 c 0,-2.25 -1.047,-3.641 -3.047,-3.641 -1.906,0 -3.063,1.641 -3.063,3.938 0,2.328 1.204,3.781 3.266,3.781 1.016,0 1.844,-0.359 2.578,-0.922 l -0.562,-0.781 c -0.641,0.453 -1.188,0.656 -1.922,0.656 -1.063,0 -1.86,-0.672 -1.985,-2.375 h 4.704 c 0.015,-0.172 0.031,-0.406 0.031,-0.656 z m -1.281,-0.297 h -3.454 c 0.094,-1.641 0.735,-2.328 1.719,-2.328 1.156,0 1.735,0.812 1.735,2.25 z"
         style="fill:#332288;fill-opacity:1;fill-rule:nonzero;stroke:none"
         id="path108" /><path
         d="m 134.75,4.281 c -0.891,0 -1.578,0.563 -1.969,1.672 l -0.125,-1.5 h -1.109 v 7.375 h 1.297 V 7.609 c 0.297,-1.406 0.828,-2.062 1.75,-2.062 0.265,0 0.422,0.015 0.656,0.078 l 0.234,-1.266 C 135.266,4.312 135,4.281 134.75,4.281 Z"
         style="fill:#332288;fill-opacity:1;fill-rule:nonzero;stroke:none"
         id="path110" /><path
         d="m 142.516,4.453 h -1.36 l -1.922,6.235 -1.922,-6.235 h -1.406 l 2.547,7.375 H 140 Z"
         style="fill:#332288;fill-opacity:1;fill-rule:nonzero;stroke:none"
         id="path112" /><path
         d="m 149.418,7.922 c 0,-2.25 -1.047,-3.641 -3.047,-3.641 -1.906,0 -3.062,1.641 -3.062,3.938 0,2.328 1.203,3.781 3.265,3.781 1.016,0 1.844,-0.359 2.578,-0.922 l -0.562,-0.781 c -0.641,0.453 -1.188,0.656 -1.922,0.656 -1.063,0 -1.859,-0.672 -1.984,-2.375 h 4.703 c 0.015,-0.172 0.031,-0.406 0.031,-0.656 z m -1.281,-0.297 h -3.453 c 0.093,-1.641 0.734,-2.328 1.718,-2.328 1.157,0 1.735,0.812 1.735,2.25 z"
         style="fill:#332288;fill-opacity:1;fill-rule:nonzero;stroke:none"
         id="path114" /><path
         d="m 154.742,4.281 c -0.89,0 -1.578,0.563 -1.969,1.672 l -0.125,-1.5 h -1.109 v 7.375 h 1.297 V 7.609 c 0.297,-1.406 0.828,-2.062 1.75,-2.062 0.266,0 0.422,0.015 0.656,0.078 l 0.235,-1.266 c -0.219,-0.047 -0.485,-0.078 -0.735,-0.078 z"
         style="fill:#332288;fill-opacity:1;fill-rule:nonzero;stroke:none"
         id="path116" /><path
         d="m 57.965,20.496 c -1.891,0 -2.547,0.609 -2.547,2.078 v 3.11 c 0,0.781 -0.234,1.093 -0.984,1.093 v 1.063 c 0.75,0 0.984,0.297 0.984,1.062 v 3.11 c 0,1.468 0.656,2.093 2.547,2.093 v -1 c -0.938,0 -1.328,-0.25 -1.328,-0.953 v -3.343 c 0,-1.016 -0.391,-1.266 -1.047,-1.5 0.656,-0.219 1.047,-0.5 1.047,-1.516 v -3.359 c 0,-0.688 0.39,-0.938 1.328,-0.938 z"
         style="fill:#332288;fill-opacity:1;fill-rule:nonzero;stroke:none"
         id="path118" /><path
         d="m 64.258,21.277 c -0.531,0 -0.891,0.375 -0.891,0.891 0,0.484 0.36,0.859 0.891,0.859 0.547,0 0.922,-0.375 0.922,-0.859 0,-0.516 -0.375,-0.891 -0.922,-0.891 z m 0.672,3.547 h -1.297 v 7.375 h 1.297 z"
         style="fill:#332288;fill-opacity:1;fill-rule:nonzero;stroke:none"
         id="path120" /><path
         d="m 74.988,24.652 c -1,0 -1.672,0.532 -2.203,1.328 -0.265,-0.843 -0.937,-1.328 -1.859,-1.328 -0.969,0 -1.641,0.5 -2.125,1.25 l -0.11,-1.078 h -1.109 v 7.375 h 1.297 v -5.234 c 0.484,-0.781 0.937,-1.297 1.734,-1.297 0.547,0 1.032,0.312 1.032,1.422 v 5.109 h 1.281 v -5.234 c 0.515,-0.781 0.937,-1.297 1.734,-1.297 0.563,0 1.047,0.312 1.047,1.422 v 5.109 h 1.281 v -5.297 c 0,-1.375 -0.797,-2.25 -2,-2.25 z"
         style="fill:#332288;fill-opacity:1;fill-rule:nonzero;stroke:none"
         id="path122" /><path
         d="m 85.156,23.996 c -0.875,0.391 -1.547,0.703 -3.375,0.656 -1.625,0 -2.843,1.063 -2.843,2.578 0,0.954 0.39,1.594 1.25,2.047 -0.532,0.344 -0.813,0.828 -0.813,1.297 0,0.75 0.578,1.406 1.906,1.406 h 1.157 c 0.921,0 1.484,0.344 1.484,1.047 0,0.735 -0.563,1.141 -2.156,1.141 -1.625,0 -2,-0.391 -2,-1.234 h -1.172 c 0,1.5 0.765,2.25 3.172,2.25 2.281,0 3.453,-0.813 3.453,-2.25 0,-1.172 -1,-2.032 -2.516,-2.032 h -1.172 c -0.765,0 -0.969,-0.265 -0.969,-0.609 0,-0.266 0.157,-0.531 0.36,-0.688 0.312,0.11 0.609,0.141 0.937,0.141 1.766,0 2.813,-1.047 2.813,-2.5 0,-0.859 -0.438,-1.469 -1.297,-1.859 0.844,0 1.531,-0.032 2.156,-0.235 z m -3.375,1.578 c 1.047,0 1.578,0.563 1.578,1.641 0,1.062 -0.547,1.687 -1.547,1.687 -1.015,0 -1.562,-0.687 -1.562,-1.672 0,-0.968 0.531,-1.656 1.531,-1.656 z"
         style="fill:#332288;fill-opacity:1;fill-rule:nonzero;stroke:none"
         id="path124" /><path
         d="m 86.375,27.277 h 3.953 v 1.078 h -3.953 z"
         style="fill:#332288;fill-opacity:1;fill-rule:nonzero;stroke:none"
         id="path126" /><path
         d="m 95.707,24.652 c -0.891,0 -1.578,0.563 -1.969,1.672 l -0.125,-1.5 h -1.109 v 7.375 h 1.297 V 27.98 c 0.297,-1.406 0.828,-2.062 1.75,-2.062 0.265,0 0.422,0.016 0.656,0.078 l 0.234,-1.266 c -0.218,-0.046 -0.484,-0.078 -0.734,-0.078 z"
         style="fill:#332288;fill-opacity:1;fill-rule:nonzero;stroke:none"
         id="path128" /><path
         d="m 103.344,28.293 c 0,-2.25 -1.047,-3.641 -3.047,-3.641 -1.906,0 -3.063,1.641 -3.063,3.938 0,2.328 1.204,3.781 3.266,3.781 1.016,0 1.844,-0.359 2.578,-0.922 l -0.562,-0.781 c -0.641,0.453 -1.188,0.656 -1.922,0.656 -1.063,0 -1.86,-0.672 -1.985,-2.375 h 4.703 c 0.016,-0.172 0.032,-0.406 0.032,-0.656 z m -1.282,-0.297 h -3.453 c 0.094,-1.641 0.735,-2.328 1.719,-2.328 1.156,0 1.734,0.812 1.734,2.25 z"
         style="fill:#332288;fill-opacity:1;fill-rule:nonzero;stroke:none"
         id="path130" /><path
         d="m 107.98,22.73 c 0.375,0 0.797,0.079 1.282,0.282 l 0.406,-0.938 c -0.594,-0.25 -1.063,-0.375 -1.766,-0.375 -1.5,0 -2.312,0.875 -2.312,2.11 v 1.015 h -1.313 v 0.985 h 1.313 v 6.39 h 1.297 v -6.39 h 1.64 l 0.141,-0.985 h -1.781 v -1.031 c 0,-0.703 0.281,-1.063 1.093,-1.063 z"
         style="fill:#332288;fill-opacity:1;fill-rule:nonzero;stroke:none"
         id="path132" /><path
         d="m 110.641,25.262 c -0.547,0 -0.969,0.437 -0.969,0.968 0,0.547 0.422,0.985 0.969,0.985 0.547,0 0.968,-0.438 0.968,-0.985 0,-0.531 -0.421,-0.968 -0.968,-0.968 z m 0,5.156 c -0.547,0 -0.969,0.437 -0.969,0.969 0,0.547 0.422,0.984 0.969,0.984 0.547,0 0.968,-0.437 0.968,-0.984 0,-0.532 -0.421,-0.969 -0.968,-0.969 z"
         style="fill:#332288;fill-opacity:1;fill-rule:nonzero;stroke:none"
         id="path134" /><path
         d="m 121.789,21.699 v 3.86 c -0.484,-0.516 -1.109,-0.907 -1.984,-0.907 -1.813,0 -2.891,1.641 -2.891,3.891 0,2.297 0.984,3.828 2.781,3.828 0.907,0 1.657,-0.453 2.125,-1.187 l 0.125,1.015 h 1.141 V 21.855 Z m -1.812,9.641 c -1.063,0 -1.688,-0.875 -1.688,-2.828 0,-1.907 0.688,-2.844 1.797,-2.844 0.734,0 1.25,0.391 1.703,0.969 v 3.609 c -0.484,0.688 -0.984,1.094 -1.812,1.094 z"
         style="fill:#332288;fill-opacity:1;fill-rule:nonzero;stroke:none"
         id="path136" /><path
         d="m 131.316,28.293 c 0,-2.25 -1.046,-3.641 -3.046,-3.641 -1.907,0 -3.063,1.641 -3.063,3.938 0,2.328 1.203,3.781 3.266,3.781 1.015,0 1.843,-0.359 2.578,-0.922 l -0.563,-0.781 c -0.64,0.453 -1.187,0.656 -1.922,0.656 -1.062,0 -1.859,-0.672 -1.984,-2.375 h 4.703 c 0.016,-0.172 0.031,-0.406 0.031,-0.656 z m -1.281,-0.297 h -3.453 c 0.094,-1.641 0.734,-2.328 1.719,-2.328 1.156,0 1.734,0.812 1.734,2.25 z"
         style="fill:#332288;fill-opacity:1;fill-rule:nonzero;stroke:none"
         id="path138" /><path
         d="m 136.812,24.652 c -0.89,0 -1.578,0.407 -2.078,1.094 v -4.047 l -1.296,0.156 v 10.344 h 1.14 l 0.125,-0.812 c 0.5,0.609 1.141,0.984 1.953,0.984 1.797,0 2.906,-1.562 2.906,-3.875 0,-2.453 -1.078,-3.844 -2.75,-3.844 z m -0.468,6.688 c -0.656,0 -1.235,-0.406 -1.61,-0.985 v -3.531 c 0.375,-0.594 0.907,-1.156 1.719,-1.156 1.031,0 1.719,0.734 1.719,2.828 0,2.016 -0.75,2.844 -1.828,2.844 z"
         style="fill:#332288;fill-opacity:1;fill-rule:nonzero;stroke:none"
         id="path140" /><path
         d="m 142.379,21.277 c -0.531,0 -0.891,0.375 -0.891,0.891 0,0.484 0.36,0.859 0.891,0.859 0.547,0 0.922,-0.375 0.922,-0.859 0,-0.516 -0.375,-0.891 -0.922,-0.891 z m 0.672,3.547 h -1.297 v 7.375 h 1.297 z"
         style="fill:#332288;fill-opacity:1;fill-rule:nonzero;stroke:none"
         id="path142" /><path
         d="m 150.672,30.48 v -3.375 c 0,-1.546 -0.813,-2.453 -2.594,-2.453 -0.812,0 -1.625,0.172 -2.547,0.5 l 0.328,0.938 c 0.75,-0.25 1.438,-0.391 1.985,-0.391 1.031,0 1.547,0.391 1.547,1.453 v 0.547 h -1.141 c -2.062,0 -3.25,0.86 -3.25,2.438 0,1.328 0.891,2.234 2.359,2.234 0.891,0 1.672,-0.344 2.203,-1.109 0.219,0.734 0.688,1.015 1.438,1.109 l 0.297,-0.906 c -0.391,-0.141 -0.625,-0.344 -0.625,-0.985 z m -3.016,0.922 c -0.844,0 -1.281,-0.468 -1.281,-1.328 0,-1.015 0.687,-1.515 2.047,-1.515 h 0.969 v 1.687 c -0.422,0.781 -0.985,1.156 -1.735,1.156 z"
         style="fill:#332288;fill-opacity:1;fill-rule:nonzero;stroke:none"
         id="path144" /><path
         d="m 156.785,24.652 c -0.953,0 -1.75,0.5 -2.25,1.266 l -0.109,-1.094 h -1.11 v 7.375 h 1.297 v -5.234 c 0.485,-0.781 1.047,-1.297 1.875,-1.297 0.703,0 1.157,0.312 1.157,1.422 v 5.109 h 1.281 v -5.297 c 0,-1.39 -0.781,-2.25 -2.141,-2.25 z"
         style="fill:#332288;fill-opacity:1;fill-rule:nonzero;stroke:none"
         id="path146" /><path
         d="m 67.906,45.191 h -1.359 l -1.922,6.235 -1.922,-6.235 h -1.406 l 2.547,7.375 h 1.547 z"
         style="fill:#332288;fill-opacity:1;fill-rule:nonzero;stroke:none"
         id="path148" /><path
         d="m 76.781,45.02 c -1,0 -1.672,0.531 -2.203,1.328 -0.266,-0.844 -0.937,-1.328 -1.859,-1.328 -0.969,0 -1.641,0.5 -2.125,1.25 l -0.11,-1.079 h -1.109 v 7.375 h 1.297 v -5.234 c 0.484,-0.781 0.937,-1.297 1.734,-1.297 0.547,0 1.032,0.313 1.032,1.422 v 5.109 h 1.281 v -5.234 c 0.515,-0.781 0.937,-1.297 1.734,-1.297 0.563,0 1.047,0.313 1.047,1.422 v 5.109 h 1.281 V 47.27 c 0,-1.375 -0.797,-2.25 -2,-2.25 z"
         style="fill:#332288;fill-opacity:1;fill-rule:nonzero;stroke:none"
         id="path150" /><path
         d="m 80.887,47.645 h 3.953 v 1.078 h -3.953 z"
         style="fill:#332288;fill-opacity:1;fill-rule:nonzero;stroke:none"
         id="path152" /><path
         d="m 90.484,45.02 c -0.953,0 -1.75,0.5 -2.25,1.265 l -0.109,-1.094 h -1.109 v 7.375 h 1.296 v -5.234 c 0.485,-0.781 1.047,-1.297 1.876,-1.297 0.703,0 1.156,0.313 1.156,1.422 v 5.109 h 1.281 V 47.27 c 0,-1.391 -0.781,-2.25 -2.141,-2.25 z"
         style="fill:#332288;fill-opacity:1;fill-rule:nonzero;stroke:none"
         id="path154" /><path
         d="m 100.188,50.848 v -3.375 c 0,-1.547 -0.813,-2.453 -2.594,-2.453 -0.813,0 -1.625,0.171 -2.547,0.5 l 0.328,0.937 c 0.75,-0.25 1.437,-0.391 1.984,-0.391 1.032,0 1.547,0.391 1.547,1.454 v 0.546 h -1.14 c -2.063,0 -3.25,0.86 -3.25,2.438 0,1.328 0.89,2.234 2.359,2.234 0.891,0 1.672,-0.343 2.203,-1.109 0.219,0.734 0.688,1.016 1.438,1.109 l 0.296,-0.906 c -0.39,-0.141 -0.624,-0.344 -0.624,-0.984 z m -3.016,0.922 c -0.844,0 -1.281,-0.469 -1.281,-1.329 0,-1.015 0.687,-1.515 2.047,-1.515 h 0.968 v 1.687 c -0.422,0.782 -0.984,1.157 -1.734,1.157 z"
         style="fill:#332288;fill-opacity:1;fill-rule:nonzero;stroke:none"
         id="path156" /><path
         d="m 110.242,45.02 c -1,0 -1.672,0.531 -2.203,1.328 -0.266,-0.844 -0.937,-1.328 -1.859,-1.328 -0.969,0 -1.641,0.5 -2.125,1.25 l -0.11,-1.079 h -1.109 v 7.375 h 1.297 v -5.234 c 0.484,-0.781 0.937,-1.297 1.734,-1.297 0.547,0 1.031,0.313 1.031,1.422 v 5.109 h 1.282 v -5.234 c 0.515,-0.781 0.937,-1.297 1.734,-1.297 0.563,0 1.047,0.313 1.047,1.422 v 5.109 h 1.281 V 47.27 c 0,-1.375 -0.797,-2.25 -2,-2.25 z"
         style="fill:#332288;fill-opacity:1;fill-rule:nonzero;stroke:none"
         id="path158" /><path
         d="m 120.41,48.66 c 0,-2.25 -1.047,-3.64 -3.047,-3.64 -1.906,0 -3.062,1.64 -3.062,3.937 0,2.328 1.203,3.781 3.265,3.781 1.016,0 1.844,-0.359 2.579,-0.922 l -0.563,-0.781 c -0.641,0.453 -1.187,0.656 -1.922,0.656 -1.062,0 -1.859,-0.671 -1.984,-2.375 h 4.703 c 0.016,-0.171 0.031,-0.406 0.031,-0.656 z m -1.281,-0.297 h -3.453 c 0.094,-1.64 0.734,-2.328 1.719,-2.328 1.156,0 1.734,0.813 1.734,2.25 z"
         style="fill:#332288;fill-opacity:1;fill-rule:nonzero;stroke:none"
         id="path160" /><path
         d="m 122.875,45.629 c -0.547,0 -0.969,0.437 -0.969,0.969 0,0.547 0.422,0.984 0.969,0.984 0.547,0 0.969,-0.437 0.969,-0.984 0,-0.532 -0.422,-0.969 -0.969,-0.969 z m 0,5.156 c -0.547,0 -0.969,0.438 -0.969,0.969 0,0.547 0.422,0.984 0.969,0.984 0.547,0 0.969,-0.437 0.969,-0.984 0,-0.531 -0.422,-0.969 -0.969,-0.969 z"
         style="fill:#332288;fill-opacity:1;fill-rule:nonzero;stroke:none"
         id="path162" /><path
         d="m 137.008,45.02 c -1,0 -1.672,0.531 -2.203,1.328 -0.266,-0.844 -0.938,-1.328 -1.86,-1.328 -0.968,0 -1.64,0.5 -2.125,1.25 l -0.109,-1.079 h -1.109 v 7.375 h 1.296 v -5.234 c 0.485,-0.781 0.938,-1.297 1.735,-1.297 0.547,0 1.031,0.313 1.031,1.422 v 5.109 h 1.281 v -5.234 c 0.516,-0.781 0.938,-1.297 1.735,-1.297 0.562,0 1.047,0.313 1.047,1.422 v 5.109 h 1.281 V 47.27 c 0,-1.375 -0.797,-2.25 -2,-2.25 z"
         style="fill:#332288;fill-opacity:1;fill-rule:nonzero;stroke:none"
         id="path164" /><path
         d="m 146.883,45.191 h -1.328 l -1.938,6.438 -1.969,-6.438 h -1.375 l 2.485,7.375 h 0.422 c -0.422,1.141 -0.828,1.719 -2.328,1.969 l 0.14,1.016 c 2.031,-0.219 2.906,-1.375 3.422,-2.938 z"
         style="fill:#2e3436;fill-opacity:1;fill-rule:nonzero;stroke:none"
         id="path166" /><path
         d="m 147.863,47.645 h 3.953 v 1.078 h -3.953 z"
         style="fill:#332288;fill-opacity:1;fill-rule:nonzero;stroke:none"
         id="path168" /><path
         d="m 159.41,45.191 h -1.359 l -1.922,6.235 -1.922,-6.235 h -1.406 l 2.547,7.375 h 1.547 z"
         style="fill:#332288;fill-opacity:1;fill-rule:nonzero;stroke:none"
         id="path170" /><path
         d="m 168.285,45.02 c -1,0 -1.672,0.531 -2.203,1.328 -0.266,-0.844 -0.937,-1.328 -1.859,-1.328 -0.969,0 -1.641,0.5 -2.125,1.25 l -0.11,-1.079 h -1.109 v 7.375 h 1.297 v -5.234 c 0.484,-0.781 0.937,-1.297 1.734,-1.297 0.547,0 1.031,0.313 1.031,1.422 v 5.109 h 1.282 v -5.234 c 0.515,-0.781 0.937,-1.297 1.734,-1.297 0.563,0 1.047,0.313 1.047,1.422 v 5.109 h 1.281 V 47.27 c 0,-1.375 -0.797,-2.25 -2,-2.25 z"
         style="fill:#332288;fill-opacity:1;fill-rule:nonzero;stroke:none"
         id="path172" /><path
         d="m 175.883,40.863 v 1 c 0.937,0 1.328,0.25 1.328,0.938 v 3.359 c 0,1.016 0.406,1.297 1.062,1.516 -0.656,0.234 -1.062,0.484 -1.062,1.5 v 3.344 c 0,0.703 -0.391,0.953 -1.328,0.953 v 1 c 1.89,0 2.547,-0.625 2.547,-2.094 V 49.27 c 0,-0.766 0.25,-1.063 0.984,-1.063 v -1.062 c -0.734,0 -0.984,-0.313 -0.984,-1.094 v -3.11 c 0,-1.468 -0.657,-2.078 -2.547,-2.078 z"
         style="fill:#332288;fill-opacity:1;fill-rule:nonzero;stroke:none"
         id="path174" /><path
         d="m 242.422,37.117 c -1.36,1.938 -2.594,3.61 -2.594,6.922 0,3.328 1.234,4.984 2.594,6.938 l 0.812,-0.563 c -1.25,-1.859 -2.062,-3.375 -2.062,-6.375 0,-3 0.812,-4.5 2.062,-6.359 z"
         style="fill:#332288;fill-opacity:1;fill-rule:nonzero;stroke:none"
         id="path176" /><path
         d="m 246.988,39.445 c -1.172,0 -2.078,0.469 -2.843,1.407 l 0.875,0.671 c 0.593,-0.718 1.125,-1.015 1.906,-1.015 0.906,0 1.531,0.562 1.531,1.547 0,1.531 -0.812,2.422 -4.109,5.875 v 1.015 h 5.531 l 0.156,-1.078 h -4.219 c 2.875,-2.875 3.985,-4.109 3.985,-5.859 0,-1.469 -1.094,-2.563 -2.813,-2.563 z"
         style="fill:#332288;fill-opacity:1;fill-rule:nonzero;stroke:none"
         id="path178" /><path
         d="m 252.105,37.117 -0.812,0.563 c 1.25,1.859 2.062,3.359 2.062,6.359 0,3 -0.812,4.516 -2.062,6.375 l 0.812,0.563 c 1.375,-1.954 2.594,-3.61 2.594,-6.938 0,-3.312 -1.219,-4.984 -2.594,-6.922 z"
         style="fill:#332288;fill-opacity:1;fill-rule:nonzero;stroke:none"
         id="path180" /><path
         d="m 263.898,39.133 c -2.156,0 -4.156,1.734 -4.156,4.984 0,3.328 1.563,5 3.953,5 1.36,0 2.36,-0.344 3.25,-0.859 v -4.656 h -3.187 l 0.156,1.078 h 1.719 v 2.89 c -0.547,0.328 -1.203,0.453 -1.844,0.453 -1.687,0 -2.625,-1.14 -2.625,-3.906 0,-2.844 1.375,-3.89 2.766,-3.89 0.875,0 1.437,0.234 2.109,0.781 l 0.797,-0.813 c -0.828,-0.687 -1.625,-1.062 -2.938,-1.062 z"
         style="fill:#332288;fill-opacity:1;fill-rule:nonzero;stroke:none"
         id="path182" /><path
         d="m 274.438,39.305 h -5.219 v 9.64 h 5.328 v -1.062 h -4 V 44.57 h 3.25 v -1.062 h -3.25 v -3.141 h 3.734 z"
         style="fill:#332288;fill-opacity:1;fill-rule:nonzero;stroke:none"
         id="path184" /><path
         d="m 282.395,39.305 h -6.891 v 1.125 h 2.75 v 8.515 h 1.328 V 40.43 h 2.672 z"
         style="fill:#332288;fill-opacity:1;fill-rule:nonzero;stroke:none"
         id="path186" /><path
         d="m 290.969,37.648 -3.25,12.485 1.109,0.265 3.234,-12.5 z"
         style="fill:#332288;fill-opacity:1;fill-rule:nonzero;stroke:none"
         id="path188" /><path
         d="m 295.484,38.023 c -0.531,0 -0.89,0.375 -0.89,0.891 0,0.484 0.359,0.859 0.89,0.859 0.547,0 0.922,-0.375 0.922,-0.859 0,-0.516 -0.375,-0.891 -0.922,-0.891 z m 0.672,3.547 h -1.297 v 7.375 h 1.297 z"
         style="fill:#332288;fill-opacity:1;fill-rule:nonzero;stroke:none"
         id="path190" /><path
         d="m 306.211,41.398 c -1,0 -1.672,0.532 -2.203,1.329 -0.266,-0.844 -0.938,-1.329 -1.86,-1.329 -0.968,0 -1.64,0.5 -2.125,1.25 l -0.109,-1.078 h -1.109 v 7.375 h 1.297 v -5.234 c 0.484,-0.781 0.937,-1.297 1.734,-1.297 0.547,0 1.031,0.313 1.031,1.422 v 5.109 h 1.281 v -5.234 c 0.516,-0.781 0.938,-1.297 1.735,-1.297 0.562,0 1.047,0.313 1.047,1.422 v 5.109 h 1.281 v -5.297 c 0,-1.375 -0.797,-2.25 -2,-2.25 z"
         style="fill:#332288;fill-opacity:1;fill-rule:nonzero;stroke:none"
         id="path192" /><path
         d="m 315.773,47.227 v -3.375 c 0,-1.547 -0.812,-2.454 -2.593,-2.454 -0.813,0 -1.625,0.172 -2.547,0.5 l 0.328,0.938 c 0.75,-0.25 1.437,-0.391 1.984,-0.391 1.032,0 1.547,0.391 1.547,1.453 v 0.547 h -1.14 c -2.063,0 -3.25,0.86 -3.25,2.438 0,1.328 0.89,2.234 2.359,2.234 0.891,0 1.672,-0.344 2.203,-1.109 0.219,0.734 0.688,1.015 1.438,1.109 l 0.296,-0.906 c -0.39,-0.141 -0.625,-0.344 -0.625,-0.984 z m -3.015,0.921 c -0.844,0 -1.281,-0.468 -1.281,-1.328 0,-1.015 0.687,-1.515 2.046,-1.515 h 0.969 v 1.687 c -0.422,0.781 -0.984,1.156 -1.734,1.156 z"
         style="fill:#332288;fill-opacity:1;fill-rule:nonzero;stroke:none"
         id="path194" /><path
         d="m 324,40.742 c -0.875,0.391 -1.547,0.703 -3.375,0.656 -1.625,0 -2.844,1.063 -2.844,2.579 0,0.953 0.391,1.593 1.25,2.046 -0.531,0.344 -0.812,0.829 -0.812,1.297 0,0.75 0.578,1.407 1.906,1.407 h 1.156 c 0.922,0 1.485,0.343 1.485,1.046 0,0.735 -0.563,1.141 -2.157,1.141 -1.625,0 -2,-0.391 -2,-1.234 h -1.171 c 0,1.5 0.765,2.25 3.171,2.25 2.282,0 3.453,-0.813 3.453,-2.25 0,-1.172 -1,-2.032 -2.515,-2.032 h -1.172 c -0.766,0 -0.969,-0.265 -0.969,-0.609 0,-0.266 0.156,-0.531 0.36,-0.687 0.312,0.109 0.609,0.14 0.937,0.14 1.766,0 2.813,-1.047 2.813,-2.5 0,-0.859 -0.438,-1.469 -1.297,-1.859 0.843,0 1.531,-0.031 2.156,-0.235 z m -3.375,1.578 c 1.047,0 1.578,0.563 1.578,1.641 0,1.062 -0.547,1.687 -1.547,1.687 -1.015,0 -1.562,-0.687 -1.562,-1.671 0,-0.969 0.531,-1.657 1.531,-1.657 z"
         style="fill:#332288;fill-opacity:1;fill-rule:nonzero;stroke:none"
         id="path196" /><path
         d="m 331.137,45.039 c 0,-2.25 -1.047,-3.641 -3.047,-3.641 -1.906,0 -3.063,1.641 -3.063,3.938 0,2.328 1.203,3.781 3.266,3.781 1.016,0 1.844,-0.359 2.578,-0.922 l -0.562,-0.781 c -0.641,0.453 -1.188,0.656 -1.922,0.656 -1.063,0 -1.86,-0.672 -1.985,-2.375 h 4.703 c 0.016,-0.172 0.032,-0.406 0.032,-0.656 z m -1.282,-0.297 h -3.453 c 0.094,-1.64 0.735,-2.328 1.719,-2.328 1.156,0 1.734,0.813 1.734,2.25 z"
         style="fill:#332288;fill-opacity:1;fill-rule:nonzero;stroke:none"
         id="path198" /><path
         d="m 336.652,37.648 -3.25,12.485 1.11,0.265 3.234,-12.5 z"
         style="fill:#332288;fill-opacity:1;fill-rule:nonzero;stroke:none"
         id="path200" /><path
         d="m 343.703,38.445 v 3.86 c -0.484,-0.516 -1.109,-0.907 -1.984,-0.907 -1.813,0 -2.891,1.641 -2.891,3.891 0,2.297 0.984,3.828 2.781,3.828 0.907,0 1.657,-0.453 2.125,-1.187 l 0.125,1.015 H 345 V 38.602 Z m -1.812,9.641 c -1.063,0 -1.688,-0.875 -1.688,-2.828 0,-1.906 0.688,-2.844 1.797,-2.844 0.734,0 1.25,0.391 1.703,0.969 v 3.609 c -0.484,0.688 -0.984,1.094 -1.812,1.094 z"
         style="fill:#332288;fill-opacity:1;fill-rule:nonzero;stroke:none"
         id="path202" /><path
         d="m 353.23,45.039 c 0,-2.25 -1.046,-3.641 -3.046,-3.641 -1.907,0 -3.063,1.641 -3.063,3.938 0,2.328 1.203,3.781 3.266,3.781 1.015,0 1.843,-0.359 2.578,-0.922 l -0.563,-0.781 c -0.64,0.453 -1.187,0.656 -1.922,0.656 -1.062,0 -1.859,-0.672 -1.984,-2.375 h 4.703 c 0.016,-0.172 0.031,-0.406 0.031,-0.656 z m -1.281,-0.297 h -3.453 c 0.094,-1.64 0.734,-2.328 1.719,-2.328 1.156,0 1.734,0.813 1.734,2.25 z"
         style="fill:#332288;fill-opacity:1;fill-rule:nonzero;stroke:none"
         id="path204" /><path
         d="m 358.727,41.398 c -0.891,0 -1.579,0.407 -2.079,1.094 v -4.047 l -1.296,0.157 v 10.343 h 1.14 l 0.125,-0.812 c 0.5,0.609 1.141,0.984 1.953,0.984 1.797,0 2.907,-1.562 2.907,-3.875 0,-2.453 -1.079,-3.844 -2.75,-3.844 z m -0.469,6.688 c -0.656,0 -1.235,-0.406 -1.61,-0.984 V 43.57 c 0.375,-0.593 0.907,-1.156 1.719,-1.156 1.031,0 1.719,0.734 1.719,2.828 0,2.016 -0.75,2.844 -1.828,2.844 z"
         style="fill:#332288;fill-opacity:1;fill-rule:nonzero;stroke:none"
         id="path206" /><path
         d="m 364.293,38.023 c -0.531,0 -0.891,0.375 -0.891,0.891 0,0.484 0.36,0.859 0.891,0.859 0.547,0 0.922,-0.375 0.922,-0.859 0,-0.516 -0.375,-0.891 -0.922,-0.891 z m 0.672,3.547 h -1.297 v 7.375 h 1.297 z"
         style="fill:#332288;fill-opacity:1;fill-rule:nonzero;stroke:none"
         id="path208" /><path
         d="m 372.586,47.227 v -3.375 c 0,-1.547 -0.813,-2.454 -2.594,-2.454 -0.812,0 -1.625,0.172 -2.547,0.5 l 0.328,0.938 c 0.75,-0.25 1.438,-0.391 1.985,-0.391 1.031,0 1.547,0.391 1.547,1.453 v 0.547 h -1.141 c -2.062,0 -3.25,0.86 -3.25,2.438 0,1.328 0.891,2.234 2.359,2.234 0.891,0 1.672,-0.344 2.204,-1.109 0.218,0.734 0.687,1.015 1.437,1.109 l 0.297,-0.906 c -0.391,-0.141 -0.625,-0.344 -0.625,-0.984 z m -3.016,0.921 c -0.843,0 -1.281,-0.468 -1.281,-1.328 0,-1.015 0.688,-1.515 2.047,-1.515 h 0.969 v 1.687 c -0.422,0.781 -0.985,1.156 -1.735,1.156 z"
         style="fill:#332288;fill-opacity:1;fill-rule:nonzero;stroke:none"
         id="path210" /><path
         d="m 378.699,41.398 c -0.953,0 -1.75,0.5 -2.25,1.266 L 376.34,41.57 h -1.11 v 7.375 h 1.297 v -5.234 c 0.485,-0.781 1.047,-1.297 1.875,-1.297 0.703,0 1.157,0.313 1.157,1.422 v 5.109 h 1.281 v -5.297 c 0,-1.39 -0.781,-2.25 -2.141,-2.25 z"
         style="fill:#332288;fill-opacity:1;fill-rule:nonzero;stroke:none"
         id="path212" /><path
         d="m 386.828,37.648 -3.25,12.485 1.11,0.265 3.234,-12.5 z"
         style="fill:#332288;fill-opacity:1;fill-rule:nonzero;stroke:none"
         id="path214" /><path
         d="m 393.109,38.445 c -1.781,0 -2.547,0.907 -2.547,2.157 v 0.968 h -1.171 v 0.985 h 1.171 v 6.39 h 1.297 v -6.39 h 2.829 v 6.39 h 1.281 V 41.57 h -4.11 v -0.984 c 0,-0.703 0.266,-1.094 1.297,-1.094 0.578,0 1.094,0.125 1.547,0.36 l 0.453,-0.907 c -0.594,-0.297 -1.218,-0.5 -2.047,-0.5 z"
         style="fill:#332288;fill-opacity:1;fill-rule:nonzero;stroke:none"
         id="path216" /><path
         d="m 400.094,49.117 c 0.375,0 0.75,-0.109 1.031,-0.25 l -0.344,-0.906 c -0.14,0.062 -0.297,0.094 -0.469,0.094 -0.343,0 -0.468,-0.203 -0.468,-0.594 v -9.016 l -1.282,0.157 v 8.89 c 0,1.047 0.594,1.625 1.532,1.625 z"
         style="fill:#332288;fill-opacity:1;fill-rule:nonzero;stroke:none"
         id="path218" /><path
         d="m 408.168,45.039 c 0,-2.25 -1.047,-3.641 -3.047,-3.641 -1.906,0 -3.062,1.641 -3.062,3.938 0,2.328 1.203,3.781 3.265,3.781 1.016,0 1.844,-0.359 2.578,-0.922 l -0.562,-0.781 c -0.641,0.453 -1.188,0.656 -1.922,0.656 -1.063,0 -1.859,-0.672 -1.984,-2.375 h 4.703 c 0.015,-0.172 0.031,-0.406 0.031,-0.656 z m -1.281,-0.297 h -3.453 c 0.093,-1.64 0.734,-2.328 1.718,-2.328 1.157,0 1.735,0.813 1.735,2.25 z"
         style="fill:#332288;fill-opacity:1;fill-rule:nonzero;stroke:none"
         id="path220" /><path
         d="m 289.344,107.246 -0.547,3.844 c -0.406,-0.516 -1.031,-0.922 -1.891,-0.922 -2.531,0 -3.437,2.891 -3.437,4.781 0,1.781 0.812,2.938 2.343,2.938 0.954,0 1.704,-0.532 2.219,-1.391 l -0.015,1.219 h 1.125 l 1.453,-10.328 z m -2.203,3.938 c 0.687,0 1.14,0.328 1.531,0.906 l -0.438,3.062 c -0.656,1.032 -1.265,1.703 -2.172,1.703 -0.765,0 -1.234,-0.546 -1.234,-1.796 0,-1.469 0.516,-3.875 2.313,-3.875 z"
         style="fill:#332288;fill-opacity:1;fill-rule:nonzero;stroke:none"
         id="path222" /><path
         d="m 297.836,112.043 c 0,-0.984 -0.766,-1.875 -2.344,-1.875 -2.797,0 -3.781,2.703 -3.781,4.719 0,1.859 1,3 2.812,3 0.969,0 1.844,-0.328 2.641,-0.907 l -0.547,-0.859 c -0.672,0.469 -1.281,0.688 -1.969,0.688 -0.937,0 -1.578,-0.5 -1.593,-1.844 2.562,-0.281 4.781,-0.844 4.781,-2.922 z m -4.719,1.953 c 0.188,-1.344 0.828,-2.812 2.375,-2.812 0.797,0 1,0.546 1,0.906 0,1.25 -1.265,1.656 -3.375,1.906 z"
         style="fill:#332288;fill-opacity:1;fill-rule:nonzero;stroke:none"
         id="path224" /><path
         d="m 301.832,107.215 -1.297,0.156 -1.406,10.016 c 1.062,0.359 1.766,0.5 2.594,0.5 2.922,0 3.953,-2.75 3.953,-4.813 0,-1.875 -0.844,-2.906 -2.235,-2.906 -0.812,0 -1.484,0.328 -2.14,0.891 z m 1.203,3.969 c 0.766,0 1.313,0.468 1.313,1.781 0,1.656 -0.688,3.89 -2.516,3.89 -0.516,0 -0.844,-0.046 -1.312,-0.218 l 0.609,-4.375 c 0.531,-0.563 1.125,-1.078 1.906,-1.078 z"
         style="fill:#332288;fill-opacity:1;fill-rule:nonzero;stroke:none"
         id="path226" /><path
         d="m 309.297,106.793 c -0.5,0 -0.875,0.344 -0.953,0.812 -0.063,0.516 0.265,0.938 0.812,0.938 0.532,0 0.891,-0.328 0.953,-0.797 0.079,-0.531 -0.234,-0.953 -0.812,-0.953 z m 0.203,3.547 h -1.281 l -1.031,7.375 h 1.281 z"
         style="fill:#332288;fill-opacity:1;fill-rule:nonzero;stroke:none"
         id="path228" /><path
         d="m 314.938,110.168 c -2.876,0 -3.938,2.875 -3.938,4.891 0,1.687 0.812,2.828 2.344,2.828 0.875,0 1.625,-0.5 2.203,-1.235 0.094,0.797 0.562,1.125 1.297,1.235 l 0.375,-0.891 c -0.297,-0.109 -0.485,-0.266 -0.485,-0.672 0,-0.078 0.016,-0.172 0.032,-0.297 l 0.796,-5.234 c -0.984,-0.469 -1.75,-0.625 -2.624,-0.625 z m 0.015,1.016 c 0.531,0 0.828,0.062 1.25,0.25 l -0.609,4.062 c -0.578,0.781 -1.156,1.359 -1.938,1.359 -0.828,0 -1.281,-0.546 -1.281,-1.781 0,-1.656 0.703,-3.89 2.578,-3.89 z"
         style="fill:#332288;fill-opacity:1;fill-rule:nonzero;stroke:none"
         id="path230" /><path
         d="m 323.637,110.168 c -1.063,0 -1.875,0.641 -2.563,1.609 l 0.11,-1.437 h -1.094 l -1.031,7.375 h 1.281 l 0.594,-4.422 c 0.593,-1.047 1.421,-2.047 2.359,-2.047 0.562,0 0.922,0.281 0.781,1.313 l -0.734,5.156 h 1.281 l 0.719,-5.188 c 0.219,-1.468 -0.469,-2.359 -1.703,-2.359 z"
         style="fill:#332288;fill-opacity:1;fill-rule:nonzero;stroke:none"
         id="path232" /><path
         d="m 335.758,112.621 c 1.156,-0.234 2.156,-1.031 2.156,-2.391 0,-1.484 -1.266,-2.156 -3.016,-2.156 h -2.671 l -1.344,9.641 h 2.656 c 3.156,0 4.172,-1.391 4.172,-3.078 0,-1.36 -0.953,-1.828 -1.953,-2.016 z m -0.828,-3.5 c 0.875,0 1.64,0.203 1.64,1.141 0,1.328 -1.015,1.89 -2.187,1.89 h -1.406 l 0.421,-3.031 z m -1.344,7.531 h -1.234 l 0.484,-3.468 h 1.594 c 1.047,0 1.906,0.312 1.906,1.421 0,1.157 -0.578,2.047 -2.75,2.047 z"
         style="fill:#332288;fill-opacity:1;fill-rule:nonzero;stroke:none"
         id="path234" /><path
         d="m 341.98,108.074 h -1.328 l -1.343,9.641 h 5.093 l 0.297,-1.156 h -3.906 z"
         style="fill:#332288;fill-opacity:1;fill-rule:nonzero;stroke:none"
         id="path236" /><path
         d="m 350.809,107.902 c -3.563,0 -4.766,3.641 -4.766,6.11 0,2.515 1.359,3.875 3.453,3.875 3.563,0 4.766,-3.516 4.766,-6.063 0,-2.547 -1.344,-3.922 -3.453,-3.922 z m -0.047,1.094 c 1.343,0 2.125,0.797 2.125,2.734 0,1.954 -0.703,5.063 -3.344,5.063 -1.297,0 -2.141,-0.766 -2.141,-2.75 0,-1.969 0.735,-5.047 3.36,-5.047 z"
         style="fill:#332288;fill-opacity:1;fill-rule:nonzero;stroke:none"
         id="path238" /><path
         d="m 360.539,112.621 c 1.156,-0.234 2.156,-1.031 2.156,-2.391 0,-1.484 -1.265,-2.156 -3.015,-2.156 h -2.672 l -1.344,9.641 h 2.656 c 3.157,0 4.172,-1.391 4.172,-3.078 0,-1.36 -0.953,-1.828 -1.953,-2.016 z m -0.828,-3.5 c 0.875,0 1.641,0.203 1.641,1.141 0,1.328 -1.016,1.89 -2.188,1.89 h -1.406 l 0.422,-3.031 z m -1.344,7.531 h -1.234 l 0.484,-3.468 h 1.594 c 1.047,0 1.906,0.312 1.906,1.421 0,1.157 -0.578,2.047 -2.75,2.047 z"
         style="fill:#332288;fill-opacity:1;fill-rule:nonzero;stroke:none"
         id="path240" /><path
         d="m 96.582,107.977 h -1.375 l -3.562,8.203 -1.235,-8.203 h -1.375 l 1.719,9.64 h 1.422 z"
         style="fill:#332288;fill-opacity:1;fill-rule:nonzero;stroke:none"
         id="path242" /><path
         d="m 105.672,107.977 h -1.86 l -2.859,6.984 -1.094,-6.984 h -1.671 l -2.157,9.64 h 1.266 l 0.891,-4.219 c 0.312,-1.406 0.624,-2.984 0.75,-4.046 l 1.156,7.171 h 1.265 l 3.047,-7.187 c -0.094,0.891 -0.203,2.375 -0.297,3.891 l -0.281,4.39 h 1.281 z"
         style="fill:#332288;fill-opacity:1;fill-rule:nonzero;stroke:none"
         id="path244" /><path
         d="m 119.156,107.977 h -1.328 l -0.922,6.406 c -0.203,1.5 -0.984,2.281 -2.39,2.281 -1.328,0 -1.86,-0.703 -1.657,-2.203 l 0.922,-6.484 h -1.312 l -0.938,6.5 c -0.265,1.921 0.735,3.312 2.938,3.312 2.125,0 3.484,-1.312 3.765,-3.219 z"
         style="fill:#332288;fill-opacity:1;fill-rule:nonzero;stroke:none"
         id="path246" /><path
         d="m 128.34,107.977 h -1.328 l -0.922,6.406 c -0.203,1.5 -0.985,2.281 -2.391,2.281 -1.328,0 -1.859,-0.703 -1.656,-2.203 l 0.922,-6.484 h -1.313 l -0.937,6.5 c -0.266,1.921 0.734,3.312 2.937,3.312 2.125,0 3.485,-1.312 3.766,-3.219 z"
         style="fill:#332288;fill-opacity:1;fill-rule:nonzero;stroke:none"
         id="path248" /><path
         d="m 132.289,107.977 h -1.328 l -1.344,9.64 h 1.313 z"
         style="fill:#332288;fill-opacity:1;fill-rule:nonzero;stroke:none"
         id="path250" /><path
         d="m 137.035,107.977 h -1.984 l -1.344,9.64 h 2.313 c 3.812,0 5.218,-2.89 5.218,-5.984 0,-3.016 -2.015,-3.656 -4.203,-3.656 z m 0.188,1.062 c 1.343,0 2.672,0.297 2.672,2.563 0,2.312 -0.875,4.968 -3.672,4.968 h -1.047 l 1.047,-7.531 z"
         style="fill:#332288;fill-opacity:1;fill-rule:nonzero;stroke:none"
         id="path252" /><path
         d="m 191.773,157.402 c -1.359,1.938 -2.593,3.61 -2.593,6.922 0,3.328 1.234,4.985 2.593,6.938 l 0.813,-0.563 c -1.25,-1.859 -2.063,-3.375 -2.063,-6.375 0,-3 0.813,-4.5 2.063,-6.359 z"
         style="fill:#332288;fill-opacity:1;fill-rule:nonzero;stroke:none"
         id="path254" /><path
         d="m 196.309,159.73 c -1.016,0 -1.875,0.36 -2.688,1.094 l 0.672,0.781 c 0.641,-0.593 1.203,-0.843 1.937,-0.843 0.938,0 1.563,0.547 1.563,1.422 0,1.093 -0.781,1.656 -1.703,1.656 h -0.469 l -0.156,1 h 0.703 c 1.125,0 1.859,0.39 1.859,1.672 0,1.109 -0.718,1.843 -1.89,1.843 -0.766,0 -1.391,-0.281 -2,-0.937 l -0.782,0.719 c 0.719,0.859 1.704,1.265 2.829,1.265 1.937,0 3.187,-1.234 3.187,-2.875 0,-1.406 -0.937,-2.156 -2.109,-2.265 1.047,-0.25 1.812,-0.969 1.812,-2.157 0,-1.265 -0.984,-2.375 -2.765,-2.375 z"
         style="fill:#332288;fill-opacity:1;fill-rule:nonzero;stroke:none"
         id="path256" /><path
         d="m 201.512,157.402 -0.813,0.563 c 1.25,1.859 2.063,3.359 2.063,6.359 0,3 -0.813,4.516 -2.063,6.375 l 0.813,0.563 c 1.375,-1.953 2.593,-3.61 2.593,-6.938 0,-3.312 -1.218,-4.984 -2.593,-6.922 z"
         style="fill:#332288;fill-opacity:1;fill-rule:nonzero;stroke:none"
         id="path258" /><path
         d="m 213.086,161.684 c -0.891,0 -1.578,0.406 -2.078,1.093 v -4.047 l -1.297,0.157 v 10.343 h 1.141 l 0.125,-0.812 c 0.5,0.609 1.14,0.984 1.953,0.984 1.797,0 2.906,-1.562 2.906,-3.875 0,-2.453 -1.078,-3.843 -2.75,-3.843 z m -0.469,6.687 c -0.656,0 -1.234,-0.406 -1.609,-0.984 v -3.532 c 0.375,-0.593 0.906,-1.156 1.719,-1.156 1.031,0 1.718,0.735 1.718,2.828 0,2.016 -0.75,2.844 -1.828,2.844 z"
         style="fill:#332288;fill-opacity:1;fill-rule:nonzero;stroke:none"
         id="path260" /><path
         d="m 220.809,161.684 c -2.11,0 -3.313,1.578 -3.313,3.859 0,2.344 1.188,3.859 3.297,3.859 2.078,0 3.281,-1.578 3.281,-3.875 0,-2.328 -1.172,-3.843 -3.265,-3.843 z m 0,1.031 c 1.203,0 1.875,0.906 1.875,2.812 0,1.938 -0.672,2.828 -1.891,2.828 -1.234,0 -1.906,-0.89 -1.906,-2.812 0,-1.922 0.687,-2.828 1.922,-2.828 z"
         style="fill:#332288;fill-opacity:1;fill-rule:nonzero;stroke:none"
         id="path262" /><path
         d="m 228.984,161.684 c -2.109,0 -3.312,1.578 -3.312,3.859 0,2.344 1.187,3.859 3.297,3.859 2.078,0 3.281,-1.578 3.281,-3.875 0,-2.328 -1.172,-3.843 -3.266,-3.843 z m 0,1.031 c 1.204,0 1.875,0.906 1.875,2.812 0,1.938 -0.671,2.828 -1.89,2.828 -1.235,0 -1.907,-0.89 -1.907,-2.812 0,-1.922 0.688,-2.828 1.922,-2.828 z"
         style="fill:#332288;fill-opacity:1;fill-rule:nonzero;stroke:none"
         id="path264" /><path
         d="m 237.613,168.012 c -0.359,0.218 -0.656,0.328 -0.984,0.328 -0.641,0 -0.875,-0.36 -0.875,-1.094 v -4.406 h 1.609 l 0.141,-0.985 h -1.75 v -1.828 l -1.297,0.157 v 1.671 h -1.281 v 0.985 h 1.281 v 4.453 c 0,1.375 0.75,2.109 2,2.109 0.625,0 1.156,-0.172 1.641,-0.515 z"
         style="fill:#332288;fill-opacity:1;fill-rule:nonzero;stroke:none"
         id="path266" /><path
         d="m 249.52,159.59 h -1.344 l -2.422,8.203 -2.422,-8.203 h -1.437 l 3.109,9.64 h 1.437 z"
         style="fill:#332288;fill-opacity:1;fill-rule:nonzero;stroke:none"
         id="path268" /><path
         d="m 258.68,159.59 h -1.797 l -1.938,7.015 -2.031,-7.015 h -1.781 l -0.797,9.64 h 1.25 l 0.328,-4.25 c 0.109,-1.421 0.172,-2.921 0.172,-4.046 l 2.203,7.203 h 1.25 l 2.078,-7.188 c 0.016,0.797 0.125,2.422 0.25,3.922 l 0.328,4.359 h 1.297 z"
         style="fill:#332288;fill-opacity:1;fill-rule:nonzero;stroke:none"
         id="path270" /><g
         id="g276"><path
           d="m 41.84,127.41 h 106.383 c 4.808,0 8.683,3.871 8.683,8.684 v 44.508 c 0,4.808 -3.875,8.683 -8.683,8.683 H 41.84 c -4.809,0 -8.684,-3.875 -8.684,-8.683 v -44.508 c 0,-4.813 3.875,-8.684 8.684,-8.684 z"
           style="fill:none;stroke:#2e3436;stroke-width:0.749999;stroke-linecap:butt;stroke-linejoin:round;stroke-miterlimit:4;stroke-dasharray:none;stroke-opacity:1"
           id="path278" /></g><g
         id="g280"
         style="stroke:#332288;stroke-opacity:1;stroke-width:1.07475003;stroke-miterlimit:4;stroke-dasharray:none"><path
           d="M 40.777,145.516 H 148.031"
           style="fill:none;stroke:#332288;stroke-width:1.07475003;stroke-linecap:butt;stroke-linejoin:miter;stroke-miterlimit:4;stroke-dasharray:none;stroke-opacity:1"
           id="path282" /></g><g
         id="g284"
         transform="scale(-1)"
         style="fill:#332288;fill-opacity:1"><path
           d="m -140.012,-142.188 -9.011,-3.316 9.011,-3.312 c -1.441,1.957 -1.429,4.632 0,6.628 z"
           style="fill:#332288;fill-opacity:1;fill-rule:evenodd;stroke:#2e3436;stroke-width:0.515624;stroke-linecap:butt;stroke-linejoin:round;stroke-miterlimit:4;stroke-dasharray:none;stroke-opacity:1"
           id="path286" /></g><g
         id="g288"
         style="stroke:#332288;stroke-opacity:1;stroke-width:1.22475003;stroke-miterlimit:4;stroke-dasharray:4.89900012,4.89900012;stroke-dashoffset:0"><path
           d="M 40.777,161.973 H 148.031"
           style="fill:none;stroke:#332288;stroke-width:1.22475003;stroke-linecap:butt;stroke-linejoin:miter;stroke-miterlimit:4;stroke-dasharray:4.89900012,4.89900012;stroke-dashoffset:0;stroke-opacity:1"
           id="path290" /></g><g
         id="g292"
         transform="scale(-1)"
         style="fill:#332288;fill-opacity:1"><path
           d="m -140.012,-158.645 -9.011,-3.312 9.011,-3.316 c -1.441,1.957 -1.429,4.632 0,6.628 z"
           style="fill:#332288;fill-opacity:1;fill-rule:evenodd;stroke:#2e3436;stroke-width:0.515624;stroke-linecap:butt;stroke-linejoin:round;stroke-miterlimit:4;stroke-dasharray:none;stroke-opacity:1"
           id="path294" /></g><path
         d="m 58.98,142.867 h 1 v -7.297 h -1 v 3.047 h -3.078 v -3.047 h -1 v 7.297 h 1 v -3.422 h 3.078 z"
         style="fill:#332288;fill-opacity:1;fill-rule:nonzero;stroke:none"
         id="path296" /><path
         d="m 66.418,135.57 h -5.219 v 0.86 h 2.078 v 6.437 h 1 v -6.437 h 2.032 z"
         style="fill:#332288;fill-opacity:1;fill-rule:nonzero;stroke:none"
         id="path298" /><path
         d="m 71.895,135.57 h -5.219 v 0.86 h 2.078 v 6.437 h 1 v -6.437 h 2.031 z"
         style="fill:#332288;fill-opacity:1;fill-rule:nonzero;stroke:none"
         id="path300" /><path
         d="m 74.98,135.57 h -1.921 v 7.297 h 1 v -2.687 h 0.921 c 1.61,0 2.829,-0.688 2.829,-2.36 0,-1.531 -1.079,-2.25 -2.829,-2.25 z m -0.046,3.828 h -0.875 v -3.046 h 0.906 c 1.078,0 1.781,0.39 1.781,1.484 0,1.234 -0.719,1.562 -1.812,1.562 z"
         style="fill:#332288;fill-opacity:1;fill-rule:nonzero;stroke:none"
         id="path302" /><path
         d="m 85.91,142.867 h 1.188 l -1.969,-3.281 c 1.047,-0.313 1.578,-0.922 1.578,-1.953 0,-1.36 -0.953,-2.063 -2.766,-2.063 H 82.02 v 7.297 h 1 v -3.094 h 1.14 z m -2.89,-3.859 v -2.656 h 0.906 c 1.187,0 1.719,0.375 1.719,1.281 0,0.984 -0.594,1.375 -1.61,1.375 z"
         style="fill:#332288;fill-opacity:1;fill-rule:nonzero;stroke:none"
         id="path304" /><path
         d="m 92.477,139.914 c 0,-1.703 -0.797,-2.75 -2.297,-2.75 -1.438,0 -2.313,1.234 -2.313,2.969 0,1.765 0.906,2.859 2.469,2.859 0.766,0 1.391,-0.265 1.937,-0.703 l -0.421,-0.578 c -0.485,0.344 -0.891,0.484 -1.454,0.484 -0.796,0 -1.406,-0.5 -1.5,-1.781 h 3.563 c 0.016,-0.125 0.016,-0.312 0.016,-0.5 z m -0.954,-0.219 h -2.625 c 0.079,-1.25 0.563,-1.765 1.297,-1.765 0.891,0 1.328,0.609 1.328,1.703 z"
         style="fill:#332288;fill-opacity:1;fill-rule:nonzero;stroke:none"
         id="path306" /><path
         d="m 97.523,137.289 -0.078,0.625 c -0.375,-0.422 -0.875,-0.75 -1.562,-0.75 -1.36,0 -2.188,1.234 -2.188,2.938 0,1.734 0.75,2.89 2.11,2.89 0.672,0 1.218,-0.328 1.578,-0.859 v 2.875 l 0.984,0.109 v -7.828 z m -1.515,4.938 c -0.797,0 -1.266,-0.672 -1.266,-2.141 0,-1.453 0.516,-2.156 1.36,-2.156 0.546,0 0.937,0.281 1.281,0.734 v 2.734 c -0.36,0.516 -0.75,0.829 -1.375,0.829 z"
         style="fill:#332288;fill-opacity:1;fill-rule:nonzero;stroke:none"
         id="path308" /><path
         d="m 104.523,137.289 h -0.968 v 3.984 c -0.344,0.563 -0.797,0.954 -1.407,0.954 -0.593,0 -0.859,-0.282 -0.859,-1.047 v -3.891 h -0.969 v 4 c 0,1.094 0.578,1.703 1.563,1.703 0.797,0 1.312,-0.312 1.734,-1 l 0.078,0.875 h 0.828 z"
         style="fill:#332288;fill-opacity:1;fill-rule:nonzero;stroke:none"
         id="path310" /><path
         d="m 110.75,139.914 c 0,-1.703 -0.797,-2.75 -2.297,-2.75 -1.437,0 -2.312,1.234 -2.312,2.969 0,1.765 0.906,2.859 2.468,2.859 0.766,0 1.391,-0.265 1.938,-0.703 l -0.422,-0.578 c -0.484,0.344 -0.891,0.484 -1.453,0.484 -0.797,0 -1.406,-0.5 -1.5,-1.781 h 3.562 c 0.016,-0.125 0.016,-0.312 0.016,-0.5 z m -0.953,-0.219 h -2.625 c 0.078,-1.25 0.562,-1.765 1.297,-1.765 0.89,0 1.328,0.609 1.328,1.703 z"
         style="fill:#332288;fill-opacity:1;fill-rule:nonzero;stroke:none"
         id="path312" /><path
         d="m 113.875,137.164 c -1.156,0 -2,0.641 -2,1.531 0,0.782 0.469,1.297 1.672,1.625 1.094,0.282 1.359,0.485 1.359,1.047 0,0.531 -0.468,0.844 -1.187,0.844 -0.61,0 -1.125,-0.203 -1.578,-0.547 l -0.516,0.594 c 0.484,0.422 1.172,0.734 2.109,0.734 1.125,0 2.204,-0.531 2.204,-1.687 0,-0.985 -0.672,-1.453 -1.86,-1.75 -0.89,-0.219 -1.187,-0.438 -1.187,-0.891 0,-0.453 0.39,-0.734 1.015,-0.734 0.532,0 0.953,0.156 1.453,0.484 l 0.422,-0.625 c -0.531,-0.406 -1.109,-0.625 -1.906,-0.625 z"
         style="fill:#332288;fill-opacity:1;fill-rule:nonzero;stroke:none"
         id="path314" /><path
         d="m 119.758,141.945 c -0.281,0.172 -0.5,0.25 -0.735,0.25 -0.5,0 -0.671,-0.265 -0.671,-0.828 v -3.328 h 1.218 l 0.11,-0.75 h -1.328 v -1.375 l -0.985,0.109 v 1.266 h -0.969 v 0.75 h 0.969 v 3.359 c 0,1.047 0.563,1.594 1.516,1.594 0.469,0 0.875,-0.125 1.25,-0.375 z"
         style="fill:#332288;fill-opacity:1;fill-rule:nonzero;stroke:none"
         id="path316" /><path
         d="m 58.543,159.324 h 1 l 1.031,-7.297 h -1 l -0.437,3.047 H 56.09 l 0.437,-3.047 h -1 l -1.031,7.297 h 1 l 0.469,-3.422 h 3.062 z"
         style="fill:#332288;fill-opacity:1;fill-rule:nonzero;stroke:none"
         id="path318" /><path
         d="m 66.93,152.027 h -5.172 l -0.125,0.86 h 2.062 l -0.906,6.437 h 1 l 0.891,-6.437 h 2.015 z"
         style="fill:#332288;fill-opacity:1;fill-rule:nonzero;stroke:none"
         id="path320" /><path
         d="m 72.344,152.027 h -5.172 l -0.125,0.86 h 2.062 l -0.906,6.437 h 1 l 0.891,-6.437 h 2.015 z"
         style="fill:#332288;fill-opacity:1;fill-rule:nonzero;stroke:none"
         id="path322" /><path
         d="m 75.367,152.027 h -1.875 l -1.031,7.297 h 1 l 0.359,-2.687 h 0.953 c 2.329,0 3.141,-1.328 3.141,-2.688 0,-1.312 -0.953,-1.922 -2.547,-1.922 z m -0.578,3.828 h -0.844 l 0.422,-3.046 h 0.922 c 0.953,0 1.563,0.281 1.563,1.14 0,0.953 -0.407,1.906 -2.063,1.906 z"
         style="fill:#332288;fill-opacity:1;fill-rule:nonzero;stroke:none"
         id="path324" /><path
         d="m 86.699,153.84 c 0,-1.203 -0.828,-1.813 -2.5,-1.813 h -1.875 l -1.031,7.297 h 1 l 0.437,-3.094 h 1.141 l 1.359,3.094 h 1.094 l -1.469,-3.234 c 1.375,-0.406 1.844,-1.36 1.844,-2.25 z m -3.5,-1.031 h 0.938 c 1.047,0 1.515,0.281 1.515,1.031 0,0.734 -0.375,1.625 -1.75,1.625 h -1.078 z"
         style="fill:#332288;fill-opacity:1;fill-rule:nonzero;stroke:none"
         id="path326" /><path
         d="m 92.066,155.027 c 0,-0.734 -0.578,-1.406 -1.765,-1.406 -2.125,0 -2.875,2.031 -2.875,3.563 0,1.406 0.765,2.265 2.14,2.265 0.735,0 1.391,-0.234 2,-0.672 l -0.421,-0.656 c -0.5,0.359 -0.969,0.516 -1.485,0.516 -0.719,0 -1.187,-0.375 -1.219,-1.391 1.954,-0.203 3.625,-0.641 3.625,-2.219 z m -3.562,1.485 c 0.141,-1.016 0.625,-2.125 1.781,-2.125 0.61,0 0.766,0.406 0.766,0.672 0,0.953 -0.953,1.265 -2.547,1.453 z"
         style="fill:#332288;fill-opacity:1;fill-rule:nonzero;stroke:none"
         id="path328" /><path
         d="m 95.188,153.621 c -1.454,0 -2.11,0.844 -2.11,1.578 0,0.766 0.438,1.203 1.5,1.531 0.891,0.282 1.172,0.469 1.172,1.032 0,0.359 -0.266,0.906 -1.25,0.906 -0.625,0 -1.156,-0.234 -1.547,-0.594 l -0.562,0.578 c 0.421,0.422 1.078,0.797 2.062,0.797 1.156,0 2.313,-0.547 2.313,-1.781 0,-0.891 -0.532,-1.359 -1.578,-1.688 -0.75,-0.218 -1.126,-0.39 -1.126,-0.843 0,-0.469 0.438,-0.75 1.126,-0.75 0.484,0 0.953,0.172 1.374,0.5 l 0.469,-0.578 c -0.484,-0.422 -1.062,-0.688 -1.843,-0.688 z"
         style="fill:#332288;fill-opacity:1;fill-rule:nonzero;stroke:none"
         id="path330" /><path
         d="m 101.195,153.621 c -0.593,0 -1.125,0.172 -1.718,0.828 l 0.031,-0.703 H 98.68 l -1.11,7.859 0.969,-0.125 0.313,-2.203 c 0.359,0.11 0.687,0.172 1.062,0.172 2.188,0 2.969,-2.078 2.969,-3.64 0,-1.407 -0.641,-2.188 -1.688,-2.188 z m -0.312,0.766 c 0.578,0 1,0.343 1,1.343 0,1.25 -0.531,2.954 -1.906,2.954 -0.407,0 -0.641,-0.047 -1,-0.172 l 0.468,-3.313 c 0.391,-0.437 0.86,-0.812 1.438,-0.812 z"
         style="fill:#332288;fill-opacity:1;fill-rule:nonzero;stroke:none"
         id="path332" /><path
         d="m 106.914,153.621 c -2.172,0 -2.891,2.141 -2.891,3.516 0,1.422 0.75,2.312 2.141,2.312 2.203,0 2.891,-2.187 2.891,-3.531 0,-1.406 -0.75,-2.297 -2.141,-2.297 z m -0.031,0.781 c 0.75,0 1.156,0.438 1.156,1.422 0,1.063 -0.391,2.844 -1.844,2.844 -0.75,0 -1.156,-0.453 -1.156,-1.422 0,-1.062 0.391,-2.844 1.844,-2.844 z"
         style="fill:#332288;fill-opacity:1;fill-rule:nonzero;stroke:none"
         id="path334" /><path
         d="m 113.664,153.621 c -0.797,0 -1.422,0.484 -1.937,1.219 l 0.093,-1.094 h -0.828 l -0.781,5.578 h 0.953 l 0.453,-3.344 c 0.453,-0.796 1.078,-1.546 1.781,-1.546 0.438,0 0.704,0.203 0.594,0.984 l -0.547,3.906 h 0.969 l 0.547,-3.922 c 0.156,-1.109 -0.359,-1.781 -1.297,-1.781 z"
         style="fill:#332288;fill-opacity:1;fill-rule:nonzero;stroke:none"
         id="path336" /><path
         d="m 118.523,153.621 c -1.453,0 -2.109,0.844 -2.109,1.578 0,0.766 0.438,1.203 1.5,1.531 0.891,0.282 1.172,0.469 1.172,1.032 0,0.359 -0.266,0.906 -1.25,0.906 -0.625,0 -1.156,-0.234 -1.547,-0.594 l -0.562,0.578 c 0.421,0.422 1.078,0.797 2.062,0.797 1.156,0 2.313,-0.547 2.313,-1.781 0,-0.891 -0.532,-1.359 -1.579,-1.688 -0.75,-0.218 -1.125,-0.39 -1.125,-0.843 0,-0.469 0.438,-0.75 1.125,-0.75 0.485,0 0.954,0.172 1.375,0.5 l 0.469,-0.578 c -0.484,-0.422 -1.062,-0.688 -1.844,-0.688 z"
         style="fill:#332288;fill-opacity:1;fill-rule:nonzero;stroke:none"
         id="path338" /><path
         d="m 125.812,155.027 c 0,-0.734 -0.578,-1.406 -1.765,-1.406 -2.125,0 -2.875,2.031 -2.875,3.563 0,1.406 0.766,2.265 2.14,2.265 0.735,0 1.391,-0.234 2,-0.672 l -0.421,-0.656 c -0.5,0.359 -0.969,0.516 -1.485,0.516 -0.718,0 -1.187,-0.375 -1.218,-1.391 1.953,-0.203 3.624,-0.641 3.624,-2.219 z m -3.562,1.485 c 0.141,-1.016 0.625,-2.125 1.781,-2.125 0.61,0 0.766,0.406 0.766,0.672 0,0.953 -0.953,1.265 -2.547,1.453 z"
         style="fill:#332288;fill-opacity:1;fill-rule:nonzero;stroke:none"
         id="path340" /><path
         d="m 54.902,169.039 h 1 v 7.297 h -1 z"
         style="fill:#332288;fill-opacity:1;fill-rule:nonzero;stroke:none"
         id="path342" /><path
         d="m 60.605,170.633 c -0.734,0 -1.328,0.375 -1.718,0.953 l -0.078,-0.828 h -0.844 v 5.578 h 0.984 v -3.969 c 0.375,-0.594 0.797,-0.984 1.422,-0.984 0.531,0 0.875,0.25 0.875,1.094 v 3.859 h 0.969 v -4 c 0,-1.063 -0.594,-1.703 -1.61,-1.703 z"
         style="fill:#332288;fill-opacity:1;fill-rule:nonzero;stroke:none"
         id="path344" /><path
         d="m 66.625,175.414 c -0.281,0.172 -0.5,0.25 -0.734,0.25 -0.5,0 -0.672,-0.266 -0.672,-0.828 v -3.328 h 1.219 l 0.109,-0.75 h -1.328 v -1.375 l -0.985,0.109 v 1.266 h -0.968 v 0.75 h 0.968 v 3.359 c 0,1.047 0.563,1.594 1.516,1.594 0.469,0 0.875,-0.125 1.25,-0.375 z"
         style="fill:#332288;fill-opacity:1;fill-rule:nonzero;stroke:none"
         id="path346" /><path
         d="m 72.105,173.383 c 0,-1.703 -0.796,-2.75 -2.296,-2.75 -1.438,0 -2.313,1.234 -2.313,2.969 0,1.765 0.906,2.859 2.469,2.859 0.765,0 1.39,-0.266 1.937,-0.703 L 71.48,175.18 c -0.484,0.343 -0.89,0.484 -1.453,0.484 -0.797,0 -1.406,-0.5 -1.5,-1.781 h 3.563 c 0.015,-0.125 0.015,-0.313 0.015,-0.5 z m -0.953,-0.219 h -2.625 c 0.078,-1.25 0.563,-1.766 1.297,-1.766 0.891,0 1.328,0.61 1.328,1.704 z"
         style="fill:#332288;fill-opacity:1;fill-rule:nonzero;stroke:none"
         id="path348" /><path
         d="m 76.152,170.633 c -0.687,0 -1.203,0.422 -1.5,1.25 l -0.093,-1.125 h -0.844 v 5.578 h 0.984 v -3.188 c 0.235,-1.078 0.625,-1.562 1.328,-1.562 0.203,0 0.328,0.016 0.485,0.062 l 0.187,-0.953 c -0.172,-0.047 -0.375,-0.062 -0.547,-0.062 z"
         style="fill:#332288;fill-opacity:1;fill-rule:nonzero;stroke:none"
         id="path350" /><path
         d="m 80.445,170.633 c -0.734,0 -1.328,0.375 -1.718,0.953 l -0.079,-0.828 h -0.843 v 5.578 h 0.984 v -3.969 c 0.375,-0.594 0.797,-0.984 1.422,-0.984 0.531,0 0.875,0.25 0.875,1.094 v 3.859 h 0.969 v -4 c 0,-1.063 -0.594,-1.703 -1.61,-1.703 z"
         style="fill:#332288;fill-opacity:1;fill-rule:nonzero;stroke:none"
         id="path352" /><path
         d="m 87.777,175.039 v -2.562 c 0,-1.157 -0.609,-1.844 -1.953,-1.844 -0.625,0 -1.25,0.125 -1.937,0.375 l 0.25,0.703 c 0.562,-0.188 1.093,-0.297 1.5,-0.297 0.781,0 1.172,0.297 1.172,1.109 v 0.407 h -0.86 c -1.562,0 -2.453,0.656 -2.453,1.843 0,1 0.656,1.688 1.766,1.688 0.687,0 1.281,-0.25 1.672,-0.828 0.171,0.547 0.531,0.765 1.093,0.828 l 0.219,-0.672 c -0.281,-0.109 -0.469,-0.266 -0.469,-0.75 z m -2.281,0.688 c -0.641,0 -0.969,-0.344 -0.969,-1 0,-0.766 0.516,-1.141 1.547,-1.141 h 0.735 v 1.281 c -0.329,0.578 -0.75,0.86 -1.313,0.86 z"
         style="fill:#332288;fill-opacity:1;fill-rule:nonzero;stroke:none"
         id="path354" /><path
         d="m 90.898,176.461 c 0.282,0 0.563,-0.078 0.766,-0.188 l -0.25,-0.671 c -0.109,0.031 -0.219,0.062 -0.359,0.062 -0.266,0 -0.36,-0.156 -0.36,-0.453 v -6.813 l -0.968,0.11 v 6.719 c 0,0.796 0.453,1.234 1.171,1.234 z"
         style="fill:#332288;fill-opacity:1;fill-rule:nonzero;stroke:none"
         id="path356" /><path
         d="m 98.293,168.914 c -1.656,0 -3.031,1.297 -3.031,3.766 0,2.453 1.281,3.781 3.062,3.781 0.985,0 1.688,-0.406 2.078,-0.813 l -0.5,-0.64 c -0.422,0.297 -0.859,0.609 -1.547,0.609 -1.14,0 -2.015,-0.828 -2.015,-2.937 0,-2.203 0.922,-2.938 2.015,-2.938 0.516,0 0.954,0.156 1.407,0.531 l 0.562,-0.64 c -0.594,-0.469 -1.109,-0.719 -2.031,-0.719 z"
         style="fill:#332288;fill-opacity:1;fill-rule:nonzero;stroke:none"
         id="path358" /><path
         d="m 105.383,175.039 v -2.562 c 0,-1.157 -0.61,-1.844 -1.953,-1.844 -0.625,0 -1.25,0.125 -1.938,0.375 l 0.25,0.703 c 0.563,-0.188 1.094,-0.297 1.5,-0.297 0.781,0 1.172,0.297 1.172,1.109 v 0.407 h -0.859 c -1.563,0 -2.453,0.656 -2.453,1.843 0,1 0.656,1.688 1.765,1.688 0.688,0 1.281,-0.25 1.672,-0.828 0.172,0.547 0.531,0.765 1.094,0.828 l 0.219,-0.672 c -0.282,-0.109 -0.469,-0.266 -0.469,-0.75 z m -2.281,0.688 c -0.641,0 -0.969,-0.344 -0.969,-1 0,-0.766 0.515,-1.141 1.547,-1.141 h 0.734 v 1.281 c -0.328,0.578 -0.75,0.86 -1.312,0.86 z"
         style="fill:#332288;fill-opacity:1;fill-rule:nonzero;stroke:none"
         id="path360" /><path
         d="m 108.504,176.461 c 0.281,0 0.562,-0.078 0.766,-0.188 l -0.25,-0.671 c -0.11,0.031 -0.219,0.062 -0.36,0.062 -0.265,0 -0.359,-0.156 -0.359,-0.453 v -6.813 l -0.969,0.11 v 6.719 c 0,0.796 0.453,1.234 1.172,1.234 z"
         style="fill:#332288;fill-opacity:1;fill-rule:nonzero;stroke:none"
         id="path362" /><path
         d="m 111.609,176.461 c 0.282,0 0.563,-0.078 0.766,-0.188 l -0.25,-0.671 c -0.109,0.031 -0.219,0.062 -0.359,0.062 -0.266,0 -0.36,-0.156 -0.36,-0.453 v -6.813 l -0.968,0.11 v 6.719 c 0,0.796 0.453,1.234 1.171,1.234 z"
         style="fill:#332288;fill-opacity:1;fill-rule:nonzero;stroke:none"
         id="path364" /><g
         id="g366"
         style="stroke:#332288;stroke-opacity:1;stroke-width:1.22475003;stroke-miterlimit:4;stroke-dasharray:1.22475003,4.89900012;stroke-dashoffset:0"><path
           d="M 40.777,178.43 H 148.031"
           style="fill:none;stroke:#332288;stroke-width:1.22475003;stroke-linecap:butt;stroke-linejoin:miter;stroke-miterlimit:4;stroke-dasharray:1.22475003,4.89900012;stroke-dashoffset:0;stroke-opacity:1"
           id="path368" /></g><g
         id="g370"
         transform="scale(-1)"
         style="fill:#332288;fill-opacity:1"><path
           d="m -140.012,-175.102 -9.011,-3.312 9.011,-3.316 c -1.441,1.957 -1.429,4.636 0,6.628 z"
           style="fill:#332288;fill-opacity:1;fill-rule:evenodd;stroke:#2e3436;stroke-width:0.515624;stroke-linecap:butt;stroke-linejoin:round;stroke-miterlimit:4;stroke-dasharray:none;stroke-opacity:1"
           id="path372" /></g><g
         id="g374"
         style="stroke:#44aa99;stroke-opacity:1;stroke-width:2.34975006;stroke-miterlimit:4;stroke-dasharray:none"><path
           d="m 186.07,55.504 h 80.797 c 5.664,0 10.227,4.558 10.227,10.226 v 35.797 c 0,5.664 -4.563,10.227 -10.227,10.227 H 186.07 c -5.664,0 -10.226,-4.563 -10.226,-10.227 V 65.73 c 0,-5.668 4.562,-10.226 10.226,-10.226 z"
           style="fill:none;stroke:#44aa99;stroke-width:2.34975006;stroke-linecap:butt;stroke-linejoin:round;stroke-miterlimit:4;stroke-dasharray:none;stroke-opacity:1"
           id="path376" /></g><g
         id="g392"
         style="stroke-width:2.34975006;stroke-miterlimit:4;stroke-dasharray:none;stroke:#cc6677;stroke-opacity:1"><path
           d="m 374.883,54.754 h 80.797 c 5.664,0 10.226,4.558 10.226,10.226 v 35.797 c 0,5.664 -4.562,10.227 -10.226,10.227 h -80.797 c -5.664,0 -10.227,-4.563 -10.227,-10.227 V 64.98 c 0,-5.668 4.563,-10.226 10.227,-10.226 z"
           style="fill:none;stroke:#cc6677;stroke-width:2.34975006;stroke-linecap:butt;stroke-linejoin:round;stroke-miterlimit:4;stroke-dasharray:none;stroke-opacity:1"
           id="path394" /></g><path
         d="m 160.801,30.215 h 1.656 v 1.344 l -1.281,2.5 h -1.016 l 0.641,-2.5 z"
         style="fill:#332288;fill-opacity:1;fill-rule:nonzero;stroke:none"
         id="path406" /><g
         id="g86"
         transform="rotate(90)"
         style="fill:#332288;fill-opacity:1"><path
           d="m 120.238,-191.191 -9.011,-3.317 9.011,-3.312 c -1.437,1.957 -1.429,4.632 0,6.629 z"
           style="fill:#332288;fill-opacity:1;fill-rule:evenodd;stroke:#2e3436;stroke-width:0.515624;stroke-linecap:butt;stroke-linejoin:round;stroke-miterlimit:4;stroke-dasharray:none;stroke-opacity:1"
           id="path88" /></g><text
         xml:space="preserve"
         style="font-style:normal;font-weight:normal;font-size:20px;line-height:1.25;font-family:sans-serif;letter-spacing:0px;word-spacing:0px;fill:#000000;fill-opacity:1;stroke:none;stroke-width:0.75"
         x="186.67905"
         y="88.058998"
         id="text3181"><tspan
           sodipodi:role="line"
           id="tspan3179"
           style="font-style:normal;font-variant:normal;font-weight:600;font-stretch:normal;font-size:20px;font-family:'Fira Sans';-inkscape-font-specification:'Fira Sans Semi-Bold';fill:#44aa99;fill-opacity:1;stroke-width:0.75"
           x="186.67905"
           y="88.058998">compute</tspan></text><text
         xml:space="preserve"
         style="font-style:normal;font-weight:normal;font-size:20px;line-height:1.25;font-family:sans-serif;letter-spacing:0px;word-spacing:0px;fill:#000000;fill-opacity:1;stroke:none;stroke-width:0.75"
         x="387.65103"
         y="88.709"
         id="text14553"><tspan
           sodipodi:role="line"
           id="tspan14551"
           style="font-style:normal;font-variant:normal;font-weight:600;font-stretch:normal;font-size:20px;font-family:'Fira Sans';-inkscape-font-specification:'Fira Sans Semi-Bold';fill:#cc6677;fill-opacity:1;stroke-width:0.75"
           x="387.65103"
           y="88.709">image</tspan></text></g></g></svg>
